<svg width="15" height="15" viewBox="0 0 15 15" fill="none" xmlns="http://www.w3.org/2000/svg">
<path fill-rule="evenodd" clip-rule="evenodd" d="M8.25 6.75H10.5V8.25H8.25V10.5H6.75V8.25H4.5V6.75H6.75V4.5H8.25V6.75ZM7.5 13.5C4.19175 13.5 1.5 10.8082 1.5 7.5C1.5 4.19175 4.19175 1.5 7.5 1.5C10.8082 1.5 13.5 4.19175 13.5 7.5C13.5 10.8082 10.8082 13.5 7.5 13.5ZM7.5 0C3.35775 0 0 3.35775 0 7.5C0 11.6423 3.35775 15 7.5 15C11.6423 15 15 11.6423 15 7.5C15 3.35775 11.6423 0 7.5 0Z" fill="#109CF1"/>
</svg>
