<svg width="24" height="22" viewBox="0 0 24 22" fill="none" xmlns="http://www.w3.org/2000/svg">
<path fill-rule="evenodd" clip-rule="evenodd" d="M4.28073 16.0684V17.1396H5.35092C5.94166 17.1396 6.4211 17.6195 6.4211 18.2108C6.4211 18.8021 5.94166 19.282 5.35092 19.282H4.28073V20.3532C4.28073 20.9446 3.80129 21.4245 3.21055 21.4245C2.61981 21.4245 2.14037 20.9446 2.14037 20.3532V19.282H1.07018C0.479442 19.282 0 18.8021 0 18.2108C0 17.6195 0.479442 17.1396 1.07018 17.1396H2.14037V16.0684C2.14037 15.477 2.61981 14.9971 3.21055 14.9971C3.80129 14.9971 4.28073 15.477 4.28073 16.0684ZM12.8422 16.604C11.6618 16.604 10.7018 15.6431 10.7018 14.4615C10.7018 13.28 11.6618 12.3191 12.8422 12.3191C14.0226 12.3191 14.9826 13.28 14.9826 14.4615C14.9826 15.6431 14.0226 16.604 12.8422 16.604ZM12.8423 10.1766C10.4782 10.1766 8.56152 12.0952 8.56152 14.4615C8.56152 16.8279 10.4782 18.7464 12.8423 18.7464C15.2063 18.7464 17.123 16.8279 17.123 14.4615C17.123 12.0952 15.2063 10.1766 12.8423 10.1766ZM16.0528 4.2849H9.63165V3.21368C9.63165 2.62236 10.1111 2.14246 10.7018 2.14246H14.9826C15.5733 2.14246 16.0528 2.62236 16.0528 3.21368V4.2849ZM22.4739 4.28489V3.21367C22.4739 2.62235 21.9944 2.14245 21.4037 2.14245C20.8129 2.14245 20.3335 2.62235 20.3335 3.21367V4.28489H18.1931V2.14245C18.1931 0.958744 17.2353 0 16.0528 0H9.63167C8.44911 0 7.4913 0.958744 7.4913 2.14245V4.28489H4.28075C3.0982 4.28489 2.14038 5.24364 2.14038 6.42734V12.8547H4.28075V7.49856C4.28075 6.90725 4.76019 6.42734 5.35093 6.42734H20.3335C20.9242 6.42734 21.4037 6.90725 21.4037 7.49856V16.0683C21.4037 16.6597 20.9242 17.1396 20.3335 17.1396H19.2633V19.282H21.4037C22.5862 19.282 23.5441 18.3233 23.5441 17.1396V4.28489H22.4739Z" fill="#363B40"/>
</svg>
