<svg width="91" height="102" viewBox="0 0 91 102" fill="none" xmlns="http://www.w3.org/2000/svg">
<path d="M54.8704 32.4793C54.0411 32.4793 53.4883 31.7882 53.4883 31.0971V20.4549C53.4883 19.6256 54.1793 19.0728 54.8704 19.0728C55.6997 19.0728 56.2525 19.7638 56.2525 20.4549V31.0971C56.2525 31.7882 55.5615 32.4793 54.8704 32.4793Z" fill="#474747"/>
<path d="M64.1306 38.5607C63.3014 38.5607 62.7485 37.8696 62.7485 37.1785V27.2273C62.7485 26.3981 63.4396 25.8452 64.1306 25.8452C64.9599 25.8452 65.5128 26.5363 65.5128 27.2273V37.1785C65.5128 38.0078 64.8217 38.5607 64.1306 38.5607Z" fill="#474747"/>
<path d="M47.4068 16.3086L76.0165 39.9427C76.984 40.6338 77.6751 42.2923 77.6751 43.398V48.3736L47.2686 34.1379L47.4068 16.3086Z" fill="#74BAD7"/>
<path opacity="0.3" d="M75.3254 41.3249C76.2929 42.0159 76.984 43.6744 76.984 44.7801V48.0972L77.675 48.3736V43.398C77.675 42.1541 76.984 40.6338 76.0165 39.9427L47.4067 16.3086V18.3818L75.3254 41.3249Z" fill="white"/>
<path d="M46.3011 27.5039L65.9271 39.2519C66.2036 39.3901 66.2036 39.6665 66.0654 39.9429C65.9271 40.2193 65.6507 40.2193 65.3743 40.0811L44.7808 29.9917C44.0897 29.5771 43.6751 28.7478 44.0897 28.0567C44.5044 27.3657 45.4719 27.0893 46.3011 27.5039C46.1629 27.3657 46.3011 27.5039 46.3011 27.5039Z" fill="#2181B8"/>
<path d="M34.0003 32.4793C34.8295 32.4793 35.3824 31.7882 35.3824 31.0971V20.4549C35.3824 19.6256 34.6913 19.0728 34.0003 19.0728C33.171 19.0728 32.6182 19.7638 32.6182 20.4549V31.0971C32.6182 31.7882 33.3092 32.4793 34.0003 32.4793Z" fill="#474747"/>
<path d="M24.8783 38.5607C25.7076 38.5607 26.2604 37.8696 26.2604 37.1785V27.2273C26.2604 26.3981 25.5694 25.8452 24.8783 25.8452C24.0491 25.8452 23.4962 26.5363 23.4962 27.2273V37.1785C23.358 38.0078 24.0491 38.5607 24.8783 38.5607Z" fill="#474747"/>
<path d="M41.6018 16.3091L12.8538 39.9432C11.8864 40.6343 11.1953 42.2928 11.1953 43.3985V48.3741L41.6018 34.1384V16.3091Z" fill="#74BAD7"/>
<path opacity="0.3" d="M13.5449 41.3253C12.5774 42.0164 11.8864 43.6749 11.8864 44.7806V48.0977L11.1953 48.3741V43.3985C11.1953 42.1546 11.8864 40.6343 12.8538 39.9432L41.6018 16.3091V18.3823L13.5449 41.3253Z" fill="white"/>
<path d="M42.5694 27.5039L22.9434 39.2519C22.6669 39.3901 22.6669 39.6665 22.8051 39.9429C22.9434 40.2193 23.2198 40.2193 23.4962 40.0811L44.0897 29.9917C44.7807 29.5771 45.1954 28.7478 44.7808 28.0567C44.3661 27.3657 43.3986 27.0893 42.5694 27.5039C42.7076 27.3657 42.5694 27.5039 42.5694 27.5039Z" fill="#2181B8"/>
<path d="M41.8781 59.1545L38.6992 9.81301C38.6992 6.21951 41.187 0 44.5041 0C47.683 0 50.309 6.21951 50.1708 9.81301L47.1301 59.2927L41.8781 59.1545Z" fill="#B4E5FA"/>
<path d="M50.1711 9.81301L47.1304 59.2927H44.5044V0C47.6833 0 50.1711 6.21951 50.1711 9.81301Z" fill="#8ECBE6"/>
<path d="M56.3905 68.8294L44.919 65.0976L44.6426 64.9594V55.6993V55.4229L55.2849 62.6098C55.9759 63.0245 56.3905 63.992 56.3905 64.8212V68.8294Z" fill="#74BAD7"/>
<path d="M44.6425 64.9594L44.3661 65.0976L32.8945 68.8294V64.8212C32.8945 63.992 33.4474 63.0245 34.0002 62.6098L44.6425 55.4229V55.6993V64.9594Z" fill="#8ECBE6"/>
<path d="M48.2359 8.43112C47.6831 7.60185 47.2685 6.77258 46.5774 6.08153C45.8863 5.52868 45.1953 5.11405 44.366 5.11405C43.675 5.11405 42.8457 5.52868 42.1546 6.08153C41.4636 6.63437 41.0489 7.46364 40.4961 8.43112C40.4961 7.46364 40.7725 6.35795 41.3254 5.39047C41.6018 4.97584 42.0164 4.5612 42.5693 4.28478C43.1221 4.00836 43.675 3.87014 44.2278 3.73193C44.7806 3.73193 45.4717 3.87014 45.8863 4.14657C46.4392 4.42299 46.8538 4.83762 47.1302 5.25226C47.9595 6.35795 48.2359 7.46364 48.2359 8.43112Z" fill="#2181B8"/>
<path d="M44.9191 65.0976L44.6426 64.9594L44.3662 65.0976L44.6426 55.6992V55.561L44.9191 65.0976Z" fill="#2181B8"/>
<path d="M85.5527 44.9183C85.4144 45.4712 85.138 46.024 84.9998 46.5769C83.4795 51.2761 82.512 55.9752 81.9592 58.463C81.2681 61.2273 80.8535 65.3736 79.886 67.1704C78.9185 68.9671 69.9348 63.7151 68.9673 65.5118C69.5201 65.0972 69.9348 64.6826 70.4876 64.4061C72.9754 62.4712 73.9429 61.5037 74.7722 59.9834C75.6014 58.1866 78.2274 51.1378 78.6421 49.4793C79.0567 47.8208 81.1299 43.9509 81.8209 43.1216C82.512 42.2923 84.447 41.1866 85.5527 41.6013C86.1055 41.8777 86.3819 42.8452 85.5527 44.9183Z" fill="#F0BD89"/>
<path d="M89.5609 44.6421C89.2845 45.195 89.008 45.7478 88.7316 46.3007C86.5202 50.9999 84.9999 55.8373 84.1706 58.3251C83.0649 61.2275 82.2357 65.3738 80.9918 67.1706C79.7479 68.9673 68.8292 75.4633 67.5853 76.7072C66.2031 77.9511 62.6096 79.6096 62.6096 88.0405C62.6096 90.2519 63.7153 95.5039 63.7153 95.5039H48.0975C49.0649 93.2925 49.4796 90.8047 49.2031 86.7966C49.0649 85.4145 48.3739 79.0568 48.0975 77.8129C47.6828 74.3576 50.5853 71.1787 53.0731 69.6584C55.5609 68.1381 62.3332 62.6096 63.8536 60.3982C65.3739 58.1868 70.0731 51.4145 70.6259 50.1706C71.7316 48.0974 75.1869 47.6828 74.3576 51.9673C73.6666 56.1137 70.7641 62.3332 69.5202 64.1299C70.0731 63.7153 70.6259 63.4389 71.1788 63.1625C73.943 61.5039 75.1869 60.5364 76.1544 59.0161C77.2601 57.3576 80.8536 50.1706 81.4064 48.512C81.9592 46.8535 84.5853 42.9836 85.5527 42.1543C86.382 41.3251 88.5934 40.4958 89.5609 41.0486C90.3901 41.6015 90.5284 42.569 89.5609 44.6421Z" fill="#FDD4A6"/>
<path d="M69.9348 63.9917C69.2437 64.6828 68.9673 65.6502 68.6909 66.4795L67.8616 69.2437C67.7234 69.5202 67.7234 69.6584 67.5852 69.9348C67.447 70.2112 67.3088 70.3494 67.1706 70.6258C66.8941 71.0405 66.4795 71.4551 66.2031 71.7315C65.7885 72.008 65.512 72.4226 65.0974 72.699C64.6828 72.9754 64.4063 73.2519 63.9917 73.6665C64.4063 72.8372 65.2356 72.1462 65.7884 71.4551C66.0649 71.0405 66.3413 70.7641 66.6177 70.3494C66.7559 70.2112 66.8941 69.9348 66.8941 69.7966C67.0324 69.6584 67.0323 69.3819 67.1706 69.1055C67.447 68.138 67.7234 67.3088 68.138 66.3413C68.5527 65.512 69.1055 64.5445 69.9348 63.9917Z" fill="#F0BD89"/>
<path d="M89.5609 44.6417C89.2845 45.1946 89.008 45.7474 88.7316 46.3003C88.317 45.8856 87.9023 45.3328 87.9023 44.9181C87.9023 43.9507 88.7316 42.4303 89.4227 41.6011C90.1137 41.8775 90.6666 42.1539 89.5609 44.6417Z" fill="#FFEBCA"/>
<path d="M71.7316 49.3412C71.0405 50.4469 70.2112 51.6908 70.4877 52.3818C70.7641 53.0729 72.1462 53.3493 72.5608 53.2111C72.9755 53.0729 74.2194 50.8615 74.3576 50.1704C74.3576 49.6176 72.2844 48.3737 71.7316 49.3412Z" fill="#FFEBCA"/>
<path d="M64.5446 84.3086H46.8535V87.9021H64.5446V84.3086Z" fill="#E3E3E3"/>
<path d="M65.5122 86.6587H45.8862V102H65.5122V86.6587Z" fill="#474747"/>
<path opacity="0.5" d="M48.0978 86.6587L47.6832 96.4717L47.2686 86.6587H48.0978Z" fill="black"/>
<path d="M50.0325 91.6334C49.2032 91.6334 48.6504 91.0805 48.6504 90.2513C48.6504 89.422 49.2032 88.8691 50.0325 88.8691C50.7236 88.8691 51.4146 89.422 51.4146 90.2513C51.4146 91.0805 50.8618 91.6334 50.0325 91.6334Z" fill="#FDD52C"/>
<path opacity="0.3" d="M50.4473 89.8366C50.1708 89.5602 50.1708 89.2837 50.309 89.1455C50.4473 89.0073 50.7237 89.1455 50.8619 89.4219C51.1383 89.6984 51.1383 89.9748 51.0001 90.113C51.0001 90.2512 50.7237 90.113 50.4473 89.8366Z" fill="white"/>
<path d="M4.56106 44.9183C4.69927 45.4712 4.97569 46.024 5.11391 46.5769C6.63423 51.2761 7.60171 55.9752 8.15456 58.463C8.84561 61.2273 9.26025 65.3736 10.2277 67.1704C11.1952 68.9671 20.1789 63.7151 21.1464 65.5118C20.5936 65.0972 20.1789 64.6826 19.6261 64.4061C17.1383 62.4712 16.1708 61.5037 15.3415 59.9834C14.5123 58.1866 11.8863 51.1378 11.4716 49.4793C11.057 47.8208 8.98382 43.9509 8.29277 43.1216C7.60171 42.2923 5.66675 41.1866 4.56106 41.6013C4.14643 41.8777 3.87 42.8452 4.56106 44.9183Z" fill="#F0BD89"/>
<path d="M0.691057 44.6421C0.96748 45.195 1.2439 45.7478 1.52033 46.3007C3.73171 50.9999 5.25203 55.8373 6.0813 58.3251C7.18699 61.2275 8.01626 65.3738 9.26016 67.1706C10.5041 68.9673 21.4228 75.4633 22.6667 76.7072C24.0488 77.9511 27.6423 79.6096 27.6423 88.0405C27.6423 90.2519 26.5366 95.5039 26.5366 95.5039H42.0163C41.0488 93.2925 40.6341 90.8047 40.9106 86.7966C41.0488 85.4145 41.7398 79.0568 42.0163 77.8129C42.4309 74.3576 39.5285 71.1787 37.0406 69.6584C34.5528 68.1381 27.7805 62.6096 26.2602 60.3982C24.7398 58.1868 20.0406 51.4145 19.4878 50.1706C18.3821 48.0974 14.9268 47.6828 15.7561 51.9673C16.4472 56.1137 19.3496 62.3332 20.5935 64.1299C20.0406 63.7153 19.4878 63.4389 18.935 63.1625C16.1707 61.5039 14.9268 60.5364 13.9593 59.0161C12.8537 57.3576 9.26016 50.1706 8.70732 48.512C8.15447 46.8535 5.52845 42.9836 4.56098 42.1543C3.73171 41.3251 1.52033 40.4958 0.552845 41.0486C-0.138211 41.6015 -0.276423 42.569 0.691057 44.6421Z" fill="#FDD4A6"/>
<path d="M20.3169 63.9917C21.008 64.6828 21.2844 65.6502 21.5608 66.4795L22.3901 69.2437C22.5283 69.5202 22.5283 69.6584 22.6665 69.9348C22.8047 70.2112 22.9429 70.3494 23.0811 70.6258C23.3575 71.0405 23.7722 71.4551 24.0486 71.7315C24.4632 72.008 24.7397 72.4226 25.1543 72.699C25.5689 72.9754 25.8454 73.2519 26.26 73.6665C25.8454 72.8372 25.0161 72.1462 24.4632 71.4551C24.1868 71.0405 23.9104 70.7641 23.634 70.3494C23.4958 70.2112 23.3575 69.9348 23.3575 69.7966C23.2193 69.6584 23.2193 69.3819 23.0811 69.1055C22.8047 68.138 22.5283 67.3088 22.1136 66.3413C21.699 65.512 21.1462 64.5445 20.3169 63.9917Z" fill="#F0BD89"/>
<path d="M0.691177 44.6417C0.9676 45.1946 1.24402 45.7474 1.52045 46.3003C1.93508 45.8856 2.34971 45.3328 2.34971 44.9181C2.34971 43.9507 1.52045 42.4303 0.829389 41.6011C0.138332 41.8775 -0.552725 42.1539 0.691177 44.6417Z" fill="#FFEBCA"/>
<path d="M18.5205 49.3412C19.2116 50.4469 20.0409 51.6908 19.7645 52.3818C19.488 53.0729 18.1059 53.3493 17.6913 53.2111C17.2766 53.0729 16.0327 50.8615 15.8945 50.1704C15.8945 49.6176 17.8295 48.3737 18.5205 49.3412Z" fill="#FFEBCA"/>
<path d="M43.3981 84.3086H25.707V87.9021H43.3981V84.3086Z" fill="#E3E3E3"/>
<path d="M44.3658 86.6587H24.7397V102H44.3658V86.6587Z" fill="#474747"/>
<path opacity="0.5" d="M42.1543 86.6587L42.5689 96.4717L42.9836 86.6587H42.1543Z" fill="black"/>
<path d="M40.0813 91.6334C40.9106 91.6334 41.4634 91.0805 41.4634 90.2513C41.4634 89.422 40.9106 88.8691 40.0813 88.8691C39.2521 88.8691 38.6992 89.422 38.6992 90.2513C38.6992 91.0805 39.3903 91.6334 40.0813 91.6334Z" fill="#FDD52C"/>
<path opacity="0.3" d="M39.8048 89.8366C40.0812 89.5602 40.0812 89.2837 39.943 89.1455C39.8048 89.0073 39.5283 89.1455 39.3901 89.4219C39.1137 89.6984 39.1137 89.9748 39.2519 90.113C39.2519 90.2512 39.5283 90.113 39.8048 89.8366Z" fill="white"/>
</svg>
