<svg width="15" height="15" viewBox="0 0 15 15" fill="none" xmlns="http://www.w3.org/2000/svg">
<path fill-rule="evenodd" clip-rule="evenodd" d="M10.0958 7.86455L12.7425 7.8677C13.1833 7.86823 13.9543 7.5117 13.9538 7.07083C13.9532 6.62988 13.1814 6.27167 12.7404 6.27107L10.0939 6.26792L8.03031 1.64355C7.91315 1.34803 7.71718 1.12063 7.42861 1.12021C7.14003 1.11994 6.98501 1.35366 6.98528 1.64223L7.57978 6.26493L4.22971 6.46792L4.18982 6.46897C3.87452 5.90016 2.9905 4.66848 2.9905 4.66848L2.40808 4.66296L3.05994 7.0578L2.38399 9.45508L2.99619 9.4471C2.99619 9.4471 3.87655 8.21884 4.19072 7.65056L4.23104 7.65054L7.58175 7.86149L6.99817 12.4829C6.99859 12.7714 7.15417 13.0055 7.44274 13.0058C7.73131 13.0062 7.92667 12.7793 8.0432 12.4842L10.0958 7.86455Z" fill="#90A8BE"/>
</svg>
