<svg width="79" height="69" viewBox="0 0 79 69" fill="none" xmlns="http://www.w3.org/2000/svg">
<path d="M46.1298 11.7137V19.7483C46.1298 19.9966 45.9503 20.2223 45.7036 20.2223H29.4375C29.3253 20.2223 29.2132 20.1545 29.1234 20.0643L25.8029 15.9116C25.6458 15.731 25.6683 15.4376 25.8029 15.2796L29.1234 11.4203C29.2132 11.3301 29.3029 11.2849 29.4151 11.2849H45.6811C45.9279 11.2624 46.1298 11.4655 46.1298 11.7137Z" fill="#FBDE06"/>
<path d="M44.9632 20.2225H29.4375C29.3253 20.2225 29.2132 20.1548 29.1234 20.0645L25.8029 15.9118C25.6458 15.7313 25.6683 15.4379 25.8029 15.2799L29.1234 11.4206C29.2132 11.3303 29.3029 11.2852 29.4151 11.2852H30.7164C30.492 13.5421 30.2901 17.8302 33.9696 18.2816C38.9728 18.8909 44.8959 18.5072 44.8959 18.5072L44.9632 20.2225Z" fill="#F9BF08"/>
<path d="M64.5052 6.45499L63.1366 8.17024L61.1622 10.6077C61.0725 10.698 60.9603 10.7657 60.8481 10.7657H44.6045C44.3801 10.7657 44.1782 10.5626 44.1782 10.2917V2.25715C44.1782 2.00889 44.3577 1.7832 44.6045 1.7832H60.8705C60.9827 1.7832 61.0949 1.82834 61.1846 1.91862L64.5052 5.77792C64.6398 5.98104 64.6398 6.27444 64.5052 6.45499Z" fill="#EF4047"/>
<path d="M63.1366 8.17024L61.1622 10.6077C61.0725 10.698 60.9603 10.7657 60.8481 10.7657H44.6045C44.3801 10.7657 44.1782 10.5626 44.1782 10.2917V2.25715C44.1782 2.00889 44.3577 1.7832 44.6045 1.7832H49.5404C49.3834 3.63386 49.7199 7.98969 54.9923 8.10253C58.8962 8.21538 61.5885 8.19281 63.1366 8.17024Z" fill="#CC2E41"/>
<path d="M46.4436 1.48956V63.1256C46.4436 63.9381 45.7705 64.6151 44.9628 64.6151H44.1775C43.3699 64.6151 42.6968 63.9606 42.6968 63.1256V1.48956C42.6968 0.880192 43.0558 0.361104 43.5718 0.135414C43.7737 0.0451381 43.9756 0 44.2 0H44.9852C45.7929 0 46.4436 0.654502 46.4436 1.48956Z" fill="#562E0A"/>
<path d="M46.4436 35.4106V39.5859L42.7192 39.4053V1.4894C42.7192 0.880032 43.0782 0.360944 43.5942 0.135254C44.0878 5.57439 43.4596 34.2145 43.9981 34.9141C44.3346 35.3204 45.4789 35.4106 46.4436 35.4106Z" fill="#3A1B01"/>
<g clip-path="url(#clip0)">
<path d="M5.68768 68.5338C7.11946 68.5338 8.28015 67.3829 8.28015 65.9632C8.28015 64.5435 7.11946 63.3926 5.68768 63.3926C4.2559 63.3926 3.09521 64.5435 3.09521 65.9632C3.09521 67.3829 4.2559 68.5338 5.68768 68.5338Z" fill="#58585A"/>
<path d="M26.5861 68.5338C28.0179 68.5338 29.1786 67.3829 29.1786 65.9632C29.1786 64.5435 28.0179 63.3926 26.5861 63.3926C25.1543 63.3926 23.9937 64.5435 23.9937 65.9632C23.9937 67.3829 25.1543 68.5338 26.5861 68.5338Z" fill="#58585A"/>
<path d="M12.7772 5.89453H11.1899V17.5673H12.7772V5.89453Z" fill="#58585A"/>
<path d="M12.7772 5.89453H11.1899V8.01923H12.7772V5.89453Z" fill="#3A3A3A"/>
<path d="M12.7772 14.8394H11.1899V17.5411H12.7772V14.8394Z" fill="#3A3A3A"/>
<path d="M22.2479 5.89453H20.6606V17.5673H22.2479V5.89453Z" fill="#58585A"/>
<path d="M22.2479 5.89453H20.6606V8.01923H22.2479V5.89453Z" fill="#3A3A3A"/>
<path d="M22.2479 14.8394H20.6606V17.5411H22.2479V14.8394Z" fill="#3A3A3A"/>
<path d="M22.7236 6.73379C22.6971 7.12725 21.7712 7.10102 21.1099 7.07479C20.8189 7.04856 20.5808 7.02233 20.5014 7.02233C20.2105 7.02233 20.4221 5.73702 20.4221 4.95009C20.4221 4.58286 14.3906 4.74024 13.5441 4.74024C13.0415 4.74024 13.2531 6.15671 13.2531 6.81248C13.2531 7.15348 12.8299 7.20595 12.2743 7.20595C11.8246 7.20595 11.2956 7.15348 10.8987 7.23218C10.4755 7.31087 10.7665 4.24186 10.7665 3.53362C10.7665 2.95654 22.3532 2.98277 22.6707 3.61231C22.8029 3.90085 22.8029 5.73702 22.7236 6.73379Z" fill="#EF4047"/>
<path d="M21.1097 4.42556V7.07488C20.8187 7.04865 20.5807 7.02242 20.5013 7.02242C20.2103 7.02242 20.4219 5.73711 20.4219 4.95018C20.4219 4.58295 14.3905 4.74033 13.544 4.74033C13.0413 4.74033 13.253 6.1568 13.253 6.81258C13.253 7.15358 12.8297 7.20604 12.2742 7.20604C12.1948 5.99942 12.1419 4.21572 12.5652 4.16325C13.1736 4.08456 21.1097 3.71733 21.1097 4.42556Z" fill="#C62430"/>
<path d="M32.6968 21.6591V58.9069C32.6968 61.976 30.1837 64.4417 27.0886 64.4417H5.58174C2.5131 64.4679 0 61.976 0 58.9332V21.6853C0 18.6163 2.5131 16.1506 5.58174 16.1506H27.0886C30.1837 16.1244 32.6968 18.6163 32.6968 21.6591Z" fill="#EF4047"/>
<path d="M7.27472 61.7925C6.40175 61.7925 5.6875 61.0843 5.6875 60.2187V20.2428C5.6875 19.3772 6.40175 18.6689 7.27472 18.6689C8.1477 18.6689 8.86195 19.3772 8.86195 20.2428V60.1924C8.86195 61.0843 8.1477 61.7925 7.27472 61.7925Z" fill="#F25C67"/>
<path d="M16.4808 61.7925C15.6078 61.7925 14.8936 61.0843 14.8936 60.2187V20.2428C14.8936 19.3772 15.6078 18.6689 16.4808 18.6689C17.3538 18.6689 18.068 19.3772 18.068 20.2428V60.1924C18.068 61.0843 17.3538 61.7925 16.4808 61.7925Z" fill="#F25C67"/>
<path d="M25.6863 61.7925C24.8134 61.7925 24.0991 61.0843 24.0991 60.2187V20.2428C24.0991 19.3772 24.8134 18.6689 25.6863 18.6689C26.5593 18.6689 27.2736 19.3772 27.2736 20.2428V60.1924C27.2736 61.0843 26.5593 61.7925 25.6863 61.7925Z" fill="#F25C67"/>
<path opacity="0.23" d="M32.6968 54.9731V58.934C32.6968 62.003 30.1837 64.4687 27.0886 64.4687H5.58174C2.5131 64.4687 0 61.9767 0 58.934V21.6861C0 18.6171 2.5131 16.1514 5.58174 16.1514H9.41753C8.62391 23.5222 6.82506 51.3008 17.7505 54.7895C21.2159 55.8912 32.6968 54.9731 32.6968 54.9731Z" fill="#820016"/>
</g>
<path d="M65.3364 34.3341V39.367H63.0479V36.591C63.0479 36.1171 62.6665 35.7334 62.1729 35.7334H53.1088C52.6376 35.7334 52.2562 36.1171 52.2562 36.591V39.367H49.9678V34.3341C49.9678 33.8602 50.3492 33.4765 50.8203 33.4765H64.4838C64.955 33.4539 65.3364 33.8602 65.3364 34.3341Z" fill="#FCB040"/>
<path d="M65.3364 37.9225V39.3669H63.0479V36.5909C63.0479 36.117 62.6665 35.7333 62.1729 35.7333H53.1088C52.6376 35.7333 52.2562 36.117 52.2562 36.5909V39.3669H49.9678V37.9676C50.5735 38.0353 51.3812 38.0805 51.4037 37.8773C51.471 37.5388 51.1793 34.9208 51.6953 34.8757C52.6376 34.808 63.2947 34.3791 63.6312 34.8757C64.1921 35.6656 63.6985 37.9225 64.0351 37.9225H65.3364Z" fill="#EA992F"/>
<path d="M79.0003 40.6988V64.0352C79.0003 65.1862 78.0804 66.1115 76.9362 66.1115H37.9874C36.8432 66.1115 35.9233 65.1862 35.9233 64.0352V40.6988C35.9233 39.5478 36.8432 38.6225 37.9874 38.6225H76.9362C78.0804 38.5999 79.0003 39.5478 79.0003 40.6988Z" fill="#C4996C"/>
<path d="M46.7376 66.1113H43.0806C43.0581 60.3787 43.0357 42.7297 43.0581 38.5996H46.5133L46.7376 66.1113Z" fill="#B78253"/>
<path d="M68.5673 38.5996L68.4551 66.1113H65.8301V38.5996H68.5673Z" fill="#B78253"/>
<path d="M41.981 38.5996C41.0163 42.7749 37.8753 43.4294 35.9233 43.4068V40.6985C35.9233 39.5475 36.8432 38.6222 37.9874 38.6222H41.981V38.5996Z" fill="#FCB040"/>
<path d="M79.0001 40.6988V43.4071C77.0482 43.3168 74.2661 42.4818 73.3911 38.6225H76.936C78.0802 38.5999 79.0001 39.5478 79.0001 40.6988Z" fill="#FCB040"/>
<path d="M79.0001 61.5298V64.1929C79.0001 65.2537 78.1475 66.1113 77.093 66.1113H73.7949C74.5577 62.41 77.1603 61.5975 79.0001 61.5298Z" fill="#FCB040"/>
<path d="M41.4425 66.066H37.7181C36.6636 66.066 35.811 65.2084 35.811 64.1476V61.4845C37.6283 61.4619 40.5899 62.0713 41.4425 66.066Z" fill="#FCB040"/>
<path d="M48.4424 38.5996H44.0674V66.1113H48.4424V38.5996Z" fill="#FCB040"/>
<path d="M71.1924 38.5996H66.8174V66.1113H71.1924V38.5996Z" fill="#FCB040"/>
<path opacity="0.2" d="M79.0003 62.5678V64.0348C79.0003 65.1858 78.0804 66.1111 76.9362 66.1111H37.9874C36.8432 66.1111 35.9233 65.1858 35.9233 64.0348V40.6984C35.9233 39.5474 36.8432 38.6221 37.9874 38.6221H48.8913C48.6221 42.9779 48.0836 60.5592 56.183 62.139C63.1381 63.4706 74.0195 62.9289 79.0003 62.5678Z" fill="#B78253"/>
<defs>
<clipPath id="clip0">
<rect width="32.6968" height="65.3936" fill="white" transform="translate(0 3.11377)"/>
</clipPath>
</defs>
</svg>
