<svg width="86" height="99" viewBox="0 0 86 99" fill="none" xmlns="http://www.w3.org/2000/svg">
<path d="M44.2684 10.1953H41.5854V89.6099H44.2684V10.1953Z" fill="#D2D2D2"/>
<path opacity="0.3" d="M42.9269 10.1953H42.1221V89.6099H42.9269V10.1953Z" fill="white"/>
<path d="M42.9271 7.91464C43.4636 7.91464 43.8661 7.5122 43.8661 7.10976V0.939025C43.8661 0.40244 43.4636 0 42.9271 0C42.3905 0 42.1222 0.40244 42.1222 0.939025V7.10976C41.988 7.5122 42.3905 7.91464 42.9271 7.91464Z" fill="#474747"/>
<path opacity="0.2" d="M41.5854 8.04924V36.0858C41.9879 36.0858 42.3903 36.0858 42.9269 36.0858C43.3294 36.0858 43.8659 36.0858 44.2684 36.0858V8.04924L44.1342 7.9151C43.7318 7.64681 43.3294 7.24437 42.9269 6.97607C42.3903 7.24437 41.9879 7.6468 41.5854 8.04924C41.5854 7.9151 41.5854 8.04924 41.5854 8.04924Z" fill="black"/>
<path d="M42.793 5.09717C53.2564 13.0118 56.7442 24.1459 57.2808 42.524C57.2808 42.7923 57.4149 43.1947 57.4149 43.463C57.4149 38.3655 63.9881 34.2069 71.9027 34.2069C78.3417 34.2069 83.7076 36.8898 85.7198 40.5118C81.8296 20.2557 64.1222 5.09717 42.793 5.09717Z" fill="#FAAE1C"/>
<path d="M0 40.3785C2.0122 36.7565 7.37805 34.0736 13.8171 34.0736C21.8659 34.0736 28.3049 38.2322 28.3049 43.3297C28.3049 43.0614 28.3049 42.659 28.439 42.3907C28.9756 24.0126 32.3293 12.8785 42.9268 4.96387C21.5976 5.09801 3.89024 20.2565 0 40.3785Z" fill="#F9D658"/>
<path d="M28.439 42.3907C29.2438 37.6956 35.4146 34.0736 42.9268 34.0736C50.439 34.0736 56.6097 37.6956 57.4146 42.3907C56.878 24.0126 53.5243 12.8785 42.9268 4.96387C32.3292 12.8785 28.9756 24.0126 28.439 42.3907Z" fill="#F7C23E"/>
<path d="M35.8169 98.9997C30.8535 98.9997 26.8291 94.9753 26.8291 90.146C26.8291 89.0729 27.634 88.268 28.7072 88.268C29.7803 88.268 30.5852 89.0729 30.5852 90.146C30.5852 92.9631 32.8657 95.2436 35.6828 95.2436C38.4998 95.2436 40.7803 92.9631 40.7803 90.146V83.5729C40.7803 82.4997 41.5852 81.6948 42.6584 81.6948C43.7315 81.6948 44.5364 82.4997 44.5364 83.5729V90.146C44.8047 94.9753 40.7803 98.9997 35.8169 98.9997Z" fill="#474747"/>
<path d="M35.8173 96.0489C37.9637 96.0489 39.8417 94.4392 40.3783 92.1587C39.5734 93.9026 37.8295 95.1099 35.6832 95.1099C33.8051 95.1099 32.1954 94.0367 31.2563 92.5611C32.0612 94.5733 33.8051 96.0489 35.8173 96.0489Z" fill="black"/>
</svg>
