<svg width="37" height="16" viewBox="0 0 37 16" fill="none" xmlns="http://www.w3.org/2000/svg">
<path d="M8.29318 15.9482C9.70246 15.9482 10.8449 14.8057 10.8449 13.3964C10.8449 11.9872 9.70246 10.8447 8.29318 10.8447C6.8839 10.8447 5.74146 11.9872 5.74146 13.3964C5.74146 14.8057 6.8839 15.9482 8.29318 15.9482Z" fill="#FFC468"/>
<path d="M28.707 15.9482C30.1163 15.9482 31.2587 14.8057 31.2587 13.3964C31.2587 11.9872 30.1163 10.8447 28.707 10.8447C27.2977 10.8447 26.1553 11.9872 26.1553 13.3964C26.1553 14.8057 27.2977 15.9482 28.707 15.9482Z" fill="#FFC468"/>
<path d="M36.5637 7.68835L28.9901 5.16405L22.0488 0.535862C21.5232 0.185 20.9114 0 20.2792 0H9.87007C8.65417 0 7.56076 0.675569 7.01724 1.76324L5.34714 5.10345H1.91379C0.858655 5.10345 0 5.9621 0 7.01724V9.56897C0 10.6241 0.858655 11.4828 1.91379 11.4828H5.16788C5.46452 12.9366 6.7525 14.0345 8.2931 14.0345C9.83371 14.0345 11.1217 12.9366 11.4183 11.4828H25.5817C25.8783 12.9366 27.1663 14.0345 28.7069 14.0345C30.2475 14.0345 31.5355 12.9366 31.8321 11.4828H36.3621C36.7148 11.4828 37 11.1976 37 10.8448V8.2931C37 8.01816 36.8246 7.7751 36.5637 7.68835ZM21.3407 1.59738L26.5998 5.10345H16.5862V1.27586H20.2792C20.6588 1.27586 21.0256 1.38686 21.3407 1.59738ZM8.1585 2.33355C8.48448 1.68159 9.14091 1.27586 9.87007 1.27586H15.3103V5.10345H6.77355L8.1585 2.33355ZM8.2931 12.7586C7.23797 12.7586 6.37931 11.9 6.37931 10.8448C6.37931 9.78969 7.23797 8.93104 8.2931 8.93104C9.34824 8.93104 10.2069 9.78969 10.2069 10.8448C10.2069 11.9 9.34824 12.7586 8.2931 12.7586ZM28.7069 12.7586C27.6518 12.7586 26.7931 11.9 26.7931 10.8448C26.7931 9.78969 27.6518 8.93104 28.7069 8.93104C29.762 8.93104 30.6207 9.78969 30.6207 10.8448C30.6207 11.9 29.762 12.7586 28.7069 12.7586ZM35.7241 10.2069H31.8966C31.8966 10.2063 31.8966 10.2056 31.8966 10.205C31.8966 10.1935 31.857 10.1827 31.8544 10.1712C31.8149 9.98745 31.7428 9.81074 31.6733 9.64041C31.6484 9.57917 31.6063 9.52304 31.5776 9.46371C31.5214 9.3476 31.4589 9.23342 31.3894 9.12497C31.3486 9.06181 31.3001 9.00312 31.2548 8.94316C31.1833 8.8481 31.1093 8.75624 31.0283 8.66948C30.9747 8.61271 30.9186 8.55976 30.8612 8.50681C30.7757 8.42771 30.6858 8.35435 30.592 8.28481C30.5295 8.23824 30.4669 8.19359 30.4006 8.15212C30.2992 8.08833 30.1933 8.03283 30.0848 7.98052C30.0172 7.94798 29.9515 7.91354 29.8813 7.88547C29.7588 7.83635 29.6306 7.80062 29.5011 7.76745C29.438 7.75086 29.378 7.72917 29.3129 7.71641C29.1164 7.67814 28.9149 7.65517 28.7069 7.65517C28.4989 7.65517 28.2973 7.67814 28.1009 7.71641C28.0364 7.72917 27.9758 7.75086 27.9127 7.76745C27.7832 7.80126 27.6549 7.83698 27.5325 7.88547C27.4623 7.91354 27.3966 7.94798 27.329 7.98052C27.2205 8.03283 27.1146 8.08833 27.0132 8.15212C26.9468 8.19359 26.8843 8.23888 26.8218 8.28481C26.728 8.35435 26.6387 8.42771 26.5526 8.50681C26.4952 8.55976 26.4397 8.61271 26.3861 8.66948C26.3051 8.7556 26.2317 8.8481 26.1603 8.94316C26.115 9.00312 26.0684 9.06181 26.0276 9.12497C25.9581 9.23278 25.9 9.34697 25.8439 9.46371C25.8152 9.52304 25.7813 9.57917 25.7565 9.64041C25.6869 9.81074 25.5989 9.98809 25.5587 10.1712C25.5568 10.1833 25.5172 10.1935 25.5172 10.205C25.5172 10.2056 25.5172 10.2063 25.5172 10.2069H11.4828C11.4828 10.2063 11.4828 10.2056 11.4828 10.205C11.4828 10.1935 11.4432 10.1833 11.4407 10.1718C11.4011 9.98809 11.329 9.81074 11.2588 9.64041C11.234 9.57981 11.1925 9.52431 11.1638 9.46562C11.107 9.34888 11.0445 9.23342 10.975 9.12497C10.9341 9.06181 10.8863 9.00376 10.841 8.94379C10.7696 8.84874 10.6949 8.75624 10.6139 8.66948C10.5603 8.61271 10.5042 8.55976 10.4468 8.50681C10.3613 8.42771 10.2713 8.35435 10.1776 8.28481C10.115 8.23824 10.0519 8.19359 9.98553 8.15148C9.8841 8.08769 9.77884 8.03283 9.6704 7.98052C9.60278 7.94798 9.53643 7.9129 9.46626 7.88483C9.34378 7.83635 9.21619 7.79998 9.08669 7.76681C9.02353 7.75022 8.96293 7.7279 8.89786 7.71578C8.70266 7.67814 8.50043 7.65517 8.2931 7.65517C8.08578 7.65517 7.88355 7.67814 7.68707 7.71641C7.622 7.72917 7.56203 7.75086 7.49824 7.76745C7.36874 7.80062 7.24116 7.83698 7.11867 7.88547C7.0485 7.91354 6.98216 7.94798 6.91453 7.98116C6.80609 8.03347 6.70083 8.08833 6.5994 8.15212C6.53305 8.19422 6.47053 8.23888 6.40738 8.28545C6.3136 8.35498 6.22429 8.42835 6.13817 8.50745C6.08076 8.5604 6.02526 8.61335 5.97167 8.67012C5.89066 8.75688 5.81666 8.84874 5.74521 8.94443C5.70055 9.0044 5.65398 9.06245 5.61316 9.1256C5.54298 9.23405 5.48493 9.34888 5.42815 9.46626C5.39945 9.52495 5.36628 9.58045 5.3414 9.64105C5.27122 9.81138 5.18319 9.98872 5.14364 10.1724C5.143 10.1833 5.10345 10.1935 5.10345 10.205C5.10345 10.2056 5.10345 10.2063 5.10345 10.2069H1.91379C1.56229 10.2069 1.27586 9.9211 1.27586 9.56897V7.01724C1.27586 6.6651 1.56229 6.37931 1.91379 6.37931H5.74138H28.6036L35.7241 8.75305V10.2069Z" fill="white"/>
<path d="M18.5 7.65527H15.9482C15.5961 7.65527 15.3103 7.94043 15.3103 8.2932C15.3103 8.64598 15.5961 8.93113 15.9482 8.93113H18.5C18.8521 8.93113 19.1379 8.64598 19.1379 8.2932C19.1379 7.94043 18.8521 7.65527 18.5 7.65527Z" fill="white"/>
</svg>
