<svg width="15" height="15" viewBox="0 0 15 15" fill="none" xmlns="http://www.w3.org/2000/svg">
<path fill-rule="evenodd" clip-rule="evenodd" d="M8.25 8.25V10.5C8.25 10.914 7.914 11.25 7.5 11.25C7.086 11.25 6.75 10.914 6.75 10.5V9C6.75 8.586 6.414 8.25 6 8.25C5.586 8.25 5.25 7.914 5.25 7.5C5.25 7.086 5.586 6.75 6 6.75H6.75C7.57875 6.75 8.25 7.42125 8.25 8.25ZM13.5 12.75C13.5 13.164 13.164 13.5 12.75 13.5H2.25C1.836 13.5 1.5 13.164 1.5 12.75V5.25C1.5 4.836 1.836 4.5 2.25 4.5H12.75C13.164 4.5 13.5 4.836 13.5 5.25V12.75ZM13.5 1.5V0.75C13.5 0.336 13.164 0 12.75 0C12.336 0 12 0.336 12 0.75V1.5H8.25V0.75C8.25 0.336 7.914 0 7.5 0C7.086 0 6.75 0.336 6.75 0.75V1.5H3V0.75C3 0.336 2.664 0 2.25 0C1.836 0 1.5 0.336 1.5 0.75V1.5C0.67125 1.5 0 2.17125 0 3V13.5C0 14.328 0.67125 15 1.5 15H13.5C14.3287 15 15 14.328 15 13.5V3C15 2.17125 14.3287 1.5 13.5 1.5Z" fill="#E3E9EF"/>
</svg>
