<?xml version="1.0" encoding="utf-8"?>
<!-- Generator: Adobe Illustrator 19.0.0, SVG Export Plug-In . SVG Version: 6.00 Build 0)  -->
<svg version="1.1" id="Layer_1" xmlns="http://www.w3.org/2000/svg" xmlns:xlink="http://www.w3.org/1999/xlink" x="0px" y="0px"
	 viewBox="-199 137.6 23 23" style="enable-background:new -199 137.6 23 23;" xml:space="preserve">
<style type="text/css">
	.st0{fill:#FFFFFF;}
	.st1{fill:#363B40;}
</style>
<path id="Mask_2" class="st0" d="M-182.3,156.6h-10.1c-0.3,0-0.5-0.2-0.5-0.5v-13.9c0-0.3,0.2-0.5,0.5-0.5h4.1v3.9
	c0,1.5,1.1,2.6,2.5,2.6h4v7.9C-181.8,156.4-182.1,156.6-182.3,156.6z M-182.2,146.3h-3.7c-0.4,0-0.7-0.4-0.7-0.8v-3.9h0.1
	L-182.2,146.3z M-180.2,145.7l-5.1-5.6c-0.2-0.2-0.4-0.3-0.7-0.3h-6.5c-1.3,0-2.4,1-2.4,2.3V156c0,1.3,1.1,2.3,2.4,2.3h10.1
	c1.3,0,2.4-1,2.4-2.3v-9.8C-180,146.1-180.1,145.9-180.2,145.7z"/>
<path id="Mask" class="st1" d="M-182.3,156.6h-10.1c-0.3,0-0.5-0.2-0.5-0.5v-13.9c0-0.3,0.2-0.5,0.5-0.5h4.1v3.9
	c0,1.5,1.1,2.6,2.5,2.6h4v7.9C-181.8,156.4-182.1,156.6-182.3,156.6z M-182.2,146.3h-3.7c-0.4,0-0.7-0.4-0.7-0.8v-3.9h0.1
	L-182.2,146.3z M-180.2,145.7l-5.1-5.6c-0.2-0.2-0.4-0.3-0.7-0.3h-6.5c-1.3,0-2.4,1-2.4,2.3V156c0,1.3,1.1,2.3,2.4,2.3h10.1
	c1.3,0,2.4-1,2.4-2.3v-9.8C-180,146.1-180.1,145.9-180.2,145.7z"/>
</svg>
