<svg width="26" height="26" viewBox="0 0 26 26" fill="none" xmlns="http://www.w3.org/2000/svg">
<g clip-path="url(#clip0)">
<path d="M23.7588 13H4.0349L2.24181 9.41382H0.44873L2.24181 14.7931L0.44873 20.1723H2.24181L4.0349 16.5862H23.7588C24.7495 16.5862 25.5519 15.7838 25.5519 14.7931C25.5519 14.3 25.3502 13.8517 25.0274 13.5245C24.7002 13.2017 24.2519 13 23.7588 13Z" fill="#FFC468"/>
<path d="M23.7586 10.7595H18.7021L17.7164 7.80224C18.4009 7.42524 18.8277 6.68828 18.8277 5.8285C18.8277 5.23544 18.5955 4.67286 18.1696 4.24072C17.7419 3.81935 17.1794 3.58715 16.5863 3.58715H16.3115L15.2182 0.307594C15.1572 0.124251 14.9864 0.000976562 14.7932 0.000976562H11.207C10.9592 0.000976562 10.7588 0.201354 10.7588 0.449248V3.58715H9.86223C9.36779 3.58715 8.96569 3.98924 8.96569 4.48369C8.96569 4.62444 9.03204 4.75758 9.145 4.8423C9.45789 5.0772 9.6381 5.43671 9.6381 5.8285C9.6381 6.22029 9.45834 6.5798 9.145 6.8147C9.03204 6.89942 8.96569 7.03256 8.96569 7.17331C8.96569 7.66776 9.36779 8.06986 9.86223 8.06986H10.7588V10.7595H4.31174L2.64238 7.42121C2.56662 7.26924 2.41152 7.17331 2.24163 7.17331H0.448544C0.304649 7.17331 0.169271 7.24235 0.0845478 7.35935C0.000272841 7.47635 -0.022589 7.62696 0.0231347 7.76324L1.76915 13.0008L0.0235829 18.2384C-0.022589 18.3752 0.000721113 18.5258 0.0849961 18.6423C0.169271 18.7593 0.304649 18.8284 0.448544 18.8284H2.24163C2.41152 18.8284 2.56662 18.7324 2.64283 18.5805L4.31174 15.2422H10.7588V17.9318H9.86223C9.36779 17.9318 8.96569 18.3339 8.96569 18.8284C8.96569 18.9691 9.03204 19.1023 9.145 19.187C9.45789 19.4219 9.6381 19.7814 9.6381 20.1732C9.6381 20.565 9.45834 20.9245 9.145 21.1594C9.03204 21.2441 8.96569 21.3772 8.96569 21.518C8.96569 22.0124 9.36779 22.4145 9.86223 22.4145H10.7588V25.5524C10.7588 25.8003 10.9592 26.0007 11.207 26.0007H14.7932C14.9864 26.0007 15.1572 25.8774 15.2182 25.6941L16.3115 22.4145H16.5863C17.1794 22.4145 17.7419 22.1823 18.1741 21.7565C18.5955 21.3288 18.8277 20.7662 18.8277 20.1732C18.8277 19.6873 18.6936 19.234 18.4448 18.8692C18.2579 18.5845 18.01 18.3572 17.7177 18.1972L18.7026 15.2422H23.7586C24.9945 15.2422 26 14.2367 26 13.0008C26 12.4078 25.7678 11.8452 25.3419 11.4131C24.9143 10.9917 24.3517 10.7595 23.7586 10.7595ZM17.5402 21.1226C17.2878 21.3714 16.9588 21.5108 16.6123 21.5175L17.4268 19.0736C17.5317 19.1534 17.6232 19.2515 17.6994 19.3676C17.8509 19.5895 17.9311 19.8684 17.9311 20.1732C17.9311 20.5296 17.7908 20.8684 17.5402 21.1226ZM16.6119 4.48414C16.9588 4.49041 17.2878 4.62982 17.5362 4.87458C17.7908 5.13323 17.9311 5.47213 17.9311 5.8285C17.9311 6.29515 17.7442 6.69008 17.4255 6.92901L16.6119 4.48414ZM10.0581 7.17331C10.3652 6.79856 10.5346 6.32832 10.5346 5.8285C10.5346 5.32868 10.3647 4.85844 10.0581 4.48369H10.7588V7.17331H10.0581ZM11.6553 7.62159V4.03542V0.897519H14.47L16.4984 6.9828L16.7297 7.67807C16.7297 7.67852 16.7306 7.67941 16.7306 7.67986L17.7572 10.7595H11.6553V7.62159ZM10.0581 21.518C10.3652 21.1432 10.5346 20.673 10.5346 20.1732C10.5346 19.6734 10.3647 19.2031 10.0581 18.8284H10.7588V21.518H10.0581ZM14.47 25.1042H11.6553V21.9663V18.3801V15.2422H17.7576L14.47 25.1042ZM23.7586 14.3457H18.3794H11.207H4.03471C3.86482 14.3457 3.70972 14.4416 3.63351 14.5935L1.9646 17.9318H1.07074L2.66704 13.1425C2.69797 13.0506 2.69797 12.9506 2.66704 12.8587L1.07074 8.06986H1.9646L3.63396 11.4081C3.70972 11.5601 3.86482 11.656 4.03471 11.656H11.207H18.3794H23.7586C24.115 11.656 24.4539 11.7963 24.7081 12.0469C24.9631 12.3056 25.1034 12.6445 25.1034 13.0008C25.1034 13.7423 24.5001 14.3457 23.7586 14.3457Z" fill="white"/>
<path d="M23.7587 12.5518H21.9656C21.7177 12.5518 21.5173 12.7521 21.5173 13C21.5173 13.2479 21.7177 13.4483 21.9656 13.4483H23.7587C24.0066 13.4483 24.207 13.2479 24.207 13C24.207 12.7521 24.0066 12.5518 23.7587 12.5518Z" fill="white"/>
<path d="M14.7934 5.37939H13.0003C12.7524 5.37939 12.552 5.57977 12.552 5.82766C12.552 6.07556 12.7524 6.27593 13.0003 6.27593H14.7934C15.0413 6.27593 15.2416 6.07556 15.2416 5.82766C15.2416 5.57977 15.0413 5.37939 14.7934 5.37939Z" fill="white"/>
<path d="M13.0003 20.6207H14.7934C15.0413 20.6207 15.2416 20.4203 15.2416 20.1724C15.2416 19.9245 15.0413 19.7241 14.7934 19.7241H13.0003C12.7524 19.7241 12.552 19.9245 12.552 20.1724C12.552 20.4203 12.7524 20.6207 13.0003 20.6207Z" fill="white"/>
</g>
<defs>
<clipPath id="clip0">
<rect width="26" height="26" fill="white"/>
</clipPath>
</defs>
</svg>
