<svg width="124" height="45" viewBox="0 0 124 45" fill="none" xmlns="http://www.w3.org/2000/svg">
<path fill-rule="evenodd" clip-rule="evenodd" d="M11.0908 23.8529C11.0167 25.0185 10.9426 26.2569 10.8438 27.6168C10.745 28.9766 10.6462 30.3122 10.5474 31.6963C10.4486 33.0562 10.3498 34.3917 10.2757 35.703C10.2016 37.0143 10.1275 38.1556 10.0534 39.1755C9.97928 40.1711 9.92988 40.9967 9.88048 41.6523C9.83108 42.308 9.80637 42.6479 9.80637 42.6965C9.78167 43.1579 9.68287 43.4735 9.55936 43.6192C9.43586 43.7649 9.13944 43.8378 8.71952 43.8378H6.91633C5.11315 43.8378 3.85339 43.3521 3.13705 42.3565C2.42072 41.3852 2.0502 39.904 2.0502 37.937C2.0502 37.7185 2.0749 37.1357 2.1243 36.2129C2.17371 35.2902 2.24781 34.1732 2.32191 32.8862C2.39602 31.5992 2.49482 30.1665 2.59363 28.5881C2.69243 27.0097 2.79123 25.4313 2.89004 23.8529H0.543426C0.172908 23.8529 0 23.6344 0 23.2216C0 22.9059 0.0247012 22.4688 0.0494024 21.8617C0.0741036 21.2546 0.123506 20.6718 0.148207 20.089C0.172908 19.6277 0.247012 19.1663 0.321116 18.6806C0.395219 18.195 0.543426 17.7822 0.765737 17.4179C0.988048 17.0537 1.30916 16.738 1.75378 16.4952C2.19841 16.2523 2.76653 16.1066 3.45817 16.0581L3.65578 13.7512C3.85339 11.25 4.27331 9.16171 4.89084 7.46191C5.50837 5.7621 6.32351 4.40225 7.31155 3.38237C8.3243 2.36248 9.50996 1.63399 10.8932 1.1969C12.2765 0.759806 13.8327 0.54126 15.5371 0.54126C17.2167 0.54126 18.6247 0.711241 19.8104 1.0512C20.996 1.39116 21.9594 1.87682 22.7004 2.4839C23.4414 3.09097 23.9602 3.81946 24.306 4.66936C24.6271 5.51927 24.8 6.41774 24.8 7.38906C24.8 9.38026 24.2566 10.813 23.1697 11.6629C22.0829 12.5128 20.6255 12.9256 18.7729 12.9256C18.2789 12.9256 17.9331 12.877 17.7355 12.7799C17.5378 12.6827 17.4637 12.4642 17.4637 12.1242C17.4637 10.8615 17.3649 9.84164 17.1673 9.11315C16.9697 8.38466 16.4263 8.02041 15.5124 8.02041C14.8454 8.02041 14.2773 8.23896 13.808 8.72462C13.3386 9.186 12.9681 9.79307 12.647 10.5458C12.3506 11.2986 12.1283 12.1485 11.9801 13.1198C11.8319 14.0912 11.7084 15.0625 11.6096 16.0581H17.3649C17.9084 16.0581 18.1554 16.3252 18.1554 16.8594L17.9578 19.9676C17.8837 21.1332 17.612 22.056 17.1426 22.7602C16.6486 23.4644 15.6606 23.8286 14.1538 23.8286H11.0908V23.8529Z" fill="white"/>
<path fill-rule="evenodd" clip-rule="evenodd" d="M27.5007 35.1784C25.9218 35.1784 24.6142 34.9564 23.5781 34.5125C22.5419 34.0686 21.7031 33.452 21.0863 32.6875C20.4695 31.9229 20.0255 31.0104 19.7788 29.9746C19.532 28.9388 19.4087 27.8289 19.4087 26.6451C19.4087 25.264 19.5814 23.9322 19.9021 22.6251C20.2228 21.318 20.7903 20.1342 21.6044 19.123C22.3939 18.0872 23.4547 17.2734 24.7623 16.6321C26.0698 16.0156 27.7228 15.6949 29.6718 15.6949C32.5582 15.6949 34.6059 16.3855 35.8641 17.7913C37.1224 19.197 37.7391 21.17 37.7391 23.6856C37.7391 24.4008 37.6898 25.1654 37.5911 26.0286C37.4924 26.8918 37.295 27.7303 36.999 28.5688C36.7029 29.4073 36.3329 30.2459 35.8395 31.0351C35.3461 31.8243 34.7293 32.5395 33.9645 33.1561C33.1997 33.7726 32.3115 34.2659 31.2507 34.6358C30.1898 34.9811 28.9316 35.1784 27.5007 35.1784ZM29.1043 20.2083C28.2409 20.2083 27.5501 20.4302 27.032 20.8741C26.5139 21.3181 26.1192 21.8607 25.8725 22.4772C25.6011 23.0938 25.4284 23.7597 25.3544 24.4749C25.2804 25.1654 25.231 25.7573 25.231 26.2506C25.231 27.755 25.4777 28.8648 25.9465 29.58C26.4152 30.2953 27.106 30.6405 27.9942 30.6405C28.7836 30.6405 29.4497 30.3939 29.9678 29.876C30.4859 29.3827 30.8806 28.7662 31.1767 28.051C31.4727 27.3357 31.6454 26.5959 31.7688 25.8313C31.8675 25.0668 31.9168 24.4009 31.9168 23.883C31.9168 22.7485 31.6948 21.836 31.2754 21.1948C30.856 20.5289 30.1405 20.2083 29.1043 20.2083Z" fill="white"/>
<path fill-rule="evenodd" clip-rule="evenodd" d="M51.8991 23.8653C51.7387 23.8653 51.5783 23.8653 51.3912 23.8416C51.204 23.8416 51.0169 23.8179 50.8565 23.7706C50.6961 23.7469 50.5357 23.6995 50.402 23.6285C50.2684 23.5811 50.2149 23.5101 50.2149 23.4153C50.2149 23.1311 50.2149 22.8706 50.2416 22.6338C50.2684 22.397 50.2684 22.1365 50.2684 21.876C50.2684 21.4023 50.1881 20.9997 50.0545 20.6919C49.8941 20.384 49.6 20.2419 49.1723 20.2419C48.4772 20.2419 47.9158 20.6445 47.4346 21.4497C46.9801 22.2549 46.686 23.439 46.5524 25.0494C46.4989 25.7599 46.4454 26.5414 46.3385 27.4413C46.2583 28.3175 46.1781 29.1938 46.0979 29.999C46.0177 30.8278 45.9642 31.5383 45.9108 32.1777C45.8573 32.8171 45.8306 33.2197 45.8306 33.4329C45.8306 33.646 45.7503 33.8118 45.5632 33.9302C45.4028 34.0486 45.2157 34.096 45.0018 34.096H43.6651C42.8898 34.096 42.275 34.0249 41.7938 33.8828C41.3125 33.7407 40.9383 33.5276 40.6442 33.2671C40.3501 33.0066 40.163 32.675 40.0561 32.2961C39.9491 31.9172 39.8957 31.4673 39.8957 30.9699C39.8957 30.6384 39.9224 30.1647 39.9491 29.5727C39.9759 28.9806 40.0561 28.1281 40.163 27.0861C40.2699 26.0204 40.3769 24.6705 40.5105 23.0364C40.6442 21.4023 40.8046 19.3894 41.0185 16.9738C41.0719 16.3344 41.3393 16.0265 41.7938 16.0265H43.2374C43.9325 16.0265 44.5206 16.0975 44.9751 16.216C45.4563 16.358 45.8306 16.5238 46.1246 16.7606C46.4187 16.9975 46.6326 17.258 46.7662 17.5658C46.8999 17.8737 47.0068 18.1816 47.0336 18.5131C47.3276 18.0158 47.6752 17.5658 48.1029 17.2106C48.5039 16.8554 48.9317 16.5475 49.3861 16.3344C49.8406 16.0975 50.2951 15.9318 50.7496 15.837C51.2308 15.7423 51.6585 15.6949 52.0595 15.6949C52.5407 15.6949 52.9952 15.766 53.4764 15.9318C53.9576 16.0739 54.3853 16.3107 54.7864 16.6185C55.1874 16.9264 55.5082 17.329 55.722 17.8027C55.9626 18.2763 56.0696 18.8447 56.0696 19.5078C56.0696 20.0998 55.9626 20.6682 55.7755 21.1892C55.5884 21.7102 55.2943 22.1839 54.92 22.5865C54.5457 22.989 54.0913 23.3206 53.5566 23.5337C53.1289 23.7469 52.5407 23.8653 51.8991 23.8653Z" fill="white"/>
<path fill-rule="evenodd" clip-rule="evenodd" d="M63.3421 28.1357C63.2647 29.1528 63.1872 30.0988 63.084 30.9976C62.9808 31.8964 62.9291 32.7005 62.8775 33.3864C62.8517 33.6466 62.8001 33.8358 62.6969 33.9068C62.5936 34.0014 62.3871 34.0487 62.0774 34.0487H60.787C60.0385 34.0487 59.4449 33.9777 58.9803 33.8358C58.5157 33.6939 58.1544 33.481 57.8705 33.2209C57.5866 32.9607 57.4059 32.6296 57.3027 32.2511C57.1994 31.8727 57.1478 31.4233 57.1478 30.9266C57.1478 30.5955 57.1736 30.1225 57.1994 29.5312C57.2253 28.9399 57.3027 28.0884 57.4059 27.0478C57.5092 25.9834 57.6124 24.6353 57.7414 23.0033C57.8705 21.3714 58.0253 19.361 58.2318 16.9485C58.2576 16.4755 58.3093 16.1916 58.4125 16.097C58.4899 16.0261 58.6706 16.0024 58.9803 16.0024H60.374C61.0967 16.0024 61.6645 16.0734 62.129 16.2389C62.5936 16.3808 62.955 16.5937 63.2389 16.8302C63.5228 17.0667 63.7292 17.3506 63.8583 17.6817C63.9873 18.0128 64.0389 18.3439 64.0648 18.6987C64.7616 17.5161 65.5359 16.712 66.4392 16.3099C67.3167 15.8842 68.3749 15.6949 69.5622 15.6949C70.2074 15.6949 70.8268 15.7422 71.4204 15.8605C72.0141 15.9788 72.5561 16.1443 73.0206 16.4281C73.4852 16.6883 73.8982 17.0431 74.2337 17.4688C74.5692 17.8946 74.8015 18.4385 74.9563 19.1008C75.7048 17.8236 76.5049 16.9485 77.3824 16.4518C78.2599 15.9551 79.3698 15.7186 80.7118 15.7186C81.4603 15.7186 82.1572 15.7896 82.854 15.9315C83.5251 16.0734 84.1187 16.3099 84.6349 16.6647C85.1253 17.0194 85.5382 17.4925 85.8221 18.0838C86.1318 18.6751 86.2609 19.4319 86.2609 20.3307C86.2609 21.0166 86.2351 21.8444 86.1576 22.8141C86.0802 23.8075 86.0028 24.8718 85.8995 26.0071C85.7963 27.166 85.6931 28.3486 85.5898 29.5548C85.4608 30.7611 85.3834 31.9437 85.3059 33.0553C85.2801 33.2918 85.2543 33.481 85.2285 33.6229C85.2027 33.7648 85.1511 33.8595 85.0994 33.9068C85.0478 33.9777 84.9446 34.025 84.8414 34.0487C84.7123 34.0723 84.5575 34.0723 84.351 34.0723H83.2154C82.4411 34.0723 81.8217 34.0014 81.3571 33.8831C80.8667 33.7412 80.5054 33.5756 80.2473 33.3155C79.9892 33.079 79.8085 32.7715 79.7053 32.4167C79.602 32.0619 79.5504 31.6362 79.5504 31.1868C79.5504 30.903 79.5762 30.5009 79.602 29.9806C79.6278 29.4602 79.6795 28.8926 79.7569 28.2777C79.8085 27.6627 79.8859 27.0241 79.9376 26.3619C79.9892 25.6996 80.0666 25.1083 80.1182 24.5407C80.1698 23.973 80.2215 23.5 80.2731 23.0743C80.2989 22.6485 80.3247 22.3884 80.3247 22.2465C80.3247 21.6788 80.1957 21.1821 79.9376 20.7328C79.6795 20.307 79.2149 20.0705 78.4922 20.0705C77.8728 20.0705 77.3308 20.2597 76.892 20.6382C76.4275 21.0166 76.0661 21.5133 75.7564 22.1755C75.4467 22.8378 75.1886 23.6183 75.008 24.517C74.8273 25.4158 74.6982 26.3855 74.6208 27.4498C74.5692 28.1357 74.5176 28.9162 74.4402 29.7914C74.3627 30.6665 74.2853 31.7545 74.1821 33.0789C74.1562 33.3155 74.1304 33.5047 74.1046 33.6466C74.0788 33.7885 74.0272 33.8831 73.9756 33.9304C73.924 34.0014 73.8207 34.0487 73.7175 34.0723C73.5884 34.096 73.4336 34.096 73.2271 34.096H72.0915C71.3172 34.096 70.6978 34.025 70.2332 33.9068C69.7428 33.7648 69.3815 33.5993 69.1234 33.3391C68.8653 33.1026 68.6846 32.7951 68.5556 32.4404C68.4524 32.0856 68.4007 31.6598 68.4007 31.2105C68.4007 30.7611 68.4524 30.1225 68.5298 29.2947C68.6072 28.4432 68.6846 27.5681 68.7879 26.6693C68.8653 25.7706 68.9427 24.8955 69.046 24.0676C69.1234 23.2398 69.175 22.6485 69.175 22.2701C69.175 21.7025 69.046 21.2058 68.7879 20.7564C68.5298 20.3307 68.0652 20.0942 67.3426 20.0942C66.6973 20.0942 66.1553 20.307 65.6908 20.7564C65.2262 21.2058 64.8648 21.7734 64.5551 22.5066C64.2454 23.2398 64.0131 24.0913 63.8325 25.0847C63.5486 26.0307 63.4195 27.0714 63.3421 28.1357Z" fill="white"/>
<path fill-rule="evenodd" clip-rule="evenodd" d="M99.7268 43.6858C98.6981 43.8794 97.6437 43.8794 96.5636 43.7342C95.4835 43.5647 94.4548 43.1533 93.4776 42.4756C92.5003 41.7737 91.626 40.7813 90.8287 39.4985C90.0315 38.1915 89.4143 36.4973 89.0028 34.3916C88.8485 33.617 88.6942 32.6731 88.5657 31.5839C88.4371 30.4948 88.3856 29.333 88.4371 28.147C88.4628 26.961 88.6171 25.7508 88.8743 24.5407C89.1314 23.3305 89.5429 22.1929 90.1344 21.1764C90.7259 20.1356 91.4974 19.2401 92.5003 18.4898C93.4776 17.7394 94.7377 17.2312 96.255 16.9407C97.4637 16.7229 98.5438 16.7229 99.4439 16.9407C100.37 17.1586 101.141 17.5458 101.784 18.0783C102.427 18.6108 102.941 19.2885 103.353 20.0872C103.764 20.8859 104.047 21.7572 104.253 22.7254C104.536 24.1534 104.562 25.3878 104.33 26.4528C104.099 27.5177 103.713 28.4375 103.147 29.2362C102.581 30.0349 101.938 30.6884 101.167 31.1967C100.395 31.7291 99.6239 32.1648 98.8524 32.5037C98.0809 32.8425 97.3351 33.1088 96.6665 33.2782C95.9978 33.4476 95.4578 33.5686 95.072 33.6412C95.2006 34.2221 95.3806 34.803 95.6121 35.3355C95.8693 35.8922 96.1521 36.352 96.4865 36.7393C96.8208 37.1266 97.2322 37.417 97.7209 37.6348C98.2095 37.8285 98.7495 37.8769 99.341 37.7801C99.9325 37.6832 100.395 37.4654 100.678 37.1266C100.961 36.8119 101.167 36.4489 101.321 36.0858C101.476 35.7228 101.578 35.4081 101.681 35.1177C101.784 34.8272 101.964 34.6578 102.221 34.6094C102.35 34.5852 102.556 34.5852 102.864 34.6094C103.173 34.6336 103.507 34.7546 103.867 34.924C104.227 35.1177 104.562 35.4081 104.87 35.7954C105.179 36.1826 105.41 36.7151 105.565 37.3928C105.745 38.2883 105.693 39.1113 105.41 39.8374C105.127 40.5635 104.69 41.1928 104.099 41.7011C103.507 42.2335 102.839 42.645 102.041 42.9838C101.27 43.2985 100.473 43.5405 99.7268 43.6858ZM96.255 23.2821C95.7407 23.3789 95.3292 23.6452 95.0463 24.105C94.7634 24.5649 94.5577 25.0974 94.4291 25.7267C94.3005 26.356 94.2491 27.0337 94.2748 27.784C94.3005 28.5101 94.3263 29.212 94.4034 29.8897C95.8436 29.5993 96.9494 29.0668 97.7209 28.2923C98.4924 27.5177 98.7753 26.5496 98.5438 25.412C98.4152 24.7827 98.1581 24.2745 97.7723 23.8146C97.3609 23.3547 96.8722 23.1853 96.255 23.2821Z" fill="white"/>
<path fill-rule="evenodd" clip-rule="evenodd" d="M118.04 40.4386C117.013 40.6322 115.961 40.6322 114.882 40.487C113.804 40.3175 112.776 39.9061 111.801 39.2284C110.825 38.5265 109.952 37.5341 109.156 36.2513C108.36 34.9443 107.743 33.2501 107.333 31.1444C107.178 30.3698 107.024 29.4259 106.896 28.3367C106.768 27.2476 106.716 26.0858 106.768 24.8998C106.793 23.7138 106.947 22.5037 107.204 21.2935C107.461 20.0833 107.872 18.9457 108.462 17.9292C109.053 16.8884 109.823 15.9929 110.825 15.2426C111.801 14.4922 113.059 13.984 114.574 13.6935C115.781 13.4757 116.859 13.4757 117.758 13.6935C118.682 13.9114 119.453 14.2986 120.095 14.8311C120.737 15.3636 121.25 16.0413 121.661 16.84C122.072 17.6387 122.354 18.5101 122.56 19.4782C122.842 20.9062 122.868 22.1406 122.637 23.2056C122.406 24.2705 122.021 25.1903 121.456 25.989C120.891 26.7877 120.249 27.4412 119.478 27.9495C118.708 28.482 117.938 28.9176 117.167 29.2565C116.397 29.5953 115.652 29.8616 114.985 30.031C114.317 30.2004 113.778 30.3214 113.418 30.394C113.547 30.9749 113.726 31.5558 113.958 32.0883C114.214 32.645 114.497 33.1049 114.831 33.4921C115.164 33.8794 115.575 34.1698 116.063 34.3876C116.551 34.5813 117.09 34.6297 117.681 34.5329C118.272 34.4361 118.734 34.2182 119.016 33.8794C119.299 33.5647 119.504 33.2017 119.658 32.8386C119.812 32.4756 119.915 32.1609 120.018 31.8705C120.12 31.58 120.3 31.4106 120.557 31.3622C120.685 31.338 120.891 31.338 121.199 31.3622C121.507 31.3864 121.841 31.4832 122.2 31.6768C122.56 31.8705 122.894 32.1609 123.202 32.5482C123.536 32.9354 123.741 33.4679 123.895 34.1456C124.075 35.0411 124.024 35.8641 123.741 36.5902C123.459 37.3163 123.022 37.9456 122.432 38.4539C121.841 38.9863 121.173 39.3978 120.377 39.7367C119.581 40.0755 118.811 40.2933 118.04 40.4386ZM114.574 20.0591C114.06 20.1559 113.649 20.4222 113.367 20.882C113.084 21.3419 112.879 21.8744 112.751 22.5037C112.622 23.133 112.571 23.8107 112.597 24.561C112.622 25.2871 112.648 25.989 112.725 26.6667C114.163 26.3763 115.267 25.8438 116.038 25.0693C116.808 24.2947 117.09 23.3266 116.859 22.189C116.731 21.5597 116.474 21.0515 116.089 20.5916C115.678 20.1075 115.19 19.9381 114.574 20.0591Z" fill="white"/>
</svg>
