<svg width="26" height="26" viewBox="0 0 26 26" fill="none" xmlns="http://www.w3.org/2000/svg">
<path d="M8.51716 5.82766H17.4827C17.978 5.82766 18.3792 5.42645 18.3792 4.93111V3.13801C18.3792 2.64266 17.978 2.24146 17.4827 2.24146H8.51716C8.02181 2.24146 7.62061 2.64266 7.62061 3.13801V4.93111C7.62061 5.42645 8.02181 5.82766 8.51716 5.82766Z" fill="#FFC468"/>
<path d="M23.7584 14.7932C22.7682 14.7932 21.9653 19.1823 21.9653 20.1725C21.9653 21.1628 22.7682 21.9656 23.7584 21.9656C24.7487 21.9656 25.5515 21.1628 25.5515 20.1725C25.5515 19.1823 24.7487 14.7932 23.7584 14.7932Z" fill="#FFC468"/>
<path d="M2.24135 21.9656C3.23159 21.9656 4.03445 21.1628 4.03445 20.1725C4.03445 19.1823 3.23159 14.7932 2.24135 14.7932C1.2511 14.7932 0.448242 19.1823 0.448242 20.1725C0.448242 21.1628 1.2511 21.9656 2.24135 21.9656Z" fill="#FFC468"/>
<path d="M18.3791 8.96547H17.0343V7.62064C17.0343 7.37274 16.8339 7.17236 16.586 7.17236H14.7929C14.545 7.17236 14.3446 7.37274 14.3446 7.62064V8.96547H12.9998C12.7523 8.96547 12.5515 9.16585 12.5515 9.41374V10.7586C12.5515 11.253 12.9536 11.6551 13.4481 11.6551H17.9308C18.4253 11.6551 18.8274 11.253 18.8274 10.7586V9.41374C18.8274 9.16585 18.627 8.96547 18.3791 8.96547ZM15.2412 8.06892H16.1377V8.96547H15.2412V8.06892ZM17.9308 10.7586H13.4481V9.86202H14.7929H16.586H17.9308V10.7586Z" fill="white"/>
<path d="M18.3791 14.3449H17.0343V13C17.0343 12.7521 16.8339 12.5518 16.586 12.5518H14.7929C14.545 12.5518 14.3446 12.7521 14.3446 13V14.3449H12.9998C12.7523 14.3449 12.5515 14.5452 12.5515 14.7931V16.138C12.5515 16.6324 12.9536 17.0345 13.4481 17.0345H17.9308C18.4253 17.0345 18.8274 16.6324 18.8274 16.138V14.7931C18.8274 14.5452 18.627 14.3449 18.3791 14.3449ZM15.2412 13.4483H16.1377V14.3449H15.2412V13.4483ZM17.9308 16.138H13.4481V15.2414H14.7929H16.586H17.9308V16.138Z" fill="white"/>
<path d="M26 18.3793C26 17.9812 25.376 12.5517 23.7586 12.5517C22.1412 12.5517 21.5172 17.9812 21.5172 18.3793C21.5172 19.4614 22.2887 20.367 23.3103 20.5754V25.1034H20.6207V6.72414C20.6207 5.98269 20.0173 5.37931 19.2759 5.37931H17.0345V4.48276H17.4828C18.2242 4.48276 18.8276 3.87938 18.8276 3.13793V1.34483C18.8276 0.603379 18.2242 0 17.4828 0H8.51724C7.77579 0 7.17241 0.603379 7.17241 1.34483V3.13793C7.17241 3.87938 7.77579 4.48276 8.51724 4.48276H8.96552V5.37931H6.72414C5.98269 5.37931 5.37931 5.98269 5.37931 6.72414V25.1034H2.68966V20.5754C3.71128 20.367 4.48276 19.4619 4.48276 18.3793C4.48276 17.9812 3.85876 12.5517 2.24138 12.5517C0.624 12.5517 0 17.9812 0 18.3793C0 19.4614 0.771483 20.367 1.7931 20.5754V25.1034H0.448276C0.200828 25.1034 0 25.3038 0 25.5517C0 25.7996 0.200828 26 0.448276 26H5.82759H11.2069H13H14.7931H20.1724H25.5517C25.7996 26 26 25.7996 26 25.5517C26 25.3038 25.7996 25.1034 25.5517 25.1034H24.2069V20.5754C25.2285 20.367 26 19.4614 26 18.3793ZM0.896552 18.3793C0.896552 17.1457 1.69493 13.81 2.24138 13.4599C2.78783 13.8096 3.58621 17.1457 3.58621 18.3793C3.58621 19.1208 2.98283 19.7241 2.24138 19.7241C1.49993 19.7241 0.896552 19.1208 0.896552 18.3793ZM8.06897 3.13793V1.34483C8.06897 1.09738 8.27024 0.896552 8.51724 0.896552H17.4828C17.7302 0.896552 17.931 1.09738 17.931 1.34483V3.13793C17.931 3.38538 17.7302 3.58621 17.4828 3.58621H8.51724C8.27024 3.58621 8.06897 3.38538 8.06897 3.13793ZM9.86207 4.48276H16.1379V5.37931H9.86207V4.48276ZM12.5517 25.1034H11.6552V22.4138H12.5517V25.1034ZM13.4483 25.1034V22.4138H14.3448V25.1034H13.4483ZM18.8276 25.1034V20.1724C18.8276 19.9245 18.6272 19.7241 18.3793 19.7241C18.1314 19.7241 17.931 19.9245 17.931 20.1724V25.1034H15.2414V21.9655C15.2414 21.7176 15.041 21.5172 14.7931 21.5172H13H11.2069C10.9594 21.5172 10.7586 21.7176 10.7586 21.9655V25.1034H8.06897V20.1724C8.06897 19.9245 7.86814 19.7241 7.62069 19.7241C7.37324 19.7241 7.17241 19.9245 7.17241 20.1724V25.1034H6.27586V6.72414C6.27586 6.47669 6.47714 6.27586 6.72414 6.27586H19.2759C19.5233 6.27586 19.7241 6.47669 19.7241 6.72414V25.1034H18.8276ZM22.4138 18.3793C22.4138 17.1457 23.2117 13.81 23.7586 13.4599C24.3055 13.8096 25.1034 17.1457 25.1034 18.3793C25.1034 19.1208 24.5001 19.7241 23.7586 19.7241C23.0172 19.7241 22.4138 19.1208 22.4138 18.3793Z" fill="white"/>
<path d="M11.2068 7.17236H9.41374C9.16629 7.17236 8.96547 7.37274 8.96547 7.62064V8.96547H7.62064C7.37319 8.96547 7.17236 9.16585 7.17236 9.41374V10.7586C7.17236 11.253 7.57447 11.6551 8.06892 11.6551H10.7586C11.253 11.6551 11.6551 11.253 11.6551 10.7586V9.41374V7.62064C11.6551 7.37274 11.4543 7.17236 11.2068 7.17236ZM9.86202 8.06892H10.7586V8.96547H9.86202V8.06892ZM10.7586 10.7586H8.06892V9.86202H9.41374H10.7586V10.7586Z" fill="white"/>
<path d="M11.2068 12.5518H9.41374C9.16629 12.5518 8.96547 12.7521 8.96547 13V14.3449H7.62064C7.37319 14.3449 7.17236 14.5452 7.17236 14.7931V16.138C7.17236 16.6324 7.57447 17.0345 8.06892 17.0345H10.7586C11.253 17.0345 11.6551 16.6324 11.6551 16.138V14.7931V13C11.6551 12.7521 11.4543 12.5518 11.2068 12.5518ZM9.86202 13.4483H10.7586V14.3449H9.86202V13.4483ZM10.7586 16.138H8.06892V15.2414H9.41374H10.7586V16.138Z" fill="white"/>
</svg>
