<?xml version="1.0" encoding="utf-8"?>
<!-- Generator: Adobe Illustrator 19.0.0, SVG Export Plug-In . SVG Version: 6.00 Build 0)  -->
<svg version="1.1" id="Layer_1" xmlns="http://www.w3.org/2000/svg" xmlns:xlink="http://www.w3.org/1999/xlink" x="0px" y="0px"
	 viewBox="-199 137.6 23 23" style="enable-background:new -199 137.6 23 23;" xml:space="preserve">
<style type="text/css">
	.st0{fill:#363B40;}
	.st1{fill:#FFFFFF;filter:url(#Adobe_OpacityMaskFilter);}
	.st2{mask:url(#mask0_15119_254722);}
</style>
<g id="รฐ_x9F__x8E__xA8__Color">
	<path id="Mask" class="st0" d="M-191.1,147.4c0.8,0,1.4-0.6,1.4-1.4c0-0.8-0.6-1.4-1.4-1.4s-1.4,0.6-1.4,1.4
		C-192.5,146.7-191.9,147.4-191.1,147.4z M-181.8,155.7h-10.6l6.5-5.4c0.2-0.2,0.6-0.2,0.9,0l4.2,3.6v0.9
		C-180.9,155.3-181.3,155.7-181.8,155.7z M-193,142.7h11.2c0.5,0,0.9,0.4,0.9,0.9v7.8l-3-2.5c-0.9-0.8-2.4-0.8-3.3,0l-6.8,5.6v-10.9
		C-193.9,143.1-193.5,142.7-193,142.7z M-181.8,140.9H-193c-1.5,0-2.8,1.3-2.8,2.8v11.2c0,1.5,1.3,2.8,2.8,2.8h11.2
		c1.5,0,2.8-1.3,2.8-2.8v-11.2C-179,142.1-180.3,140.9-181.8,140.9z"/>
	<defs>
		<filter id="Adobe_OpacityMaskFilter" filterUnits="userSpaceOnUse" x="-198.6" y="138.1" width="22.3" height="22.3">
			<feColorMatrix  type="matrix" values="1 0 0 0 0  0 1 0 0 0  0 0 1 0 0  0 0 0 1 0"/>
		</filter>
	</defs>
	<mask maskUnits="userSpaceOnUse" x="-198.6" y="138.1" width="22.3" height="22.3" id="mask0_15119_254722">
		<path id="Mask_2" class="st1" d="M-191.1,147.4c0.8,0,1.4-0.6,1.4-1.4c0-0.8-0.6-1.4-1.4-1.4s-1.4,0.6-1.4,1.4
			C-192.5,146.7-191.9,147.4-191.1,147.4z M-181.8,155.7h-10.6l6.5-5.4c0.2-0.2,0.6-0.2,0.9,0l4.2,3.6v0.9
			C-180.9,155.3-181.3,155.7-181.8,155.7z M-193,142.7h11.2c0.5,0,0.9,0.4,0.9,0.9v7.8l-3-2.5c-0.9-0.8-2.4-0.8-3.3,0l-6.8,5.6
			v-10.9C-193.9,143.1-193.5,142.7-193,142.7z M-181.8,140.9H-193c-1.5,0-2.8,1.3-2.8,2.8v11.2c0,1.5,1.3,2.8,2.8,2.8h11.2
			c1.5,0,2.8-1.3,2.8-2.8v-11.2C-179,142.1-180.3,140.9-181.8,140.9z"/>
	</mask>
	<g class="st2">
		<g id="รฐ_x9F__x8E__xA8__Color_x5F_2">
			<rect id="Base" x="-198.6" y="138.1" class="st0" width="22.3" height="22.3"/>
		</g>
	</g>
</g>
</svg>
