<svg width="14" height="14" viewBox="0 0 14 14" fill="none" xmlns="http://www.w3.org/2000/svg">
<path d="M6.90181 0C8.20723 0 9.40991 0.309225 10.4917 0.927674C11.5796 1.54612 12.4317 2.40104 13.0482 3.48636C13.6646 4.57168 13.9789 5.7722 13.9789 7.08792C13.9789 8.31269 13.6646 9.4647 13.0361 10.5318C12.4075 11.599 11.5554 12.4478 10.4736 13.0663C9.39178 13.6908 8.2314 14 6.99246 14C5.72935 14 4.56293 13.6847 3.48112 13.0602C2.40536 12.4357 1.55321 11.5808 0.930717 10.4894C0.308224 9.40407 0 8.22174 0 6.9424C0 5.71156 0.308224 4.55955 0.930717 3.48636C1.55321 2.41317 2.39327 1.56431 3.46299 0.939801C4.53271 0.315288 5.67496 0 6.90181 0ZM6.98642 13.2482C8.08636 13.2482 9.11982 12.9693 10.0808 12.4114C11.0417 11.8536 11.8032 11.0957 12.3652 10.1438C12.9273 9.18579 13.2053 8.16717 13.2053 7.07579C13.2053 5.90559 12.9273 4.8324 12.3773 3.86228C11.8274 2.89216 11.0659 2.13426 10.0989 1.5825C9.1319 1.03075 8.06218 0.757904 6.89577 0.757904C5.80791 0.757904 4.79259 1.03681 3.84374 1.59463C2.89489 2.15245 2.14548 2.91035 1.58947 3.86834C1.03346 4.82633 0.761496 5.85102 0.761496 6.94846C0.761496 8.08229 1.0395 9.13729 1.58947 10.1135C2.14548 11.0836 2.90094 11.8536 3.86187 12.4114C4.82281 12.9693 5.86835 13.2482 6.98642 13.2482ZM4.53271 10.4227H5.85626V6.3482H4.66567V5.52967H8.3281V10.4227H9.44013V11.2473H4.53271V10.4227ZM5.82605 3.30446C5.82605 2.96492 5.94692 2.67388 6.18866 2.43136C6.43041 2.18883 6.71446 2.06756 7.0529 2.06756C7.39134 2.06756 7.67539 2.18883 7.92318 2.43136C8.16493 2.67388 8.2858 2.96492 8.2858 3.30446C8.2858 3.644 8.16493 3.92897 7.92318 4.17757C7.68144 4.4201 7.39134 4.54136 7.0529 4.54136C6.71446 4.54136 6.43041 4.4201 6.18866 4.17757C5.94692 3.93504 5.82605 3.644 5.82605 3.30446Z" fill="#109CF1"/>
</svg>
