<svg width="20" height="20" viewBox="0 0 20 20" fill="none" xmlns="http://www.w3.org/2000/svg">
<path fill-rule="evenodd" clip-rule="evenodd" d="M3.40833 4.66667L3.4 14.6667C3.4 14.6668 3.4 14.6666 3.4 14.6667C3.40019 14.81 3.52331 14.9333 3.66667 14.9333H17C17.1435 14.9333 17.2667 14.8101 17.2667 14.6667V4.66667C17.2667 4.5232 17.1435 4.4 17 4.4H3.66667C3.53232 4.4 3.40833 4.51405 3.40833 4.66667ZM2.00833 4.66667L2 14.6667C2 15.5833 2.75 16.3333 3.66667 16.3333H17C17.9167 16.3333 18.6667 15.5833 18.6667 14.6667V4.66667C18.6667 3.75 17.9167 3 17 3H3.66667C2.75 3 2.00833 3.75 2.00833 4.66667Z" fill="#515C61"/>
<path fill-rule="evenodd" clip-rule="evenodd" d="M2.38965 5.33128L3.27717 4L10.3334 8.70416L17.3896 4L18.2772 5.33128L10.3334 10.6271L2.38965 5.33128Z" fill="#515C61"/>
<circle cx="17" cy="3" r="3" fill="#F90000"/>
</svg>
