<svg width="57" height="26" viewBox="0 0 57 26" fill="none" xmlns="http://www.w3.org/2000/svg">
<g clip-path="url(#clip0)">
<path d="M23.7588 13H4.0349L2.24181 9.41382H0.44873L2.24181 14.7931L0.44873 20.1723H2.24181L4.0349 16.5862H23.7588C24.7495 16.5862 25.5519 15.7838 25.5519 14.7931C25.5519 14.3 25.3502 13.8517 25.0274 13.5245C24.7002 13.2017 24.2519 13 23.7588 13Z" fill="#FFC468"/>
<path d="M23.7586 10.7595H18.7021L17.7164 7.80224C18.4009 7.42524 18.8277 6.68828 18.8277 5.8285C18.8277 5.23544 18.5955 4.67286 18.1696 4.24072C17.7419 3.81935 17.1794 3.58715 16.5863 3.58715H16.3115L15.2182 0.307594C15.1572 0.124251 14.9864 0.000976562 14.7932 0.000976562H11.207C10.9592 0.000976562 10.7588 0.201354 10.7588 0.449248V3.58715H9.86224C9.36779 3.58715 8.96569 3.98924 8.96569 4.48369C8.96569 4.62444 9.03204 4.75758 9.145 4.8423C9.45789 5.0772 9.6381 5.43671 9.6381 5.8285C9.6381 6.22029 9.45834 6.5798 9.145 6.8147C9.03204 6.89942 8.96569 7.03256 8.96569 7.17331C8.96569 7.66776 9.36779 8.06986 9.86224 8.06986H10.7588V10.7595H4.31174L2.64238 7.42121C2.56662 7.26924 2.41152 7.17331 2.24163 7.17331H0.448544C0.304649 7.17331 0.169271 7.24235 0.0845478 7.35935C0.000272841 7.47635 -0.022589 7.62696 0.0231347 7.76324L1.76915 13.0008L0.0235829 18.2384C-0.022589 18.3752 0.000721113 18.5258 0.0849961 18.6423C0.169271 18.7593 0.304649 18.8284 0.448544 18.8284H2.24163C2.41152 18.8284 2.56662 18.7324 2.64283 18.5805L4.31174 15.2422H10.7588V17.9318H9.86224C9.36779 17.9318 8.96569 18.3339 8.96569 18.8284C8.96569 18.9691 9.03204 19.1023 9.145 19.187C9.45789 19.4219 9.6381 19.7814 9.6381 20.1732C9.6381 20.565 9.45834 20.9245 9.145 21.1594C9.03204 21.2441 8.96569 21.3772 8.96569 21.518C8.96569 22.0124 9.36779 22.4145 9.86224 22.4145H10.7588V25.5524C10.7588 25.8003 10.9592 26.0007 11.207 26.0007H14.7932C14.9864 26.0007 15.1572 25.8774 15.2182 25.6941L16.3115 22.4145H16.5863C17.1794 22.4145 17.7419 22.1823 18.1741 21.7565C18.5955 21.3288 18.8277 20.7662 18.8277 20.1732C18.8277 19.6873 18.6936 19.234 18.4448 18.8692C18.2579 18.5845 18.01 18.3572 17.7177 18.1972L18.7026 15.2422H23.7586C24.9945 15.2422 26 14.2367 26 13.0008C26 12.4078 25.7678 11.8452 25.3419 11.4131C24.9143 10.9917 24.3517 10.7595 23.7586 10.7595ZM17.5402 21.1226C17.2878 21.3714 16.9588 21.5108 16.6123 21.5175L17.4268 19.0736C17.5317 19.1534 17.6231 19.2515 17.6994 19.3676C17.8509 19.5895 17.9311 19.8684 17.9311 20.1732C17.9311 20.5296 17.7908 20.8684 17.5402 21.1226ZM16.6119 4.48414C16.9588 4.49041 17.2878 4.62982 17.5362 4.87458C17.7908 5.13323 17.9311 5.47213 17.9311 5.8285C17.9311 6.29515 17.7442 6.69008 17.4255 6.92901L16.6119 4.48414ZM10.0581 7.17331C10.3652 6.79856 10.5346 6.32832 10.5346 5.8285C10.5346 5.32868 10.3647 4.85844 10.0581 4.48369H10.7588V7.17331H10.0581ZM11.6553 7.62159V4.03542V0.897519H14.47L16.4984 6.9828L16.7297 7.67807C16.7297 7.67852 16.7306 7.67941 16.7306 7.67986L17.7572 10.7595H11.6553V7.62159ZM10.0581 21.518C10.3652 21.1432 10.5346 20.673 10.5346 20.1732C10.5346 19.6734 10.3647 19.2031 10.0581 18.8284H10.7588V21.518H10.0581ZM14.47 25.1042H11.6553V21.9663V18.3801V15.2422H17.7576L14.47 25.1042ZM23.7586 14.3457H18.3794H11.207H4.03471C3.86482 14.3457 3.70972 14.4416 3.63351 14.5935L1.9646 17.9318H1.07074L2.66704 13.1425C2.69797 13.0506 2.69797 12.9506 2.66704 12.8587L1.07074 8.06986H1.9646L3.63396 11.4081C3.70972 11.5601 3.86482 11.656 4.03471 11.656H11.207H18.3794H23.7586C24.115 11.656 24.4539 11.7963 24.7081 12.0469C24.9631 12.3056 25.1035 12.6445 25.1035 13.0008C25.1035 13.7423 24.5001 14.3457 23.7586 14.3457Z" fill="white"/>
<path d="M23.7587 12.5518H21.9656C21.7177 12.5518 21.5173 12.7521 21.5173 13C21.5173 13.2479 21.7177 13.4483 21.9656 13.4483H23.7587C24.0066 13.4483 24.207 13.2479 24.207 13C24.207 12.7521 24.0066 12.5518 23.7587 12.5518Z" fill="white"/>
<path d="M14.7934 5.37939H13.0003C12.7524 5.37939 12.552 5.57977 12.552 5.82766C12.552 6.07556 12.7524 6.27593 13.0003 6.27593H14.7934C15.0413 6.27593 15.2416 6.07556 15.2416 5.82766C15.2416 5.57977 15.0413 5.37939 14.7934 5.37939Z" fill="white"/>
<path d="M13.0003 20.6207H14.7934C15.0413 20.6207 15.2416 20.4203 15.2416 20.1724C15.2416 19.9245 15.0413 19.7241 14.7934 19.7241H13.0003C12.7524 19.7241 12.552 19.9245 12.552 20.1724C12.552 20.4203 12.7524 20.6207 13.0003 20.6207Z" fill="white"/>
</g>
<path d="M39.5172 5.82766H48.4827C48.978 5.82766 49.3792 5.42645 49.3792 4.93111V3.13801C49.3792 2.64266 48.978 2.24146 48.4827 2.24146H39.5172C39.0218 2.24146 38.6206 2.64266 38.6206 3.13801V4.93111C38.6206 5.42645 39.0218 5.82766 39.5172 5.82766Z" fill="#FFC468"/>
<path d="M54.7584 14.7932C53.7682 14.7932 52.9653 19.1823 52.9653 20.1725C52.9653 21.1628 53.7682 21.9656 54.7584 21.9656C55.7487 21.9656 56.5515 21.1628 56.5515 20.1725C56.5515 19.1823 55.7487 14.7932 54.7584 14.7932Z" fill="#FFC468"/>
<path d="M33.2413 21.9656C34.2316 21.9656 35.0344 21.1628 35.0344 20.1725C35.0344 19.1823 34.2316 14.7932 33.2413 14.7932C32.2511 14.7932 31.4482 19.1823 31.4482 20.1725C31.4482 21.1628 32.2511 21.9656 33.2413 21.9656Z" fill="#FFC468"/>
<path d="M49.3791 8.96547H48.0343V7.62064C48.0343 7.37274 47.8339 7.17236 47.586 7.17236H45.7929C45.545 7.17236 45.3446 7.37274 45.3446 7.62064V8.96547H43.9998C43.7523 8.96547 43.5515 9.16585 43.5515 9.41374V10.7586C43.5515 11.253 43.9536 11.6551 44.4481 11.6551H48.9308C49.4253 11.6551 49.8274 11.253 49.8274 10.7586V9.41374C49.8274 9.16585 49.627 8.96547 49.3791 8.96547ZM46.2412 8.06892H47.1377V8.96547H46.2412V8.06892ZM48.9308 10.7586H44.4481V9.86202H45.7929H47.586H48.9308V10.7586Z" fill="white"/>
<path d="M49.3791 14.3449H48.0343V13C48.0343 12.7521 47.8339 12.5518 47.586 12.5518H45.7929C45.545 12.5518 45.3446 12.7521 45.3446 13V14.3449H43.9998C43.7523 14.3449 43.5515 14.5452 43.5515 14.7931V16.138C43.5515 16.6324 43.9536 17.0345 44.4481 17.0345H48.9308C49.4253 17.0345 49.8274 16.6324 49.8274 16.138V14.7931C49.8274 14.5452 49.627 14.3449 49.3791 14.3449ZM46.2412 13.4483H47.1377V14.3449H46.2412V13.4483ZM48.9308 16.138H44.4481V15.2414H45.7929H47.586H48.9308V16.138Z" fill="white"/>
<path d="M57 18.3793C57 17.9812 56.376 12.5517 54.7586 12.5517C53.1412 12.5517 52.5172 17.9812 52.5172 18.3793C52.5172 19.4614 53.2887 20.367 54.3103 20.5754V25.1034H51.6207V6.72414C51.6207 5.98269 51.0173 5.37931 50.2759 5.37931H48.0345V4.48276H48.4828C49.2242 4.48276 49.8276 3.87938 49.8276 3.13793V1.34483C49.8276 0.603379 49.2242 0 48.4828 0H39.5172C38.7758 0 38.1724 0.603379 38.1724 1.34483V3.13793C38.1724 3.87938 38.7758 4.48276 39.5172 4.48276H39.9655V5.37931H37.7241C36.9827 5.37931 36.3793 5.98269 36.3793 6.72414V25.1034H33.6897V20.5754C34.7113 20.367 35.4828 19.4619 35.4828 18.3793C35.4828 17.9812 34.8588 12.5517 33.2414 12.5517C31.624 12.5517 31 17.9812 31 18.3793C31 19.4614 31.7715 20.367 32.7931 20.5754V25.1034H31.4483C31.2008 25.1034 31 25.3038 31 25.5517C31 25.7996 31.2008 26 31.4483 26H36.8276H42.2069H44H45.7931H51.1724H56.5517C56.7996 26 57 25.7996 57 25.5517C57 25.3038 56.7996 25.1034 56.5517 25.1034H55.2069V20.5754C56.2285 20.367 57 19.4614 57 18.3793ZM31.8966 18.3793C31.8966 17.1457 32.6949 13.81 33.2414 13.4599C33.7878 13.8096 34.5862 17.1457 34.5862 18.3793C34.5862 19.1208 33.9828 19.7241 33.2414 19.7241C32.4999 19.7241 31.8966 19.1208 31.8966 18.3793ZM39.069 3.13793V1.34483C39.069 1.09738 39.2702 0.896552 39.5172 0.896552H48.4828C48.7302 0.896552 48.931 1.09738 48.931 1.34483V3.13793C48.931 3.38538 48.7302 3.58621 48.4828 3.58621H39.5172C39.2702 3.58621 39.069 3.38538 39.069 3.13793ZM40.8621 4.48276H47.1379V5.37931H40.8621V4.48276ZM43.5517 25.1034H42.6552V22.4138H43.5517V25.1034ZM44.4483 25.1034V22.4138H45.3448V25.1034H44.4483ZM49.8276 25.1034V20.1724C49.8276 19.9245 49.6272 19.7241 49.3793 19.7241C49.1314 19.7241 48.931 19.9245 48.931 20.1724V25.1034H46.2414V21.9655C46.2414 21.7176 46.041 21.5172 45.7931 21.5172H44H42.2069C41.9594 21.5172 41.7586 21.7176 41.7586 21.9655V25.1034H39.069V20.1724C39.069 19.9245 38.8681 19.7241 38.6207 19.7241C38.3732 19.7241 38.1724 19.9245 38.1724 20.1724V25.1034H37.2759V6.72414C37.2759 6.47669 37.4771 6.27586 37.7241 6.27586H50.2759C50.5233 6.27586 50.7241 6.47669 50.7241 6.72414V25.1034H49.8276ZM53.4138 18.3793C53.4138 17.1457 54.2117 13.81 54.7586 13.4599C55.3055 13.8096 56.1034 17.1457 56.1034 18.3793C56.1034 19.1208 55.5001 19.7241 54.7586 19.7241C54.0172 19.7241 53.4138 19.1208 53.4138 18.3793Z" fill="white"/>
<path d="M42.2068 7.17236H40.4137C40.1663 7.17236 39.9655 7.37274 39.9655 7.62064V8.96547H38.6206C38.3732 8.96547 38.1724 9.16585 38.1724 9.41374V10.7586C38.1724 11.253 38.5745 11.6551 39.0689 11.6551H41.7586C42.253 11.6551 42.6551 11.253 42.6551 10.7586V9.41374V7.62064C42.6551 7.37274 42.4543 7.17236 42.2068 7.17236ZM40.862 8.06892H41.7586V8.96547H40.862V8.06892ZM41.7586 10.7586H39.0689V9.86202H40.4137H41.7586V10.7586Z" fill="white"/>
<path d="M42.2068 12.5518H40.4137C40.1663 12.5518 39.9655 12.7521 39.9655 13V14.3449H38.6206C38.3732 14.3449 38.1724 14.5452 38.1724 14.7931V16.138C38.1724 16.6324 38.5745 17.0345 39.0689 17.0345H41.7586C42.253 17.0345 42.6551 16.6324 42.6551 16.138V14.7931V13C42.6551 12.7521 42.4543 12.5518 42.2068 12.5518ZM40.862 13.4483H41.7586V14.3449H40.862V13.4483ZM41.7586 16.138H39.0689V15.2414H40.4137H41.7586V16.138Z" fill="white"/>
<defs>
<clipPath id="clip0">
<rect width="26" height="26" fill="white"/>
</clipPath>
</defs>
</svg>
