<svg width="32" height="32" viewBox="0 0 32 32" fill="none" xmlns="http://www.w3.org/2000/svg">
<path fill-rule="evenodd" clip-rule="evenodd" d="M27.7581 20.3401C27.728 20.2897 27.6963 20.2415 27.6647 20.1989C27.3502 19.7593 26.8825 19.4686 26.3489 19.3809C25.8179 19.2931 25.2797 19.4182 24.8416 19.7328L19.0386 23.8764H12.9761C12.6901 23.8764 12.4571 23.6439 12.4571 23.3574C12.4571 23.0709 12.6901 22.8383 12.9761 22.8383H16.35C17.3517 22.8383 18.1667 22.0234 18.1667 21.0216C18.1667 21.0159 18.1661 20.9682 18.1656 20.963C18.1334 19.9617 17.2889 19.1811 16.3085 19.205H9.55617C8.9577 19.2102 8.3748 19.4246 7.91544 19.8076L5.37729 21.9202C5.25892 22.0193 5.19043 22.1652 5.19043 22.3193V28.5479C5.19043 28.8349 5.42297 29.0669 5.70946 29.0669H18.5876C19.4306 29.0659 20.2517 28.769 20.9005 28.2318L27.193 23.0325C28.0478 22.4235 28.2959 21.2412 27.7581 20.3401ZM26.5617 22.2097L20.2392 27.4318C19.7751 27.816 19.1881 28.0277 18.587 28.0287H6.22847V22.5626L8.58026 20.6047C8.85641 20.3748 9.20573 20.246 9.56077 20.2429L16.325 20.2424C16.7553 20.2419 17.1145 20.5674 17.1285 21.0216C17.1285 21.4508 16.7792 21.8001 16.3499 21.8001H12.9761C12.1176 21.8001 11.419 22.4988 11.419 23.3573C11.419 24.2158 12.1176 24.9144 12.9761 24.9144H19.2047C19.3127 24.9144 19.418 24.8807 19.5073 24.8179L25.4463 20.5767C25.6601 20.4231 25.9201 20.3634 26.1807 20.4049C26.4408 20.448 26.6681 20.5891 26.8243 20.8071C26.8399 20.8284 26.8539 20.8502 26.8674 20.8725C27.1301 21.3122 27.0081 21.8899 26.5617 22.2097Z" fill="#E3E9EF"/>
<path fill-rule="evenodd" clip-rule="evenodd" d="M5.694 21.2811H0V22.3192H5.17491V30.105H0V31.1431H5.694C5.98049 31.1431 6.21303 30.9111 6.21303 30.624V21.8002C6.21303 21.5131 5.98049 21.2811 5.694 21.2811Z" fill="#E3E9EF"/>
<path fill-rule="evenodd" clip-rule="evenodd" d="M2.59511 25.9525C1.73661 25.9525 1.03796 26.6512 1.03796 27.5097C1.03796 28.3682 1.73661 29.0668 2.59511 29.0668C3.45361 29.0668 4.15226 28.3682 4.15226 27.5097C4.15226 26.6512 3.45361 25.9525 2.59511 25.9525ZM2.59525 28.0287C2.30924 28.0287 2.07622 27.7961 2.07622 27.5096C2.07622 27.2231 2.30924 26.9906 2.59525 26.9906C2.88125 26.9906 3.11428 27.2231 3.11428 27.5096C3.11428 27.7961 2.88125 28.0287 2.59525 28.0287Z" fill="#E3E9EF"/>
<path fill-rule="evenodd" clip-rule="evenodd" d="M30.624 16.0906H0.519029C0.232538 16.0906 0 16.3226 0 16.6096C0 18.6126 1.62984 20.2429 3.63333 20.2429H27.5096C29.5126 20.2429 31.1429 18.6126 31.1429 16.6096C31.143 16.3226 30.911 16.0906 30.624 16.0906ZM27.5094 19.2049H3.6331C2.37959 19.2049 1.33113 18.3116 1.09026 17.1287H30.0522C29.8114 18.3116 28.7629 19.2049 27.5094 19.2049Z" fill="#E3E9EF"/>
<path fill-rule="evenodd" clip-rule="evenodd" d="M15.5715 2.59534C8.13038 2.59534 2.07617 8.64955 2.07617 16.0907V16.6097C2.07617 16.8967 2.30871 17.1287 2.5952 17.1287H28.5477C28.8347 17.1287 29.0667 16.8967 29.0667 16.6097V16.0907C29.0668 8.64949 23.0131 2.59534 15.5715 2.59534ZM3.11434 16.0907C3.11434 9.22207 8.70292 3.63349 15.5715 3.63349C22.4401 3.63349 28.0287 9.22207 28.0287 16.0907H3.11434Z" fill="#E3E9EF"/>
<path fill-rule="evenodd" clip-rule="evenodd" d="M7.03398 8.51611C6.67115 8.92407 6.33484 9.36062 6.0343 9.81426L6.89955 10.3878C7.17364 9.9746 7.47984 9.5765 7.80994 9.2054L7.03398 8.51611Z" fill="#E3E9EF"/>
<path fill-rule="evenodd" clip-rule="evenodd" d="M15.5715 4.67151C12.6565 4.67309 9.88113 5.77447 7.7572 7.77127L8.46832 8.52752C10.3992 6.71186 12.9223 5.71115 15.572 5.70963L15.5715 4.67151Z" fill="#E3E9EF"/>
<rect x="14.0143" width="3.1143" height="1.11225" fill="#E3E9EF"/>
<rect x="15.0522" y="0.519165" width="1.11225" height="2.59527" fill="#E3E9EF"/>
</svg>
