<svg width="65" height="83" viewBox="0 0 65 83" fill="none" xmlns="http://www.w3.org/2000/svg">
<g clip-path="url(#clip0)">
<path d="M37.0933 33.1326V8.44949C37.0933 3.8009 40.9163 0 45.5919 0H56.5016C61.1772 0 65.0002 3.8009 65.0002 8.44949V31.3825C61.3239 32.2028 58.491 36.2499 55.0898 41.5821H45.5919C40.9163 41.5821 37.0933 37.7811 37.0933 33.1326Z" fill="#A0E7B1"/>
<path d="M65.0002 8.44949V33.1326C65.0002 37.7811 61.1772 41.5821 56.5016 41.5821H45.5919C40.9163 41.5821 37.0933 37.7811 37.0933 33.1326V10.1995C40.7696 9.3792 43.6024 5.3322 47.0037 0H56.5016C61.168 0 65.0002 3.8009 65.0002 8.44949Z" fill="#A0E7B1"/>
<path d="M58.8396 14.4473V27.126C58.8396 29.8514 56.7035 32.0845 54.0907 32.0845H47.9941C45.3812 32.0845 43.2451 29.8514 43.2451 27.126V14.4473C43.2451 13.08 43.7769 11.8404 44.6386 10.938C45.5004 10.0448 46.6831 9.48877 47.9849 9.48877H54.0815C55.3833 9.48877 56.566 10.0448 57.4278 10.938C58.3079 11.8404 58.8396 13.0891 58.8396 14.4473Z" fill="#19BC8E"/>
<path d="M57.4463 15.3226V26.2513C57.4463 28.4571 55.631 30.2618 53.4124 30.2618H48.6818C46.4632 30.2618 44.6479 28.4571 44.6479 26.2513V15.3226C44.6479 13.1168 46.4632 11.312 48.6818 11.312H53.4032C55.631 11.312 57.4463 13.1168 57.4463 15.3226Z" fill="#B6D7FF"/>
<path d="M57.4463 10.9474C56.832 13.5725 54.2008 15.5413 51.0471 15.5413C47.8934 15.5413 45.2622 13.5725 44.6479 10.9474C45.5097 10.0542 46.6924 9.49816 47.9942 9.49816H54.0908C55.4018 9.48904 56.5845 10.0451 57.4463 10.9474Z" fill="#19BC8E"/>
<path d="M57.4463 22.4136V26.2509C57.4463 28.4567 55.631 30.2615 53.4124 30.2615H48.6818C46.4632 30.2615 44.6479 28.4567 44.6479 26.2509V22.4774C46.3348 22.4591 48.1867 22.4774 49.5069 22.5868C52.6331 22.842 53.7058 22.5868 55.576 22.4683C56.2728 22.4318 56.887 22.4136 57.4463 22.4136Z" fill="#C3E0FF"/>
<path d="M57.4456 22.833V26.2511C57.4456 28.4569 55.6304 30.2616 53.4118 30.2616H48.6812C46.5268 30.2616 44.7482 28.5571 44.6474 26.4425C44.6474 26.3787 44.6382 26.3149 44.6382 26.2511V23.3708C45.5275 23.2067 46.7284 23.0882 48.1861 23.2067C51.3674 23.4619 53.531 22.6507 54.9153 22.8968C55.8596 23.0609 56.5747 22.9059 57.4456 22.833Z" fill="#D5EAFF"/>
<path d="M57.4463 26.2145V26.251C57.4463 28.4568 55.631 30.2615 53.4124 30.2615H48.6818C46.5274 30.2615 44.7488 28.5571 44.6479 26.4424C45.5281 26.2054 46.9949 25.8955 48.0125 26.0505C49.5619 26.2966 50.9554 26.251 52.8715 26.0049C54.7876 25.7679 55.2551 25.7679 56.3461 26.0049C56.722 26.096 57.0887 26.1598 57.4463 26.2145Z" fill="#E2F1FF"/>
<path d="M18.3453 70.6677L15.8058 71.1508C14.7974 71.3422 13.7981 71.2966 12.863 71.0505C12.6246 70.9867 12.3954 70.9138 12.1662 70.8318C10.0668 70.0388 8.4074 68.2067 7.94901 65.855L0.119672 25.3759C-0.577084 21.7755 1.81572 18.2572 5.44619 17.5645L6.3263 17.4004L7.48145 17.1816L7.98568 17.0814C11.607 16.3886 15.1458 18.7676 15.8425 22.3771L23.6719 62.8745C24.3686 66.4657 21.9758 69.975 18.3453 70.6677Z" fill="#A0E7B1"/>
<path d="M15.8975 33.4789H15.4299C14.5957 33.4789 13.8806 32.8955 13.7247 32.0843L11.8453 22.3678C11.3594 19.843 9.48 17.9198 7.15137 17.2362L7.47224 17.1724L7.97647 17.0721C11.5978 16.3794 15.1366 18.7583 15.8333 22.3678L17.5844 31.4371C17.8044 32.4945 16.9793 33.4789 15.8975 33.4789Z" fill="#19BC8E"/>
<path d="M46.9674 82.9998H17.1352C13.7431 82.9998 10.7269 81.6508 9.07669 79.3994C7.49983 77.2483 7.50899 74.6779 9.1042 72.5359L15.5767 63.8403L20.4081 66.0461L13.9356 74.7417C13.3489 75.5256 13.3489 76.428 13.9265 77.221C14.5682 78.096 15.7692 78.6247 17.1352 78.6247H41.7509C44.6296 78.6155 46.9674 80.5844 46.9674 82.9998Z" fill="#19BC8E"/>
<path d="M45.0239 58.0708H17.4471L10.5437 22.3678C10.0944 20.0162 8.42589 18.1932 6.32646 17.3911L5.44635 17.5552C1.82505 18.2479 -0.576927 21.7662 0.119829 25.3666L7.94917 65.8549C8.17836 67.058 8.72843 68.1245 9.49853 68.9904C10.287 70.4761 11.8455 71.497 13.6424 71.497H45.0239C47.6001 71.497 49.7087 69.4006 49.7087 66.8393V62.7194C49.6995 60.1672 47.6001 58.0708 45.0239 58.0708Z" fill="#A0E7B1"/>
<path d="M45.3442 48.7188V49.1108C45.3442 49.5483 44.9867 49.9038 44.5466 49.9038H15.8604L15.3929 47.4792V47.4518L15.2554 46.7227H43.3456C44.4366 46.7318 45.3442 47.6341 45.3442 48.7188Z" fill="#A0E7B1"/>
<path d="M44.3726 49.4571V49.849C44.3726 49.8673 44.3726 49.8946 44.3726 49.9128H15.8606L15.3931 47.4883V47.4609H42.374C43.4742 47.4701 44.3726 48.3633 44.3726 49.4571Z" fill="#19BC8E"/>
<path d="M49.571 65.3812H8.07736C7.79316 65.3812 7.56396 65.1533 7.56396 64.8708C7.56396 64.5882 7.79316 64.3604 8.07736 64.3604H49.571C49.8552 64.3604 50.0844 64.5882 50.0844 64.8708C50.0844 65.1533 49.8552 65.3812 49.571 65.3812Z" fill="#19BC8E"/>
<path d="M40.1461 73.4199H21.5537C20.967 73.4199 20.4902 73.8939 20.4902 74.4772V77.5672C20.4902 78.1505 20.967 78.6245 21.5537 78.6245H40.1461C40.7328 78.6245 41.2096 78.1505 41.2096 77.5672V74.4772C41.2096 73.8939 40.7237 73.4199 40.1461 73.4199Z" fill="#A0E7B1"/>
</g>
<defs>
<clipPath id="clip0">
<rect width="65" height="83" fill="white"/>
</clipPath>
</defs>
</svg>
