<?xml version="1.0" encoding="utf-8"?>
<!-- Generator: Adobe Illustrator 23.0.0, SVG Export Plug-In . SVG Version: 6.00 Build 0)  -->
<svg version="1.1" id="Layer_1" xmlns="http://www.w3.org/2000/svg" xmlns:xlink="http://www.w3.org/1999/xlink" x="0px" y="0px"
	 viewBox="0 0 22.4 20" style="enable-background:new 0 0 22.4 20;" xml:space="preserve">
<style type="text/css">
	.st0{fill:#F06A4F;}
	.st1{fill:#FFFFFF;}
</style>
<title>step-success-icon</title>
<rect class="st0" width="22.4" height="20"/>
<path class="st1" d="M10,20C4.5,20,0,15.5,0,10S4.5,0,10,0s10,4.5,10,10S15.5,20,10,20z M10,18L10,18c4.4,0,8-3.6,8-8s-3.6-8-8-8
	s-8,3.6-8,8S5.6,18,10,18z M8,15l-4-4l1.4-1.4L8,12.2l6.6-6.6L16,7L8,15z"/>
</svg>
