<svg width="17" height="17" viewBox="0 0 17 17" fill="none" xmlns="http://www.w3.org/2000/svg">
<path fill-rule="evenodd" clip-rule="evenodd" d="M15.35 14.025V5.77496C15.35 5.31956 14.9804 4.94996 14.525 4.94996H2.97502C2.51962 4.94996 2.15002 5.31956 2.15002 5.77496V14.025C2.15002 14.4804 2.51962 14.85 2.97502 14.85H14.525C14.9804 14.85 15.35 14.4804 15.35 14.025ZM7.09998 2.47502V3.30002H10.4V2.47502C10.4 2.01962 10.0304 1.65002 9.57498 1.65002H7.92498C7.46958 1.65002 7.09998 2.01962 7.09998 2.47502ZM15.35 3.3C16.2616 3.3 17 4.03837 17 4.95V14.85C17 15.7616 16.2616 16.5 15.35 16.5H2.15C1.23837 16.5 0.5 15.7616 0.5 14.85V4.95C0.5 4.03837 1.23837 3.3 2.15 3.3H5.45V1.65C5.45 0.738375 6.18837 0 7.1 0H10.4C11.3116 0 12.05 0.738375 12.05 1.65V3.3H15.35ZM7.92501 12.375V10.725H6.27501C5.81961 10.725 5.45001 10.3554 5.45001 9.89998C5.45001 9.44458 5.81961 9.07498 6.27501 9.07498H7.92501V7.42498C7.92501 6.96958 8.29461 6.59998 8.75001 6.59998C9.20541 6.59998 9.57501 6.96958 9.57501 7.42498V9.07498H11.225C11.6804 9.07498 12.05 9.44458 12.05 9.89998C12.05 10.3554 11.6804 10.725 11.225 10.725H9.57501V12.375C9.57501 12.8304 9.20541 13.2 8.75001 13.2C8.29461 13.2 7.92501 12.8304 7.92501 12.375Z" fill="#90A8BE"/>
</svg>
