<svg width="18" height="18" viewBox="0 0 18 18" fill="none" xmlns="http://www.w3.org/2000/svg">
<path fill-rule="evenodd" clip-rule="evenodd" d="M9 16.5C13.1421 16.5 16.5 13.1421 16.5 9C16.5 4.85786 13.1421 1.5 9 1.5C4.85786 1.5 1.5 4.85786 1.5 9C1.5 13.1421 4.85786 16.5 9 16.5ZM5.46967 6.53033C5.17678 6.23744 5.17678 5.76256 5.46967 5.46967C5.76256 5.17678 6.23744 5.17678 6.53033 5.46967L9 7.93934L11.4697 5.46967C11.7626 5.17678 12.2374 5.17678 12.5303 5.46967C12.8232 5.76256 12.8232 6.23744 12.5303 6.53033L10.0607 9L12.5303 11.4697C12.8232 11.7626 12.8232 12.2374 12.5303 12.5303C12.2374 12.8232 11.7626 12.8232 11.4697 12.5303L9 10.0607L6.53033 12.5303C6.23744 12.8232 5.76256 12.8232 5.46967 12.5303C5.17678 12.2374 5.17678 11.7626 5.46967 11.4697L7.93934 9L5.46967 6.53033Z" fill="black"/>
</svg>
