<svg width="26" height="26" viewBox="0 0 26 26" fill="none" xmlns="http://www.w3.org/2000/svg">
<path d="M24.6553 13.0001C24.6553 12.0099 23.8524 11.207 22.8622 11.207C22.7376 11.207 22.6161 11.22 22.4982 11.2442C21.6823 11.4123 21.0691 12.1345 21.0691 13.0001V14.7932H22.8196H24.6553V13.0001Z" fill="#FFC468"/>
<path d="M7.62063 8.51736V6.72426C7.62063 6.38805 7.52246 6.0765 7.36108 5.80753C7.04774 5.28484 6.48156 4.93115 5.82753 4.93115C4.83729 4.93115 4.03442 5.73401 4.03442 6.72426V8.51736H4.73598H7.62063Z" fill="#FFC468"/>
<path d="M3.13794 20.1725V21.9656H6.72415V21.5043V20.1725C6.72415 19.1823 5.92129 18.3794 4.93104 18.3794C4.70108 18.3794 4.48322 18.4265 4.28104 18.5054C3.61311 18.7663 3.13794 19.4122 3.13794 20.1725Z" fill="#FFC468"/>
<path d="M3.13786 8.96552C1.90197 8.96552 0.896484 9.971 0.896484 11.2069V13C0.896484 13.2479 1.09731 13.4483 1.34476 13.4483H2.7909C2.93031 14.5179 3.23335 15.5467 3.69597 16.519C3.0751 16.9273 2.68959 17.6137 2.68959 18.3793V20.1724C2.68959 20.4203 2.89042 20.6207 3.13786 20.6207H6.72407C6.83973 20.6207 6.94283 20.5741 7.02262 20.5019C7.26111 20.6718 7.5081 20.8282 7.75959 20.9766L5.55855 25.1034H4.03442C3.78697 25.1034 3.58614 25.3038 3.58614 25.5517C3.58614 25.7996 3.78697 26 4.03442 26H5.82752C5.99293 26 6.1449 25.909 6.2229 25.7629L8.54945 21.4002C9.25279 21.7364 9.99469 21.9911 10.7586 22.1605V23.7586C10.7586 24.0065 10.9594 24.2069 11.2068 24.2069H14.793C15.0409 24.2069 15.2413 24.0065 15.2413 23.7586V22.1605C16.0052 21.9911 16.7466 21.7364 17.45 21.4002L19.7765 25.7629C19.8545 25.909 20.0069 26 20.1723 26H21.9654C22.2133 26 22.4137 25.7996 22.4137 25.5517C22.4137 25.3038 22.2133 25.1034 21.9654 25.1034H20.4413L18.2403 20.9766C18.4918 20.8282 18.7388 20.6713 18.9772 20.5019C19.0566 20.5741 19.1601 20.6207 19.2758 20.6207H22.862C23.1099 20.6207 23.3103 20.4203 23.3103 20.1724V18.3793C23.3103 17.6137 22.9248 16.9273 22.3039 16.519C22.7665 15.5467 23.07 14.5179 23.209 13.4483H24.6551C24.903 13.4483 25.1034 13.2479 25.1034 13V11.2069C25.1034 9.971 24.0979 8.96552 22.862 8.96552C22.8463 8.96552 22.8302 8.97 22.8145 8.97045C22.6146 8.34241 22.3617 7.7341 22.0452 7.15628C22.2532 7.11772 22.4137 6.94379 22.4137 6.72414V4.93103C22.4137 3.69514 21.4082 2.68966 20.1723 2.68966C19.5398 2.68966 18.9571 2.95503 18.5379 3.41093C17.5168 2.75824 16.4037 2.29831 15.2207 2.03921C15.1167 0.899241 14.1663 0 12.9999 0C11.8335 0 10.8832 0.899241 10.7792 2.03921C9.59617 2.29831 8.4831 2.75779 7.46193 3.41093C7.04279 2.95503 6.46004 2.68966 5.82752 2.68966C4.59162 2.68966 3.58614 3.69514 3.58614 4.93103V6.72414C3.58614 6.94379 3.74662 7.11772 3.95462 7.15628C3.63814 7.7341 3.38531 8.34241 3.18493 8.97045C3.16924 8.97 3.15355 8.96552 3.13786 8.96552ZM1.79304 11.2069C1.79304 10.3749 2.57483 9.72131 3.41131 9.88986C3.47452 9.90286 3.53459 9.92303 3.59421 9.94455C3.60766 9.94948 3.62245 9.95172 3.6359 9.9571C3.65607 9.96517 3.67355 9.97683 3.69328 9.98579C4.16262 10.201 4.48269 10.6734 4.48269 11.2069V12.5517H3.18045H1.79304V11.2069ZM3.58614 19.7241V18.3793C3.58614 17.8234 3.92279 17.333 4.44369 17.13C5.35459 16.774 6.27579 17.4765 6.27579 18.3793V19.7111L3.58614 19.7241ZM11.6551 23.3103V21.966C11.6556 21.9512 11.6582 21.9364 11.6605 21.9211L11.6699 21.8431C11.7331 21.1465 12.3051 20.6207 12.9999 20.6207C13.6948 20.6207 14.2663 21.1465 14.3304 21.8436L14.3448 23.3103H11.6551ZM15.1243 21.2734C15.0934 21.1774 15.0535 21.086 15.0109 20.9963C15.0037 20.9811 14.9992 20.9641 14.9916 20.9493C14.9342 20.8354 14.8666 20.7283 14.7917 20.627C14.7675 20.5942 14.7392 20.5656 14.7132 20.5342C14.6586 20.4678 14.6025 20.4037 14.5407 20.3441C14.5057 20.3105 14.4685 20.2809 14.4317 20.2495C14.3717 20.1989 14.3098 20.1509 14.2443 20.107C14.2031 20.0792 14.161 20.0532 14.1175 20.0281C14.0489 19.9882 13.9785 19.9532 13.9054 19.9209C13.8611 19.9012 13.8171 19.881 13.771 19.864C13.6898 19.834 13.6056 19.8116 13.5204 19.7914C13.4791 19.7815 13.4392 19.7685 13.3971 19.7609C13.2676 19.7385 13.1358 19.7241 12.9999 19.7241C12.8641 19.7241 12.7319 19.7385 12.6028 19.7613C12.562 19.7685 12.5234 19.7811 12.4835 19.7905C12.3952 19.8111 12.3087 19.8349 12.2249 19.8658C12.1836 19.881 12.1446 19.899 12.1047 19.9164C12.0231 19.9523 11.9438 19.9918 11.8676 20.037C11.8349 20.0563 11.803 20.076 11.7717 20.0967C11.686 20.1536 11.6049 20.2159 11.5282 20.284C11.5117 20.2988 11.4942 20.3123 11.4785 20.3271C11.2059 20.5826 10.9939 20.9036 10.876 21.2729C10.2184 21.121 9.57959 20.8973 8.97173 20.6095L12.3674 14.2422C12.5691 14.3027 12.7785 14.3448 12.9999 14.3448C13.2214 14.3448 13.4307 14.3027 13.6329 14.2426L17.0286 20.6099C16.4203 20.8977 15.7819 21.1214 15.1243 21.2734ZM11.6551 12.1034C11.6551 11.362 12.2585 10.7586 12.9999 10.7586C13.7414 10.7586 14.3448 11.362 14.3448 12.1034C14.3448 12.4522 14.208 12.7673 13.9897 13.0067L13.3958 11.8928C13.2398 11.6005 12.7606 11.6005 12.6046 11.8928L12.0106 13.0067C11.7918 12.7673 11.6551 12.4522 11.6551 12.1034ZM13.1985 13.4281C13.1331 13.438 13.0681 13.4483 12.9999 13.4483C12.9318 13.4483 12.8668 13.438 12.8013 13.4281L12.9999 13.056L13.1985 13.4281ZM22.4137 19.7241H19.7241V19.7111V18.3793C19.7241 17.4769 20.6439 16.7731 21.5562 17.13C22.0771 17.333 22.4137 17.8234 22.4137 18.3793V19.7241ZM24.2068 11.2069V12.5517H22.8194H21.5172V11.2069C21.5172 11.0482 21.5454 10.8944 21.5974 10.751C21.7534 10.3211 22.1232 9.98579 22.589 9.88986C22.6796 9.87148 22.771 9.86207 22.862 9.86207C23.6034 9.86207 24.2068 10.4654 24.2068 11.2069ZM20.1723 3.58621C20.9138 3.58621 21.5172 4.18959 21.5172 4.93103V6.27586H21.2643H18.8275V4.93103C18.8275 4.693 18.8934 4.46169 19.0239 4.24472C19.2704 3.83231 19.6999 3.58621 20.1723 3.58621ZM11.6551 2.24138C11.6551 1.49993 12.2585 0.896552 12.9999 0.896552C13.7414 0.896552 14.3448 1.49993 14.3448 2.24138V2.40679V3.58621H11.6551V2.40679V2.24138ZM10.7586 2.96041V4.03448C10.7586 4.28238 10.9594 4.48276 11.2068 4.48276H14.793C15.0409 4.48276 15.2413 4.28238 15.2413 4.03448V2.96041C16.2463 3.20517 17.194 3.61086 18.0686 4.17166C18.0614 4.19138 18.0587 4.212 18.052 4.23172C18.0242 4.31376 18.0018 4.39624 17.9839 4.48007C17.9767 4.51414 17.9682 4.54776 17.9623 4.58228C17.9435 4.69793 17.931 4.81448 17.931 4.93103V6.72414C17.931 6.97203 18.1313 7.17241 18.3792 7.17241H21.0178C21.4038 7.79821 21.714 8.46569 21.9426 9.16276C21.8825 9.1901 21.8269 9.22417 21.77 9.25645C21.7391 9.27393 21.7063 9.28828 21.6763 9.3071C21.5777 9.36897 21.484 9.438 21.3966 9.51376C21.3755 9.53214 21.3576 9.55365 21.337 9.57293C21.272 9.6339 21.2092 9.6971 21.1518 9.76524C21.1245 9.79752 21.1007 9.83248 21.0752 9.8661C21.0299 9.92617 20.9869 9.98759 20.9479 10.0521C20.9246 10.0907 20.903 10.1301 20.882 10.1705C20.8474 10.2364 20.8165 10.3036 20.7887 10.3727C20.7721 10.4139 20.7551 10.4547 20.7408 10.4973C20.7152 10.5735 20.6955 10.6515 20.678 10.7308C20.6695 10.7689 20.6587 10.8057 20.6524 10.8442C20.6327 10.963 20.6206 11.0836 20.6206 11.2069V13C20.6206 13.2479 20.821 13.4483 21.0689 13.4483H22.3164C22.1806 14.3991 21.9027 15.2414 21.4858 16.1379C21.4849 16.1379 21.4836 16.1379 21.4827 16.1379C21.345 16.1379 21.207 16.1173 21.0689 16.1173C19.833 16.1173 18.8275 17.1434 18.8275 18.3793V19.4969C18.507 19.7497 18.1686 19.9783 17.8189 20.1863L14.4237 13.8199C14.9186 13.4088 15.2413 12.796 15.2413 12.1034C15.2413 10.8676 14.2358 9.86207 12.9999 9.86207C11.764 9.86207 10.7586 10.8676 10.7586 12.1034C10.7586 12.796 11.0809 13.4084 11.5762 13.8199L8.18097 20.1868C7.83131 19.9783 7.49286 19.7501 7.17235 19.4973V18.3793C7.17235 17.1434 6.16686 16.1173 4.93097 16.1173C4.7929 16.1173 4.65438 16.1379 4.51676 16.1379C4.51542 16.1379 4.51452 16.1379 4.51317 16.1379C4.09673 15.2414 3.81835 14.3991 3.68297 13.4483H4.93097C5.17842 13.4483 5.37924 13.2479 5.37924 13V11.2069C5.37924 11.0836 5.36714 10.963 5.34741 10.8447C5.34114 10.8061 5.33038 10.7694 5.32186 10.7317C5.30438 10.6524 5.28466 10.5739 5.2591 10.4977C5.24521 10.456 5.22862 10.4157 5.21204 10.3749C5.18379 10.305 5.15242 10.2364 5.11745 10.17C5.09683 10.131 5.07621 10.0925 5.05335 10.0548C5.01345 9.98848 4.96907 9.92572 4.92245 9.86386C4.89824 9.83159 4.87538 9.79886 4.84938 9.76793C4.78886 9.69621 4.72297 9.62897 4.65393 9.56531C4.6369 9.54962 4.62255 9.53169 4.60507 9.5169C4.51676 9.43979 4.42173 9.37031 4.32176 9.30755C4.29486 9.29097 4.26573 9.27797 4.23838 9.26228C4.17876 9.22821 4.12004 9.19235 4.05728 9.1641C4.28635 8.46704 4.5961 7.8 4.98207 7.17376H7.62062C7.86807 7.17376 8.0689 6.97338 8.0689 6.72548V4.93238C8.0689 4.81583 8.05635 4.69972 8.03752 4.58407C8.03169 4.54866 8.02317 4.51414 8.01555 4.47917C7.99807 4.39714 7.9761 4.316 7.94921 4.23576C7.94204 4.21514 7.93979 4.19317 7.93217 4.17255C8.80586 3.61131 9.75352 3.20517 10.7586 2.96041ZM4.48269 4.93103C4.48269 4.18959 5.08607 3.58621 5.82752 3.58621C6.3 3.58621 6.72945 3.83231 6.97645 4.24472C7.10645 4.46169 7.17235 4.69255 7.17235 4.93103V6.27586H4.73552H4.48269V4.93103Z" fill="white"/>
</svg>
