<svg width="74" height="80" viewBox="0 0 74 80" fill="none" xmlns="http://www.w3.org/2000/svg">
<path d="M62.2815 74.58H0C0 68.2928 13.8886 56.6938 31.1408 56.6938C38.3021 56.6938 44.8123 58.7535 50.129 61.5719C57.5073 65.5827 62.2815 71.0028 62.2815 74.58Z" fill="#FDD52C"/>
<path d="M21.4837 43.0352H16.7096C14.7565 43.0352 13.1289 44.6612 13.1289 46.6124V52.2492H25.0644V46.6124C25.0644 44.6612 23.4368 43.0352 21.4837 43.0352ZM22.7858 50.0812H15.299V46.7208C15.299 45.962 15.95 45.3116 16.601 45.3116H21.3752C22.1348 45.3116 22.6773 45.962 22.6773 46.7208V50.0812H22.7858Z" fill="#A0652E"/>
<path d="M35.6979 50.4063V69.1597C35.6979 70.3521 34.7213 71.3277 33.5278 71.3277H4.77409C3.58054 71.3277 2.604 70.3521 2.604 69.1597V50.4063C2.604 49.2139 3.58054 48.2383 4.77409 48.2383H33.5278C34.7213 48.2383 35.6979 49.2139 35.6979 50.4063Z" fill="#59B5E6"/>
<path opacity="0.2" d="M6.61848 67.3169C4.23138 65.4741 3.79736 49.2139 3.79736 50.2979V68.2925C3.79736 69.4849 4.7739 70.3521 5.85895 70.3521H33.6361C34.7211 70.3521 9.6566 69.5933 6.61848 67.3169Z" fill="white"/>
<path d="M29.2962 48.2383H27.4517V71.2193H29.2962V48.2383Z" fill="#A0652E"/>
<path d="M10.742 48.2383H8.89746V71.2193H10.742V48.2383Z" fill="#A0652E"/>
<path d="M35.698 50.4063V51.9239C34.0704 51.3819 32.7684 49.9727 32.4429 48.2383H33.5279C34.7215 48.2383 35.698 49.2139 35.698 50.4063Z" fill="#7F5026"/>
<path d="M5.85914 48.2383C5.53362 49.9727 4.23157 51.3819 2.604 51.9239V50.4063C2.604 49.2139 3.58054 48.2383 4.77409 48.2383H5.85914Z" fill="#7F5026"/>
<path d="M35.698 67.5337V69.0513C35.698 70.2437 34.7215 71.2193 33.5279 71.2193H32.4429C32.7684 69.4849 33.9619 68.0757 35.698 67.5337Z" fill="#7F5026"/>
<path d="M5.85914 71.2193H4.77409C3.58054 71.2193 2.604 70.2437 2.604 69.0513V67.5337C4.23157 68.0757 5.53362 69.4849 5.85914 71.2193Z" fill="#7F5026"/>
<path d="M25.2815 47.6963H22.5688V48.2383H25.2815V47.6963Z" fill="#7F5026"/>
<path d="M15.6247 47.6963H12.9121V48.2383H15.6247V47.6963Z" fill="#7F5026"/>
<path d="M16.4927 59.6203C16.3842 59.6203 16.3842 59.6203 16.2757 59.5119C16.1672 59.4035 16.1672 59.2951 16.1672 59.1867L16.3842 56.3683L14.7566 56.8019L14.5396 57.7775C14.5396 57.8859 14.4311 57.9943 14.3226 57.9943L13.7801 58.2111H13.6716C13.5631 58.2111 13.5631 58.2111 13.4546 58.1027C13.3461 57.9943 13.3461 57.8859 13.3461 57.7775V56.5851L12.5865 55.6095C12.478 55.5011 12.478 55.3927 12.478 55.2843C12.478 55.1759 12.5865 55.0675 12.695 55.0675L13.2376 54.8507H13.3461C13.4546 54.8507 13.4546 54.8507 13.5631 54.9591L14.3226 55.5011L15.8417 54.8507L13.7801 52.791C13.6716 52.6826 13.6716 52.5742 13.6716 52.4658C13.6716 52.3574 13.7801 52.249 13.8886 52.249L14.5396 52.0322H14.6481C14.7566 52.0322 14.7566 52.0322 14.8651 52.0322L18.0118 53.875L18.6628 53.5498C18.8798 53.4414 19.0968 53.4414 19.3138 53.4414C19.8563 53.4414 20.1818 53.6582 20.2903 53.9834C20.2903 54.0918 20.3989 54.3086 20.2903 54.5255C20.0733 54.8507 19.6393 55.1759 19.3138 55.2843L18.6628 55.5011L17.4692 58.9699C17.4692 59.0783 17.3607 59.1867 17.2522 59.1867L16.6012 59.6203H16.4927Z" fill="white"/>
<path d="M16.8182 55.8262L18.5543 55.1758L17.2522 59.0782L16.4927 59.295L16.8182 55.8262Z" fill="#949494"/>
<path d="M16.6011 55.1758L18.3371 54.6338L14.7565 52.4658L14.1055 52.791L16.6011 55.1758Z" fill="#949494"/>
<path d="M14.1055 56.1513L18.8797 54.0917C19.2052 53.9833 19.9647 53.9833 20.0732 54.3085C20.1817 54.6337 19.6392 55.0673 19.3137 55.1757L14.3225 56.6933L14.1055 56.1513Z" fill="#D2D2D2"/>
<path d="M14.6484 56.2598L14.2144 57.7774L13.6719 57.8858V56.6934L14.6484 56.2598Z" fill="#949494"/>
<path d="M14.6482 56.2598L13.3461 55.3926L12.9121 55.6094L13.6716 56.6934L14.6482 56.2598Z" fill="#949494"/>
<path d="M19.3138 54.959C19.4223 54.8506 19.4223 54.8506 19.5308 54.7422C19.5308 54.6338 19.5308 54.5254 19.5308 54.5254C19.5308 54.417 19.4223 54.417 19.3138 54.3086C19.2053 54.3086 19.0968 54.2002 18.9883 54.2002C19.0968 54.2002 19.2053 54.2002 19.3138 54.2002C19.4223 54.2002 19.4223 54.2002 19.4223 54.3086L19.5308 54.417C19.5308 54.5254 19.5308 54.5254 19.5308 54.6338C19.5308 54.7422 19.5308 54.7422 19.4223 54.7422C19.5308 54.8506 19.4223 54.959 19.3138 54.959Z" fill="#474747"/>
<path d="M22.5687 68.5094C20.7241 68.5094 19.2051 66.9918 19.2051 65.149C19.2051 63.3062 20.7241 61.7886 22.5687 61.7886C24.4133 61.7886 25.9323 63.3062 25.9323 65.149C26.0409 66.9918 24.4133 68.5094 22.5687 68.5094Z" fill="white"/>
<path d="M25.7151 65.149C25.7151 66.8834 24.3046 68.2926 22.5685 68.2926C20.8324 68.2926 19.4219 66.8834 19.4219 65.149C19.4219 63.4146 20.8324 62.0054 22.5685 62.0054C24.3046 62.0054 25.7151 63.4146 25.7151 65.149Z" fill="#E3E3E3"/>
<path d="M19.8563 65.5826C19.8563 63.8482 21.2668 62.439 23.0029 62.439C23.8709 62.439 24.739 62.7642 25.2815 63.4146C24.739 62.5474 23.7624 62.0054 22.6774 62.0054C20.9413 62.0054 19.5308 63.4146 19.5308 65.149C19.5308 66.0162 19.8563 66.775 20.3988 67.317C19.9648 66.775 19.8563 66.233 19.8563 65.5826Z" fill="#98887A"/>
<path d="M22.5685 62.439C24.0876 62.439 25.2811 63.6314 25.2811 65.149C25.2811 66.6666 24.0876 67.859 22.5685 67.859C21.0494 67.859 19.8559 66.6666 19.8559 65.149C19.8559 63.6314 21.0494 62.439 22.5685 62.439ZM22.5685 62.0054C20.8324 62.0054 19.4219 63.4146 19.4219 65.149C19.4219 66.8834 20.8324 68.2926 22.5685 68.2926C24.3046 68.2926 25.7151 66.8834 25.7151 65.149C25.7151 63.4146 24.3046 62.0054 22.5685 62.0054Z" fill="#474747"/>
<path d="M23.0029 65.3658L25.0644 65.149L23.0029 64.9322L23.5454 64.1734L22.7859 64.7154L22.5688 62.6558L22.3518 64.7154L21.5923 64.1734L22.1348 64.9322L20.0732 65.149L22.1348 65.3658L21.5923 66.1246L22.3518 65.5826L22.5688 67.6422L22.7859 65.5826L23.5454 66.1246L23.0029 65.3658Z" fill="#A3A3A3"/>
<path d="M20.5073 66.1246L22.7859 65.4741L22.5689 65.1489L22.4604 64.8237L20.5073 66.1246Z" fill="#F94910"/>
<path d="M24.6305 64.1733L22.786 65.4742L22.569 65.1489L22.4604 64.8237L24.6305 64.1733Z" fill="#2181B8"/>
<path d="M41.9912 62.7642C42.3167 64.2818 42.6422 65.7994 42.8592 66.9918H47.8504C48.0675 65.149 48.0675 63.523 48.176 61.897L41.9912 62.7642Z" fill="#A0652E"/>
<path d="M41.6655 58.103L42.6421 62.6559L47.5248 62.0055L47.8503 57.3442L41.6655 58.103Z" fill="#7F5026"/>
<path d="M41.2314 53.333C41.557 54.959 41.8825 56.4767 42.208 57.9943L47.0907 57.3439C47.1992 55.8263 47.3077 54.2002 47.4162 52.6826L41.2314 53.333Z" fill="#A0652E"/>
<path d="M41.123 48.4551C41.3401 50.1895 41.6656 51.8155 41.8826 53.3331L46.8738 52.8995C46.9823 51.3819 47.0908 49.8643 47.3078 48.4551H41.123Z" fill="#7F5026"/>
<path d="M41.4485 42.9268C41.34 44.9864 41.557 46.7208 41.6655 48.4552H46.6567C46.8737 47.046 47.0907 45.6368 47.5248 44.6612L41.4485 42.9268Z" fill="#A0652E"/>
<path d="M42.6421 37.9404C42.4251 39.5664 42.2081 41.1925 42.0996 43.0353L46.9823 44.3361C47.4163 43.1437 47.9588 41.8429 48.5014 40.4337L42.6421 37.9404Z" fill="#7F5026"/>
<path d="M43.7271 33.7124C43.6186 35.1216 43.4016 36.6392 43.1846 38.2652L47.8503 40.3249C48.3928 38.9157 49.0438 37.5064 49.5863 35.9888L43.7271 33.7124Z" fill="#A0652E"/>
<path d="M44.4865 29.5933C44.4865 31.0025 44.4865 32.4117 44.2695 33.8209L49.0437 35.6637C49.5862 34.1461 50.1288 32.5201 50.5628 30.8941L44.4865 29.5933Z" fill="#7F5026"/>
<path d="M44.7036 25.7993C44.9206 26.9917 45.1376 28.2926 45.1376 29.7018L50.0203 30.6774C50.4543 29.0514 50.7799 27.2085 50.8884 25.2573L44.7036 25.7993Z" fill="#A0652E"/>
<path d="M44.1611 22.3306C44.7037 23.3062 45.0292 24.4986 45.3547 25.7995L50.3459 25.4743C50.4544 23.6314 50.4544 21.6802 50.1289 19.8374L44.1611 22.3306Z" fill="#7F5026"/>
<path d="M49.4779 21.1383C46.4398 21.8971 42.3166 22.4391 34.7213 15.3931C35.1553 15.8267 37.8679 13.6587 37.8679 13.6587L33.9618 14.7427C33.9618 14.7427 31.5747 11.599 31.2491 10.6234C32.5512 10.2982 33.5277 9.43102 33.5277 9.43102C33.5277 9.43102 30.9236 9.53942 30.4896 9.53942C29.8386 7.6966 27.777 5.96219 27.126 5.20338C30.7066 4.66137 32.6597 4.87817 33.7447 4.98658C34.6128 6.07059 36.2403 7.6966 36.2403 7.6966L34.7213 4.98658C34.7213 4.98658 37.8679 5.63698 38.5189 5.85378C38.7359 6.72099 40.5805 9.53942 40.5805 9.53942C40.5805 9.53942 39.604 6.72099 39.4955 6.17899C41.2316 6.28739 46.4398 9.75622 48.3928 13.6587C49.3694 15.2847 50.5629 18.2115 49.4779 21.1383Z" fill="#75BB24"/>
<path d="M49.478 21.1386C48.9355 20.0546 48.1759 19.1874 47.4164 18.2117C46.6569 17.3445 45.7888 16.4773 44.9208 15.7185C43.1847 14.2009 41.3402 12.7917 39.3871 11.4909C37.434 10.1901 35.4809 8.99765 33.4193 7.91364C31.3578 6.82963 29.2962 5.85402 27.0176 5.20361C28.1026 5.63722 29.1877 6.07082 30.1642 6.61283C31.2492 7.15483 32.2258 7.69684 33.2023 8.23884C35.2639 9.32285 37.217 10.5153 39.0616 11.8161C41.0146 13.1169 42.8592 14.5261 44.5953 16.0437C45.4633 16.8025 46.3314 17.5613 47.0909 18.4285C48.0674 19.1874 48.827 20.0546 49.478 21.1386Z" fill="#349A2D"/>
<path d="M48.8271 21.1382C53.9269 17.2358 57.616 15.5014 63.4752 17.2358C69.009 18.8618 74.1087 26.2331 73.6747 32.6287C70.094 28.9431 64.9943 29.8103 59.6776 27.3171C57.399 26.2331 51.5398 20.271 48.8271 21.1382Z" fill="#75BB24"/>
<path d="M49.0439 20.9214C50.2375 20.5962 51.431 20.271 52.7331 20.1626C53.9266 19.9458 55.2287 19.9458 56.5307 19.9458C59.0263 19.9458 61.522 20.3794 63.9091 21.355C66.2961 22.3306 68.3577 23.8482 70.0938 25.7995C70.9618 26.7751 71.6129 27.8591 72.2639 29.0515C72.9149 30.2439 73.3489 31.4363 73.783 32.6287C73.3489 31.4363 72.8064 30.2439 72.1554 29.1599C71.5044 28.0759 70.7448 26.9919 69.8768 26.0163C69.0088 25.0407 68.1407 24.1734 67.0557 23.523C66.0791 22.7642 64.8856 22.2222 63.8005 21.6802C62.607 21.2466 61.4134 20.813 60.2199 20.5962C59.0264 20.3794 57.7243 20.271 56.5307 20.1626C55.3372 20.1626 54.0351 20.1626 52.8416 20.271C51.5395 20.4878 50.346 20.7046 49.0439 20.9214Z" fill="#349A2D"/>
<path d="M50.4546 21.2466C44.4869 19.2954 40.3637 18.8618 35.3725 22.439C30.5983 25.7994 27.9942 34.4715 30.3813 40.4336C32.6599 35.7723 37.7596 34.9051 41.9913 30.7859C43.9443 28.9431 47.6335 21.355 50.4546 21.2466Z" fill="#75BB24"/>
<path d="M50.129 21.2466C48.9355 21.355 47.6334 21.4634 46.4399 21.6802C45.2463 21.897 43.9443 22.2222 42.8592 22.6558C40.4721 23.523 38.1936 24.8238 36.349 26.4498C34.3959 28.1843 32.8768 30.3523 31.9003 32.7371C31.4663 33.9295 31.0323 35.2303 30.8153 36.5311C30.5982 37.8319 30.4897 39.1328 30.4897 40.4336C30.5983 39.1328 30.7068 37.8319 31.0323 36.5311C31.2493 35.2303 31.6833 34.0379 32.2258 32.8455C32.7683 31.6531 33.3109 30.5691 34.0704 29.4851C34.8299 28.5095 35.698 27.5338 36.566 26.6666C37.5425 25.7994 38.5191 25.0406 39.6041 24.4986C40.6892 23.8482 41.7742 23.3062 42.9677 22.8726C44.1613 22.439 45.3548 22.0054 46.5484 21.7886C47.7419 21.5718 48.9355 21.355 50.129 21.2466Z" fill="#349A2D"/>
<path d="M49.3692 21.0298C48.3927 17.8862 47.5247 11.0569 50.3458 7.58808C56.7475 -0.325203 62.4983 0.867209 65.8619 0C63.8003 5.74526 59.1346 12.8997 57.0731 14.8509C55.0115 16.9106 52.6244 18.2114 49.3692 21.0298Z" fill="#75BB24"/>
<path d="M65.8619 0C63.9088 1.30081 62.0643 2.60163 60.2197 4.01084C58.3751 5.42005 56.639 6.93767 55.0115 8.56368C53.3839 10.1897 52.0819 12.1409 50.9968 14.2005C50.0203 16.2602 49.3692 18.645 49.2607 21.0298C49.2607 19.8374 49.3692 18.645 49.5863 17.4526C49.8033 16.2602 50.2373 15.1762 50.6713 14.0921C51.1053 13.0081 51.7563 12.0325 52.4074 11.0569C53.0584 10.0813 53.8179 9.21409 54.5775 8.34688C56.205 6.61247 57.9411 5.20325 59.7857 3.79404C61.9558 2.38482 63.9088 1.19241 65.8619 0Z" fill="#349A2D"/>
<path d="M49.1525 20.9213C47.5249 23.523 45.6804 27.1002 49.1525 36.4227C48.9355 35.8807 51.6481 34.0379 51.6481 34.0379L49.478 37.3983C49.478 37.3983 51.3226 40.5419 52.0821 41.1923C52.8417 40.1083 53.8182 39.4579 53.8182 39.4579C53.8182 39.4579 52.9502 41.8427 52.7332 42.2763C54.1437 43.4688 54.9032 45.962 55.3373 46.8292C56.9648 43.6856 57.5073 41.8427 57.7244 40.7587C57.0733 39.5663 56.2053 37.5067 56.2053 37.5067L57.9414 39.7831C57.9414 39.7831 58.3754 36.6395 58.4839 35.9891C57.8329 35.4471 56.0968 32.9538 56.0968 32.9538C56.0968 32.9538 58.2669 34.7967 58.5924 35.0135C59.0264 33.3875 57.7244 27.4254 55.1202 24.3902C54.0352 22.8726 51.9736 20.7045 49.1525 20.9213Z" fill="#75BB24"/>
<path d="M49.1523 20.9214C49.9119 21.7886 50.4544 22.7642 50.8884 23.7398C51.4309 24.7154 51.865 25.7994 52.1905 26.8834C52.95 28.9431 53.601 31.2195 54.035 33.3875C54.4691 35.5555 54.9031 37.832 55.1201 40.1084C55.3371 42.3848 55.4456 44.6612 55.3371 46.8292C55.3371 45.7452 55.2286 44.5528 55.2286 43.4688C55.1201 42.3848 55.0116 41.1924 54.9031 40.1084C54.5776 37.832 54.252 35.6639 53.818 33.4959C53.384 31.3279 52.733 29.1599 52.082 26.9918C51.7564 25.9078 51.3224 24.9322 50.8884 23.8482C50.3459 22.7642 49.8034 21.7886 49.1523 20.9214Z" fill="#349A2D"/>
<path opacity="0.2" d="M62.2814 74.5799H54.3606C53.0585 73.1707 51.865 71.7615 51.431 70.5691C50.6714 68.7262 50.3459 65.149 50.1289 61.5718C57.5072 65.5826 62.2814 71.0027 62.2814 74.5799Z" fill="black"/>
<path d="M62.6071 50.1895C62.6071 50.1895 56.4224 53.2247 52.4077 53.1163C52.4077 53.1163 52.1907 66.016 53.7097 69.5932C55.0118 72.8453 62.6071 78.4821 62.6071 78.4821C62.6071 78.4821 70.2024 72.8453 71.5045 69.5932C72.915 66.016 72.8065 53.1163 72.8065 53.1163C68.7919 53.2247 62.6071 50.1895 62.6071 50.1895Z" fill="#69AB1D"/>
<path d="M71.5043 69.5932C70.2022 72.8453 62.6069 78.4821 62.6069 78.4821V50.2979C62.6069 50.2979 68.7917 53.3331 72.8064 53.2247C72.8064 53.1163 73.0234 66.016 71.5043 69.5932Z" fill="#75BB24"/>
<path opacity="0.2" d="M72.1553 53.1162C71.8298 53.1162 71.6128 53.1162 71.2873 53.1162C71.1788 57.7775 70.7448 63.1975 69.7682 65.4739C68.5747 68.5092 62.8239 73.1704 60.1113 75.4468C61.4134 76.5308 62.4984 77.2896 62.4984 77.2896C62.4984 77.2896 69.7682 71.978 70.9618 68.8344C72.3723 65.3655 72.1553 53.1162 72.1553 53.1162Z" fill="white"/>
<path d="M62.6069 50.1895C62.6069 50.1895 68.5747 53.1163 72.5893 53.1163C72.6978 53.1163 72.6978 53.1163 72.8063 53.1163C72.8063 53.1163 73.0233 66.016 71.5043 69.5933C70.2022 72.8453 62.6069 78.4822 62.6069 78.4822C62.6069 78.4822 55.0116 72.8453 53.7096 69.5933C52.1905 66.016 52.4075 53.1163 52.4075 53.1163C52.516 53.1163 52.516 53.1163 52.6245 53.1163C56.6392 53.1163 62.6069 50.1895 62.6069 50.1895ZM62.6069 48.7803L62.0644 48.9971C61.9559 48.9971 56.3137 51.8155 52.6245 51.8155C52.516 51.8155 52.516 51.8155 52.4075 51.8155H51.1054V53.1163C51.1054 54.4171 50.9969 66.4496 52.4075 70.1353C53.8181 73.6041 60.9793 78.9158 61.7389 79.5662L62.4984 80.1082L63.2579 79.5662C64.0175 78.9158 71.1788 73.6041 72.5893 70.1353C74.1084 66.4496 73.9999 54.5255 73.8914 53.1163V51.8155H72.5893C72.5893 51.8155 72.4808 51.8155 72.3723 51.8155C68.6832 51.8155 63.0409 49.1055 62.9324 48.9971L62.6069 48.7803Z" fill="#E3E3E3"/>
<path opacity="0.2" d="M54.3608 70.2437C52.9502 66.6664 53.0587 53.7667 53.0587 53.7667C57.0734 53.8751 62.6071 50.8399 62.6071 50.8399C62.6071 50.8399 68.7918 53.5499 72.8065 53.7667C72.8065 53.3331 72.8065 53.1163 72.8065 53.1163C68.7918 53.2247 62.6071 50.1895 62.6071 50.1895C62.6071 50.1895 56.4224 53.2247 52.4077 53.1163C52.4077 53.1163 52.1907 66.016 53.7097 69.5932C54.1438 70.7857 55.4458 72.1949 56.8564 73.6041C55.6628 72.4117 54.6863 71.2193 54.3608 70.2437Z" fill="black"/>
</svg>
