<svg width="20" height="20" viewBox="0 0 20 20" fill="none" xmlns="http://www.w3.org/2000/svg">
<path fill-rule="evenodd" clip-rule="evenodd" d="M10 20C15.5228 20 20 15.5228 20 10C20 4.47715 15.5228 0 10 0C4.47715 0 0 4.47715 0 10C0 15.5228 4.47715 20 10 20Z" fill="#90A8BE"/>
<path fill-rule="evenodd" clip-rule="evenodd" d="M7.34622 7.20188C7.35289 5.60559 8.43363 4.44929 9.924 4.4441C11.467 4.43966 12.5359 5.6241 12.5225 7.32633C12.5099 8.90929 11.4018 10.0619 9.9077 10.0485C8.39437 10.0345 7.33956 8.86262 7.34622 7.20188Z" fill="white"/>
<path fill-rule="evenodd" clip-rule="evenodd" d="M9.86293 14.364C8.66515 14.3648 7.46663 14.3522 6.26886 14.3707C5.79256 14.3774 5.39404 14.2722 5.2296 13.7922C5.06663 13.3188 5.37849 13.0003 5.71775 12.7677C7.9296 11.247 10.2837 10.9033 12.7844 11.9825C13.3326 12.2188 13.8792 12.4685 14.3148 12.9033C14.5859 13.1737 14.7903 13.4633 14.6133 13.8559C14.4489 14.2188 14.1496 14.3707 13.7444 14.3677C12.4511 14.3574 11.157 14.364 9.86293 14.364Z" fill="white"/>
</svg>
