<svg width="45" height="45" viewBox="0 0 45 45" fill="none" xmlns="http://www.w3.org/2000/svg">
<path fill-rule="evenodd" clip-rule="evenodd" d="M22.5 45C34.9264 45 45 34.9264 45 22.5C45 10.0736 34.9264 0 22.5 0C10.0736 0 0 10.0736 0 22.5C0 34.9264 10.0736 45 22.5 45Z" fill="#EE4928"/>
<path fill-rule="evenodd" clip-rule="evenodd" d="M16.5289 16.2041C16.5439 12.6124 18.9755 10.0107 22.3289 9.99905C25.8005 9.98905 28.2055 12.6541 28.1755 16.4841C28.1472 20.0457 25.6539 22.6391 22.2922 22.6091C18.8872 22.5774 16.5139 19.9407 16.5289 16.2041Z" fill="white"/>
<path fill-rule="evenodd" clip-rule="evenodd" d="M22.1917 32.3193C19.4967 32.321 16.8 32.2926 14.105 32.3343C13.0334 32.3493 12.1367 32.1126 11.7667 31.0326C11.4 29.9676 12.1017 29.251 12.865 28.7276C17.8417 25.306 23.1384 24.5326 28.765 26.961C29.9984 27.4926 31.2284 28.0543 32.2084 29.0326C32.8184 29.641 33.2784 30.2926 32.8801 31.176C32.51 31.9926 31.8367 32.3343 30.9251 32.3276C28.015 32.3043 25.1034 32.3193 22.1917 32.3193Z" fill="white"/>
</svg>
