<?xml version="1.0" encoding="utf-8"?>
<!-- Generator: Adobe Illustrator 19.0.0, SVG Export Plug-In . SVG Version: 6.00 Build 0)  -->
<svg version="1.1" id="Layer_1" xmlns="http://www.w3.org/2000/svg" xmlns:xlink="http://www.w3.org/1999/xlink" x="0px" y="0px"
	 viewBox="-199 137.6 23 23" style="enable-background:new -199 137.6 23 23;" xml:space="preserve">
<style type="text/css">
	.st0{fill:#FFFFFF;}
	.st1{fill:none;stroke:#363B40;stroke-miterlimit:10;}
</style>
<path id="Mask_2" class="st0" d="M-181.1,155c0,0.4-0.3,0.7-0.7,0.7h-1.2v-1.9h1.9V155z M-194.1,155v-1.2h1.9v1.9h-1.2
	C-193.8,155.7-194.1,155.4-194.1,155z M-193.4,142.7h1.2v1.9h-1.9v-1.2C-194.1,143-193.8,142.7-193.4,142.7z M-181.1,143.4v1.2h-1.9
	v-1.9h1.2C-181.4,142.7-181.1,143-181.1,143.4z M-182.9,152h1.9v-1.9h-1.9V152z M-182.9,148.3h1.9v-1.9h-1.9V148.3z M-190.4,155.7
	h5.6v-13h-5.6V155.7z M-194.1,152h1.9v-1.9h-1.9V152z M-194.1,148.3h1.9v-1.9h-1.9V148.3z M-181.8,140.8h-11.6
	c-1.4,0-2.6,1.1-2.6,2.6V155c0,1.4,1.1,2.6,2.6,2.6h11.6c1.4,0,2.6-1.1,2.6-2.6v-11.6C-179.2,142-180.4,140.8-181.8,140.8z"/>
<path id="Mask" class="st1" d="M-181.1,155c0,0.4-0.3,0.7-0.7,0.7h-1.2v-1.9h1.9V155z M-194.1,155v-1.2h1.9v1.9h-1.2
	C-193.8,155.7-194.1,155.4-194.1,155z M-193.4,142.7h1.2v1.9h-1.9v-1.2C-194.1,143-193.8,142.7-193.4,142.7z M-181.1,143.4v1.2h-1.9
	v-1.9h1.2C-181.4,142.7-181.1,143-181.1,143.4z M-182.9,152h1.9v-1.9h-1.9V152z M-182.9,148.3h1.9v-1.9h-1.9V148.3z M-190.4,155.7
	h5.6v-13h-5.6V155.7z M-194.1,152h1.9v-1.9h-1.9V152z M-194.1,148.3h1.9v-1.9h-1.9V148.3z M-181.8,140.8h-11.6
	c-1.4,0-2.6,1.1-2.6,2.6V155c0,1.4,1.1,2.6,2.6,2.6h11.6c1.4,0,2.6-1.1,2.6-2.6v-11.6C-179.2,142-180.4,140.8-181.8,140.8z"/>
<rect x="-193.6" y="143.2" class="st1" width="1.1" height="0.9"/>
<rect x="-194" y="147.2" class="st1" width="1.1" height="0.9"/>
<rect x="-194" y="150.2" class="st1" width="1.1" height="0.9"/>
<rect x="-193.9" y="154.2" class="st1" width="0.8" height="0.9"/>
<rect x="-182.6" y="143.2" class="st1" width="1.1" height="0.9"/>
<rect x="-182.6" y="147.2" class="st1" width="1.1" height="0.9"/>
<rect x="-182.6" y="150.2" class="st1" width="1.1" height="0.9"/>
<rect x="-182.9" y="154.2" class="st1" width="1" height="0.9"/>
</svg>
