<svg width="18" height="18" viewBox="0 0 18 18" fill="none" xmlns="http://www.w3.org/2000/svg">
<path fill-rule="evenodd" clip-rule="evenodd" d="M9.00033 17.3334C13.6027 17.3334 17.3337 13.6025 17.3337 9.00008C17.3337 4.39771 13.6027 0.666748 9.00033 0.666748C4.39795 0.666748 0.666992 4.39771 0.666992 9.00008C0.666992 13.6025 4.39795 17.3334 9.00033 17.3334ZM9.83366 5.66675C9.83366 5.20651 9.46056 4.83342 9.00033 4.83342C8.54009 4.83342 8.16699 5.20651 8.16699 5.66675V8.16675H5.66699C5.20676 8.16675 4.83366 8.53984 4.83366 9.00008C4.83366 9.46032 5.20676 9.83342 5.66699 9.83342H8.16699V12.3334C8.16699 12.7937 8.54009 13.1667 9.00033 13.1667C9.46056 13.1667 9.83366 12.7937 9.83366 12.3334V9.83342H12.3337C12.7939 9.83342 13.167 9.46032 13.167 9.00008C13.167 8.53984 12.7939 8.16675 12.3337 8.16675H9.83366V5.66675Z" fill="white"/>
</svg>
