<svg width="23" height="23" viewBox="0 0 23 23" fill="none" xmlns="http://www.w3.org/2000/svg">
<path d="M0 8.48917C0.0561523 8.11295 0.101074 7.73673 0.174072 7.36051C0.628906 5.13126 1.75195 3.31193 3.54321 1.90812C4.88525 0.863684 6.40698 0.240393 8.09717 0.05509C10.085 -0.163904 11.9492 0.234778 13.6787 1.24552C15.4026 2.25065 16.6604 3.68253 17.4578 5.50187C18.126 7.02921 18.3394 8.62955 18.1204 10.286C17.907 11.9088 17.2893 13.3632 16.2954 14.6659C16.2673 14.6996 16.2393 14.7389 16.2168 14.7726C16.2112 14.7839 16.2112 14.8007 16.1494 14.8737C16.228 14.9242 16.3123 14.9579 16.374 15.0197C18.4011 17.0412 20.4226 19.057 22.4385 21.0898C22.6519 21.3088 22.8147 21.5783 23 21.831C23 21.9657 23 22.1005 23 22.2353C22.8708 22.6171 22.6182 22.8698 22.2363 22.9989C22.1016 22.9989 21.9668 22.9989 21.832 22.9989C21.5906 22.8193 21.321 22.6676 21.1077 22.4543C19.075 20.4328 17.0479 18.4057 15.0208 16.3786C14.9534 16.3112 14.886 16.2494 14.8186 16.182C14.7063 16.2663 14.6165 16.3337 14.5266 16.401C11.8875 18.2765 9.01807 18.7538 5.97461 17.6308C2.91431 16.4965 1.01636 14.2616 0.230225 11.0946C0.11792 10.6398 0.0786133 10.1681 0 9.70768C0 9.29777 0 8.89347 0 8.48917ZM16.2954 9.11246C16.2729 5.12565 13.0779 1.93619 9.11353 1.91935C5.16602 1.9025 1.93726 5.12565 1.92041 9.09562C1.90918 13.0431 5.12109 16.2887 9.09668 16.2887C13.0442 16.2831 16.2505 13.1386 16.2954 9.11246Z" fill="white"/>
</svg>
