<svg width="23" height="22" viewBox="0 0 23 22" fill="none" xmlns="http://www.w3.org/2000/svg">
<path fill-rule="evenodd" clip-rule="evenodd" d="M0.75 0C0.335786 0 0 0.335786 0 0.75V17.75C0 18.1642 0.335786 18.5 0.75 18.5H13C13 18.5 12.6875 18.25 12.6875 17.75C12.6875 17.25 13 17 13 17H1.5V1.5H18V12C18 12 18.25 11.625 18.75 11.625C19.25 11.625 19.5 12 19.5 12V0.75C19.5 0.335786 19.1642 0 18.75 0H0.75ZM10.2144 12.751H8.79932L8.23682 11.2876H5.66162L5.12988 12.751H3.75L6.25928 6.30859H7.63477L10.2144 12.751ZM7.81934 10.2021L6.93164 7.81152L6.06152 10.2021H7.81934ZM15.1802 12.751H14.0332V12.0654C13.8428 12.332 13.6172 12.5312 13.3564 12.6631C13.0986 12.792 12.8379 12.8564 12.5742 12.8564C12.0381 12.8564 11.5781 12.6411 11.1943 12.2104C10.8135 11.7769 10.623 11.1733 10.623 10.3999C10.623 9.60889 10.8091 9.0083 11.1812 8.59814C11.5532 8.18506 12.0234 7.97852 12.5918 7.97852C13.1133 7.97852 13.5645 8.19531 13.9453 8.62891V6.30859H15.1802V12.751ZM11.8843 10.3164C11.8843 10.8145 11.9531 11.1748 12.0908 11.3975C12.29 11.7197 12.5684 11.8809 12.9258 11.8809C13.21 11.8809 13.4517 11.7607 13.6509 11.5205C13.8501 11.2773 13.9497 10.9155 13.9497 10.4351C13.9497 9.89893 13.853 9.51367 13.6597 9.2793C13.4663 9.04199 13.2188 8.92334 12.917 8.92334C12.624 8.92334 12.3779 9.04053 12.1787 9.2749C11.9824 9.50635 11.8843 9.85352 11.8843 10.3164ZM19.5 14.3281C19.5 13.9139 19.1642 13.5781 18.75 13.5781C18.3358 13.5781 18 13.9139 18 14.3281V17H15.75C15.3358 17 15 17.3358 15 17.75C15 18.1642 15.3358 18.5 15.75 18.5H18V20.7507C18 21.1649 18.3358 21.5007 18.75 21.5007C19.1642 21.5007 19.5 21.1649 19.5 20.7507V18.5H21.75C22.1642 18.5 22.5 18.1642 22.5 17.75C22.5 17.3358 22.1642 17 21.75 17H19.5V14.3281Z" fill="#90A8BE"/>
</svg>
