<svg width="18" height="22" viewBox="0 0 18 22" fill="none" xmlns="http://www.w3.org/2000/svg">
<path fill-rule="evenodd" clip-rule="evenodd" d="M10.9307 18.8672H6.61816C6.61816 19.0923 6.65274 19.3096 6.71694 19.5141C6.85333 19.9483 7.12343 20.3241 7.47987 20.5922C7.83964 20.8627 8.28739 21.0234 8.77441 21.0234C9.25705 21.0234 9.70398 20.8627 10.0643 20.5922C10.4213 20.3241 10.6934 19.9483 10.8309 19.5141C10.8957 19.3096 10.9307 19.0923 10.9307 18.8672ZM17.3994 17.7891V16.7109L15.2432 14.5547V9.16406C15.2432 5.85422 13.475 3.08344 10.3916 2.35031V1.61719C10.3916 0.722344 9.66926 0 8.77441 0C7.87957 0 7.15723 0.722344 7.15723 1.61719V2.35031C4.06301 3.08344 2.30566 5.84344 2.30566 9.16406V14.5547L0.149414 16.7109V17.7891H17.3994ZM3.23581 16.0641H14.313L13.5182 15.2692V9.16406C13.5182 6.45733 12.123 4.53507 9.99259 4.02853L8.77654 3.7394L7.55493 4.02884C5.41605 4.53561 4.03066 6.44502 4.03066 9.16406V15.2692L3.23581 16.0641Z" fill="#90A8BE"/>
</svg>
