<svg width="17" height="20" viewBox="0 0 17 20" fill="none" xmlns="http://www.w3.org/2000/svg">
<g clip-path="url(#clip0)">
<path fill-rule="evenodd" clip-rule="evenodd" d="M14.4207 2.28979H2.27696C0.986681 2.28979 0 3.28211 0 4.57976V16.7929C0 18.0906 0.986681 19.0829 2.27696 19.0829H14.4207C15.711 19.0829 16.6977 18.0906 16.6977 16.7929V4.57976C16.6977 3.28211 15.711 2.28979 14.4207 2.28979ZM15.1798 16.7931C15.1798 17.2511 14.8762 17.5564 14.4208 17.5564H2.27707C1.82168 17.5564 1.51808 17.2511 1.51808 16.7931V4.57994C1.51808 4.12194 1.82168 3.81661 2.27707 3.81661H14.4208C14.8762 3.81661 15.1798 4.12194 15.1798 4.57994V16.7931ZM11.385 9.92316H9.10803V7.63319C9.10803 7.1752 8.80444 6.86987 8.34905 6.86987C7.89366 6.86987 7.59006 7.1752 7.59006 7.63319V9.92316H5.31311C4.85772 9.92316 4.55412 10.2285 4.55412 10.6865C4.55412 11.1445 4.85772 11.4498 5.31311 11.4498H7.59006V13.7398C7.59006 14.1978 7.89366 14.5031 8.34905 14.5031C8.80444 14.5031 9.10803 14.1978 9.10803 13.7398V11.4498H11.385C11.8404 11.4498 12.144 11.1445 12.144 10.6865C12.144 10.2285 11.8404 9.92316 11.385 9.92316Z" fill="white"/>
<rect x="5.31299" y="-0.00012207" width="1.51797" height="5.34326" fill="white"/>
<rect x="9.86694" y="-0.00012207" width="1.51797" height="5.34326" fill="white"/>
</g>
<defs>
<clipPath id="clip0">
<rect width="16.6977" height="19.0831" fill="white"/>
</clipPath>
</defs>
</svg>
