<svg width="22" height="22" viewBox="0 0 22 22" fill="none" xmlns="http://www.w3.org/2000/svg">
<path d="M21.7889 0.236596C21.0766 -0.475935 18.6586 0.786899 17.9463 1.49943L15.0935 4.35244H2.11648C1.80805 4.35244 1.54293 4.57165 1.48513 4.87478C1.42748 5.17787 1.59336 5.47903 1.88023 5.59237L10.4617 8.98374L5.19952 14.2458H0.222443C0.115703 14.2461 0.0235931 14.3219 0.00371766 14.427C-0.0163021 14.5324 0.0411104 14.6366 0.14068 14.6759L4.32886 16.3311C4.35301 16.4363 4.38675 16.5392 4.42996 16.6398L4.24675 16.8234C3.98573 17.0843 3.98573 17.507 4.24675 17.7681C4.50744 18.0292 4.93094 18.0292 5.19163 17.7681L5.37046 17.5894C5.47181 17.6342 5.57629 17.6694 5.68279 17.6947L7.29712 21.832C7.33601 21.9318 7.44049 21.9895 7.54578 21.97C7.59107 21.9619 7.63115 21.9394 7.662 21.9084C7.70276 21.8682 7.72721 21.8123 7.72721 21.7509V16.8787L13.0729 11.5332L16.4323 20.143C16.5447 20.4306 16.846 20.5978 17.1496 20.5409C17.2808 20.5161 17.3961 20.4527 17.4851 20.3643C17.6024 20.2465 17.6734 20.085 17.6738 19.9091V6.93244L20.5266 4.07948C21.2387 3.367 22.5012 0.94903 21.7889 0.236596Z" fill="#90A8BE"/>
</svg>
