<svg width="22" height="22" viewBox="0 0 22 22" fill="none" xmlns="http://www.w3.org/2000/svg">
<path d="M0.211111 0.23684C0.923401 -0.475691 3.34137 0.787143 4.0537 1.49967L6.90652 4.35268H19.8835C20.192 4.35268 20.4571 4.57189 20.5149 4.87503C20.5725 5.17811 20.4066 5.47928 20.1198 5.59261L11.5383 8.98399L16.8005 14.246H21.7776C21.8843 14.2464 21.9764 14.3221 21.9963 14.4272C22.0163 14.5326 21.9589 14.6369 21.8593 14.6761L17.6711 16.3314C17.647 16.4365 17.6133 16.5394 17.57 16.6401L17.7532 16.8237C18.0143 17.0845 18.0143 17.5072 17.7532 17.7684C17.4926 18.0294 17.0691 18.0294 16.8084 17.7684L16.6295 17.5897C16.5282 17.6344 16.4237 17.6697 16.3172 17.6949L14.7029 21.8323C14.664 21.9321 14.5595 21.9897 14.4542 21.9702C14.4089 21.9621 14.3688 21.9397 14.338 21.9087C14.2972 21.8684 14.2728 21.8125 14.2728 21.7512V16.8789L8.92712 11.5334L5.5677 20.1432C5.45528 20.4308 5.15397 20.598 4.8504 20.5411C4.71922 20.5164 4.60391 20.4529 4.51488 20.3645C4.39765 20.2467 4.32662 20.0853 4.32623 19.9093V6.93268L1.47337 4.07972C0.761318 3.36724 -0.501179 0.949274 0.211111 0.23684Z" fill="#90A8BE"/>
</svg>
