<svg width="18" height="18" viewBox="0 0 18 18" fill="none" xmlns="http://www.w3.org/2000/svg">
<path d="M9 18C4.02973 18 0 13.9703 0 9C0 4.02916 4.02973 0 9 0C13.9708 0 18 4.0286 18 9C18 13.9703 13.9708 18 9 18ZM9 1.68753C4.96127 1.68753 1.68753 4.96127 1.68753 9C1.68753 13.0387 4.96127 16.3125 9 16.3125C13.0387 16.3125 16.3125 13.0387 16.3125 9C16.3125 4.96127 13.0387 1.68753 9 1.68753ZM9.00057 14.053C8.35596 14.053 7.86823 13.7166 7.86823 13.1732V8.18946C7.86823 7.64554 8.3559 7.31027 9.00057 7.31027C9.62944 7.31027 10.1329 7.65957 10.1329 8.18946V13.1732C10.1328 13.7037 9.62944 14.053 9.00057 14.053ZM9.00057 6.1875C8.38126 6.1875 7.87723 5.68347 7.87723 5.06365C7.87723 4.44491 8.38126 3.94088 9.00057 3.94088C9.61988 3.94088 10.1233 4.44491 10.1233 5.06365C10.1233 5.68353 9.61988 6.1875 9.00057 6.1875Z" fill="#E2574C"/>
</svg>
