<svg width="17" height="16" viewBox="0 0 17 16" fill="none" xmlns="http://www.w3.org/2000/svg">
<path d="M16.0036 2.92983C16.0026 2.92983 16.0016 2.92971 16.0006 2.92971H11.6222V2.44679C11.6222 1.64797 10.9722 0.998047 10.1734 0.998047H6.3101C5.51127 0.998047 4.86135 1.64797 4.86135 2.44679V2.92971H0.482916C0.214042 2.92971 0 3.15004 0 3.41262V14.0368C0 14.8356 0.649924 15.4855 1.44875 15.4855H15.0348C15.8336 15.4855 16.4835 14.8356 16.4835 14.0368V3.42281C16.4835 3.42218 16.4835 3.42155 16.4835 3.42092C16.465 3.10376 16.27 2.9316 16.0036 2.92983ZM5.82718 2.44679C5.82718 2.18056 6.04386 1.96388 6.3101 1.96388H10.1734C10.4397 1.96388 10.6563 2.18056 10.6563 2.44679V2.92971H5.82718V2.44679ZM15.3306 3.89554L13.8309 8.39445C13.7651 8.59202 13.581 8.7247 13.3729 8.7247H10.6563V8.24178C10.6563 7.97504 10.4402 7.75886 10.1734 7.75886H6.3101C6.04336 7.75886 5.82718 7.97504 5.82718 8.24178V8.7247H3.11066C2.90252 8.7247 2.71841 8.59202 2.65264 8.39445L1.15296 3.89554H15.3306ZM9.69051 8.7247V9.69053H6.79301V8.7247H9.69051ZM15.5177 14.0368C15.5177 14.303 15.301 14.5197 15.0348 14.5197H1.44875C1.18251 14.5197 0.965831 14.303 0.965831 14.0368V6.38847L1.73636 8.69992C1.9338 9.2925 2.48613 9.69053 3.11066 9.69053H5.82718V10.1734C5.82718 10.4402 6.04336 10.6564 6.3101 10.6564H10.1734C10.4402 10.6564 10.6563 10.4402 10.6563 10.1734V9.69053H13.3729C13.9974 9.69053 14.5497 9.2925 14.7472 8.69992L15.5177 6.38847V14.0368Z" fill="#109CF1"/>
</svg>
