<svg width="27" height="23" viewBox="0 0 27 23" fill="none" xmlns="http://www.w3.org/2000/svg">
<g clip-path="url(#clip0)">
<path fill-rule="evenodd" clip-rule="evenodd" d="M16.5594 7.56431C16.358 7.56431 16.1952 7.41101 16.1952 7.22186V6.51444C16.1956 6.32529 16.3588 6.17198 16.5598 6.17236C16.7611 6.17236 16.9243 6.32567 16.9243 6.51482L16.9239 7.22224C16.9239 7.41101 16.7607 7.56431 16.5594 7.56431Z" fill="#90A8BE"/>
<path fill-rule="evenodd" clip-rule="evenodd" d="M18.0535 7.22234V6.51493C18.0539 6.32578 18.2171 6.17247 18.4181 6.17285C18.6195 6.17285 18.7827 6.32616 18.7827 6.51531L18.7823 7.22273C18.7823 7.41188 18.6191 7.5648 18.4177 7.5648C18.2163 7.5648 18.0535 7.4115 18.0535 7.22234Z" fill="#90A8BE"/>
<path fill-rule="evenodd" clip-rule="evenodd" d="M19.912 7.22308V6.51566C19.9124 6.32651 20.0752 6.1732 20.2766 6.17358C20.4779 6.17358 20.6411 6.32689 20.6411 6.51604L20.6407 7.22346C20.6407 7.41223 20.4775 7.56553 20.2762 7.56553C20.0748 7.56553 19.912 7.41223 19.912 7.22308Z" fill="#90A8BE"/>
<path fill-rule="evenodd" clip-rule="evenodd" d="M17.4882 8.5316C17.2868 8.5316 17.124 8.37829 17.124 8.18914V7.48173C17.1244 7.29257 17.2876 7.13927 17.4886 7.13965C17.69 7.13965 17.8532 7.29295 17.8532 7.48211L17.8528 8.18952C17.8528 8.37867 17.6896 8.5316 17.4882 8.5316Z" fill="#90A8BE"/>
<path fill-rule="evenodd" clip-rule="evenodd" d="M18.9824 8.18987V7.48246C18.9828 7.29331 19.146 7.14 19.347 7.14038C19.5484 7.14038 19.7116 7.29369 19.7116 7.48284L19.7112 8.19025C19.7112 8.37903 19.548 8.53233 19.3466 8.53233C19.1452 8.53233 18.9824 8.37903 18.9824 8.18987Z" fill="#90A8BE"/>
<path fill-rule="evenodd" clip-rule="evenodd" d="M24.2992 14.6372C24.2981 17.4402 22.088 19.7184 19.3721 19.7172L7.36703 19.7131C4.64969 19.7115 2.4407 17.4318 2.44218 14.6292V12.4696L13.3722 12.4738L18.8741 12.4753L24.3007 12.4764L24.2992 14.6372ZM17.1114 4.56636C17.2681 3.9928 17.7805 3.57102 18.3872 3.57102C18.9924 3.57102 19.5048 3.99394 19.6612 4.56788L17.1114 4.56636ZM25.8272 11.3827H23.8759V9.99953H23.3675L23.3701 2.8453C23.3701 1.27754 22.1342 0.00152542 20.6143 0C19.1939 0 18.022 1.11051 17.8733 2.53449C16.8034 2.77551 16.0015 3.76131 16.0004 4.93475V5.66199L20.7711 5.66314V4.93742C20.7726 3.77771 19.9917 2.80297 18.9433 2.54403C19.0812 1.72258 19.7781 1.09564 20.6132 1.09564C21.549 1.09678 22.3083 1.88123 22.3083 2.8453L22.3057 9.99839H21.797L21.7959 11.3812L1.38038 11.3728H0.915663C0.622117 11.3728 0.384766 11.618 0.384766 11.9208C0.384766 12.0714 0.444288 12.2083 0.540042 12.3083C0.635426 12.4067 0.768151 12.4684 0.915663 12.4684H1.38038V14.6292C1.3789 17.8921 3.84262 20.573 6.95259 20.7934V22.1324H9.03145L9.03293 20.8083L17.7047 20.8125V22.135L19.7836 22.1366L19.7847 20.7976C22.8951 20.5799 25.3599 17.9001 25.3614 14.6387L25.3625 12.478H25.8272C26.1207 12.478 26.3581 12.2328 26.3581 11.9303C26.3581 11.7782 26.2986 11.6413 26.2028 11.5429C26.1059 11.4441 25.9732 11.3827 25.8272 11.3827Z" fill="#90A8BE"/>
</g>
<defs>
<clipPath id="clip0">
<path d="M0 0H27V23H0V0Z" fill="white"/>
</clipPath>
</defs>
</svg>
