<svg width="21" height="14" viewBox="0 0 21 14" fill="none" xmlns="http://www.w3.org/2000/svg">
<path fill-rule="evenodd" clip-rule="evenodd" d="M19.423 13.1927H18.5608L18.2459 11.9346C18.2029 11.7618 18.0475 11.6406 17.8692 11.6406H2.33081C2.15243 11.6406 1.9971 11.7618 1.95403 11.9346L1.63913 13.1927H0.776947V10.0885H19.423V13.1927ZM1.94219 6.20819H18.2578C18.9012 6.20819 19.423 6.7294 19.423 7.37243V9.31243H0.776947V7.37243C0.776947 6.7294 1.29874 6.20819 1.94219 6.20819ZM8.93458 5.43213H4.27298V4.26819C4.27298 3.62546 4.79478 3.10425 5.43853 3.10425H7.76933C8.41278 3.10425 8.93458 3.62546 8.93458 4.26819V5.43213ZM15.927 5.43213H11.2654V4.26819C11.2654 3.62546 11.7872 3.10425 12.4306 3.10425H14.7614C15.4052 3.10425 15.927 3.62546 15.927 4.26819V5.43213ZM2.71912 1.94C2.71912 1.29727 3.24091 0.776062 3.88467 0.776062H16.3153C16.959 0.776062 17.4808 1.29727 17.4808 1.94V5.43212H16.7039V4.26818C16.7024 3.19727 15.8338 2.3294 14.7614 2.32818H12.4306C11.3585 2.3294 10.4897 3.19727 10.4884 4.26818V5.43212H9.71151V4.26818C9.7103 3.19727 8.84144 2.3294 7.76933 2.32818H5.43853C4.36612 2.3294 3.49757 3.19727 3.49605 4.26818V5.43212H2.71912V1.94ZM18.2578 5.43212V1.94C18.2562 0.869091 17.3877 0.00121212 16.3153 0H3.88466C2.81225 0.00121212 1.9437 0.869091 1.94218 1.94V5.43212C0.870067 5.43364 0.00121348 6.30121 0 7.37242V13.5806C0 13.7952 0.173831 13.9688 0.388618 13.9688H1.94218C2.12056 13.9688 2.27589 13.8476 2.31927 13.6748L2.63417 12.4167H17.5658L17.8807 13.6748C17.9241 13.8476 18.0794 13.9688 18.2578 13.9688H19.8113C20.0261 13.9688 20.1999 13.7952 20.1999 13.5806V7.37242C20.1987 6.30121 19.3299 5.43364 18.2578 5.43212Z" fill="#90A8BE"/>
</svg>
