<svg width="30" height="18" viewBox="0 0 30 18" fill="none" xmlns="http://www.w3.org/2000/svg">
<path fill-rule="evenodd" clip-rule="evenodd" d="M27.9079 11.0626C27.6719 11.306 27.3562 11.4391 27.0212 11.4391H5.01583V8.86812H27.0212C27.7133 8.86812 28.2751 9.446 28.2751 10.1536C28.2751 10.4971 28.1453 10.8208 27.9079 11.0626ZM1.18007 14.8164H28.1277V12.6493H1.18007V14.8164ZM1.18007 3.071C1.18007 2.321 1.77595 1.71012 2.50792 1.71012C2.86347 1.71012 3.19525 1.85225 3.44619 2.10912C3.69713 2.36637 3.83576 2.708 3.83576 3.071V11.4391H1.18007V3.071ZM6.29356 6.46812C6.29356 5.8115 6.81556 5.276 7.45607 5.276H9.79426C10.4344 5.276 10.9553 5.8115 10.9553 6.46812C10.9553 7.12437 10.4344 7.65837 9.79426 7.65837H7.45607C6.81556 7.65837 6.29356 7.12437 6.29356 6.46812ZM29.4556 10.1536C29.4556 8.77737 28.3637 7.65837 27.0212 7.65837H11.8259C12.0234 7.30737 12.1357 6.9005 12.1357 6.46812C12.1357 5.14475 11.0852 4.06625 9.79426 4.06625H7.45607C6.16371 4.06625 5.11313 5.14475 5.11313 6.46812C5.11313 6.9005 5.22543 7.30737 5.42296 7.65837H5.01583V3.071C5.01583 2.38588 4.75465 1.74012 4.28131 1.25488C3.80906 0.76775 3.17916 0.5 2.50792 0.5C1.12556 0.5 0 1.65388 0 3.071V16.0261H1.95446V17.2966H4.26485V16.0261H25.1904V17.2966H27.5007V16.0261H29.3078V11.4391H29.1088C29.3345 11.0551 29.4556 10.6134 29.4556 10.1536Z" fill="#90A8BE"/>
</svg>
