<svg width="36" height="24" viewBox="0 0 36 24" fill="none" xmlns="http://www.w3.org/2000/svg">
<path d="M1.35849 0.815094H34.6415C34.9561 0.815094 35.1849 1.06141 35.1849 1.33333V22.6667C35.1849 22.9386 34.9561 23.1849 34.6415 23.1849H1.35849C1.04395 23.1849 0.815094 22.9386 0.815094 22.6667V1.33333C0.815094 1.06141 1.04395 0.815094 1.35849 0.815094Z" stroke="#7EC5F7" stroke-width="1.63019"/>
<path d="M0 1.75V14C3.71303 14 7.27399 12.525 9.8995 9.8995C12.525 7.27399 14 3.71303 14 0H1.75C1.28587 0 0.840752 0.184375 0.512563 0.512563C0.184374 0.840752 0 1.28587 0 1.75Z" fill="#7EC5F7"/>
<path d="M9.84917 15.5201H5.7737C5.68363 15.5201 5.59725 15.4888 5.53355 15.4333C5.46986 15.3777 5.43408 15.3023 5.43408 15.2237C5.43408 15.145 5.46986 15.0697 5.53355 15.0141C5.59725 14.9585 5.68363 14.9272 5.7737 14.9272H9.84917C9.93925 14.9272 10.0256 14.9585 10.0893 15.0141C10.153 15.0697 10.1888 15.145 10.1888 15.2237C10.1888 15.3023 10.153 15.3777 10.0893 15.4333C10.0256 15.4888 9.93925 15.5201 9.84917 15.5201Z" fill="#7EC5F7"/>
<path d="M20.7166 17.8918H5.77322C5.68314 17.8918 5.59676 17.8606 5.53307 17.805C5.46938 17.7494 5.43359 17.674 5.43359 17.5953C5.43359 17.5167 5.46938 17.4413 5.53307 17.3857C5.59676 17.3301 5.68314 17.2988 5.77322 17.2988H20.7166C20.8067 17.2988 20.8931 17.3301 20.9568 17.3857C21.0205 17.4413 21.0562 17.5167 21.0562 17.5953C21.0562 17.674 21.0205 17.7494 20.9568 17.805C20.8931 17.8606 20.8067 17.8918 20.7166 17.8918Z" fill="#7EC5F7"/>
<path d="M9.84869 20.2634H5.77322C5.68314 20.2634 5.59676 20.2322 5.53307 20.1766C5.46938 20.121 5.43359 20.0455 5.43359 19.9669C5.43359 19.8883 5.46938 19.8129 5.53307 19.7573C5.59676 19.7016 5.68314 19.6704 5.77322 19.6704H9.84869C9.93876 19.6704 10.0251 19.7016 10.0888 19.7573C10.1525 19.8129 10.1883 19.8883 10.1883 19.9669C10.1883 20.0455 10.1525 20.121 10.0888 20.1766C10.0251 20.2322 9.93876 20.2634 9.84869 20.2634Z" fill="#7EC5F7"/>
<path d="M16.6412 20.2634H12.5657C12.4756 20.2634 12.3892 20.2322 12.3255 20.1766C12.2619 20.121 12.2261 20.0455 12.2261 19.9669C12.2261 19.8883 12.2619 19.8129 12.3255 19.7573C12.3892 19.7016 12.4756 19.6704 12.5657 19.6704H16.6412C16.7313 19.6704 16.8176 19.7016 16.8813 19.7573C16.945 19.8129 16.9808 19.8883 16.9808 19.9669C16.9808 20.0455 16.945 20.121 16.8813 20.1766C16.8176 20.2322 16.7313 20.2634 16.6412 20.2634Z" fill="#7EC5F7"/>
<path d="M6 2L7.236 4.3045L10 4.674L8 6.4675L8.472 9L6 7.8045L3.528 9L4 6.4675L2 4.674L4.764 4.3045L6 2Z" fill="white"/>
<path d="M1.35849 0.815094H34.6415C34.9561 0.815094 35.1849 1.06141 35.1849 1.33333V22.6667C35.1849 22.9386 34.9561 23.1849 34.6415 23.1849H1.35849C1.04395 23.1849 0.815094 22.9386 0.815094 22.6667V1.33333C0.815094 1.06141 1.04395 0.815094 1.35849 0.815094Z" stroke="#7EC5F7" stroke-width="1.63019"/>
<path d="M0 1.75V14C3.71303 14 7.27399 12.525 9.8995 9.8995C12.525 7.27399 14 3.71303 14 0H1.75C1.28587 0 0.840752 0.184375 0.512563 0.512563C0.184374 0.840752 0 1.28587 0 1.75Z" fill="#7EC5F7"/>
<path d="M9.84917 15.5201H5.7737C5.68363 15.5201 5.59725 15.4888 5.53355 15.4333C5.46986 15.3777 5.43408 15.3023 5.43408 15.2237C5.43408 15.145 5.46986 15.0697 5.53355 15.0141C5.59725 14.9585 5.68363 14.9272 5.7737 14.9272H9.84917C9.93925 14.9272 10.0256 14.9585 10.0893 15.0141C10.153 15.0697 10.1888 15.145 10.1888 15.2237C10.1888 15.3023 10.153 15.3777 10.0893 15.4333C10.0256 15.4888 9.93925 15.5201 9.84917 15.5201Z" fill="#7EC5F7"/>
<path d="M20.7166 17.8918H5.77322C5.68314 17.8918 5.59676 17.8606 5.53307 17.805C5.46938 17.7494 5.43359 17.674 5.43359 17.5953C5.43359 17.5167 5.46938 17.4413 5.53307 17.3857C5.59676 17.3301 5.68314 17.2988 5.77322 17.2988H20.7166C20.8067 17.2988 20.8931 17.3301 20.9568 17.3857C21.0205 17.4413 21.0562 17.5167 21.0562 17.5953C21.0562 17.674 21.0205 17.7494 20.9568 17.805C20.8931 17.8606 20.8067 17.8918 20.7166 17.8918Z" fill="#7EC5F7"/>
<path d="M9.84869 20.2634H5.77322C5.68314 20.2634 5.59676 20.2322 5.53307 20.1766C5.46938 20.121 5.43359 20.0455 5.43359 19.9669C5.43359 19.8883 5.46938 19.8129 5.53307 19.7573C5.59676 19.7016 5.68314 19.6704 5.77322 19.6704H9.84869C9.93876 19.6704 10.0251 19.7016 10.0888 19.7573C10.1525 19.8129 10.1883 19.8883 10.1883 19.9669C10.1883 20.0455 10.1525 20.121 10.0888 20.1766C10.0251 20.2322 9.93876 20.2634 9.84869 20.2634Z" fill="#7EC5F7"/>
<path d="M16.6412 20.2634H12.5657C12.4756 20.2634 12.3892 20.2322 12.3255 20.1766C12.2619 20.121 12.2261 20.0455 12.2261 19.9669C12.2261 19.8883 12.2619 19.8129 12.3255 19.7573C12.3892 19.7016 12.4756 19.6704 12.5657 19.6704H16.6412C16.7313 19.6704 16.8176 19.7016 16.8813 19.7573C16.945 19.8129 16.9808 19.8883 16.9808 19.9669C16.9808 20.0455 16.945 20.121 16.8813 20.1766C16.8176 20.2322 16.7313 20.2634 16.6412 20.2634Z" fill="#7EC5F7"/>
<g clip-path="url(#clip0)">
<path d="M29.8263 7.52685L30.9192 6.1216C31.2146 5.74201 31.4453 5.23291 31.4344 4.98454C31.4233 4.73597 31.1924 4.52664 30.9181 4.51619C30.6441 4.50609 30.0834 4.71559 29.6659 4.98416L28.12 5.97804L23.8035 4.10348C23.3422 3.90315 22.7353 4.00685 22.4483 4.3358C22.1613 4.66474 22.2495 5.16992 22.6453 5.46464L26.0958 8.03406L23.5161 10.6323L22.2993 10.2983C21.8098 10.1635 21.2615 10.1841 21.0752 10.3435C20.8888 10.5031 21.0608 10.8685 21.4595 11.1599L22.5637 11.9669C22.5637 11.9669 22.5221 12.1424 22.4705 12.359C22.4191 12.5754 22.5701 12.7122 22.8079 12.6643L23.2384 12.5774L24.1255 13.5809C24.4462 13.9433 24.8484 14.0999 25.0239 13.9307C25.1993 13.7616 25.2219 13.2637 25.0737 12.8185L24.706 11.7119L27.5637 9.36681L30.3904 12.5038C30.7144 12.8636 31.2703 12.9438 31.6322 12.6827C31.9938 12.4218 32.1083 11.8699 31.8877 11.4503L29.8263 7.52685Z" fill="#7EC5F7"/>
</g>
<path d="M6 2L7.236 4.3045L10 4.674L8 6.4675L8.472 9L6 7.8045L3.528 9L4 6.4675L2 4.674L4.764 4.3045L6 2Z" fill="white"/>
<defs>
<clipPath id="clip0">
<rect width="11" height="10" fill="white" transform="translate(21 4)"/>
</clipPath>
</defs>
</svg>
