<svg width="33" height="33" viewBox="0 0 33 33" fill="none" xmlns="http://www.w3.org/2000/svg">
<path d="M16.1851 10.001L17.8209 6.4973L26.5801 10.5869L24.9443 14.0906L16.1851 10.001Z" fill="white"/>
<path d="M4.85254 22.846L22.3769 31.0177L33.0001 8.23621L15.4759 0L4.85254 22.846ZM20.9741 27.1633L8.70703 21.4432L9.52417 19.6908L21.7912 25.4109L20.9741 27.1633ZM22.6083 23.6586L10.3413 17.9383L11.1584 16.1859L23.4255 21.9061L22.6083 23.6586ZM24.2427 20.1537L11.9758 14.4334L12.7929 12.681L25.0598 18.4013L24.2427 20.1537ZM29.1457 9.63909L25.8771 16.6488L13.61 10.9285L16.8788 3.91894L29.1457 9.63909Z" fill="white"/>
<path d="M19.4648 31.794L2.28248 23.7821L9.73539 7.79883H0V33H19.4648V31.794Z" fill="white"/>
</svg>
