<svg width="17" height="17" viewBox="0 0 17 17" fill="none" xmlns="http://www.w3.org/2000/svg">
<g clip-path="url(#clip0)">
<path d="M9.61538 6.24268L15.6662 7.4446C16.1538 7.54762 16.4835 7.95971 16.4835 8.44735V15.4528C16.4835 16.0229 16.0233 16.4831 15.4533 16.4831H9.27197C9.46428 16.4831 9.61538 16.332 9.61538 16.1397V15.7962H15.4533C15.6387 15.7962 15.7967 15.6451 15.7967 15.4528V8.44735C15.7967 8.28938 15.6868 8.14515 15.5288 8.11081L9.61538 6.94322V6.24268Z" fill="#109CF1"/>
<path d="M13.3933 9.61523C13.5856 9.61523 13.7367 9.76633 13.7367 9.95864C13.7367 10.1509 13.5856 10.302 13.3933 10.302H12.0197C11.8274 10.302 11.6763 10.1509 11.6763 9.95864C11.6763 9.76633 11.8274 9.61523 12.0197 9.61523H13.3933Z" fill="#109CF1"/>
<path d="M13.3933 11.6758C13.5856 11.6758 13.7367 11.8269 13.7367 12.0192C13.7367 12.2115 13.5856 12.3626 13.3933 12.3626H12.0197C11.8274 12.3626 11.6763 12.2115 11.6763 12.0192C11.6763 11.8269 11.8274 11.6758 12.0197 11.6758H13.3933Z" fill="#109CF1"/>
<path d="M13.3933 13.7358C13.5856 13.7358 13.7367 13.8869 13.7367 14.0792C13.7367 14.2715 13.5856 14.4226 13.3933 14.4226H12.0197C11.8274 14.4226 11.6763 14.2715 11.6763 14.0792C11.6763 13.8869 11.8274 13.7358 12.0197 13.7358H13.3933Z" fill="#109CF1"/>
<path d="M9.61503 16.1398C9.61503 16.3321 9.46393 16.4832 9.27163 16.4832C9.07932 16.4832 8.92822 16.3321 8.92822 16.1398V15.7964V6.52445C8.92822 6.42143 8.9763 6.32528 9.05185 6.2566C9.13426 6.19478 9.23729 6.16731 9.34031 6.18792L9.61503 6.24286V6.94341V15.7964V16.1398Z" fill="#109CF1"/>
<path d="M8.92874 15.7964V16.1398C8.92874 16.3321 9.07984 16.4832 9.27215 16.4832H6.5249C6.71721 16.4832 6.86831 16.3321 6.86831 16.1398V15.7964H8.92874Z" fill="#109CF1"/>
<path d="M7.21166 3.43359C7.40397 3.43359 7.55507 3.58469 7.55507 3.777C7.55507 3.96931 7.40397 4.12041 7.21166 4.12041H5.83804C5.64573 4.12041 5.49463 3.96931 5.49463 3.777C5.49463 3.58469 5.64573 3.43359 5.83804 3.43359H7.21166Z" fill="#109CF1"/>
<path d="M7.55507 5.83755C7.55507 6.02986 7.40397 6.18096 7.21166 6.18096H5.83804C5.64573 6.18096 5.49463 6.02986 5.49463 5.83755C5.49463 5.64524 5.64573 5.49414 5.83804 5.49414H7.21166C7.40397 5.49414 7.55507 5.64524 7.55507 5.83755Z" fill="#109CF1"/>
<path d="M7.21166 7.55469C7.40397 7.55469 7.55507 7.70578 7.55507 7.89809C7.55507 8.0904 7.40397 8.24149 7.21166 8.24149H5.83804C5.64573 8.24149 5.49463 8.0904 5.49463 7.89809C5.49463 7.70578 5.64573 7.55469 5.83804 7.55469H7.21166Z" fill="#109CF1"/>
<path d="M7.21166 9.61523C7.40397 9.61523 7.55507 9.76633 7.55507 9.95864C7.55507 10.1509 7.40397 10.302 7.21166 10.302H5.83804C5.64573 10.302 5.49463 10.1509 5.49463 9.95864C5.49463 9.76633 5.64573 9.61523 5.83804 9.61523H7.21166Z" fill="#109CF1"/>
<path d="M4.12099 9.95864C4.12099 10.1509 3.96989 10.302 3.77758 10.302H2.40395C2.21165 10.302 2.06055 10.1509 2.06055 9.95864C2.06055 9.76633 2.21165 9.61523 2.40395 9.61523H3.77758C3.96989 9.61523 4.12099 9.76633 4.12099 9.95864Z" fill="#109CF1"/>
<path d="M3.77758 3.43359C3.96989 3.43359 4.12099 3.58469 4.12099 3.777C4.12099 3.96931 3.96989 4.12041 3.77758 4.12041H2.40395C2.21165 4.12041 2.06055 3.96931 2.06055 3.777C2.06055 3.58469 2.21165 3.43359 2.40395 3.43359H3.77758Z" fill="#109CF1"/>
<path d="M3.77758 5.49414C3.96989 5.49414 4.12099 5.64524 4.12099 5.83755C4.12099 6.02986 3.96989 6.18096 3.77758 6.18096H2.40395C2.21165 6.18096 2.06055 6.02986 2.06055 5.83755C2.06055 5.64524 2.21165 5.49414 2.40395 5.49414H3.77758Z" fill="#109CF1"/>
<path d="M3.77758 7.55469C3.96989 7.55469 4.12099 7.70578 4.12099 7.89809C4.12099 8.0904 3.96989 8.24149 3.77758 8.24149H2.40395C2.21165 8.24149 2.06055 8.0904 2.06055 7.89809C2.06055 7.70578 2.21165 7.55469 2.40395 7.55469H3.77758Z" fill="#109CF1"/>
<path d="M6.18114 12.706C6.18114 12.5137 6.02317 12.3626 5.83773 12.3626H3.77729C3.58498 12.3626 3.43388 12.5137 3.43388 12.706V15.7967H2.74707V12.706C2.74707 12.1359 3.20724 11.6758 3.77729 11.6758H5.83773C6.40778 11.6758 6.86795 12.1359 6.86795 12.706V15.7967H6.18114V12.706Z" fill="#109CF1"/>
<path d="M3.43388 15.7964H6.18114H6.86795V16.1398C6.86795 16.3321 6.71685 16.4832 6.52454 16.4832H3.09048C2.89817 16.4832 2.74707 16.3321 2.74707 16.1398V15.7964H3.43388Z" fill="#109CF1"/>
<path d="M1.20192 0.137395L8.75 1.28437C9.25138 1.36679 9.61539 1.79261 9.61539 2.30086V6.24316L9.34066 6.18822C9.23764 6.16761 9.13462 6.19509 9.0522 6.2569C8.97665 6.32558 8.92857 6.42174 8.92857 6.52476V2.30086C8.92857 2.12915 8.80495 1.98492 8.64011 1.95745L1.09203 0.81734C1.07143 0.810472 1.05082 0.810472 1.03022 0.810472C0.947802 0.810472 0.872253 0.837944 0.81044 0.892889C0.728022 0.961571 0.686813 1.05086 0.686813 1.15388V15.4533C0.686813 15.6456 0.84478 15.7967 1.03022 15.7967H2.74725V16.1401C2.74725 16.3325 2.89835 16.4835 3.09066 16.4835H1.03022C0.460165 16.4835 0 16.0234 0 15.4533V1.15388C0 0.851681 0.130495 0.563219 0.364011 0.370911C0.597528 0.171736 0.899725 0.0893181 1.20192 0.137395Z" fill="#109CF1"/>
</g>
<defs>
<clipPath id="clip0">
<rect width="16.4835" height="16.4835" fill="white"/>
</clipPath>
</defs>
</svg>
