<svg width="20" height="20" viewBox="0 0 20 20" fill="none" xmlns="http://www.w3.org/2000/svg">
<path fill-rule="evenodd" clip-rule="evenodd" d="M19.4848 17.3035C18.8756 19.1549 16.4886 20.0786 14.7833 19.9246C12.4543 19.7141 9.92005 18.4786 7.99632 17.118C5.16861 15.1179 2.51986 12.0244 0.976393 8.74146C-0.114426 6.42166 -0.359169 3.56895 1.26324 1.45442C1.86326 0.672819 2.51196 0.255702 3.48699 0.207017C4.83965 0.141226 5.02913 0.914931 5.49362 2.12023C5.83968 3.02157 6.30154 3.94133 6.55944 4.87556C7.04234 6.61903 5.35414 6.6914 5.14098 8.11644C5.00808 9.01515 6.09758 10.2204 6.5897 10.8612C7.5542 12.1165 8.71344 13.1995 10.0214 14.0232C10.7701 14.4956 11.9793 15.3469 12.8372 14.8771C14.1583 14.1534 14.0333 11.9258 15.8807 12.6797C16.8373 13.0692 17.7637 13.6311 18.6769 14.1232C20.0887 14.8824 20.023 15.6693 19.4848 17.3035C19.8874 16.0824 19.0821 18.5246 19.4848 17.3035Z" fill="#7EC5F7"/>
</svg>
