<svg width="24" height="24" viewBox="0 0 24 24" fill="none" xmlns="http://www.w3.org/2000/svg">
<path fill-rule="evenodd" clip-rule="evenodd" d="M22.7154 20.678C22.0117 22.8165 19.2545 23.8835 17.2847 23.7057C14.5944 23.4625 11.6669 22.0353 9.44478 20.4636C6.17841 18.1533 3.11876 14.5799 1.33587 10.7877C0.0758317 8.108 -0.206878 4.81276 1.66721 2.37021C2.36031 1.46736 3.10964 0.985538 4.23592 0.9293C5.79843 0.853303 6.0173 1.74703 6.55384 3.1393C6.95359 4.18046 7.48709 5.24291 7.785 6.32207C8.34282 8.336 6.39273 8.41959 6.1465 10.0657C5.99298 11.1038 7.2515 12.4961 7.81996 13.2363C8.93408 14.6863 10.2731 15.9372 11.784 16.8887C12.6488 17.4344 14.0457 18.4178 15.0367 17.8752C16.5627 17.0392 16.4183 14.4659 18.5523 15.3369C19.6573 15.7868 20.7273 16.4358 21.7822 17.0042C23.4131 17.8813 23.3371 18.7902 22.7154 20.678C23.1805 19.2674 22.2503 22.0885 22.7154 20.678Z" fill="#FFC468"/>
</svg>
