<svg width="26" height="23" viewBox="0 0 26 23" fill="none" xmlns="http://www.w3.org/2000/svg">
<path fill-rule="evenodd" clip-rule="evenodd" d="M4.60001 17.25V18.4H5.75001C6.38481 18.4 6.90001 18.9152 6.90001 19.55C6.90001 20.1848 6.38481 20.7 5.75001 20.7H4.60001V21.85C4.60001 22.4848 4.08481 23 3.45001 23C2.8152 23 2.3 22.4848 2.3 21.85V20.7H1.15C0.515201 20.7 0 20.1848 0 19.55C0 18.9152 0.515201 18.4 1.15 18.4H2.3V17.25C2.3 16.6152 2.8152 16.1 3.45001 16.1C4.08481 16.1 4.60001 16.6152 4.60001 17.25ZM13.8 17.825C12.5316 17.825 11.5 16.7934 11.5 15.525C11.5 14.2565 12.5316 13.225 13.8 13.225C15.0685 13.225 16.1 14.2565 16.1 15.525C16.1 16.7934 15.0685 17.825 13.8 17.825ZM13.7994 10.925C11.2591 10.925 9.1994 12.9847 9.1994 15.5251C9.1994 18.0654 11.2591 20.1251 13.7994 20.1251C16.3398 20.1251 18.3994 18.0654 18.3994 15.5251C18.3994 12.9847 16.3398 10.925 13.7994 10.925ZM17.2497 4.59993H10.3497V3.44993C10.3497 2.81513 10.8649 2.29993 11.4997 2.29993H16.0997C16.7345 2.29993 17.2497 2.81513 17.2497 3.44993V4.59993ZM24.1507 4.60001V3.45001C24.1507 2.81521 23.6355 2.3 23.0007 2.3C22.3659 2.3 21.8507 2.81521 21.8507 3.45001V4.60001H19.5507V2.3C19.5507 1.02925 18.5214 0 17.2507 0H10.3507C9.07992 0 8.05067 1.02925 8.05067 2.3V4.60001H4.60066C3.32991 4.60001 2.30066 5.62926 2.30066 6.90001V13.8H4.60066V8.05001C4.60066 7.41521 5.11586 6.90001 5.75067 6.90001H21.8507C22.4855 6.90001 23.0007 7.41521 23.0007 8.05001V17.25C23.0007 17.8848 22.4855 18.4 21.8507 18.4H20.7007V20.7H23.0007C24.2714 20.7 25.3007 19.6708 25.3007 18.4V4.60001H24.1507Z" fill="#E3E9EF"/>
</svg>
