<svg width="33" height="14" viewBox="0 0 33 14" fill="none" xmlns="http://www.w3.org/2000/svg">
<path fill-rule="evenodd" clip-rule="evenodd" d="M13.9353 6.53933H16.0507V5.45483H13.9353V6.53933Z" fill="#90A8BE"/>
<path fill-rule="evenodd" clip-rule="evenodd" d="M31.3897 5.45459H29.8028V6.53909H31.3897V8.76209C31.3908 9.16184 31.1534 9.52147 30.7909 9.66809L29.2739 10.2928C29.2739 10.243 29.2677 10.1935 29.2644 10.1436C29.2611 10.0937 29.26 10.0352 29.2549 9.98122C29.2494 9.92684 29.2391 9.87247 29.2307 9.81847C29.222 9.76409 29.2157 9.70972 29.2051 9.66059C29.1945 9.61109 29.1792 9.55672 29.1653 9.50497C29.1517 9.45359 29.1411 9.40147 29.125 9.35084C29.1093 9.30059 29.0903 9.25222 29.0723 9.20272C29.0544 9.15359 29.038 9.10259 29.0197 9.05384C29.001 9.00509 28.9761 8.96047 28.9538 8.91434C28.9315 8.86822 28.9099 8.81797 28.8851 8.77147C28.8602 8.72459 28.8324 8.68522 28.8082 8.64172C28.7848 8.59822 28.7556 8.54909 28.7256 8.50447C28.6952 8.45984 28.667 8.42497 28.6381 8.38484C28.6092 8.34472 28.5763 8.29747 28.5423 8.25584C28.5086 8.21384 28.4768 8.18122 28.4439 8.14709C28.4113 8.11334 28.3748 8.06722 28.3382 8.02897C28.3016 7.99109 28.2658 7.96109 28.2295 7.92772C28.193 7.89397 28.1538 7.85422 28.1136 7.81897C28.0733 7.78409 28.0324 7.75672 27.9925 7.72597C27.9523 7.69522 27.912 7.66184 27.87 7.63297C27.8275 7.60447 27.78 7.57897 27.7346 7.54859C27.6889 7.51822 27.6519 7.49422 27.6088 7.47097C27.566 7.44772 27.5126 7.42334 27.4643 7.39934C27.4156 7.37572 27.3772 7.35434 27.3322 7.33484C27.2876 7.31534 27.2265 7.29472 27.1738 7.27559C27.1208 7.25572 27.0864 7.24072 27.0414 7.22609C26.9811 7.20697 26.9193 7.19347 26.8578 7.17772C26.8176 7.16797 26.7792 7.15484 26.7385 7.14622C26.6734 7.13272 26.6069 7.12522 26.5406 7.11509C26.5015 7.10984 26.4638 7.10122 26.4247 7.09747C26.319 7.08659 26.2133 7.08059 26.1021 7.08059C24.3502 7.08247 22.9302 8.53784 22.9288 10.3341H18.6957V4.91234H24.5138C24.6539 4.91234 24.7885 4.85497 24.8876 4.75334L26.259 3.34747C26.8348 3.62834 27.3944 3.94222 27.9358 4.28759C27.9984 4.32772 28.0679 4.35397 28.141 4.36484L31.3897 4.83997V5.45459ZM28.1732 10.7683C27.9395 11.9421 26.8216 12.6988 25.6766 12.4592C24.532 12.2192 23.7935 11.0736 24.0276 9.89984C24.2614 8.72647 25.3792 7.96934 26.5242 8.20934C27.5089 8.41559 28.2164 9.30397 28.216 10.3348C28.216 10.4803 28.2017 10.6258 28.1732 10.7683ZM18.6957 1.65922H18.995C21.1265 1.65659 23.2386 2.07134 25.2183 2.88134L24.295 3.82822H18.6957V1.65922ZM17.6378 3.82822H10.1916L10.2937 3.77084C12.5551 2.51122 15.0666 1.79684 17.6378 1.68284V3.82822ZM17.6378 10.3348H9.17509C9.17509 8.53784 7.75433 7.08134 6.00179 7.08134C4.24888 7.08134 2.82812 8.53784 2.82812 10.3348H1.77023V7.65697C1.77096 7.16047 2.03068 6.70184 2.45098 6.45509C4.17719 5.44484 6.12982 4.91309 8.1172 4.91234H17.6378V10.3348ZM8.0744 10.7683C7.84029 11.9421 6.72278 12.6988 5.57819 12.4592C4.43324 12.2192 3.6947 11.0736 3.92881 9.89984C4.16292 8.72647 5.28043 7.96934 6.42538 8.20934C7.41011 8.41559 8.11757 9.30397 8.1172 10.3348C8.1172 10.4803 8.10294 10.6258 8.0744 10.7683ZM31.9936 3.83347L28.4007 3.30734C27.7456 2.89484 27.0659 2.52547 26.3647 2.20147C24.0499 1.12634 21.5376 0.571719 18.9961 0.574719H18.372C15.3725 0.576969 12.4212 1.34834 9.78707 2.81909L7.97381 3.83309C5.85145 3.85747 3.77005 4.43609 1.92606 5.51384C1.17654 5.95447 0.713805 6.77159 0.712341 7.65697V10.8767C0.712341 11.1763 0.949379 11.419 1.24165 11.419H3.0176C3.5952 13.1083 5.39932 13.9982 7.04724 13.4057C7.95442 13.0798 8.66736 12.349 8.98524 11.419H23.1164C23.694 13.1083 25.4981 13.9982 27.146 13.4057C28.0529 13.0798 28.7662 12.349 29.084 11.419H29.2739C29.3412 11.419 29.4078 11.4062 29.4707 11.3803L31.1837 10.6757C31.949 10.3652 32.4501 9.60584 32.4476 8.76209V4.37009C32.4476 4.10047 32.2541 3.87172 31.9936 3.83347Z" fill="#90A8BE"/>
</svg>
