<svg width="20" height="20" viewBox="0 0 20 20" fill="none" xmlns="http://www.w3.org/2000/svg">
<path d="M17.2475 1.93768H17.2472H15.5136V1.39894C15.5136 1.07259 15.2489 0.807812 14.9225 0.807812C14.5962 0.807812 14.3314 1.07259 14.3314 1.39894V1.93768H8.12661V1.39894C8.12661 1.07259 7.86183 0.807812 7.53549 0.807812C7.20914 0.807812 6.94436 1.07259 6.94436 1.39894V1.93768L5.0804 1.93768L5.08016 1.93768C3.79449 1.93917 2.75266 2.98083 2.75117 4.26654V4.26677V10.7848C2.75117 11.1112 3.01604 11.3758 3.3423 11.3758C3.66864 11.3758 3.93328 11.1112 3.93328 10.7848V8.4211H18.3943V16.868C18.3935 17.5014 17.8804 18.0145 17.247 18.0152H5.08061C4.4473 18.0145 3.93414 17.5014 3.93328 16.8681V14.6086C3.93328 14.2824 3.66873 14.0175 3.3423 14.0175C3.01595 14.0175 2.75117 14.2823 2.75117 14.6086L2.75117 16.8682L2.75117 16.8685C2.75266 18.1541 3.79448 19.196 5.08016 19.1975H5.0804H17.2472H17.2475C18.5331 19.196 19.575 18.1541 19.5765 16.8685V16.8682V4.26677V4.26654C19.575 2.98083 18.5331 1.93917 17.2475 1.93768ZM6.0935 5.40902L6.0935 5.40903C6.20629 6.11791 6.81766 6.63963 7.53549 6.63963C8.25331 6.63963 8.86468 6.11791 8.97747 5.40903L8.97747 5.40902C9.08244 4.74915 8.72662 4.10942 8.12661 3.84436V3.11979H14.3314V3.84436C13.7314 4.10942 13.3756 4.74915 13.4805 5.40902C13.5933 6.11791 14.2047 6.63963 14.9225 6.63963C15.6403 6.63963 16.2517 6.11791 16.3645 5.40903C16.4695 4.74915 16.1136 4.10942 15.5136 3.84436V3.11979H17.247C17.8804 3.12048 18.3935 3.63363 18.3943 4.26702V7.23885H3.93328V4.26693C3.93414 3.63359 4.4473 3.12048 5.08061 3.11979H6.94436V3.84436C6.34436 4.10942 5.98853 4.74915 6.0935 5.40902ZM7.53549 4.90139C7.68904 4.90139 7.81348 5.02583 7.81348 5.17939C7.81348 5.33284 7.689 5.45738 7.53549 5.45738C7.38215 5.45738 7.25762 5.33294 7.25749 5.17963C7.25776 5.02601 7.38222 4.90166 7.53549 4.90139ZM14.9225 4.90139C15.0761 4.90139 15.2005 5.02583 15.2005 5.17939C15.2005 5.33284 15.076 5.45738 14.9225 5.45738C14.7692 5.45738 14.6447 5.33294 14.6445 5.17963C14.6448 5.02601 14.7692 4.90166 14.9225 4.90139Z" fill="#90A8BE" stroke="#90A8BE" stroke-width="0.4"/>
<path d="M7.20492 14.3214L7.20485 14.3215C6.97416 14.5524 6.97416 14.9263 7.20485 15.1572L7.20492 15.1573C7.43583 15.3882 7.80989 15.3882 8.0408 15.1573L10.0831 13.1149C10.3139 12.8842 10.3139 12.51 10.0831 12.2792L8.0408 10.2369C7.80989 10.0059 7.43583 10.0059 7.20492 10.2369L7.20485 10.2369C6.97416 10.4678 6.97416 10.8418 7.20485 11.0727L7.20492 11.0727L8.2382 12.106H1.01808C0.691825 12.106 0.426953 12.3706 0.426953 12.697C0.426953 13.0235 0.69178 13.2881 1.01808 13.2881H8.2382L7.20492 14.3214Z" fill="#90A8BE" stroke="#90A8BE" stroke-width="0.4"/>
</svg>
