<svg width="22" height="20" viewBox="0 0 22 20" fill="none" xmlns="http://www.w3.org/2000/svg">
<path fill-rule="evenodd" clip-rule="evenodd" d="M1.79992 5.69577H4.1829V0.451172H1.79992V5.69577ZM17.2894 9.89144H14.9064V13.0382H17.2894C20.0691 13.0382 20.0691 9.89144 17.2894 9.89144ZM12.5232 9.89144H2.99131V13.0382C2.99131 15.3553 5.12527 17.2339 7.75728 17.2339C10.3893 17.2339 12.5232 15.3553 12.5232 13.0382V9.89144ZM17.2893 15.136H14.4905C13.5087 17.579 10.8683 19.3317 7.75735 19.3317C3.80875 19.3317 0.608398 16.5143 0.608398 13.0382V7.79361H14.9063H17.2893C23.2467 7.79361 23.2467 15.136 17.2893 15.136ZM11.3317 5.69577H13.7147V0.451172H11.3317V5.69577ZM6.56579 5.69577H8.94878V0.451172H6.56579V5.69577Z" fill="#90A8BE"/>
</svg>
