<svg width="18" height="18" viewBox="0 0 18 18" fill="none" xmlns="http://www.w3.org/2000/svg">
<path fill-rule="evenodd" clip-rule="evenodd" d="M1.01408 5H3.04225V0H1.01408V5ZM14.1972 9H12.169V12H14.1972C16.563 12 16.563 9 14.1972 9ZM10.1408 9H2.02817V12C2.02817 14.209 3.84439 16 6.08451 16C8.32462 16 10.1408 14.209 10.1408 12V9ZM14.1972 14H11.8151C10.9795 16.329 8.73228 18 6.08451 18C2.72383 18 0 15.314 0 12V7H12.169H14.1972C19.2676 7 19.2676 14 14.1972 14ZM9.12676 5H11.1549V0H9.12676V5ZM5.07042 5H7.09859V0H5.07042V5Z" fill="#363B40"/>
</svg>
