<svg width="29" height="29" viewBox="0 0 29 29" fill="none" xmlns="http://www.w3.org/2000/svg">
<path fill-rule="evenodd" clip-rule="evenodd" d="M9.72789 5.65986C9.72789 4.8788 10.3618 4.2449 11.1429 4.2449C11.9239 4.2449 12.5578 4.8788 12.5578 5.65986C12.5578 6.44093 11.9239 7.07483 11.1429 7.07483C10.3618 7.07483 9.72789 6.44093 9.72789 5.65986ZM25.4694 24.0544C25.4694 24.8355 24.8355 25.4694 24.0544 25.4694H22.6395V19.8095C22.6395 18.246 21.3731 16.9796 19.8095 16.9796H8.4898C6.92626 16.9796 5.65986 18.246 5.65986 19.8095V25.4694H4.2449C3.46384 25.4694 2.82993 24.8355 2.82993 24.0544V9.96702C2.82993 9.77883 2.90493 9.59913 3.03652 9.46754L5.65986 6.84419V8.4898C5.65986 10.0533 6.92626 11.3197 8.4898 11.3197H19.8095C21.3731 11.3197 22.6395 10.0533 22.6395 8.4898V2.82993H24.0544C24.8355 2.82993 25.4694 3.46384 25.4694 4.2449V24.0544ZM19.8095 25.4694H8.4898V21.2245C8.4898 20.4434 9.1237 19.8095 9.90476 19.8095H18.3946C19.1756 19.8095 19.8095 20.4434 19.8095 21.2245V25.4694ZM8.4898 4.01426L9.67412 2.82993H19.8095V7.07483C19.8095 7.85589 19.1756 8.4898 18.3946 8.4898H9.90476C9.1237 8.4898 8.4898 7.85589 8.4898 7.07483V4.01426ZM25.4694 0H9.07559C8.70063 0 8.34122 0.148571 8.07521 0.414585L0.414585 8.07521C0.148571 8.34122 0 8.70063 0 9.07559V25.4694C0 27.0329 1.26639 28.2993 2.82993 28.2993H25.4694C27.0329 28.2993 28.2993 27.0329 28.2993 25.4694V2.82993C28.2993 1.26639 27.0329 0 25.4694 0Z" fill="#363B40"/>
</svg>
