<svg width="20" height="20" viewBox="0 0 20 20" fill="none" xmlns="http://www.w3.org/2000/svg">
<path fill-rule="evenodd" clip-rule="evenodd" d="M10 18C5.589 18 2 14.411 2 10C2 5.589 5.589 2 10 2C14.411 2 18 5.589 18 10C18 14.411 14.411 18 10 18ZM10 0C4.477 0 0 4.477 0 10C0 15.523 4.477 20 10 20C15.523 20 20 15.523 20 10C20 4.477 15.523 0 10 0Z" fill="#55636D"/>
<path fill-rule="evenodd" clip-rule="evenodd" d="M5.59982 7.59999C5.93102 7.26879 6.46862 7.26879 6.79982 7.59999L10.3998 11.2C10.731 11.5312 10.731 12.0688 10.3998 12.4C10.0686 12.7312 9.53101 12.7312 9.19981 12.4L5.59982 8.79999C5.26862 8.46879 5.26862 7.93119 5.59982 7.59999Z" fill="#55636D"/>
<path fill-rule="evenodd" clip-rule="evenodd" d="M14.6431 7.60004C14.9743 7.93123 14.9743 8.46883 14.6431 8.80003L11.0432 12.4C10.712 12.7312 10.1744 12.7312 9.84316 12.4C9.51196 12.0688 9.51196 11.5312 9.84316 11.2L13.4431 7.60004C13.7743 7.26884 14.3119 7.26884 14.6431 7.60004Z" fill="#55636D"/>
</svg>
