<svg width="20" height="20" viewBox="0 0 20 20" fill="none" xmlns="http://www.w3.org/2000/svg">
<path fill-rule="evenodd" clip-rule="evenodd" d="M13.766 3.5673C14.1891 3.99037 14.1891 4.6763 13.766 5.09937C13.343 5.52243 12.657 5.52243 12.234 5.09937L10.8333 3.69873V14.0833C10.8333 14.6816 10.3483 15.1667 9.75 15.1667C9.15169 15.1667 8.66667 14.6816 8.66667 14.0833L8.66667 3.69873L7.26603 5.09937C6.84296 5.52243 6.15704 5.52243 5.73397 5.09937C5.3109 4.6763 5.3109 3.99037 5.73397 3.5673L8.98397 0.317301C9.40704 -0.105767 10.093 -0.105767 10.516 0.317301L13.766 3.5673ZM19.5 11.9167C19.5 11.3184 19.015 10.8333 18.4167 10.8333C17.8184 10.8333 17.3333 11.3184 17.3333 11.9167V17.3333H2.16667L2.16667 11.9167C2.16667 11.3184 1.68164 10.8333 1.08333 10.8333C0.485025 10.8333 0 11.3184 0 11.9167V18.4167C0 19.015 0.485025 19.5 1.08333 19.5L18.4167 19.5C19.015 19.5 19.5 19.015 19.5 18.4167L19.5 11.9167Z" fill="#3C444C"/>
</svg>
