<svg width="14" height="14" viewBox="0 0 14 14" fill="none" xmlns="http://www.w3.org/2000/svg">
<path fill-rule="evenodd" clip-rule="evenodd" d="M13.7842 3.16318C14.0719 3.45094 14.0719 3.91748 13.7842 4.20524L4.20524 13.7842C4.06705 13.9224 3.87964 14 3.68421 14L0.736843 14C0.541419 14 0.354 13.9224 0.215816 13.7842C0.0776308 13.646 -9.93769e-07 13.4586 0 13.2632L2.4534e-06 10.3158C2.57762e-06 10.1204 0.0776333 9.93295 0.215818 9.79476L9.79476 0.215816C10.0825 -0.0719387 10.5491 -0.0719387 10.8368 0.215816C11.1246 0.503571 11.1246 0.970113 10.8368 1.25787L1.47369 10.621L1.47368 12.5263L3.379 12.5263L12.7421 3.16318C13.0299 2.87543 13.4964 2.87543 13.7842 3.16318Z" fill="#2F80ED"/>
<path fill-rule="evenodd" clip-rule="evenodd" d="M9.79476 0.215816C10.0825 -0.0719387 10.5491 -0.0719387 10.8368 0.215816L13.7842 3.16318C14.0719 3.45094 14.0719 3.91748 13.7842 4.20524C13.4964 4.49299 13.0299 4.49299 12.7421 4.20524L9.79477 1.25787C9.50701 0.970113 9.50701 0.503571 9.79476 0.215816Z" fill="#2F80ED"/>
<path fill-rule="evenodd" clip-rule="evenodd" d="M10.5316 6.41576L7.58424 3.46839L8.62629 2.42634L11.5737 5.37371L10.5316 6.41576Z" fill="#2F80ED"/>
</svg>
