<svg width="19" height="19" viewBox="0 0 19 19" fill="none" xmlns="http://www.w3.org/2000/svg">
<path d="M3.49916 16.2916C3.27709 16.2913 3.06538 16.1976 2.9157 16.0336C2.76326 15.8708 2.68752 15.6508 2.70749 15.4287L2.90145 13.296L11.8615 4.33906L14.6617 7.13839L5.70395 16.0945L3.5712 16.2885C3.54666 16.2909 3.52212 16.2916 3.49916 16.2916ZM15.2206 6.57869L12.4212 3.77935L14.1004 2.10023C14.2489 1.95157 14.4504 1.86804 14.6605 1.86804C14.8706 1.86804 15.0721 1.95157 15.2206 2.10023L16.8997 3.77935C17.0484 3.92784 17.1319 4.12934 17.1319 4.33946C17.1319 4.54957 17.0484 4.75107 16.8997 4.89956L15.2214 6.57789L15.2206 6.57869Z" fill="#90A8BE"/>
</svg>
