<svg width="20" height="20" viewBox="0 0 20 20" fill="none" xmlns="http://www.w3.org/2000/svg">
<g id="Icon/Outline/file-text">
<path id="Mask" fill-rule="evenodd" clip-rule="evenodd" d="M9.9999 11.6666H7.4999C7.0399 11.6666 6.66657 11.2933 6.66657 10.8333C6.66657 10.3733 7.0399 9.99996 7.4999 9.99996H9.9999C10.4599 9.99996 10.8332 10.3733 10.8332 10.8333C10.8332 11.2933 10.4599 11.6666 9.9999 11.6666ZM6.66657 14.1666C6.66657 13.7066 7.0399 13.3333 7.4999 13.3333H12.4999C12.9607 13.3333 13.3332 13.7066 13.3332 14.1666C13.3332 14.6266 12.9607 15 12.4999 15H7.4999C7.0399 15 6.66657 14.6266 6.66657 14.1666ZM14.5368 16.6666H5.46266C5.20766 16.6666 5.00016 16.48 5.00016 16.25V3.74996C5.00016 3.51996 5.20766 3.33329 5.46266 3.33329H10.0002V5.95829C10.0002 7.26829 11.0143 8.33329 12.2618 8.33329H15.0002V16.25C15.0002 16.48 14.7927 16.6666 14.5368 16.6666ZM11.6668 4.14829L13.9518 6.66662H12.2618C11.9335 6.66662 11.6668 6.34912 11.6668 5.95829V4.14829ZM16.4502 6.93996L11.9135 1.93996C11.7552 1.76579 11.5318 1.66663 11.296 1.66663H5.46266C4.2885 1.66663 3.3335 2.60163 3.3335 3.74996V16.25C3.3335 17.3983 4.2885 18.3333 5.46266 18.3333H14.5368C15.711 18.3333 16.6668 17.3983 16.6668 16.25V7.49996C16.6668 7.29246 16.5893 7.09329 16.4502 6.93996Z" fill="#2A8BF2"/>
<mask id="mask0" mask-type="alpha" maskUnits="userSpaceOnUse" x="3" y="1" width="14" height="18">
<path id="Mask_2" fill-rule="evenodd" clip-rule="evenodd" d="M9.9999 11.6666H7.4999C7.0399 11.6666 6.66657 11.2933 6.66657 10.8333C6.66657 10.3733 7.0399 9.99996 7.4999 9.99996H9.9999C10.4599 9.99996 10.8332 10.3733 10.8332 10.8333C10.8332 11.2933 10.4599 11.6666 9.9999 11.6666ZM6.66657 14.1666C6.66657 13.7066 7.0399 13.3333 7.4999 13.3333H12.4999C12.9607 13.3333 13.3332 13.7066 13.3332 14.1666C13.3332 14.6266 12.9607 15 12.4999 15H7.4999C7.0399 15 6.66657 14.6266 6.66657 14.1666ZM14.5368 16.6666H5.46266C5.20766 16.6666 5.00016 16.48 5.00016 16.25V3.74996C5.00016 3.51996 5.20766 3.33329 5.46266 3.33329H10.0002V5.95829C10.0002 7.26829 11.0143 8.33329 12.2618 8.33329H15.0002V16.25C15.0002 16.48 14.7927 16.6666 14.5368 16.6666ZM11.6668 4.14829L13.9518 6.66662H12.2618C11.9335 6.66662 11.6668 6.34912 11.6668 5.95829V4.14829ZM16.4502 6.93996L11.9135 1.93996C11.7552 1.76579 11.5318 1.66663 11.296 1.66663H5.46266C4.2885 1.66663 3.3335 2.60163 3.3335 3.74996V16.25C3.3335 17.3983 4.2885 18.3333 5.46266 18.3333H14.5368C15.711 18.3333 16.6668 17.3983 16.6668 16.25V7.49996C16.6668 7.29246 16.5893 7.09329 16.4502 6.93996Z" fill="white"/>
</mask>
<g mask="url(#mask0)">
<g id="&#240;&#159;&#142;&#168; Color">
<rect id="Base" width="20" height="20" fill="#2A8BF2"/>
</g>
</g>
</g>
</svg>
