<svg width="24" height="24" viewBox="0 0 24 24" fill="none" xmlns="http://www.w3.org/2000/svg">
<g id="Icon/Outline/file">
<path id="Mask" fill-rule="evenodd" clip-rule="evenodd" d="M16.9852 19.9024H6.86328C6.57884 19.9024 6.34738 19.6795 6.34738 19.4048V4.47805C6.34738 4.20339 6.57884 3.98049 6.86328 3.98049H10.9951V8.11023C10.9951 9.67455 12.1264 10.9463 13.5179 10.9463H17.502V19.4048C17.502 19.6795 17.2696 19.9024 16.9852 19.9024ZM17.1757 8.95608H13.5179C13.1517 8.95608 12.8542 8.57694 12.8542 8.11023V3.98049H12.9583L17.1757 8.95608ZM19.1194 8.28734L14.0589 2.31663C13.8832 2.10865 13.6332 1.99023 13.3701 1.99023H6.86328C5.55355 1.99023 4.48828 3.10676 4.48828 4.47803V19.4048C4.48828 20.7761 5.55355 21.8926 6.86328 21.8926H16.9852C18.2949 21.8926 19.3611 20.7761 19.3611 19.4048V8.95606C19.3611 8.70827 19.2746 8.47044 19.1194 8.28734Z" fill="#5D3F96"/>
<mask id="mask0" style="mask-type:alpha" maskUnits="userSpaceOnUse" x="4" y="1" width="16" height="21">
<path id="Mask_2" fill-rule="evenodd" clip-rule="evenodd" d="M16.9852 19.9024H6.86328C6.57884 19.9024 6.34738 19.6795 6.34738 19.4048V4.47805C6.34738 4.20339 6.57884 3.98049 6.86328 3.98049H10.9951V8.11023C10.9951 9.67455 12.1264 10.9463 13.5179 10.9463H17.502V19.4048C17.502 19.6795 17.2696 19.9024 16.9852 19.9024ZM17.1757 8.95608H13.5179C13.1517 8.95608 12.8542 8.57694 12.8542 8.11023V3.98049H12.9583L17.1757 8.95608ZM19.1194 8.28734L14.0589 2.31663C13.8832 2.10865 13.6332 1.99023 13.3701 1.99023H6.86328C5.55355 1.99023 4.48828 3.10676 4.48828 4.47803V19.4048C4.48828 20.7761 5.55355 21.8926 6.86328 21.8926H16.9852C18.2949 21.8926 19.3611 20.7761 19.3611 19.4048V8.95606C19.3611 8.70827 19.2746 8.47044 19.1194 8.28734Z" fill="white"/>
</mask>
<g mask="url(#mask0)">
<g id="&#240;&#159;&#142;&#168; Color">
<rect id="Base" x="0.769531" width="22.3092" height="23.8828" fill="#5D3F96"/>
</g>
</g>
</g>
</svg>
