<svg width="17" height="17" viewBox="0 0 17 17" fill="none" xmlns="http://www.w3.org/2000/svg">
<path d="M16.0881 12.4872L16.6603 11.9152C17.0204 11.5549 17.0204 10.9688 16.6603 10.6086C16.4858 10.4342 16.2538 10.338 16.0069 10.338C15.8217 10.338 15.6447 10.3922 15.4942 10.4931L15.3737 10.0884L15.993 9.46888C16.3533 9.10862 16.3533 8.52253 15.993 8.16242C15.6615 7.83069 15.1387 7.80521 14.7766 8.0843L14.0427 5.6203C14.3358 5.33802 14.6165 5.06336 14.8811 4.79877C15.6436 4.03613 16.2636 3.2291 16.6269 2.52597C17.2408 1.33761 16.9838 0.702389 16.6602 0.378749C16.3367 0.0551098 15.7015 -0.201696 14.5129 0.412166C13.81 0.775326 13.0028 1.39529 12.2403 2.15793C11.9757 2.42251 11.7009 2.70312 11.4188 2.99625L8.95462 2.2623C9.2337 1.90036 9.20822 1.37759 8.87664 1.04586C8.51638 0.685757 7.93029 0.685604 7.57018 1.04586L6.95068 1.66537L6.54586 1.54483C6.64672 1.39422 6.70089 1.21722 6.70089 1.03198C6.70089 0.785244 6.60476 0.553157 6.43035 0.378749C6.07024 0.0184887 5.484 0.0184887 5.12389 0.378749L4.55184 0.950802L1.63603 0.0822706C1.53212 0.0514478 1.41982 0.0798292 1.34337 0.156428L0.592789 0.907009C0.466752 1.03289 0.483384 1.2482 0.627122 1.35333L7.984 6.73832C6.32522 8.60859 4.72732 10.4812 3.59923 11.819L1.43523 10.9867C1.32643 10.9449 1.20329 10.971 1.1209 11.0534L0.231308 11.9429C0.116257 12.0581 0.116257 12.2448 0.231308 12.3598L4.6791 16.8076C4.79262 16.9213 4.98244 16.9213 5.09612 16.8076L5.98556 15.9182C6.06795 15.8358 6.0942 15.7125 6.05224 15.6037L5.22002 13.4398C6.55792 12.3118 8.43032 10.7138 10.3007 9.05491L10.8852 9.85356C10.9889 9.99531 11.1993 10.0136 11.3266 9.89277C11.4326 9.79206 11.4473 9.62315 11.3611 9.50535L10.7433 8.66123C11.7213 7.78828 12.6872 6.90754 13.5635 6.07761L16.3414 15.403L15.9583 15.786L12.1404 10.57C12.0442 10.4386 11.8597 10.41 11.7284 10.5062C11.5968 10.6025 11.5683 10.7869 11.6646 10.9183L15.6857 16.4119C15.7909 16.5557 16.0062 16.5723 16.1321 16.4463L16.8826 15.6957C16.9592 15.6193 16.9876 15.5068 16.9568 15.403L16.0881 12.4872ZM7.98721 1.46289C8.11599 1.3341 8.33099 1.3341 8.45977 1.46289C8.59008 1.5932 8.59008 1.80514 8.45977 1.93545L8.32153 2.0737L7.59323 1.85672L7.98721 1.46289ZM5.54092 0.795773C5.67107 0.665462 5.88317 0.665462 6.01348 0.795773C6.14379 0.926083 6.14379 1.13803 6.01348 1.26834L5.92254 1.35913L5.19439 1.1423L5.54092 0.795773ZM1.25289 1.08065L1.63603 0.697658L10.9615 3.47537C10.1315 4.35184 9.25079 5.31772 8.37768 6.29581L1.25289 1.08065ZM1.40242 11.6059L3.19762 12.2963C2.74733 12.8325 2.40203 13.2474 2.19832 13.4929L0.856767 12.1514L1.40242 11.6059ZM2.61718 13.9118C3.64501 12.6717 9.07791 6.15421 12.6573 2.5748C13.3675 1.8645 14.1426 1.26727 14.7836 0.936154C15.2649 0.687435 15.9088 0.461299 16.2433 0.795773C16.5778 1.13025 16.3515 1.77417 16.1029 2.25543C15.7718 2.89645 15.1744 3.67145 14.4641 4.38175C10.885 7.96085 4.36736 13.3939 3.12728 14.4219L2.61718 13.9118ZM5.43319 15.6366L4.88769 16.1821L3.54613 14.8406C3.79149 14.637 4.20653 14.2917 4.74273 13.8414L5.43319 15.6366ZM15.7707 11.0256C15.901 10.8953 16.113 10.8953 16.2433 11.0256C16.3736 11.1559 16.3736 11.3678 16.2433 11.4982L15.8968 11.8447L15.6798 11.1165L15.7707 11.0256ZM15.1036 8.57929C15.2338 8.44898 15.4459 8.44913 15.5762 8.57929C15.705 8.70808 15.705 8.92307 15.5762 9.05186L15.1822 9.44584L14.9652 8.71754L15.1036 8.57929Z" fill="#444444"/>
</svg>
