<svg width="21" height="20" viewBox="0 0 21 20" fill="none" xmlns="http://www.w3.org/2000/svg">
<path fill-rule="evenodd" clip-rule="evenodd" d="M10.1842 20C15.8088 20 20.3684 15.5228 20.3684 10C20.3684 4.47715 15.8088 0 10.1842 0C4.55963 0 0 4.47715 0 10C0 15.5228 4.55963 20 10.1842 20Z" fill="#90A8BE"/>
<path fill-rule="evenodd" clip-rule="evenodd" d="M7.48172 7.20194C7.48851 5.60565 8.58916 4.44935 10.107 4.44417C11.6784 4.43972 12.7669 5.62417 12.7534 7.32639C12.7405 8.90935 11.612 10.0619 10.0904 10.0486C8.54918 10.0345 7.47493 8.86268 7.48172 7.20194Z" fill="white"/>
<path fill-rule="evenodd" clip-rule="evenodd" d="M10.0448 14.3641C8.82496 14.3648 7.60437 14.3522 6.38452 14.3708C5.89945 14.3774 5.49359 14.2722 5.32612 13.7922C5.16016 13.3189 5.47775 13.0004 5.82326 12.7678C8.07586 11.247 10.4733 10.9033 13.0201 11.9826C13.5783 12.2189 14.1351 12.4685 14.5787 12.9033C14.8548 13.1737 15.063 13.4633 14.8827 13.8559C14.7152 14.2189 14.4104 14.3708 13.9978 14.3678C12.6806 14.3574 11.3627 14.3641 10.0448 14.3641Z" fill="white"/>
</svg>
