<svg width="28" height="26" viewBox="0 0 28 26" fill="none" xmlns="http://www.w3.org/2000/svg">
<path fill-rule="evenodd" clip-rule="evenodd" d="M2.07746 21.6308H2.44085C2.43716 21.5801 2.43716 21.5293 2.44085 21.4786V2.29887C2.44085 1.71039 2.92342 1.23334 3.5187 1.23334H14.0508C14.6461 1.23334 15.1287 1.71039 15.1287 2.29887V10.2143C16.1315 10.4548 17.009 11.0533 17.5923 11.8948C18.3077 12.9137 18.5288 14.1939 18.1959 15.3898C17.7525 17.0703 17.697 19.2988 18.6148 20.2243C19.1431 20.6872 19.8864 20.8253 20.5487 20.5835C21.2612 20.472 21.8695 20.0147 22.1686 19.3658C23.1479 17.1312 20.7027 12.9055 20.6966 12.8873C20.5487 12.6681 17.1427 7.43781 20.6226 4.36297C20.7643 4.21684 24.121 0.709701 26.714 1.05067C26.9776 1.08431 27.1638 1.32284 27.1298 1.58344C27.0957 1.84404 26.8545 2.02808 26.5909 1.99444C25.9677 1.95745 25.3466 2.0946 24.7985 2.39021L25.4884 3.21219C25.8622 3.67015 25.7897 4.34098 25.3265 4.71057C25.3189 4.71658 25.3113 4.72252 25.3036 4.7283L22.9878 6.55494C22.7974 6.70579 22.5604 6.78745 22.3164 6.78631H22.224C21.9401 6.75465 21.6806 6.61217 21.5034 6.39054L20.8321 5.55638C18.7503 8.18673 21.448 12.3758 21.5157 12.4428C21.6266 12.6315 24.2134 17.1068 23.0555 19.7493C22.6274 20.6669 21.7668 21.3148 20.7581 21.4786C20.4475 21.553 20.1292 21.5918 19.8096 21.5942C19.119 21.6148 18.4505 21.3526 17.9619 20.8697C16.7301 19.5971 16.8286 17.0033 17.309 15.1645C17.82 13.4718 16.8509 11.6892 15.141 11.1763V21.4786C15.1447 21.5293 15.1447 21.5801 15.141 21.6308H15.449C16.0441 21.6173 16.5376 22.0833 16.5511 22.6717C16.5514 22.6799 16.5514 22.6881 16.5514 22.6963V24.2977C16.5516 24.8862 16.0692 25.3634 15.4739 25.3635C15.4656 25.3635 15.4573 25.3634 15.449 25.3632H2.07746C1.48218 25.3632 0.999613 24.8862 0.999613 24.2977V22.6963C0.999613 22.1079 1.48218 21.6308 2.07746 21.6308ZM21.5396 4.99009L22.2233 5.82426C22.2494 5.85562 22.2871 5.87533 22.328 5.87906C22.3676 5.88416 22.4076 5.87312 22.4389 5.84861L24.7547 4.02198C24.8134 3.96276 24.8134 3.86808 24.7547 3.80887L24.071 2.96862C24.0449 2.93726 24.0072 2.91755 23.9663 2.91382C23.9268 2.90872 23.8867 2.91975 23.8555 2.94426L21.5396 4.7709C21.5074 4.79624 21.4873 4.83376 21.4842 4.87441C21.4846 4.91916 21.5048 4.96148 21.5396 4.99009ZM14.2178 2.29889C14.2178 2.21479 14.1489 2.14667 14.0638 2.14667H3.50707C3.422 2.14667 3.35309 2.21479 3.35309 2.29889V21.4786C3.35309 21.5627 3.422 21.6308 3.50707 21.6308H14.0515C14.1363 21.6375 14.2105 21.575 14.2174 21.4912C14.2177 21.487 14.2179 21.4828 14.2178 21.4786V2.29889ZM1.89893 24.2976C1.89893 24.3817 1.96784 24.4498 2.05291 24.4498H15.449C15.5341 24.4498 15.603 24.3817 15.603 24.2976V22.6963C15.603 22.6122 15.5341 22.544 15.449 22.544H2.07755C1.99363 22.5306 1.91448 22.587 1.90093 22.6699C1.89947 22.6786 1.89886 22.6874 1.89893 22.6963V24.2976Z" fill="#363B40"/>
<path d="M2.44085 21.6308L2.69019 21.6126L2.70975 21.8808H2.44085V21.6308ZM2.44085 21.4786H2.69085V21.4877L2.69019 21.4967L2.44085 21.4786ZM15.1287 10.2143L15.0704 10.4574L14.8787 10.4114V10.2143H15.1287ZM17.5923 11.8948L17.3877 12.0385L17.3869 12.0372L17.5923 11.8948ZM18.1959 15.3898L17.9542 15.326L17.9551 15.3227L18.1959 15.3898ZM18.6148 20.2243L18.45 20.4123L18.4434 20.4065L18.4372 20.4003L18.6148 20.2243ZM20.5487 20.5835L20.463 20.3487L20.4859 20.3403L20.5101 20.3365L20.5487 20.5835ZM22.1686 19.3658L22.3976 19.4661L22.3956 19.4704L22.1686 19.3658ZM20.6966 12.8873L20.9038 12.7475L20.9227 12.7755L20.9334 12.8074L20.6966 12.8873ZM20.6226 4.36297L20.8021 4.53698L20.7954 4.54392L20.7882 4.55032L20.6226 4.36297ZM26.714 1.05067L26.6824 1.29866L26.6814 1.29854L26.714 1.05067ZM27.1298 1.58344L26.8819 1.55107L27.1298 1.58344ZM26.5909 1.99444L26.6057 1.74487L26.6141 1.74538L26.6225 1.74645L26.5909 1.99444ZM24.7985 2.39021L24.607 2.55092L24.4098 2.31586L24.6799 2.17018L24.7985 2.39021ZM25.4884 3.21219L25.6799 3.05147L25.682 3.05409L25.4884 3.21219ZM25.3265 4.71057L25.4824 4.90599L25.4823 4.90608L25.3265 4.71057ZM25.3036 4.7283L25.1487 4.53196L25.1534 4.52843L25.3036 4.7283ZM22.9878 6.55494L22.8325 6.35899L22.8329 6.35865L22.9878 6.55494ZM22.3164 6.78631V6.53631L22.3176 6.53632L22.3164 6.78631ZM22.224 6.78631V7.03631H22.2101L22.1963 7.03477L22.224 6.78631ZM21.5034 6.39054L21.6982 6.2338L21.6986 6.23441L21.5034 6.39054ZM20.8321 5.55638L20.636 5.40123L20.8304 5.15561L21.0268 5.39963L20.8321 5.55638ZM21.5157 12.4428L21.6915 12.265L21.7147 12.288L21.7313 12.3162L21.5157 12.4428ZM23.0555 19.7493L23.2845 19.8497L23.2821 19.855L23.0555 19.7493ZM20.7581 21.4786L20.6999 21.2354L20.7089 21.2333L20.7181 21.2318L20.7581 21.4786ZM19.8096 21.5942L19.8022 21.3443L19.8077 21.3443L19.8096 21.5942ZM17.9619 20.8697L17.7861 21.0475L17.7823 21.0436L17.9619 20.8697ZM17.309 15.1645L17.067 15.1012L17.0697 15.0922L17.309 15.1645ZM15.141 11.1763H14.891V10.8403L15.2128 10.9369L15.141 11.1763ZM15.141 21.4786L14.8917 21.4967L14.891 21.4877V21.4786H15.141ZM15.141 21.6308V21.8808H14.8721L14.8917 21.6126L15.141 21.6308ZM15.449 21.6308L15.4546 21.8808H15.449V21.6308ZM16.5511 22.6717L16.3012 22.6787L16.3012 22.6774L16.5511 22.6717ZM16.5514 24.2977L16.3014 24.2977V24.2977H16.5514ZM15.4739 25.3635L15.474 25.6135H15.4739V25.3635ZM15.449 25.3632V25.1131L15.4558 25.1133L15.449 25.3632ZM21.5396 4.99009L21.6984 4.797L21.7174 4.81261L21.733 4.83162L21.5396 4.99009ZM22.2233 5.82426L22.0311 5.98419L22.0299 5.98273L22.2233 5.82426ZM22.328 5.87906L22.3507 5.62992L22.36 5.63111L22.328 5.87906ZM22.4389 5.84861L22.5937 6.0449L22.5931 6.04535L22.4389 5.84861ZM24.7547 4.02198L24.9323 4.19793L24.9215 4.20879L24.9095 4.21827L24.7547 4.02198ZM24.7547 3.80887L24.5771 3.98482L24.5685 3.97614L24.5608 3.96665L24.7547 3.80887ZM24.071 2.96862L24.2632 2.80867L24.265 2.81083L24.071 2.96862ZM23.9663 2.91382L23.9436 3.16296L23.9344 3.16177L23.9663 2.91382ZM23.8555 2.94426L23.7006 2.74797L23.7012 2.74752L23.8555 2.94426ZM21.5396 4.7709L21.6945 4.96719L21.6941 4.96748L21.5396 4.7709ZM21.4842 4.87441L21.2342 4.87656L21.2341 4.86602L21.2349 4.85552L21.4842 4.87441ZM14.0515 21.6308V21.3808H14.0614L14.0712 21.3816L14.0515 21.6308ZM14.2174 21.4912L14.4667 21.5096L14.4665 21.5116L14.2174 21.4912ZM14.2178 21.4786L13.9678 21.4832V21.4786H14.2178ZM2.07755 22.544V22.794H2.05761L2.03792 22.7909L2.07755 22.544ZM1.90093 22.6699L2.14767 22.7102L2.14746 22.7115L1.90093 22.6699ZM1.89893 22.6963L2.14893 22.6941V22.6963H1.89893ZM2.07746 21.3808H2.44085V21.8808H2.07746V21.3808ZM2.19151 21.649C2.18694 21.5862 2.18694 21.5232 2.19151 21.4604L2.69019 21.4967C2.68738 21.5353 2.68738 21.574 2.69019 21.6126L2.19151 21.649ZM2.19085 21.4786V2.29887H2.69085V21.4786H2.19085ZM2.19085 2.29887C2.19085 1.56962 2.78807 0.983336 3.5187 0.983336V1.48334C3.05878 1.48334 2.69085 1.85116 2.69085 2.29887H2.19085ZM3.5187 0.983336H14.0508V1.48334H3.5187V0.983336ZM14.0508 0.983336C14.7815 0.983336 15.3787 1.56962 15.3787 2.29887H14.8787C14.8787 1.85116 14.5108 1.48334 14.0508 1.48334V0.983336ZM15.3787 2.29887V10.2143H14.8787V2.29887H15.3787ZM15.187 9.97119C16.2491 10.2259 17.1792 10.86 17.7978 11.7524L17.3869 12.0372C16.8388 11.2467 16.0139 10.6837 15.0704 10.4574L15.187 9.97119ZM17.7969 11.7511C18.5552 12.8311 18.7898 14.1886 18.4368 15.4568L17.9551 15.3227C18.2679 14.1993 18.0603 12.9963 17.3877 12.0385L17.7969 11.7511ZM18.4377 15.4536C18.2215 16.2729 18.1007 17.2241 18.1446 18.0773C18.1891 18.9419 18.3997 19.6523 18.7923 20.0482L18.4372 20.4003C17.9121 19.8707 17.6916 19.0041 17.6452 18.103C17.5983 17.1904 17.727 16.1872 17.9542 15.326L18.4377 15.4536ZM18.7795 20.0362C19.2389 20.4388 19.886 20.5593 20.463 20.3487L20.6345 20.8183C19.8867 21.0913 19.0474 20.9357 18.45 20.4123L18.7795 20.0362ZM20.5101 20.3365C21.1408 20.2378 21.6778 19.8332 21.9415 19.2611L22.3956 19.4704C22.0611 20.1961 21.3816 20.7062 20.5874 20.8305L20.5101 20.3365ZM21.9396 19.2654C22.1587 18.7655 22.1935 18.1342 22.1046 17.4453C22.0163 16.7597 21.8086 16.0405 21.5673 15.3813C21.3265 14.7233 21.0549 14.1322 20.8428 13.704C20.7369 13.4901 20.6461 13.3174 20.5816 13.1978C20.5494 13.138 20.5238 13.0915 20.5062 13.0597C20.4972 13.0435 20.4906 13.0316 20.4856 13.0225C20.4832 13.0183 20.4809 13.0142 20.4792 13.011C20.4784 13.0095 20.4771 13.0072 20.4758 13.0047C20.4752 13.0036 20.4739 13.0011 20.4724 12.9981C20.4717 12.9965 20.4699 12.9927 20.4688 12.9904C20.4671 12.9865 20.4624 12.975 20.4597 12.9672L20.9334 12.8074C20.9307 12.7997 20.9261 12.7882 20.9244 12.7845C20.9234 12.7823 20.9217 12.7787 20.921 12.7773C20.9197 12.7746 20.9187 12.7727 20.9185 12.7723C20.9179 12.7711 20.9176 12.7705 20.918 12.7714C20.9188 12.7728 20.9202 12.7754 20.9226 12.7797C20.9272 12.7879 20.9345 12.801 20.9435 12.8173C20.9619 12.8505 20.9885 12.8988 21.0218 12.9607C21.0885 13.0844 21.182 13.2623 21.2909 13.482C21.5084 13.9211 21.7881 14.5295 22.0369 15.2095C22.2853 15.8883 22.5057 16.6457 22.6005 17.3814C22.695 18.1138 22.6681 18.8487 22.3976 19.4661L21.9396 19.2654ZM20.4893 13.0271C20.4088 12.9077 19.5021 11.5174 19.0568 9.75731C18.6115 7.99725 18.6153 5.80302 20.4571 4.17563L20.7882 4.55032C19.15 5.99777 19.1169 7.9561 19.5416 9.63467C19.9662 11.3132 20.8365 12.6477 20.9038 12.7475L20.4893 13.0271ZM20.4431 4.18896C20.5163 4.11352 21.4033 3.18721 22.6028 2.32145C23.2025 1.8886 23.8869 1.46603 24.5923 1.17295C25.2959 0.880693 26.0384 0.709678 26.7466 0.802807L26.6814 1.29854C26.0932 1.22118 25.4437 1.36069 24.7842 1.63469C24.1266 1.90788 23.4767 2.30729 22.8954 2.72687C21.7329 3.56597 20.8707 4.4663 20.8021 4.53698L20.4431 4.18896ZM26.7457 0.802684C27.1439 0.8535 27.43 1.21538 27.3777 1.61581L26.8819 1.55107C26.8977 1.4303 26.8114 1.31513 26.6824 1.29866L26.7457 0.802684ZM27.3777 1.61581C27.3255 2.01558 26.9569 2.29318 26.5592 2.24242L26.6225 1.74645C26.752 1.76297 26.866 1.6725 26.8819 1.55107L27.3777 1.61581ZM26.576 2.244C25.9991 2.20975 25.4242 2.33674 24.9172 2.61024L24.6799 2.17018C25.2689 1.85245 25.9363 1.70514 26.6057 1.74487L26.576 2.244ZM24.99 2.2295L25.6799 3.05148L25.2969 3.3729L24.607 2.55092L24.99 2.2295ZM25.682 3.05409C26.1443 3.62033 26.0539 4.44999 25.4824 4.90599L25.1705 4.51514C25.5255 4.23197 25.5802 3.71997 25.2947 3.37029L25.682 3.05409ZM25.4823 4.90608C25.4733 4.91323 25.4638 4.92067 25.4538 4.92818L25.1534 4.52843C25.1588 4.52437 25.1645 4.51993 25.1706 4.51506L25.4823 4.90608ZM25.4584 4.92459L23.1426 6.75123L22.8329 6.35865L25.1488 4.53201L25.4584 4.92459ZM23.143 6.75089C22.9079 6.93716 22.6157 7.03772 22.3152 7.03631L22.3176 6.53632C22.5051 6.53719 22.6868 6.47441 22.8325 6.35899L23.143 6.75089ZM22.3164 7.03631H22.224V6.53631H22.3164V7.03631ZM22.1963 7.03477C21.847 6.99582 21.5271 6.82048 21.3081 6.54667L21.6986 6.23441C21.8342 6.40387 22.0332 6.51348 22.2517 6.53785L22.1963 7.03477ZM21.3086 6.54729L20.6373 5.71312L21.0268 5.39963L21.6982 6.2338L21.3086 6.54729ZM21.0281 5.71153C20.0657 6.92755 20.1914 8.52685 20.6069 9.88786C20.8126 10.5617 21.0845 11.1595 21.3095 11.5933C21.4218 11.8099 21.522 11.9846 21.5955 12.1063C21.6323 12.1672 21.662 12.2142 21.683 12.2462C21.6936 12.2623 21.7013 12.2736 21.7062 12.2806C21.7175 12.2966 21.7086 12.2819 21.6915 12.265L21.34 12.6206C21.3186 12.5995 21.3003 12.5725 21.2975 12.5686C21.2884 12.5557 21.2774 12.5394 21.265 12.5205C21.24 12.4824 21.2069 12.43 21.1675 12.3648C21.0887 12.2343 20.9832 12.0502 20.8656 11.8235C20.6308 11.3709 20.3456 10.7444 20.1287 10.0339C19.6989 8.62599 19.5167 6.81556 20.636 5.40123L21.0281 5.71153ZM21.7313 12.3162C21.7904 12.4169 22.4739 13.5987 22.9974 15.0933C23.2591 15.8407 23.4836 16.6738 23.5677 17.4939C23.6516 18.3123 23.5975 19.1353 23.2845 19.8497L22.8265 19.649C23.0925 19.0421 23.1492 18.3147 23.0703 17.5449C22.9916 16.7768 22.7795 15.9838 22.5255 15.2585C22.0173 13.8077 21.3519 12.6575 21.3002 12.5694L21.7313 12.3162ZM23.2821 19.855C22.8186 20.8484 21.8876 21.5484 20.7982 21.7253L20.7181 21.2318C21.6459 21.0811 22.4363 20.4854 22.8289 19.6437L23.2821 19.855ZM20.8164 21.7217C20.4873 21.8005 20.1501 21.8417 19.8115 21.8442L19.8077 21.3443C20.1083 21.342 20.4077 21.3055 20.6999 21.2354L20.8164 21.7217ZM19.8171 21.8441C19.0586 21.8667 18.3237 21.5788 17.7861 21.0475L18.1376 20.6919C18.5773 21.1264 19.1795 21.3629 19.8022 21.3444L19.8171 21.8441ZM17.7823 21.0436C17.1069 20.3459 16.8149 19.3094 16.7439 18.2461C16.6725 17.1769 16.8215 16.0414 17.0671 15.1013L17.5509 15.2277C17.3161 16.1263 17.1756 17.2072 17.2428 18.2128C17.3104 19.2242 17.5851 20.1209 18.1415 20.6958L17.7823 21.0436ZM17.0697 15.0922C17.5401 13.5341 16.6489 11.8896 15.0692 11.4158L15.2128 10.9369C17.053 11.4888 18.0999 13.4095 17.5484 15.2367L17.0697 15.0922ZM15.391 11.1763V21.4786H14.891V11.1763H15.391ZM15.3903 21.4604C15.3949 21.5232 15.3949 21.5862 15.3903 21.649L14.8917 21.6126C14.8945 21.574 14.8945 21.5353 14.8917 21.4967L15.3903 21.4604ZM15.141 21.3808H15.449V21.8808H15.141V21.3808ZM15.4433 21.3808C16.1737 21.3643 16.7843 21.9369 16.8011 22.6659L16.3012 22.6774C16.2909 22.2298 15.9145 21.8703 15.4546 21.8807L15.4433 21.3808ZM16.801 22.6646C16.8014 22.6759 16.8014 22.6866 16.8014 22.6963H16.3014C16.3014 22.6896 16.3014 22.6838 16.3012 22.6787L16.801 22.6646ZM16.8014 22.6963V24.2977H16.3014V22.6963H16.8014ZM16.8014 24.2976C16.8016 25.0268 16.2046 25.6133 15.474 25.6135L15.4738 25.1135C15.9337 25.1134 16.3016 24.7455 16.3014 24.2977L16.8014 24.2976ZM15.4739 25.6135C15.4641 25.6135 15.4534 25.6134 15.4421 25.6131L15.4558 25.1133C15.4612 25.1134 15.4671 25.1135 15.4739 25.1135V25.6135ZM15.449 25.6132H2.07746V25.1132H15.449V25.6132ZM2.07746 25.6132C1.34683 25.6132 0.749613 25.0269 0.749613 24.2977H1.24961C1.24961 24.7454 1.61754 25.1132 2.07746 25.1132V25.6132ZM0.749613 24.2977V22.6963H1.24961V24.2977H0.749613ZM0.749613 22.6963C0.749613 21.9672 1.34682 21.3808 2.07746 21.3808V21.8808C1.61755 21.8808 1.24961 22.2487 1.24961 22.6963H0.749613ZM21.733 4.83162L22.4167 5.66579L22.0299 5.98273L21.3463 5.14857L21.733 4.83162ZM22.4154 5.66433C22.3987 5.6442 22.3752 5.63233 22.3507 5.63009L22.3053 6.12802C22.199 6.11833 22.1001 6.06703 22.0311 5.98419L22.4154 5.66433ZM22.36 5.63111C22.3332 5.62765 22.3061 5.63503 22.2846 5.65187L22.5931 6.04535C22.5091 6.11121 22.402 6.14066 22.2961 6.12701L22.36 5.63111ZM22.284 5.65232L24.5999 3.82569L24.9095 4.21827L22.5937 6.0449L22.284 5.65232ZM24.5771 3.84602C24.5392 3.88425 24.5392 3.9466 24.5771 3.98482L24.9323 3.63292C25.0875 3.78957 25.0875 4.04128 24.9323 4.19793L24.5771 3.84602ZM24.5608 3.96665L23.8771 3.1264L24.265 2.81083L24.9486 3.65109L24.5608 3.96665ZM23.8789 3.12855C23.8956 3.14868 23.9191 3.16055 23.9436 3.16278L23.989 2.66485C24.0953 2.67455 24.1942 2.72584 24.2632 2.80868L23.8789 3.12855ZM23.9344 3.16177C23.9612 3.16522 23.9882 3.15784 24.0097 3.141L23.7012 2.74752C23.7852 2.68166 23.8923 2.65221 23.9983 2.66587L23.9344 3.16177ZM24.0103 3.14055L21.6945 4.96719L21.3848 4.57461L23.7006 2.74797L24.0103 3.14055ZM21.6941 4.96748C21.7165 4.94983 21.7312 4.92308 21.7335 4.8933L21.2349 4.85552C21.2433 4.74445 21.2982 4.64265 21.3852 4.57431L21.6941 4.96748ZM21.7342 4.87226C21.7339 4.8426 21.7205 4.81514 21.6984 4.797L21.3808 5.18319C21.2892 5.10782 21.2352 4.99572 21.2342 4.87656L21.7342 4.87226ZM13.9678 2.29889C13.9678 2.35556 14.0136 2.39667 14.0638 2.39667V1.89667C14.2843 1.89667 14.4678 2.07401 14.4678 2.29889H13.9678ZM14.0638 2.39667H3.50707V1.89667H14.0638V2.39667ZM3.50707 2.39667C3.55735 2.39667 3.60309 2.35556 3.60309 2.29889H3.10309C3.10309 2.07401 3.28664 1.89667 3.50707 1.89667V2.39667ZM3.60309 2.29889V21.4786H3.10309V2.29889H3.60309ZM3.60309 21.4786C3.60309 21.4219 3.55735 21.3808 3.50707 21.3808V21.8808C3.28664 21.8808 3.10309 21.7034 3.10309 21.4786H3.60309ZM3.50707 21.3808H14.0515V21.8808H3.50707V21.3808ZM14.0712 21.3816C14.0212 21.3776 13.9728 21.4147 13.9682 21.4708L14.4665 21.5116C14.4482 21.7353 14.2514 21.8974 14.0318 21.88L14.0712 21.3816ZM13.968 21.4729C13.9681 21.4723 13.968 21.4731 13.9679 21.4746C13.9679 21.4762 13.9678 21.4792 13.9679 21.4832L14.4678 21.474C14.4681 21.4897 14.4672 21.5029 14.4667 21.5095L13.968 21.4729ZM13.9678 21.4786V2.29889H14.4678V21.4786H13.9678ZM2.14893 24.2976C2.14893 24.2409 2.10319 24.1998 2.05291 24.1998V24.6998C1.83249 24.6998 1.64893 24.5225 1.64893 24.2976H2.14893ZM2.05291 24.1998H15.449V24.6998H2.05291V24.1998ZM15.449 24.1998C15.3988 24.1998 15.353 24.2409 15.353 24.2976H15.853C15.853 24.5225 15.6695 24.6998 15.449 24.6998V24.1998ZM15.353 24.2976V22.6963H15.853V24.2976H15.353ZM15.353 22.6963C15.353 22.7529 15.3988 22.794 15.449 22.794V22.294C15.6695 22.294 15.853 22.4714 15.853 22.6963H15.353ZM15.449 22.794H2.07755V22.294H15.449V22.794ZM2.03792 22.7909C2.08743 22.7988 2.13857 22.7659 2.14767 22.7102L1.65421 22.6296C1.6904 22.408 1.89983 22.2623 2.11717 22.2972L2.03792 22.7909ZM2.14746 22.7115C2.14869 22.7041 2.14896 22.6982 2.14892 22.6941L1.64894 22.6984C1.64875 22.6766 1.65025 22.6531 1.65442 22.6284L2.14746 22.7115ZM2.14893 22.6963V24.2976H1.64893V22.6963H2.14893Z" fill="#363B40"/>
<path fill-rule="evenodd" clip-rule="evenodd" d="M5.59597 3.5957H11.9768C12.5721 3.5957 13.0547 4.07276 13.0547 4.66124V10.9753C13.0547 11.5638 12.5721 12.0409 11.9768 12.0409H5.59597C5.00068 12.0409 4.51812 11.5638 4.51812 10.9753V4.66124C4.51812 4.07284 5.00068 3.5957 5.59597 3.5957ZM5.44215 10.9814C5.44546 11.0631 5.51344 11.1276 5.59613 11.1275H11.977C12.0621 11.1275 12.131 11.0594 12.131 10.9753V4.66125C12.131 4.57715 12.0621 4.50903 11.977 4.50903H5.59613C5.51106 4.50903 5.44215 4.57715 5.44215 4.66125V10.9814Z" fill="#363B40"/>
<path d="M5.44215 10.9814L5.19215 10.9916V10.9814H5.44215ZM5.59613 11.1275L5.5959 10.8775H5.59613V11.1275ZM5.59597 3.3457H11.9768V3.8457H5.59597V3.3457ZM11.9768 3.3457C12.7075 3.3457 13.3047 3.93199 13.3047 4.66124H12.8047C12.8047 4.21353 12.4368 3.8457 11.9768 3.8457V3.3457ZM13.3047 4.66124V10.9753H12.8047V4.66124H13.3047ZM13.3047 10.9753C13.3047 11.7046 12.7075 12.2909 11.9768 12.2909V11.7909C12.4368 11.7909 12.8047 11.423 12.8047 10.9753H13.3047ZM11.9768 12.2909H5.59597V11.7909H11.9768V12.2909ZM5.59597 12.2909C4.86533 12.2909 4.26812 11.7046 4.26812 10.9753H4.76812C4.76812 11.423 5.13604 11.7909 5.59597 11.7909V12.2909ZM4.26812 10.9753V4.66124H4.76812V10.9753H4.26812ZM4.26812 4.66124C4.26812 3.93208 4.86532 3.3457 5.59597 3.3457V3.8457C5.13605 3.8457 4.76812 4.2136 4.76812 4.66124H4.26812ZM5.69195 10.9713C5.68972 10.9164 5.64495 10.8775 5.5959 10.8775L5.59636 11.3775C5.38194 11.3777 5.2012 11.2098 5.19236 10.9915L5.69195 10.9713ZM5.59613 10.8775H11.977V11.3775H5.59613V10.8775ZM11.977 10.8775C11.9267 10.8775 11.881 10.9187 11.881 10.9753H12.381C12.381 11.2002 12.1974 11.3775 11.977 11.3775V10.8775ZM11.881 10.9753V4.66125H12.381V10.9753H11.881ZM11.881 4.66125C11.881 4.71792 11.9267 4.75903 11.977 4.75903V4.25903C12.1974 4.25903 12.381 4.43638 12.381 4.66125H11.881ZM11.977 4.75903H5.59613V4.25903H11.977V4.75903ZM5.59613 4.75903C5.64641 4.75903 5.69215 4.71792 5.69215 4.66125H5.19215C5.19215 4.43638 5.3757 4.25903 5.59613 4.25903V4.75903ZM5.69215 4.66125V10.9814H5.19215V4.66125H5.69215Z" fill="#363B40"/>
<path fill-rule="evenodd" clip-rule="evenodd" d="M6.31387 13.7646H11.2412C11.4963 13.7646 11.7031 13.9691 11.7031 14.2213C11.7031 14.4735 11.4963 14.678 11.2412 14.678H6.31387C6.05873 14.678 5.85194 14.4735 5.85194 14.2213C5.85194 13.9691 6.05873 13.7646 6.31387 13.7646Z" fill="#363B40" stroke="#363B40" stroke-width="0.5"/>
</svg>
