<svg width="18" height="22" viewBox="0 0 18 22" fill="none" xmlns="http://www.w3.org/2000/svg">
<path fill-rule="evenodd" clip-rule="evenodd" d="M2.49992 5.58335C3.09823 5.58335 3.58325 6.06838 3.58325 6.66669V18.5834C3.58325 19.1817 4.06828 19.6667 4.66658 19.6667H13.3333C13.9316 19.6667 14.4166 19.1817 14.4166 18.5834V6.66669C14.4166 6.06838 14.9016 5.58335 15.4999 5.58335C16.0982 5.58335 16.5833 6.06838 16.5833 6.66669V18.5834C16.5833 20.3783 15.1282 21.8334 13.3333 21.8334H4.66658C2.87166 21.8334 1.41659 20.3783 1.41659 18.5834V6.66669C1.41659 6.06838 1.90161 5.58335 2.49992 5.58335Z" fill="#E3E9EF"/>
<path fill-rule="evenodd" clip-rule="evenodd" d="M6.83325 6.66669C7.43156 6.66669 7.91658 7.15171 7.91658 7.75002V16.4167C7.91658 17.015 7.43156 17.5 6.83325 17.5C6.23494 17.5 5.74992 17.015 5.74992 16.4167V7.75002C5.74992 7.15171 6.23494 6.66669 6.83325 6.66669Z" fill="#E3E9EF"/>
<path fill-rule="evenodd" clip-rule="evenodd" d="M11.1666 6.66669C11.7649 6.66669 12.2499 7.15171 12.2499 7.75002V16.4167C12.2499 17.015 11.7649 17.5 11.1666 17.5C10.5683 17.5 10.0833 17.015 10.0833 16.4167V7.75002C10.0833 7.15171 10.5683 6.66669 11.1666 6.66669Z" fill="#E3E9EF"/>
<path d="M0.333252 3.41669C0.333252 2.81838 0.818277 2.33335 1.41659 2.33335H16.5833C17.1816 2.33335 17.6666 2.81838 17.6666 3.41669C17.6666 4.015 17.1816 4.50002 16.5833 4.50002H1.41659C0.818277 4.50002 0.333252 4.015 0.333252 3.41669Z" fill="#E3E9EF"/>
<path d="M4.66658 1.25002C4.66658 0.651712 5.15161 0.166687 5.74992 0.166687H12.2499C12.8482 0.166687 13.3333 0.651712 13.3333 1.25002V2.33335H4.66658V1.25002Z" fill="#E3E9EF"/>
</svg>
