<svg width="40" height="24" viewBox="0 0 40 24" fill="none" xmlns="http://www.w3.org/2000/svg">
<rect x="1" y="0.5" width="38" height="22.8333" rx="2.5" fill="white" stroke="#E0E0E0"/>
<path fill-rule="evenodd" clip-rule="evenodd" d="M18.8189 11.7934V14.9678H17.811V7.12646H20.4827C21.1272 7.11275 21.75 7.35729 22.2128 7.80524C22.6813 8.22691 22.9453 8.83027 22.935 9.45991C22.9487 10.0941 22.6848 10.7021 22.2128 11.1249C21.7454 11.5705 21.1684 11.7934 20.4827 11.7922L18.8189 11.7934ZM18.8188 8.09211V10.8301H20.5078C20.8826 10.8415 21.2437 10.6941 21.5043 10.4244C22.0333 9.91019 22.0459 9.06343 21.5305 8.53435L21.5216 8.52512L21.5216 8.52512L21.5216 8.52511L21.5216 8.52511C21.5158 8.51915 21.5103 8.51336 21.5043 8.50806C21.2471 8.23267 20.8838 8.08183 20.5078 8.09211H18.8188ZM27.0202 10.0244C26.5894 9.62677 26.0021 9.42793 25.257 9.42793C24.3005 9.42793 23.5783 9.77761 23.0915 10.4781L23.9783 11.0369C24.3063 10.5627 24.7519 10.325 25.3141 10.325C25.673 10.3204 26.0203 10.4518 26.2866 10.6918C26.5517 10.9112 26.7048 11.238 26.7026 11.5831V11.8139C26.3163 11.5957 25.8227 11.486 25.225 11.486C24.5234 11.486 23.9634 11.6505 23.5441 11.9785C23.1247 12.3065 22.9144 12.7476 22.9144 13.3029C22.9053 13.8091 23.1247 14.2914 23.5109 14.6171C23.9086 14.9679 24.4034 15.1427 24.9942 15.1427C25.6867 15.1427 26.242 14.8365 26.6591 14.2228H26.7026V14.9679H27.6659V11.6608C27.6659 10.9683 27.451 10.4221 27.0202 10.0244ZM23.9531 13.3258C23.9519 13.5863 24.0765 13.8309 24.2867 13.9829C24.5096 14.1577 24.7861 14.2514 25.0695 14.2457C25.4946 14.2446 25.9025 14.0754 26.2031 13.7749C26.5368 13.4606 26.7036 13.0927 26.7036 12.6687C26.3893 12.4185 25.9517 12.2928 25.3895 12.2928C24.9804 12.2928 24.6387 12.3911 24.3656 12.5887C24.0902 12.7899 23.9531 13.0333 23.9531 13.3258ZM29.8337 17.3333L33.1967 9.60276H32.0997L30.5445 13.4572H30.5228L28.9241 9.60276H27.8293L30.0417 14.6285L28.7938 17.3333H29.8337Z" fill="#5F6368"/>
<path d="M14.7477 11.1078C14.7477 10.8004 14.7226 10.4941 14.67 10.1913H10.4214V11.9259H12.8542C12.7537 12.4859 12.4292 12.9807 11.9549 13.2949V14.4217H13.4073C14.2575 13.6389 14.7477 12.479 14.7477 11.1078Z" fill="#4285F4"/>
<path d="M10.4217 15.5107C11.6375 15.5107 12.6614 15.1119 13.4076 14.4228L11.9552 13.2961C11.5507 13.5703 11.0307 13.7269 10.4217 13.7269C9.24693 13.7269 8.24933 12.935 7.8928 11.8677H6.39697V13.0287C7.16146 14.5508 8.71899 15.5107 10.4217 15.5107Z" fill="#34A853"/>
<path d="M7.89228 11.8677C7.70373 11.3089 7.70373 10.7021 7.89228 10.1433V8.98233H6.39645C5.75652 10.2553 5.75652 11.7557 6.39645 13.0287L7.89228 11.8677Z" fill="#FBBC04"/>
<path d="M10.4217 8.28407C11.0639 8.27378 11.6844 8.51604 12.1495 8.95942L13.4362 7.67385C12.6203 6.90823 11.5404 6.4877 10.4217 6.50027C8.71899 6.50027 7.16146 7.46131 6.39697 8.98227L7.8928 10.1433C8.24933 9.07598 9.24693 8.28407 10.4217 8.28407Z" fill="#EA4335"/>
</svg>
