<svg width="64" height="27" viewBox="0 0 64 27" fill="none" xmlns="http://www.w3.org/2000/svg">
<path fill-rule="evenodd" clip-rule="evenodd" d="M30.2688 13.2133V20.6606H27.9043V2.26496H34.172C35.684 2.23279 37.145 2.80648 38.2307 3.85735C39.3299 4.84657 39.9491 6.26203 39.925 7.73915C39.9572 9.22699 39.3379 10.6532 38.2307 11.6451C37.1343 12.6906 35.7805 13.2133 34.172 13.2107L30.2688 13.2133ZM30.2688 4.53021V10.9534H34.231C35.1103 10.9802 35.9575 10.6344 36.5687 10.0017C37.8099 8.79536 37.8394 6.80889 36.6303 5.56768C36.6231 5.56043 36.6161 5.55318 36.6093 5.54603L36.6093 5.54602C36.5959 5.53203 36.5829 5.51844 36.5687 5.50602C35.9655 4.85995 35.113 4.50608 34.231 4.53021H30.2688ZM49.5097 9.06344C48.499 8.13052 47.1211 7.66406 45.3732 7.66406C43.1294 7.66406 41.4351 8.48439 40.2931 10.1277L42.3734 11.4386C43.1428 10.3261 44.1883 9.76849 45.5073 9.76849C46.349 9.75777 47.164 10.0661 47.7886 10.629C48.4106 11.1437 48.7698 11.9104 48.7644 12.72V13.2616C47.8583 12.7495 46.7002 12.4922 45.2982 12.4922C43.6522 12.4922 42.3386 12.8782 41.3547 13.6476C40.3709 14.417 39.8776 15.4518 39.8776 16.7547C39.8562 17.9422 40.3709 19.0735 41.277 19.8376C42.2099 20.6606 43.3707 21.0707 44.7567 21.0707C46.3812 21.0707 47.6841 20.3523 48.6626 18.9127H48.7644V20.6606H51.0244V12.9023C51.0244 11.2778 50.5204 9.99636 49.5097 9.06344ZM42.3141 16.8083C42.3114 17.4196 42.6036 17.9932 43.0969 18.3498C43.6197 18.76 44.2684 18.9798 44.9332 18.9664C45.9305 18.9637 46.8875 18.5669 47.5926 17.8619C48.3754 17.1247 48.7668 16.2614 48.7668 15.2669C48.0296 14.6798 47.0028 14.3849 45.6839 14.3849C44.7241 14.3849 43.9226 14.6154 43.2819 15.0792C42.6358 15.551 42.3141 16.122 42.3141 16.8083ZM56.1101 26.2098L63.9997 8.07422H61.4261L57.7775 17.1166H57.7266L53.9762 8.07422H51.408L56.598 19.8644L53.6706 26.2098H56.1101Z" fill="#5F6368"/>
<path d="M20.7169 11.6051C20.7169 10.8839 20.6579 10.1655 20.5346 9.45508H10.5674V13.5245H16.2748C16.0389 14.8381 15.2775 15.9989 14.165 16.7361V19.3794H17.5723C19.5668 17.543 20.7169 14.822 20.7169 11.6051Z" fill="#4285F4"/>
<path d="M10.5673 21.9331C13.4196 21.9331 15.8216 20.9975 17.5722 19.381L14.1649 16.7377C13.2159 17.3811 11.9961 17.7484 10.5673 17.7484C7.8114 17.7484 5.47106 15.8906 4.63465 13.3867H1.12549V16.1104C2.91894 19.6812 6.57287 21.9331 10.5673 21.9331Z" fill="#34A853"/>
<path d="M4.6351 13.3872C4.19277 12.0763 4.19277 10.6528 4.6351 9.34186V6.61816H1.12594C-0.375312 9.60457 -0.375312 13.1245 1.12594 16.1109L4.6351 13.3872Z" fill="#FBBC04"/>
<path d="M10.5673 4.98029C12.0739 4.95617 13.5295 5.52449 14.6206 6.56464L17.6392 3.54875C15.7251 1.75261 13.1918 0.766076 10.5673 0.795564C6.57287 0.795564 2.91894 3.05012 1.12549 6.61826L4.63465 9.34195C5.47106 6.83809 7.8114 4.98029 10.5673 4.98029Z" fill="#EA4335"/>
</svg>
