<svg width="20" height="20" viewBox="0 0 20 20" fill="none" xmlns="http://www.w3.org/2000/svg">
<path d="M3.26286 3.73047C2.43058 3.83091 1.89126 3.90624 1.89126 3.90624C0.833728 4.22903 0 4.75307 0 5.7975V10.0862V11.4815V12.606V16.7277V16.7666C0 17.811 0.823174 18.3267 1.89126 18.6579C1.89126 18.6579 2.43349 18.7281 3.26286 18.822V3.73047Z" fill="#90A8BE"/>
<path d="M20 11.5909V5.79738C20 4.75295 19.1448 4.21545 18.1088 3.90612C18.1088 3.90612 17.5018 3.82169 16.5811 3.71143V18.8375C17.5043 18.736 18.1088 18.6581 18.1088 18.6581C19.2118 18.3007 20 17.8113 20 16.7669V12.6608V11.5909Z" fill="#90A8BE"/>
<path d="M15.4892 3.58711C15.079 3.54271 14.6416 3.49759 14.1875 3.45464L14.0907 2.31778C14.075 1.42146 13.3414 0.697266 12.4418 0.697266H7.55803C6.65807 0.697266 5.92478 1.42146 5.90913 2.31778L5.81015 3.45464C5.29921 3.50304 4.80793 3.55399 4.35449 3.60385V18.9414C6.09764 19.1222 8.3994 19.3202 9.99953 19.3027C11.6968 19.2936 13.8341 19.1179 15.4892 18.9523V3.58711ZM9.99953 3.21337C9.10175 3.21337 8.05696 3.26941 7.02198 3.34984L7.10459 2.39856L7.10678 2.34653C7.10678 2.09761 7.30948 1.89564 7.55803 1.89564H12.4418C12.6907 1.89564 12.893 2.09797 12.893 2.34653L12.9782 3.34984C11.9436 3.26941 10.898 3.21337 9.99953 3.21337Z" fill="#90A8BE"/>
</svg>
