<svg width="20" height="14" viewBox="0 0 20 14" fill="none" xmlns="http://www.w3.org/2000/svg">
<path d="M18.6957 2.93721H17.8261C17.7274 2.93721 17.6323 2.94869 17.5413 2.96836V1.78286C17.5413 0.98089 16.8889 0.328516 16.087 0.328516H15.2174C14.4154 0.328516 13.763 0.98089 13.763 1.78286V4.67634H6.23696V1.78286C6.23696 0.98089 5.58458 0.328516 4.78261 0.328516H3.91304C3.11107 0.328516 2.4587 0.98089 2.4587 1.78286V2.96836C2.36767 2.94869 2.27262 2.93721 2.17391 2.93721H1.30435C0.502375 2.93721 -0.15 3.58959 -0.15 4.39156V9.60895C-0.15 10.4109 0.502375 11.0633 1.30435 11.0633H2.17391C2.27262 11.0633 2.36767 11.0518 2.4587 11.0322V12.2176C2.4587 13.0196 3.11107 13.672 3.91304 13.672H4.78261C5.58458 13.672 6.23696 13.0196 6.23696 12.2176V9.32417H13.763V12.2176C13.763 13.0196 14.4154 13.672 15.2174 13.672H16.087C16.8889 13.672 17.5413 13.0196 17.5413 12.2176V11.0322C17.6323 11.0518 17.7274 11.0633 17.8261 11.0633H18.6957C19.4976 11.0633 20.15 10.4109 20.15 9.60895V4.39156C20.15 3.58959 19.4976 2.93721 18.6957 2.93721ZM2.4587 9.60895C2.4587 9.76567 2.33064 9.89374 2.17391 9.89374H1.30435C1.14763 9.89374 1.01957 9.76567 1.01957 9.60895V4.39156C1.01957 4.23484 1.14763 4.10678 1.30435 4.10678H2.17391C2.33064 4.10678 2.4587 4.23484 2.4587 4.39156V9.60895ZM5.06739 12.2176C5.06739 12.3744 4.93933 12.5024 4.78261 12.5024H3.91304C3.75632 12.5024 3.62826 12.3744 3.62826 12.2176V9.60895V4.39156V1.78286C3.62826 1.62614 3.75632 1.49808 3.91304 1.49808H4.78261C4.93933 1.49808 5.06739 1.62614 5.06739 1.78286V12.2176ZM13.763 8.1546H6.23696V5.84591H13.763V8.1546ZM16.3717 4.39156V9.60895V12.2176C16.3717 12.3744 16.2437 12.5024 16.087 12.5024H15.2174C15.0607 12.5024 14.9326 12.3744 14.9326 12.2176V1.78286C14.9326 1.62614 15.0607 1.49808 15.2174 1.49808H16.087C16.2437 1.49808 16.3717 1.62614 16.3717 1.78286V4.39156ZM18.9804 9.60895C18.9804 9.76568 18.8524 9.89374 18.6957 9.89374H17.8261C17.6694 9.89374 17.5413 9.76568 17.5413 9.60895V4.39156C17.5413 4.23484 17.6694 4.10678 17.8261 4.10678H18.6957C18.8524 4.10678 18.9804 4.23484 18.9804 4.39156V9.60895Z" fill="#363B40" stroke="#363B40" stroke-width="0.3"/>
</svg>
