<svg width="27" height="24" viewBox="0 0 27 24" fill="none" xmlns="http://www.w3.org/2000/svg">
<path fill-rule="evenodd" clip-rule="evenodd" d="M19.8551 14.3862L13.3999 20.8712L6.94463 14.3862L3.71765 11.1443C1.98869 9.29073 1.98869 6.39626 3.71765 4.65932C5.44662 2.80573 8.32781 2.80573 10.1729 4.65932L13.3999 7.90118L16.6281 4.65932C18.3571 2.80573 21.2383 2.80573 23.0821 4.65932C24.811 6.51163 24.811 9.40738 23.0821 11.1443L19.8551 14.3862ZM24.5813 2.9226C21.9298 0.258872 17.5493 0.258872 14.8991 2.9226L13.285 4.54289L11.6708 2.9226C9.01934 0.258872 4.64014 0.258872 1.98863 2.9226C-0.662877 5.58633 -0.662877 9.98572 1.98863 12.6495L3.60276 14.271L13.285 23.9979L22.9672 14.271L24.5813 12.6495C27.2315 9.98572 27.2315 5.7017 24.5813 2.9226Z" fill="#FFC468"/>
</svg>
