<svg width="20" height="18" viewBox="0 0 20 18" fill="none" xmlns="http://www.w3.org/2000/svg">
<path fill-rule="evenodd" clip-rule="evenodd" d="M14.946 10.1333L10.0868 15.0149L5.22759 10.1333L2.79846 7.69299C1.49697 6.29769 1.49697 4.11886 2.79846 2.81136C4.09995 1.41606 6.26879 1.41606 7.65769 2.81136L10.0868 5.2517L12.5169 2.81136C13.8184 1.41606 15.9872 1.41606 17.3752 2.81136C18.6767 4.2057 18.6767 6.3855 17.3752 7.69299L14.946 10.1333ZM18.5038 1.50386C16.5078 -0.501286 13.2104 -0.501286 11.2154 1.50386L10.0004 2.72354L8.78531 1.50386C6.78937 -0.501286 3.4929 -0.501286 1.49696 1.50386C-0.498985 3.509 -0.498985 6.82067 1.49696 8.82581L2.712 10.0465L10.0004 17.3684L17.2887 10.0465L18.5038 8.82581C20.4987 6.82067 20.4987 3.59585 18.5038 1.50386Z" fill="#90A8BE"/>
</svg>
