<svg width="15" height="15" viewBox="0 0 15 15" fill="none" xmlns="http://www.w3.org/2000/svg">
<path fill-rule="evenodd" clip-rule="evenodd" d="M13.5 7.5C13.5 4.19175 10.8082 1.5 7.5 1.5C4.19175 1.5 1.5 4.19175 1.5 7.5C1.5 10.8082 4.19175 13.5 7.5 13.5C10.8082 13.5 13.5 10.8082 13.5 7.5ZM15 7.5C15 11.6423 11.6423 15 7.5 15C3.35775 15 0 11.6423 0 7.5C0 3.35775 3.35775 0 7.5 0C11.6423 0 15 3.35775 15 7.5Z" fill="#F63730"/>
<path d="M6.70762 9.28138C6.66462 8.85103 6.68612 8.4869 6.77211 8.18897C6.85811 7.88276 6.9742 7.62207 7.12039 7.4069C7.27518 7.18345 7.44717 6.9931 7.63636 6.83586C7.83415 6.67035 8.01474 6.5131 8.17813 6.36414C8.35012 6.21517 8.49201 6.06207 8.60381 5.90483C8.7156 5.73931 8.7715 5.54483 8.7715 5.32138C8.7715 5.03172 8.6855 4.8 8.51351 4.62621C8.35012 4.45241 8.05344 4.36552 7.62346 4.36552C7.48587 4.36552 7.33968 4.38207 7.18489 4.41517C7.0301 4.44 6.87531 4.48138 6.72052 4.53931C6.56572 4.58897 6.41523 4.65103 6.26904 4.72552C6.13145 4.79172 6.00676 4.86207 5.89496 4.93655L5.25 3.74483C5.57678 3.52966 5.95086 3.35172 6.37224 3.21103C6.80221 3.07035 7.31818 3 7.92015 3C8.7285 3 9.36057 3.19034 9.81634 3.57103C10.2721 3.94345 10.5 4.44828 10.5 5.08552C10.5 5.50759 10.4398 5.85931 10.3194 6.14069C10.2076 6.41379 10.0657 6.64966 9.89373 6.84828C9.72175 7.03862 9.53256 7.20828 9.32617 7.35724C9.11978 7.50621 8.93059 7.66759 8.7586 7.84138C8.58661 8.0069 8.44042 8.20138 8.32002 8.42483C8.19963 8.64828 8.13944 8.93379 8.13944 9.28138H6.70762ZM6.44963 11.0441C6.44963 10.7545 6.54423 10.5269 6.73342 10.3614C6.9226 10.1876 7.17199 10.1007 7.48157 10.1007C7.80835 10.1007 8.06634 10.1876 8.25553 10.3614C8.44472 10.5269 8.53931 10.7545 8.53931 11.0441C8.53931 11.3338 8.44472 11.5655 8.25553 11.7393C8.06634 11.9131 7.80835 12 7.48157 12C7.17199 12 6.9226 11.9131 6.73342 11.7393C6.54423 11.5655 6.44963 11.3338 6.44963 11.0441Z" fill="#F63730"/>
</svg>
