<svg width="17" height="17" viewBox="0 0 17 17" fill="none" xmlns="http://www.w3.org/2000/svg">
<g clip-path="url(#clip0)">
<path d="M16.3082 6.69859L8.49479 0.977743C8.34412 0.867445 8.13943 0.867445 7.98883 0.977743L0.175317 6.69859C-0.0155313 6.83834 -0.0569976 7.10633 0.0827582 7.29718C0.222514 7.48802 0.490532 7.52943 0.681348 7.38973L8.24178 1.85411L15.8022 7.3897C15.8784 7.44556 15.967 7.47244 16.0549 7.47244C16.1867 7.47244 16.3169 7.41176 16.4008 7.29714C16.5406 7.10633 16.4991 6.83834 16.3082 6.69859Z" fill="#109CF1"/>
<path d="M14.2378 7.48682C14.0013 7.48682 13.8095 7.67857 13.8095 7.9151V14.7322H10.3833V11.011C10.3833 9.83012 9.42256 8.86944 8.24174 8.86944C7.06091 8.86944 6.10017 9.83018 6.10017 11.011V14.7323H2.67395V7.91513C2.67395 7.6786 2.48216 7.48685 2.24566 7.48685C2.00916 7.48685 1.81738 7.6786 1.81738 7.91513V15.1606C1.81738 15.3971 2.00916 15.5889 2.24566 15.5889H6.52845C6.75368 15.5889 6.93799 15.4148 6.95506 15.1939C6.95609 15.1839 6.95673 15.173 6.95673 15.1606V11.011C6.95673 10.3025 7.53317 9.72603 8.24174 9.72603C8.9503 9.72603 9.52674 10.3025 9.52674 11.011V15.1606C9.52674 15.1729 9.52739 15.1837 9.52842 15.1935C9.54529 15.4146 9.72966 15.5889 9.95502 15.5889H14.2378C14.4743 15.5889 14.6661 15.3971 14.6661 15.1606V7.91513C14.6661 7.67857 14.4743 7.48682 14.2378 7.48682Z" fill="#109CF1"/>
</g>
<defs>
<clipPath id="clip0">
<rect width="16.4835" height="16.4835" fill="white"/>
</clipPath>
</defs>
</svg>
