<svg width="21" height="21" viewBox="0 0 21 21" fill="none" xmlns="http://www.w3.org/2000/svg">
<path d="M19.7066 16.6756H18.4133V12.238C19.8874 11.9376 21 10.6312 21 9.06968C21 7.28678 19.5495 5.83627 17.7666 5.83627C15.9837 5.83627 14.5332 7.28678 14.5332 9.06968C14.5332 10.6312 15.6458 11.9376 17.1199 12.238V16.6756H15.8265V14.5881H14.5332V16.6756H13.2398V6.24251L6.61988 1.36148L3.86001 3.39642V1.15894H2.56664V4.35006L0 6.24251V19.8409H13.2398V17.9689H14.5332V19.8409H15.8265V17.9689H17.1199V19.8409H18.4133V17.9689H19.7066V19.8409H21V14.588H19.7066V16.6756ZM15.8265 9.06968C15.8265 7.99994 16.6968 7.12963 17.7666 7.12963C18.8363 7.12963 19.7066 7.99994 19.7066 9.06968C19.7066 10.1394 18.8363 11.0097 17.7666 11.0097C16.6968 11.0097 15.8265 10.1394 15.8265 9.06968ZM8.41266 18.5476H4.82714V11.9582H8.41266V18.5476ZM11.9464 18.5476H9.70602V10.6648H3.53378V18.5476H1.29337V6.89583L6.61988 2.9684L11.9464 6.89583V18.5476H11.9464Z" fill="white"/>
</svg>
