<svg width="15" height="14" viewBox="0 0 15 14" fill="none" xmlns="http://www.w3.org/2000/svg">
<path d="M7.40597 0C8.80674 0 10.0973 0.309225 11.2581 0.927674C12.4254 1.54612 13.3398 2.40104 14.0013 3.48636C14.6628 4.57168 15 5.7722 15 7.08792C15 8.31269 14.6628 9.4647 13.9883 10.5318C13.3139 11.599 12.3995 12.4478 11.2387 13.0663C10.0778 13.6908 8.83268 14 7.50324 14C6.14786 14 4.89624 13.6847 3.73541 13.0602C2.58106 12.4357 1.66667 11.5808 0.998703 10.4894C0.330739 9.40407 0 8.22174 0 6.9424C0 5.71156 0.330739 4.55955 0.998703 3.48636C1.66667 2.41317 2.56809 1.56431 3.71595 0.939801C4.86381 0.315288 6.08949 0 7.40597 0ZM7.49676 13.2482C8.67704 13.2482 9.78599 12.9693 10.8171 12.4114C11.8482 11.8536 12.6654 11.0957 13.2685 10.1438C13.8716 9.18579 14.1699 8.16717 14.1699 7.07579C14.1699 5.90559 13.8716 4.8324 13.2815 3.86228C12.6913 2.89216 11.8742 2.13426 10.8366 1.5825C9.79896 1.03075 8.6511 0.757904 7.39948 0.757904C6.23217 0.757904 5.14267 1.03681 4.12451 1.59463C3.10636 2.15245 2.3022 2.91035 1.70558 3.86834C1.10895 4.82633 0.817121 5.85102 0.817121 6.94846C0.817121 8.08229 1.11543 9.13729 1.70558 10.1135C2.3022 11.0836 3.11284 11.8536 4.14397 12.4114C5.1751 12.9693 6.29702 13.2482 7.49676 13.2482ZM4.86381 10.4227H6.28405V6.3482H5.00648V5.52967H8.93645V10.4227H10.1297V11.2473H4.86381V10.4227ZM6.25162 3.30446C6.25162 2.96492 6.38132 2.67388 6.64073 2.43136C6.90013 2.18883 7.20493 2.06756 7.56809 2.06756C7.93126 2.06756 8.23606 2.18883 8.50195 2.43136C8.76135 2.67388 8.89105 2.96492 8.89105 3.30446C8.89105 3.644 8.76135 3.92897 8.50195 4.17757C8.24254 4.4201 7.93126 4.54136 7.56809 4.54136C7.20493 4.54136 6.90013 4.4201 6.64073 4.17757C6.38132 3.93504 6.25162 3.644 6.25162 3.30446Z" fill="#109CF1"/>
</svg>
