<svg width="28" height="28" viewBox="0 0 28 28" fill="none" xmlns="http://www.w3.org/2000/svg">
<path d="M13.8245 0C16.4393 0 18.8482 0.61845 21.0151 1.85535C23.1941 3.09225 24.901 4.80208 26.1358 6.97272C27.3705 9.14335 28 11.5444 28 14.1758C28 16.6254 27.3705 18.9294 26.1115 21.0637C24.8526 23.1979 23.1457 24.8956 20.9788 26.1325C18.8119 27.3816 16.4877 28 14.0061 28C11.476 28 9.13964 27.3694 6.97276 26.1204C4.81799 24.8714 3.11111 23.1615 1.86425 20.9788C0.61738 18.8081 0 16.4435 0 13.8848C0 11.4231 0.61738 9.1191 1.86425 6.97272C3.11111 4.82633 4.79377 3.12863 6.93645 1.8796C9.07912 0.630576 11.3671 0 13.8245 0ZM13.9939 26.4963C16.1971 26.4963 18.2672 25.9385 20.192 24.8229C22.1167 23.7072 23.642 22.1914 24.7678 20.2876C25.8936 18.3716 26.4505 16.3343 26.4505 14.1516C26.4505 11.8112 25.8936 9.66479 24.792 7.72456C23.6904 5.78432 22.1652 4.26851 20.2283 3.16501C18.2914 2.0615 16.1487 1.51581 13.8124 1.51581C11.6334 1.51581 9.59965 2.07362 7.69909 3.18926C5.79853 4.30489 4.29745 5.8207 3.18374 7.73668C2.07004 9.65266 1.52529 11.702 1.52529 13.8969C1.52529 16.1646 2.08214 18.2746 3.18374 20.2269C4.29745 22.1672 5.81064 23.7072 7.73541 24.8229C9.66018 25.9385 11.7544 26.4963 13.9939 26.4963ZM9.07912 20.8454H11.7302V12.6964H9.34544V11.0593H16.6814V20.8454H18.9088V22.4946H9.07912V20.8454ZM11.6697 6.60892C11.6697 5.92984 11.9118 5.34777 12.396 4.86271C12.8802 4.37765 13.4492 4.13512 14.1271 4.13512C14.805 4.13512 15.374 4.37765 15.8703 4.86271C16.3545 5.34777 16.5966 5.92984 16.5966 6.60892C16.5966 7.288 16.3545 7.85795 15.8703 8.35513C15.3861 8.84019 14.805 9.08272 14.1271 9.08272C13.4492 9.08272 12.8802 8.84019 12.396 8.35513C11.9118 7.87007 11.6697 7.288 11.6697 6.60892Z" fill="#363B40"/>
</svg>
