<svg width="20" height="20" viewBox="0 0 20 20" fill="none" xmlns="http://www.w3.org/2000/svg">
<g clip-path="url(#clip0)">
<path d="M17.4871 -0.144101V-0.15H17.3371H2.69318C1.6543 -0.15 0.808984 0.693248 0.808984 1.7308V18.2692C0.808984 19.3068 1.6543 20.15 2.69318 20.15H17.3371C18.376 20.15 19.2213 19.3068 19.2213 18.2692V1.7308C19.2213 0.743666 18.4561 -0.0675892 17.4871 -0.144101ZM2.26511 1.7308C2.26511 1.49578 2.45697 1.30387 2.69318 1.30387H17.3371C17.5733 1.30387 17.7652 1.49578 17.7652 1.7308V3.88839H2.26511V1.7308ZM17.7652 18.2692C17.7652 18.5042 17.5733 18.6961 17.3371 18.6961H2.69318C2.45697 18.6961 2.26511 18.5042 2.26511 18.2692V5.34226H17.7652V18.2692Z" fill="#363B40" stroke="#363B40" stroke-width="0.3"/>
<path d="M13.8677 1.86953H12.7119C12.3101 1.86953 11.9838 2.19474 11.9838 2.59647C11.9838 2.99819 12.3101 3.3234 12.7119 3.3234H13.8677C14.2695 3.3234 14.5957 2.99819 14.5957 2.59647C14.5957 2.19474 14.2695 1.86953 13.8677 1.86953Z" fill="#363B40" stroke="#363B40" stroke-width="0.3"/>
<path d="M16.9517 1.86953H15.7958C15.394 1.86953 15.0678 2.19474 15.0678 2.59647C15.0678 2.99819 15.394 3.3234 15.7958 3.3234H16.9517C17.3535 3.3234 17.6796 2.99814 17.6796 2.59647C17.6796 2.19479 17.3535 1.86953 16.9517 1.86953Z" fill="#363B40" stroke="#363B40" stroke-width="0.3"/>
<path d="M13.3904 11.4002L13.3905 11.4001L13.3914 11.3996C13.5941 11.2751 13.8394 11.1245 14.1788 11.0232C13.7279 9.14599 12.0317 7.74625 10.0145 7.74625C7.99738 7.74625 6.30117 9.14596 5.85027 11.0232C6.18983 11.1244 6.43514 11.2752 6.63798 11.3999L6.63849 11.4002H13.3904ZM13.3904 11.4002C13.2471 11.4882 13.1378 11.5548 13.0098 11.6019C12.8848 11.6479 12.736 11.6771 12.5193 11.6771C12.3027 11.6771 12.1539 11.6479 12.0289 11.6019C11.9009 11.5548 11.7916 11.4882 11.6483 11.4002L11.6483 11.4002M13.3904 11.4002L11.6483 11.4002M11.6483 11.4002C11.2993 11.1858 10.846 10.9077 10.0143 10.9077C9.18277 10.9077 8.72941 11.1859 8.38048 11.4002L8.38048 11.4002M11.6483 11.4002L8.38048 11.4002M8.38048 11.4002C8.23716 11.4882 8.12785 11.5548 7.9999 11.6019M8.38048 11.4002L7.9999 11.6019M7.9999 11.6019C7.87491 11.6479 7.72617 11.6771 7.50956 11.6771M7.9999 11.6019L7.50956 11.6771M7.50956 11.6771C7.29287 11.6771 7.14409 11.6479 7.01908 11.6019M7.50956 11.6771L7.01908 11.6019M7.01908 11.6019C6.89113 11.5548 6.78182 11.4882 6.63852 11.4002L7.01908 11.6019ZM15.7341 11.5625L15.7339 11.5606C15.4989 8.61611 13.0236 6.29238 10.0145 6.29238C7.0066 6.29238 4.53214 8.61428 4.2954 11.5571C4.29501 11.5608 4.29482 11.5637 4.29472 11.5657L4.29471 11.5661C4.28295 11.7154 4.27676 11.8666 4.27676 12.0193C4.27676 15.1775 6.85076 17.7463 10.0145 17.7463C13.1783 17.7463 15.7523 15.1775 15.7523 12.0193C15.7523 11.8689 15.7463 11.7198 15.7349 11.5725H15.7349L15.7341 11.5627L15.7341 11.5625ZM9.14338 12.6386L9.14339 12.6386C9.28672 12.5506 9.39599 12.484 9.52391 12.4369C9.64888 12.3909 9.79761 12.3617 10.0143 12.3617C10.231 12.3617 10.3798 12.3909 10.5048 12.4369C10.6327 12.484 10.7421 12.5506 10.8854 12.6386L10.8854 12.6386C11.2343 12.8528 11.6878 13.1309 12.5193 13.1309C13.3509 13.1309 13.8044 12.853 14.1533 12.6386L14.1534 12.6386C14.1909 12.6155 14.2261 12.5939 14.26 12.5738C13.987 14.6685 12.1873 16.2924 10.0145 16.2924C7.84167 16.2924 6.04201 14.6685 5.76893 12.5736C5.80281 12.5938 5.83807 12.6154 5.87572 12.6385C6.22453 12.8528 6.67803 13.1309 7.50956 13.1309C8.34108 13.1309 8.79442 12.853 9.14338 12.6386Z" fill="#363B40" stroke="#363B40" stroke-width="0.3"/>
</g>
<defs>
<clipPath id="clip0">
<rect width="20" height="20" fill="white"/>
</clipPath>
</defs>
</svg>
