<svg width="26" height="26" viewBox="0 0 26 26" fill="none" xmlns="http://www.w3.org/2000/svg">
<path d="M13.1243 26C20.0606 26 25.6836 20.377 25.6836 13.4407C25.6836 6.50435 20.0606 0.881348 13.1243 0.881348C6.18794 0.881348 0.564941 6.50435 0.564941 13.4407C0.564941 20.377 6.18794 26 13.1243 26Z" fill="#EE4928"/>
<path d="M15.2044 11.3588C15.0557 11.2092 14.8907 11.0765 14.7126 10.9633C14.241 10.6612 13.6926 10.5007 13.1325 10.5007C12.3551 10.4993 11.6094 10.8082 11.0606 11.3588L8.39854 14.023C7.85074 14.5718 7.54285 15.3155 7.54236 16.0909C7.54133 17.7091 8.85226 19.0217 10.4704 19.0227C11.2466 19.0254 11.9917 18.718 12.5403 18.1689L14.7377 15.9714C14.7777 15.9318 14.8 15.8778 14.7996 15.8216C14.799 15.706 14.7047 15.6129 14.5891 15.6135H14.5054C14.0463 15.6151 13.5913 15.527 13.166 15.354C13.0877 15.3218 12.9976 15.34 12.9379 15.4001L11.3578 16.9822C10.8672 17.4729 10.0717 17.4729 9.58101 16.9822C9.09035 16.4916 9.09035 15.6961 9.58101 15.2054L12.2536 12.535C12.7438 12.0453 13.538 12.0453 14.0283 12.535C14.3587 12.8459 14.8741 12.8459 15.2045 12.535C15.3466 12.3927 15.4328 12.204 15.4472 12.0034C15.4625 11.7636 15.3741 11.5289 15.2044 11.3588Z" fill="white"/>
<path d="M19.2415 7.32159C18.0972 6.17731 16.2419 6.17731 15.0977 7.32159L12.9023 9.51487C12.842 9.57545 12.8246 9.66656 12.8583 9.74509C12.8917 9.82384 12.9695 9.87439 13.055 9.87274H13.1325C13.591 9.87191 14.0453 9.96077 14.4698 10.1344C14.5481 10.1666 14.6382 10.1484 14.6979 10.0883L16.2738 8.5145C16.7645 8.02385 17.56 8.02385 18.0506 8.5145C18.5413 9.00516 18.5413 9.80066 18.0506 10.2913L16.0875 12.2523L16.0708 12.2711L15.3843 12.9534C14.8941 13.4431 14.0999 13.4431 13.6096 12.9534C13.2792 12.6424 12.7638 12.6424 12.4334 12.9534C12.2904 13.0968 12.2041 13.2871 12.1907 13.4892C12.1754 13.7289 12.2638 13.9637 12.4334 14.1338C12.6757 14.377 12.9591 14.5754 13.2706 14.7197C13.3145 14.7407 13.3585 14.7574 13.4024 14.7763C13.4464 14.7951 13.4924 14.8097 13.5364 14.8265C13.5803 14.8432 13.6263 14.8579 13.6703 14.8704L13.7938 14.9039C13.8775 14.9248 13.9612 14.9416 14.047 14.9562C14.1503 14.9716 14.2544 14.9814 14.3588 14.9855H14.5053H14.5179L14.6435 14.9709C14.6895 14.9688 14.7376 14.9583 14.7921 14.9583H14.8632L15.0076 14.9374L15.0746 14.9249L15.196 14.8997H15.219C15.7331 14.7706 16.2025 14.5044 16.5772 14.1296L19.2414 11.4654C20.3857 10.3211 20.3857 8.46587 19.2415 7.32159Z" fill="white"/>
</svg>
