<svg width="16" height="12" viewBox="0 0 16 12" fill="none" xmlns="http://www.w3.org/2000/svg">
<path fill-rule="evenodd" clip-rule="evenodd" d="M1.175 9.4C0.5264 9.4 0 9.9264 0 10.575C0 11.2236 0.5264 11.75 1.175 11.75C1.8236 11.75 2.35 11.2236 2.35 10.575C2.35 9.9264 1.8236 9.4 1.175 9.4ZM3.91675 11.75H15.6668V10.1833H3.91675V11.75ZM1.175 4.69999C0.5264 4.69999 0 5.22639 0 5.87499C0 6.52359 0.5264 7.04999 1.175 7.04999C1.8236 7.04999 2.35 6.52359 2.35 5.87499C2.35 5.22639 1.8236 4.69999 1.175 4.69999ZM3.91675 7.05H15.6668V5.48333H3.91675V7.05ZM1.175 0C0.5264 0 0 0.5264 0 1.175C0 1.8236 0.5264 2.35 1.175 2.35C1.8236 2.35 2.35 1.8236 2.35 1.175C2.35 0.5264 1.8236 0 1.175 0ZM3.91675 2.35H15.6668V0.783338H3.91675V2.35Z" fill="#90A8BE"/>
</svg>
