<svg width="10" height="14" viewBox="0 0 10 14" fill="none" xmlns="http://www.w3.org/2000/svg">
<path fill-rule="evenodd" clip-rule="evenodd" d="M4.98807 12.6C3.68975 12.6 1.42517 7.70632 1.42517 4.90002C1.42517 2.97012 3.02349 1.40002 4.98807 1.40002C6.95265 1.40002 8.55096 2.97012 8.55096 4.90002C8.55096 7.70632 6.28638 12.6 4.98807 12.6ZM4.98805 0C2.23322 0 0 2.1938 0 4.9C0 7.6062 2.23322 14 4.98805 14C7.74288 14 9.9761 7.6062 9.9761 4.9C9.9761 2.1938 7.74288 0 4.98805 0ZM4.98803 6.04453C4.5954 6.04453 4.27545 5.73093 4.27545 5.34453C4.27545 4.95883 4.5954 4.64453 4.98803 4.64453C5.38066 4.64453 5.70061 4.95883 5.70061 5.34453C5.70061 5.73093 5.38066 6.04453 4.98803 6.04453ZM4.98802 3.24451C3.80727 3.24451 2.85028 4.18531 2.85028 5.34451C2.85028 6.50441 3.80727 7.44451 4.98802 7.44451C6.16876 7.44451 7.12575 6.50441 7.12575 5.34451C7.12575 4.18531 6.16876 3.24451 4.98802 3.24451Z" fill="#363B40"/>
</svg>
