<svg width="14" height="20" viewBox="0 0 14 20" fill="none" xmlns="http://www.w3.org/2000/svg">
<path fill-rule="evenodd" clip-rule="evenodd" d="M12 17.0005C12 17.5525 11.552 18.0005 11 18.0005H3C2.448 18.0005 2 17.5525 2 17.0005V9.00046C2 8.44846 2.448 8.00046 3 8.00046H11C11.552 8.00046 12 8.44846 12 9.00046V17.0005ZM5 4.00046C5 2.89746 5.897 2.00046 7 2.00046C8.103 2.00046 9 3.00046 9 4.00046V6.00046H5V4.00046ZM11 6.00046V4.00046C11 1.75346 8.739 -0.494541 6.164 0.0954593C4.266 0.530459 3 2.34146 3 4.28846V6.00046H2C0.895 6.00046 0 6.89546 0 8.00046V18.0005C0 19.1055 0.895 20.0005 2 20.0005H12C13.105 20.0005 14 19.1055 14 18.0005V8.00046C14 6.89546 13.105 6.00046 12 6.00046H11Z" fill="#55636D"/>
</svg>
