<svg width="33" height="33" viewBox="0 0 33 33" fill="none" xmlns="http://www.w3.org/2000/svg">
<g clip-path="url(#clip0)">
<path d="M21.7789 23.1272L23.288 20.6785L26.0112 19.7497L26.3129 16.8895L28.3618 14.8724L27.3877 12.165L28.3618 9.45753L26.313 7.44047L26.0113 4.5803L23.288 3.65153L21.779 1.20276L18.9247 1.54739L16.5 0L14.0753 1.54752L11.2211 1.20289L9.71206 3.65159L6.98879 4.58036L6.68708 7.44053L4.63818 9.45759L5.61233 12.1651L4.63818 14.8726L6.68702 16.8896L6.98873 19.7498L9.712 20.6786L11.221 23.1273L14.0753 22.7827L16.5 24.3302L18.9247 22.7827L21.7789 23.1272ZM8.15791 12.1651C8.15791 7.56525 11.9002 3.82297 16.5 3.82297C21.0998 3.82297 24.8421 7.56525 24.8421 12.1651C24.8421 16.7649 21.0998 20.5072 16.5 20.5072C11.9002 20.5072 8.15791 16.7649 8.15791 12.1651Z" fill="white"/>
<path d="M16.5001 5.75781C12.9671 5.75781 10.0928 8.6321 10.0928 12.1651C10.0928 15.6981 12.9671 18.5724 16.5001 18.5724C20.0331 18.5724 22.9073 15.6981 22.9073 12.1651C22.9073 8.6321 20.0331 5.75781 16.5001 5.75781Z" fill="white"/>
<path d="M13.6187 24.7863L10.2233 25.1962L8.42935 22.2851L7.81949 22.0771L5.18896 30.2992L9.92466 30.0387L13.6297 32.9997L15.8101 26.1849L13.6187 24.7863Z" fill="white"/>
<path d="M24.5707 22.2851L22.7767 25.1962L19.3813 24.7863L17.1899 26.1849L19.3703 32.9997L23.0754 30.0387L27.811 30.2992L25.1805 22.0771L24.5707 22.2851Z" fill="white"/>
</g>
<defs>
<clipPath id="clip0">
<rect width="33" height="33" fill="white"/>
</clipPath>
</defs>
</svg>
