<svg width="23" height="23" viewBox="0 0 23 23" fill="none" xmlns="http://www.w3.org/2000/svg">
<g id="Icon/Outline/more-vertical">
<path id="Mask" fill-rule="evenodd" clip-rule="evenodd" d="M11.2966 7.08148C12.3228 7.08148 13.1557 6.2486 13.1557 5.22238C13.1557 4.19616 12.3228 3.36328 11.2966 3.36328C10.2704 3.36328 9.4375 4.19616 9.4375 5.22238C9.4375 6.2486 10.2704 7.08148 11.2966 7.08148ZM11.2966 9.87013C10.2704 9.87013 9.4375 10.703 9.4375 11.7292C9.4375 12.7555 10.2704 13.5883 11.2966 13.5883C12.3228 13.5883 13.1557 12.7555 13.1557 11.7292C13.1557 10.703 12.3228 9.87013 11.2966 9.87013ZM9.4375 18.2361C9.4375 17.2099 10.2704 16.377 11.2966 16.377C12.3228 16.377 13.1557 17.2099 13.1557 18.2361C13.1557 19.2623 12.3228 20.0952 11.2966 20.0952C10.2704 20.0952 9.4375 19.2623 9.4375 18.2361Z" fill="#231F20"/>
<mask id="mask0" style="mask-type:alpha" maskUnits="userSpaceOnUse" x="9" y="3" width="5" height="18">
<path id="Mask_2" fill-rule="evenodd" clip-rule="evenodd" d="M11.2966 7.08148C12.3228 7.08148 13.1557 6.2486 13.1557 5.22238C13.1557 4.19616 12.3228 3.36328 11.2966 3.36328C10.2704 3.36328 9.4375 4.19616 9.4375 5.22238C9.4375 6.2486 10.2704 7.08148 11.2966 7.08148ZM11.2966 9.87013C10.2704 9.87013 9.4375 10.703 9.4375 11.7292C9.4375 12.7555 10.2704 13.5883 11.2966 13.5883C12.3228 13.5883 13.1557 12.7555 13.1557 11.7292C13.1557 10.703 12.3228 9.87013 11.2966 9.87013ZM9.4375 18.2361C9.4375 17.2099 10.2704 16.377 11.2966 16.377C12.3228 16.377 13.1557 17.2099 13.1557 18.2361C13.1557 19.2623 12.3228 20.0952 11.2966 20.0952C10.2704 20.0952 9.4375 19.2623 9.4375 18.2361Z" fill="white"/>
</mask>
<g mask="url(#mask0)">
<g id="&#240;&#159;&#142;&#168; Color">
<rect id="Base" x="0.142578" y="0.574219" width="22.3092" height="22.3092" fill="#707C97"/>
</g>
</g>
</g>
</svg>
