<svg width="20" height="20" viewBox="0 0 20 20" fill="none" xmlns="http://www.w3.org/2000/svg">
<mask id="mask0" mask-type="alpha" maskUnits="userSpaceOnUse" x="0" y="0" width="20" height="20">
<path fill-rule="evenodd" clip-rule="evenodd" d="M19.7389 19.9737V0.273438H0L0 19.9737H19.7389Z" fill="white"/>
</mask>
<g mask="url(#mask0)">
<path fill-rule="evenodd" clip-rule="evenodd" d="M16.303 16.5446C14.5844 18.2596 12.2997 19.2041 9.86932 19.2041C7.43918 19.2041 5.15452 18.2596 3.43589 16.5446C1.71753 14.8293 0.770959 12.5491 0.770959 10.1235C0.770959 7.69809 1.71753 5.41789 3.43589 3.70262C5.15452 1.98762 7.43918 1.04289 9.86932 1.04289C12.2997 1.04289 14.5844 1.98762 16.303 3.70262C18.0214 5.41789 18.9677 7.69809 18.9677 10.1235C18.9677 12.5491 18.0214 14.8293 16.303 16.5446ZM16.8482 3.15848C14.9844 1.29801 12.5055 0.273438 9.86932 0.273438C7.23315 0.273438 4.75452 1.29801 2.89068 3.15848C1.02658 5.01867 0 7.49246 0 10.1235C0 12.7545 1.02658 15.2286 2.89068 17.0888C4.75452 18.9492 7.23315 19.9738 9.86932 19.9738C12.5055 19.9738 14.9844 18.9492 16.8482 17.0888C18.7123 15.2286 19.7389 12.7545 19.7389 10.1235C19.7389 7.49246 18.7123 5.01867 16.8482 3.15848Z" fill="#90A8BE"/>
<path fill-rule="evenodd" clip-rule="evenodd" d="M15.8043 14.1421L13.3199 11.6626H15.6522C15.8651 11.6626 16.038 11.4903 16.038 11.2779V8.96922C16.038 8.75676 15.8651 8.58449 15.6522 8.58449H10.2358L5.8429 4.2002C7.03167 3.39191 8.41468 2.96672 9.86948 2.96672C13.8235 2.96672 17.0402 6.17742 17.0402 10.1234C17.0402 11.5756 16.6141 12.9557 15.8043 14.1421ZM11.0067 9.35395H15.2667V10.8931H12.5489L11.0067 9.35395ZM9.86948 2.19727C8.09441 2.19727 6.41633 2.76875 5.01523 3.84965C4.92783 3.91746 4.87331 4.01945 4.86646 4.12937C4.85962 4.23984 4.90044 4.34812 4.97879 4.42633L15.578 15.0048C15.6503 15.077 15.7487 15.1175 15.8506 15.1175C15.8588 15.1175 15.8667 15.1172 15.8752 15.1166C15.9854 15.1098 16.0876 15.0554 16.1555 14.9682C17.2388 13.5698 17.8114 11.895 17.8114 10.1234C17.8114 5.75277 14.2487 2.19727 9.86948 2.19727Z" fill="#90A8BE"/>
<path fill-rule="evenodd" clip-rule="evenodd" d="M4.47212 10.8933H6.39979V9.35409H4.47212V10.8933ZM9.86938 17.2805C5.91568 17.2805 2.69869 14.0701 2.69869 10.1238C2.69869 8.67186 3.12472 7.29155 3.93458 6.10538L6.41897 8.58464H4.08664C3.87376 8.58464 3.70116 8.75717 3.70116 8.96964V11.2783C3.70116 11.4905 3.87376 11.663 4.08664 11.663H9.50335L13.896 16.047C12.7072 16.8553 11.3244 17.2805 9.86938 17.2805ZM7.17075 9.33495L8.73212 10.8933H7.17075V9.33495ZM14.7603 15.8212L4.16116 5.24268C4.0828 5.16448 3.97431 5.12401 3.86362 5.13057C3.75349 5.13768 3.6513 5.19182 3.58335 5.27932C2.50034 6.67741 1.92773 8.35249 1.92773 10.1238C1.92773 14.4944 5.4902 18.0502 9.86938 18.0502C11.6444 18.0502 13.3225 17.4787 14.7236 16.3976C14.8113 16.3298 14.8655 16.228 14.8724 16.1178C14.8792 16.0074 14.8387 15.8994 14.7603 15.8212Z" fill="#90A8BE"/>
<path fill-rule="evenodd" clip-rule="evenodd" d="M15.0352 8.23825C14.8325 8.23825 14.6626 8.0802 14.6506 7.87567C14.6484 7.84587 14.5799 7.06602 13.7399 6.83989C13.1563 6.68266 12.7141 6.27223 12.4613 5.65262C12.284 5.21868 12.2621 4.83504 12.2602 4.79266C12.2506 4.58047 12.4152 4.40055 12.6281 4.39098C12.8402 4.38196 13.0202 4.54493 13.0303 4.75657C13.033 4.80497 13.1004 5.87055 13.9407 6.09696C15.0489 6.39528 15.393 7.36188 15.4204 7.8311C15.4328 8.04329 15.2706 8.2254 15.058 8.2377C15.0503 8.23797 15.0429 8.23825 15.0352 8.23825Z" fill="#90A8BE"/>
<path fill-rule="evenodd" clip-rule="evenodd" d="M12.7219 8.23774C12.5192 8.23774 12.3493 8.0797 12.3373 7.87516C12.3351 7.84536 12.2666 7.06552 11.4266 6.83938C11.2211 6.78388 11.0995 6.57278 11.1551 6.36743C11.2104 6.16235 11.4222 6.04095 11.6274 6.09645C12.7356 6.39477 13.0797 7.36138 13.1071 7.83059C13.1195 8.04278 12.9573 8.22489 12.7447 8.2372C12.737 8.23747 12.7296 8.23774 12.7219 8.23774Z" fill="#90A8BE"/>
</g>
</svg>
