<svg width="20" height="20" viewBox="0 0 20 20" fill="none" xmlns="http://www.w3.org/2000/svg">
<path fill-rule="evenodd" clip-rule="evenodd" d="M11.375 16.4062H7.625C7.625 16.602 7.65506 16.791 7.7109 16.9688C7.82949 17.3463 8.06436 17.6732 8.37431 17.9062C8.68716 18.1415 9.0765 18.2812 9.5 18.2812C9.91969 18.2812 10.3083 18.1415 10.6217 17.9062C10.9321 17.6732 11.1687 17.3463 11.2883 16.9688C11.3446 16.791 11.375 16.602 11.375 16.4062ZM17 15.4688V14.5312L15.125 12.6562V7.96875C15.125 5.09063 13.5875 2.68125 10.9062 2.04375V1.40625C10.9062 0.628125 10.2781 0 9.5 0C8.72188 0 8.09375 0.628125 8.09375 1.40625V2.04375C5.40313 2.68125 3.875 5.08125 3.875 7.96875V12.6562L2 14.5312V15.4688H17ZM4.68382 13.9688H14.3162L13.625 13.2776V7.96875C13.625 5.61507 12.4119 3.94354 10.5593 3.50307L9.50185 3.25165L8.43958 3.50334C6.57968 3.94401 5.375 5.60436 5.375 7.96875V13.2776L4.68382 13.9688Z" fill="#90A8BE"/>
</svg>
