<svg width="11" height="28" viewBox="0 0 11 28" fill="none" xmlns="http://www.w3.org/2000/svg">
<path d="M5.19531 6.5625C7.0047 6.5625 8.47656 5.09064 8.47656 3.28125C8.47656 1.47186 7.0047 0 5.19531 0C3.38593 0 1.91406 1.47186 1.91406 3.28125C1.91406 5.09064 3.38593 6.5625 5.19531 6.5625Z" fill="#363B40"/>
<path d="M8.64789 6.78516C7.75858 7.66122 6.53922 8.20276 5.19531 8.20276C3.85141 8.20276 2.63205 7.66122 1.74274 6.78516C0.674194 7.73727 0 9.12305 0 10.6637V17.3356C0 17.7887 0.367218 18.1559 0.820312 18.1559H1.64062V27.1793C1.64062 27.6324 2.00784 27.9996 2.46094 27.9996H7.92969C8.38278 27.9996 8.75 27.6324 8.75 27.1793V18.1559H9.57031C10.0234 18.1559 10.3906 17.7887 10.3906 17.3356V10.6637C10.3906 9.12305 9.71643 7.73727 8.64789 6.78516Z" fill="#363B40"/>
</svg>
