<svg width="20" height="21" viewBox="0 0 20 21" fill="none" xmlns="http://www.w3.org/2000/svg">
<path d="M16.6549 3.5H3.34507C2.05634 3.5 1 4.55634 1 5.84507V14.2746C1 15.5634 2.05634 16.6197 3.34507 16.6197H16.6549C17.9436 16.6197 19 15.5634 19 14.2746V5.84507C19.0053 4.55105 17.9436 3.5 16.6549 3.5ZM17.7377 14.3063C17.7377 14.7711 17.3574 15.1567 16.8873 15.1567H3.31866C2.85387 15.1567 2.46831 14.7764 2.46831 14.3063V8.37499H17.7377V14.3063ZM17.7377 6.14084H2.46831V5.81866C2.46831 5.35387 2.84859 4.96831 3.31866 4.96831H16.8873C17.3521 4.96831 17.7377 5.34859 17.7377 5.81866V6.14084Z" fill="#90A8BE"/>
<path d="M4.87171 14.2429C5.33122 14.2429 5.74847 14.0369 6.02312 13.7095C6.30305 14.0369 6.71502 14.2429 7.17453 14.2429C8.01431 14.2429 8.69565 13.5616 8.69565 12.7218C8.69565 11.882 8.01431 11.2007 7.17453 11.2007C6.71502 11.2007 6.29777 11.4067 6.02312 11.7341C5.74319 11.4067 5.33122 11.2007 4.87171 11.2007C4.03192 11.2007 3.35059 11.882 3.35059 12.7218C3.35059 13.5616 4.03192 14.2429 4.87171 14.2429Z" fill="#90A8BE"/>
</svg>
