<svg width="14" height="14" viewBox="0 0 14 14" fill="none" xmlns="http://www.w3.org/2000/svg">
<path d="M5.06632 11.7009H2.72029C2.6089 11.7009 2.50207 11.6566 2.42331 11.5779C2.34454 11.4991 2.30029 11.3923 2.30029 11.2809V8.93484C2.30029 8.87969 2.31116 8.82507 2.33226 8.77412C2.35337 8.72316 2.38431 8.67686 2.42331 8.63786L8.72331 2.33786C8.80207 2.25909 8.9089 2.21484 9.02029 2.21484C9.13168 2.21484 9.23851 2.25909 9.31728 2.33786L11.6633 4.68389C11.7421 4.76265 11.7863 4.86948 11.7863 4.98087C11.7863 5.09226 11.7421 5.19909 11.6633 5.27786L5.36331 11.5779C5.32431 11.6169 5.27801 11.6478 5.22705 11.6689C5.17609 11.69 5.12148 11.7009 5.06632 11.7009Z" stroke="#55636D" stroke-width="0.945" stroke-linecap="round" stroke-linejoin="round"/>
<path d="M7.34033 3.71875L10.2803 6.65875" stroke="#55636D" stroke-width="0.945" stroke-linecap="round" stroke-linejoin="round"/>
<path d="M5.2136 11.6716L2.32715 8.78516" stroke="#55636D" stroke-width="0.945" stroke-linecap="round" stroke-linejoin="round"/>
</svg>
