<svg width="13" height="20" viewBox="0 0 13 20" fill="none" xmlns="http://www.w3.org/2000/svg">
<path d="M7.09091 9.53846L7.09091 19.3846C7.09091 19.7243 6.66328 20 6.13637 20C5.60946 20 5.18182 19.7243 5.18182 19.3846L5.18183 9.53846C5.18183 9.19877 5.60946 6.46154 6.13637 6.46154C6.66328 6.46154 7.09091 9.19877 7.09091 9.53846Z" fill="#90A8BE"/>
<path fill-rule="evenodd" clip-rule="evenodd" d="M5.18182 14.389L5.18182 9.53835C5.18182 9.19865 5.60946 6.46143 6.13637 6.46143C6.66328 6.46143 7.09091 9.19865 7.09091 9.53835L7.09091 13.7652C6.50577 14.0701 5.86272 14.2845 5.18182 14.389Z" fill="#55636D"/>
<path fill-rule="evenodd" clip-rule="evenodd" d="M6.13637 11.9999C9.47518 11.9999 12.1818 9.38251 12.1818 6.15377C12.1818 2.92503 9.47518 0.307617 6.13637 0.307617C2.79755 0.307617 0.0909119 2.92503 0.0909119 6.15377C0.0909119 9.38251 2.79755 11.9999 6.13637 11.9999ZM3.43017 7.56622C3.23154 7.1476 2.95453 6.56381 2.95453 5.84608C2.95453 5.02165 3.28694 4.28557 3.51529 3.77991C3.71306 3.34196 3.83278 3.07684 3.59091 3.07685C1.65791 3.07685 1.36364 5.23068 1.36364 5.53838C1.36364 7.40765 2.3182 8.30761 3.27273 8.30761C3.78195 8.3076 3.6573 8.0449 3.43017 7.56622Z" fill="#EE4928"/>
</svg>
