<svg width="36" height="36" viewBox="0 0 36 36" fill="none" xmlns="http://www.w3.org/2000/svg">
<path fill-rule="evenodd" clip-rule="evenodd" d="M19.7996 16.2H25.1996V19.8H19.7996V25.2H16.1996V19.8H10.7996V16.2H16.1996V10.8H19.7996V16.2ZM17.9994 32.4C10.0596 32.4 3.59944 25.9398 3.59944 18C3.59944 10.0602 10.0596 3.59999 17.9994 3.59999C25.9392 3.59999 32.3994 10.0602 32.3994 18C32.3994 25.9398 25.9392 32.4 17.9994 32.4ZM18 0C8.0586 0 0 8.0586 0 18C0 27.9414 8.0586 36 18 36C27.9414 36 36 27.9414 36 18C36 8.0586 27.9414 0 18 0Z" fill="#EE4928"/>
</svg>
