<svg width="19" height="19" viewBox="0 0 19 19" fill="none" xmlns="http://www.w3.org/2000/svg">
<path fill-rule="evenodd" clip-rule="evenodd" d="M10.0433 8.2174H12.7824V10.0435H10.0433V12.7826H8.21722V10.0435H5.47809V8.2174H8.21722V5.47827H10.0433V8.2174ZM9.13028 16.4347C5.10284 16.4347 1.82593 13.1578 1.82593 9.1304C1.82593 5.10296 5.10284 1.82605 9.13028 1.82605C13.1577 1.82605 16.4346 5.10296 16.4346 9.1304C16.4346 13.1578 13.1577 16.4347 9.13028 16.4347ZM9.13043 0C4.0877 0 0 4.0877 0 9.13043C0 14.1732 4.0877 18.2609 9.13043 18.2609C14.1732 18.2609 18.2609 14.1732 18.2609 9.13043C18.2609 4.0877 14.1732 0 9.13043 0Z" fill="#EE4928"/>
</svg>
