<svg width="26" height="26" viewBox="0 0 26 26" fill="none" xmlns="http://www.w3.org/2000/svg">
<path fill-rule="evenodd" clip-rule="evenodd" d="M6.49984 14.0833C6.49984 13.485 6.98486 13 7.58317 13H18.4165C19.0148 13 19.4998 13.485 19.4998 14.0833V21.6667C19.4998 22.265 19.0148 22.75 18.4165 22.75H7.58317C6.98486 22.75 6.49984 22.265 6.49984 21.6667V14.0833ZM8.6665 15.1667V20.5833H17.3332V15.1667H8.6665Z" fill="#3C444C"/>
<path fill-rule="evenodd" clip-rule="evenodd" d="M2.1665 11.9167C2.1665 10.72 3.13655 9.75 4.33317 9.75H21.6665C22.8631 9.75 23.8332 10.72 23.8332 11.9167V15.1667C23.8332 17.5599 21.8931 19.5 19.4998 19.5H18.4165C17.8182 19.5 17.3332 19.015 17.3332 18.4167C17.3332 17.8184 17.8182 17.3333 18.4165 17.3333H19.4998C20.6965 17.3333 21.6665 16.3633 21.6665 15.1667V11.9167H4.33317V15.1667C4.33317 16.3633 5.30322 17.3333 6.49984 17.3333H7.58317C8.18148 17.3333 8.6665 17.8184 8.6665 18.4167C8.6665 19.015 8.18148 19.5 7.58317 19.5H6.49984C4.1066 19.5 2.1665 17.5599 2.1665 15.1667V11.9167Z" fill="#3C444C"/>
<path fill-rule="evenodd" clip-rule="evenodd" d="M6.49984 4.33333C6.49984 3.73502 6.98486 3.25 7.58317 3.25H18.4165C19.0148 3.25 19.4998 3.73502 19.4998 4.33333V7.58333C19.4998 8.18164 19.0148 8.66667 18.4165 8.66667C17.8182 8.66667 17.3332 8.18164 17.3332 7.58333V5.41667H8.6665V7.58333C8.6665 8.18164 8.18148 8.66667 7.58317 8.66667C6.98486 8.66667 6.49984 8.18164 6.49984 7.58333V4.33333Z" fill="#3C444C"/>
</svg>
