<svg width="21" height="19" viewBox="0 0 21 19" fill="none" xmlns="http://www.w3.org/2000/svg">
<g clip-path="url(#clip0)">
<path d="M19.3539 4.62324H17.1838V0.682706C17.1838 0.307418 16.8801 0 16.5005 0H4.9269C4.55124 0 4.24352 0.303425 4.24352 0.682706V4.62723H2.07348C1.19427 4.62723 0.48291 5.34188 0.48291 6.21622V13.0712C0.48291 13.9496 1.19826 14.6602 2.07348 14.6602H4.24352V18.3173C4.24352 18.6926 4.54724 19 4.9269 19H16.5005C16.8761 19 17.1838 18.6966 17.1838 18.3173V14.6602H19.3539C20.2331 14.6602 20.9444 13.9456 20.9444 13.0712V6.21622C20.9444 5.33789 20.2291 4.62324 19.3539 4.62324ZM5.61028 1.36142H15.8211V4.62324H5.61028V1.36142ZM15.8171 17.6346H5.61028C5.61028 17.5028 5.61028 12.2248 5.61028 12.0611H15.8211C15.8171 12.2288 15.8171 17.5068 15.8171 17.6346ZM19.5817 13.0712C19.5817 13.195 19.4778 13.2988 19.3539 13.2988H17.1838V11.3824C17.1838 11.0071 16.8801 10.6997 16.5005 10.6997H4.9269C4.55124 10.6997 4.24352 11.0032 4.24352 11.3824V13.2988H2.07348C1.94959 13.2988 1.84568 13.195 1.84568 13.0712V6.21622C1.84568 6.09246 1.94959 5.98865 2.07348 5.98865C2.597 5.98865 18.8423 5.98865 19.3539 5.98865C19.4778 5.98865 19.5817 6.09246 19.5817 6.21622V13.0712Z" fill="#BDBDBD"/>
<path d="M16.5006 7.26221H14.7661C14.3905 7.26221 14.0828 7.56563 14.0828 7.94491C14.0828 8.3242 14.3865 8.62762 14.7661 8.62762H16.5006C16.8762 8.62762 17.184 8.3242 17.184 7.94491C17.184 7.56563 16.8762 7.26221 16.5006 7.26221Z" fill="#BDBDBD"/>
<path d="M13.6708 15.2432H7.75614C7.38048 15.2432 7.07275 15.5466 7.07275 15.9259C7.07275 16.3052 7.37648 16.6086 7.75614 16.6086H13.6708C14.0465 16.6086 14.3542 16.3052 14.3542 15.9259C14.3542 15.5466 14.0465 15.2432 13.6708 15.2432Z" fill="#BDBDBD"/>
<path d="M13.6708 13.0913H7.75614C7.38048 13.0913 7.07275 13.3947 7.07275 13.774C7.07275 14.1533 7.37648 14.4567 7.75614 14.4567H13.6708C14.0465 14.4567 14.3542 14.1533 14.3542 13.774C14.3542 13.3947 14.0465 13.0913 13.6708 13.0913Z" fill="#BDBDBD"/>
</g>
<defs>
<clipPath id="clip0">
<rect width="20.4615" height="19" fill="white" transform="translate(0.48291)"/>
</clipPath>
</defs>
</svg>
