<svg width="20" height="19" viewBox="0 0 20 19" fill="none" xmlns="http://www.w3.org/2000/svg">
<path fill-rule="evenodd" clip-rule="evenodd" d="M15.8228 16.6131H3.67921C3.02561 16.6131 2.54297 15.9962 2.78948 15.4289C3.93328 12.8057 6.62042 11.3029 9.75052 11.3029C12.8816 11.3029 15.5687 12.8057 16.7125 15.4289C16.959 15.9962 16.4764 16.6131 15.8228 16.6131ZM5.9726 5.99277C5.9726 4.0404 7.668 2.45266 9.75065 2.45266C11.8342 2.45266 13.5287 4.0404 13.5287 5.99277C13.5287 7.94513 11.8342 9.53287 9.75065 9.53287C7.668 9.53287 5.9726 7.94513 5.9726 5.99277ZM18.9624 16.2909C18.2757 13.3181 16.1279 11.1241 13.301 10.1285C14.799 8.99831 15.6727 7.17073 15.3515 5.16968C14.9794 2.84826 12.9185 0.990586 10.4306 0.719768C6.9964 0.345402 4.08353 2.85003 4.08353 5.99276C4.08353 7.66546 4.91092 9.15584 6.20112 10.1285C3.37326 11.1241 1.22638 13.3181 0.538781 16.2909C0.28943 17.3715 1.21883 18.3831 2.39852 18.3831H17.1027C18.2833 18.3831 19.2127 17.3715 18.9624 16.2909Z" fill="#90A8BE"/>
</svg>
