<svg width="22" height="22" viewBox="0 0 22 22" fill="none" xmlns="http://www.w3.org/2000/svg">
<path d="M21.5 11C21.5 16.799 16.799 21.5 11 21.5C5.20101 21.5 0.5 16.799 0.5 11C0.5 5.20101 5.20101 0.5 11 0.5C16.799 0.5 21.5 5.20101 21.5 11Z" stroke="#788995"/>
<path d="M10.156 12.172C10.156 11.7613 10.198 11.4113 10.282 11.122C10.3753 10.8233 10.506 10.5667 10.674 10.352C10.8513 10.1373 11.0753 9.95067 11.346 9.792C11.5233 9.68 11.724 9.56333 11.948 9.442C12.1813 9.32067 12.396 9.18067 12.592 9.022C12.7973 8.854 12.9653 8.65333 13.096 8.42C13.2267 8.17733 13.292 7.888 13.292 7.552C13.292 7.14133 13.1987 6.80533 13.012 6.544C12.8347 6.27333 12.6013 6.07267 12.312 5.942C12.0227 5.802 11.7147 5.732 11.388 5.732C11.0613 5.732 10.7487 5.79733 10.45 5.928C10.1607 6.04933 9.904 6.21733 9.68 6.432C9.456 6.64667 9.274 6.88933 9.134 7.16L8.476 6.74C8.65333 6.35733 8.89133 6.03067 9.19 5.76C9.498 5.48933 9.84333 5.284 10.226 5.144C10.6087 5.004 11.0007 4.934 11.402 4.934C11.7473 4.934 12.0833 4.99 12.41 5.102C12.7367 5.20467 13.026 5.368 13.278 5.592C13.5393 5.816 13.7447 6.096 13.894 6.432C14.0527 6.75867 14.132 7.15067 14.132 7.608C14.132 7.98133 14.0807 8.29867 13.978 8.56C13.8753 8.812 13.7307 9.03133 13.544 9.218C13.3667 9.39533 13.166 9.554 12.942 9.694C12.718 9.834 12.4847 9.96933 12.242 10.1C12.0273 10.2213 11.822 10.3567 11.626 10.506C11.43 10.6553 11.2713 10.8607 11.15 11.122C11.0287 11.374 10.968 11.724 10.968 12.172H10.156ZM10.17 15V13.502H10.996V15H10.17Z" fill="#788995"/>
</svg>
