<svg width="14" height="14" viewBox="0 0 14 14" fill="none" xmlns="http://www.w3.org/2000/svg">
<path d="M4.92188 8.46289H5.74219V9.2832H4.92188V8.46289Z" fill="#90A8BE"/>
<path d="M5.33203 5.5918C5.55819 5.5918 5.74219 5.77579 5.74219 6.00195C5.74219 6.23249 5.65327 6.33115 5.45218 6.53223C5.22837 6.75604 4.92188 7.06254 4.92188 7.64258H5.74219C5.74219 7.41204 5.83111 7.31339 6.0322 7.1123C6.256 6.88849 6.5625 6.582 6.5625 6.00195C6.5625 5.32347 6.01051 4.77148 5.33203 4.77148C4.65355 4.77148 4.10156 5.32347 4.10156 6.00195H4.92188C4.92188 5.77579 5.10587 5.5918 5.33203 5.5918Z" fill="#90A8BE"/>
<path d="M3.28125 0.259766V2.7207H0V11.7441H0.820312V13.741L3.8156 11.7441H10.6641V9.63944L13.125 11.2801V9.2832H14V0.259766H3.28125ZM9.84375 10.9238H3.56721L1.64062 12.2082V10.9238H0.820312V3.54102H9.84375V10.9238ZM13.1797 8.46289H12.3047V9.74728L10.6641 8.65353V2.7207H4.10156V1.08008H13.1797V8.46289Z" fill="#90A8BE"/>
</svg>
