<svg width="18" height="18" viewBox="0 0 18 18" fill="none" xmlns="http://www.w3.org/2000/svg">
<path fill-rule="evenodd" clip-rule="evenodd" d="M12.6 9.00002C12.6 10.9881 10.9881 12.6 8.99999 12.6C7.01189 12.6 5.39999 10.9881 5.39999 9.00002C5.39999 7.01192 7.01189 5.40002 8.99999 5.40002C10.9881 5.40002 12.6 7.01192 12.6 9.00002ZM8.99999 16.2C5.03009 16.2 1.79999 12.9699 1.79999 9.00005C1.79999 5.03015 5.03009 1.80005 8.99999 1.80005C12.9699 1.80005 16.2 5.03015 16.2 9.00005C16.2 12.9699 12.9699 16.2 8.99999 16.2ZM9 0C4.0293 0 0 4.0293 0 9C0 13.9707 4.0293 18 9 18C13.9707 18 18 13.9707 18 9C18 4.0293 13.9707 0 9 0Z" fill="#E3E9EF"/>
<path fill-rule="evenodd" clip-rule="evenodd" d="M12.6 9.00002C12.6 10.9881 10.9881 12.6 8.99999 12.6C7.01189 12.6 5.39999 10.9881 5.39999 9.00002C5.39999 7.01192 7.01189 5.40002 8.99999 5.40002C10.9881 5.40002 12.6 7.01192 12.6 9.00002ZM8.99999 16.2C5.03009 16.2 1.79999 12.9699 1.79999 9.00005C1.79999 5.03015 5.03009 1.80005 8.99999 1.80005C12.9699 1.80005 16.2 5.03015 16.2 9.00005C16.2 12.9699 12.9699 16.2 8.99999 16.2ZM9 0C4.0293 0 0 4.0293 0 9C0 13.9707 4.0293 18 9 18C13.9707 18 18 13.9707 18 9C18 4.0293 13.9707 0 9 0Z" fill="#E3E9EF"/>
</svg>
