<svg width="41" height="38" viewBox="0 0 41 38" fill="none" xmlns="http://www.w3.org/2000/svg">
<path fill-rule="evenodd" clip-rule="evenodd" d="M7.45454 27.9545V29.8181H9.31817C10.3469 29.8181 11.1818 30.653 11.1818 31.6818C11.1818 32.7105 10.3469 33.5454 9.31817 33.5454H7.45454V35.409C7.45454 36.4378 6.61963 37.2727 5.5909 37.2727C4.56218 37.2727 3.72727 36.4378 3.72727 35.409V33.5454H1.86363C0.834908 33.5454 0 32.7105 0 31.6818C0 30.653 0.834908 29.8181 1.86363 29.8181H3.72727V27.9545C3.72727 26.9258 4.56218 26.0909 5.5909 26.0909C6.61963 26.0909 7.45454 26.9258 7.45454 27.9545ZM22.3636 28.8863C20.308 28.8863 18.6363 27.2147 18.6363 25.1591C18.6363 23.1035 20.308 21.4318 22.3636 21.4318C24.4192 21.4318 26.0909 23.1035 26.0909 25.1591C26.0909 27.2147 24.4192 28.8863 22.3636 28.8863ZM22.3636 17.7045C18.2469 17.7045 14.9091 21.0423 14.9091 25.1591C14.9091 29.2758 18.2469 32.6136 22.3636 32.6136C26.4804 32.6136 29.8182 29.2758 29.8182 25.1591C29.8182 21.0423 26.4804 17.7045 22.3636 17.7045ZM27.9545 7.45454H16.7727V5.5909C16.7727 4.56218 17.6076 3.72727 18.6364 3.72727H26.0909C27.1196 3.72727 27.9545 4.56218 27.9545 5.5909V7.45454ZM39.1364 7.45454V5.5909C39.1364 4.56218 38.3015 3.72727 37.2727 3.72727C36.244 3.72727 35.4091 4.56218 35.4091 5.5909V7.45454H31.6818V3.72727C31.6818 1.66795 30.0139 0 27.9546 0H16.7728C14.7135 0 13.0455 1.66795 13.0455 3.72727V7.45454H7.4546C5.39528 7.45454 3.72733 9.12249 3.72733 11.1818V22.3636H7.4546V13.0454C7.4546 12.0167 8.2895 11.1818 9.31823 11.1818H35.4091C36.4378 11.1818 37.2727 12.0167 37.2727 13.0454V27.9545C37.2727 28.9832 36.4378 29.8181 35.4091 29.8181H33.5455V33.5454H37.2727C39.3321 33.5454 41 31.8775 41 29.8181V7.45454H39.1364Z" fill="#90A8BE"/>
</svg>
