<svg width="18" height="12" viewBox="0 0 18 12" fill="none" xmlns="http://www.w3.org/2000/svg">
<path opacity="0.5" d="M18 9.10562L15.1946 12L12.3694 9.09256L13.3612 8.06343L14.4816 9.21645V2.18271C14.4829 1.99099 14.4115 1.81048 14.2806 1.67439C14.1485 1.53688 13.972 1.46124 13.7839 1.46124H6.21716L4.80583 0.0087984H13.7839C14.3492 0.0087984 14.8797 0.236847 15.2777 0.650655C15.6738 1.06276 15.8901 1.60911 15.8871 2.18966V9.23319L17.0068 8.07777L18 9.10562ZM11.5299 10.5388H4.21614C4.02786 10.5388 3.85153 10.4631 3.71942 10.3258C3.58855 10.1897 3.51714 10.009 3.51837 9.81729V2.78355L4.63884 3.93657L5.63063 2.90744L2.80536 0L0 2.89453L0.993164 3.92223L2.11295 2.76695V9.81034C2.10992 10.3909 2.32622 10.9374 2.72227 11.3493C3.12025 11.7632 3.65076 11.9912 4.21614 11.9912H13.1942L11.7828 10.5388H11.5299Z" fill="white"/>
</svg>
