<svg width="20" height="20" viewBox="0 0 20 20" fill="none" xmlns="http://www.w3.org/2000/svg">
<g opacity="0.6" clip-path="url(#clip0)">
<path d="M19.4803 17.0049L11.6379 9.1625L2.47543 0H1.75938L1.61317 0.371523C1.22727 1.35215 1.06239 2.35512 1.13641 3.27188C1.22078 4.31687 1.61778 5.2216 2.28453 5.88836L9.43727 13.0411L10.3807 12.0977L16.9934 19.4919C17.6512 20.1497 18.7834 20.1888 19.4803 19.4919C20.166 18.8062 20.166 17.6906 19.4803 17.0049Z" fill="black"/>
<path d="M6.12207 11.3848L0.520078 16.9868C-0.165547 17.6724 -0.165547 18.788 0.520078 19.4737C1.17141 20.125 2.29816 20.1825 3.00699 19.4737L8.60902 13.8716L6.12207 11.3848Z" fill="black"/>
<path d="M19.1504 3.32961L15.9726 6.50734L15.1436 5.67836L18.3213 2.50059L17.4923 1.6716L14.3146 4.84934L13.4856 4.02035L16.6634 0.842617L15.8345 0.0136719L11.6895 4.15859C11.1825 4.66566 10.8797 5.33895 10.8369 6.05449C10.8261 6.23578 10.785 6.4141 10.7168 6.58371L13.4093 9.27625C13.5789 9.20801 13.7573 9.16695 13.9386 9.15613C14.6541 9.11344 15.3274 8.81059 15.8345 8.30352L19.9794 4.15863L19.1504 3.32961Z" fill="black"/>
</g>
<defs>
<clipPath id="clip0">
<rect width="20" height="20" fill="white"/>
</clipPath>
</defs>
</svg>
