<svg width="20" height="20" viewBox="0 0 20 20" fill="none" xmlns="http://www.w3.org/2000/svg">
<path d="M19.1814 1.09871L19.1814 1.0987C19.4058 1.02394 19.6525 1.06156 19.8444 1.19988M19.1814 1.09871L19.7567 1.32156M19.1814 1.09871C17.1724 1.76833 15.7144 3.44359 15.2896 5.45506C13.8149 4.10829 11.9158 3.40469 10 3.40469C8.57514 3.40469 7.20287 3.78156 6.00938 4.48576V4.48379V4.47887V4.47393V4.46895V4.46394V4.4589V4.45382V4.44872V4.44358V4.43841V4.43321V4.42798V4.42272V4.41743V4.41211V4.40676V4.40137V4.39596V4.39052V4.38505V4.37955V4.37403V4.36847V4.36289V4.35727V4.35163V4.34596V4.34026V4.33454V4.32879V4.32301V4.3172V4.31137V4.30551V4.29962V4.2937V4.28777V4.2818V4.27581V4.26979V4.26375V4.25768V4.25159V4.24547V4.23933V4.23316V4.22697V4.22076V4.21452V4.20825V4.20197V4.19566V4.18932V4.18297V4.17659V4.17019V4.16376V4.15732V4.15085V4.14436V4.13784V4.13131V4.12475V4.11818V4.11158V4.10496V4.09832V4.09166V4.08498V4.07828V4.07156V4.06482V4.05807V4.05129V4.04449V4.03767V4.03084V4.02398V4.01711V4.01022V4.00331V3.99639V3.98944V3.98248V3.9755V3.9685V3.96149V3.95446V3.94741V3.94035V3.93327V3.92618V3.91907V3.91194V3.9048V3.89764V3.89047V3.88328V3.87608V3.86886V3.86163V3.85438V3.84712V3.83985V3.83256V3.82526V3.81795V3.81062V3.80328V3.79593V3.78856V3.78119V3.7738V3.76639V3.75898V3.75156V3.74412V3.73667V3.72921V3.72174V3.71426V3.70677V3.69927V3.69176V3.68424V3.67671V3.66917V3.66162V3.65406V3.64649V3.63891V3.63132V3.62373V3.61613V3.60852V3.6009V3.59327V3.58564V3.578V3.57035V3.56269V3.55503V3.54736V3.53968V3.532V3.52431V3.51662V3.50892V3.50121V3.4935V3.48579V3.47807V3.47034V3.46261V3.45487V3.44714V3.43939V3.43165V3.42389V3.41614V3.40838V3.40062V3.39286V3.38509V3.37732V3.36955V3.36178V3.354V3.34622V3.33844V3.33066V3.32288V3.3151V3.30731V3.29953V3.29174V3.28396V3.27617V3.26839V3.2606V3.25281V3.24503V3.23724V3.22946V3.22168V3.2139V3.20612V3.19834V3.19056V3.18279V3.17502V3.16725V3.15948V3.15171V3.14395V3.13619V3.12844V3.12069V3.11294V3.1052V3.09746V3.08972V3.08199V3.07426V3.06654V3.05882V3.05111V3.0434V3.0357V3.02801V3.02032V3.01263V3.00495V2.99728V2.98962V2.98196V2.97431V2.96667V2.95903V2.9514V2.94378V2.93617V2.92856V2.92097V2.91338V2.9058V2.89823V2.89067V2.88311V2.87557V2.86804V2.86051V2.853V2.84549V2.838V2.83052V2.82304V2.81558V2.80813V2.80069V2.79326V2.78585V2.77844V2.77105V2.76367V2.7563V2.74894V2.7416V2.73427V2.72695V2.71965V2.71236V2.70508V2.69782V2.69057V2.68333V2.67611V2.6689V2.66171V2.65454V2.64737V2.64023V2.6331V2.62598V2.61888V2.6118V2.60473V2.59768V2.59065V2.58363V2.57663V2.56964V2.56268V2.55573V2.5488V2.54188V2.53499V2.52811V2.52125V2.51441V2.50759V2.50079V2.494V2.48724V2.48049V2.47377V2.46706V2.46038V2.45371V2.44707V2.44044V2.43384V2.42726V2.4207V2.41416V2.40764V2.40114V2.39467V2.38822V2.38178V2.37538V2.36899V2.36263V2.35629V2.34997V2.34368V2.33741V2.33117V2.32494V2.31875V2.31257V2.30642V2.3003V2.2942V2.28813V2.28208V2.27605V2.27005V2.26408V2.25813V2.25221V2.24632V2.24045V2.23461V2.2288V2.22301V2.21725V2.21152V2.20581V2.20013V2.19449V2.18886V2.18327V2.17771V2.17217V2.16667V2.16119V2.15574V2.15032V2.14493V2.13957V2.13424V2.12894V2.12367V2.11843V2.11323V2.10805V2.1029V2.09779V2.09271V2.08766V2.08264V2.07765V2.07269V2.06777V2.06288V2.05802V2.0532V2.04841V2.04365V2.03892V2.03423V2.02957V2.02495V2.02036V2.01581V2.01129V2.0068V2.00235V1.99794V1.99356V1.98921V1.9849V1.98063V1.97639V1.97219V1.96803V1.9639V1.95981V1.95576V1.95174V1.94776V1.94382V1.93992V1.93605V1.93222V1.92843V1.92468V1.92097V1.91729V1.91366V1.91006V1.90651V1.90299V1.89951V1.89608V1.89268V1.88932V1.88601V1.88273V1.8795V1.8763V1.87315V1.87004V1.86697V1.86394V1.86096V1.85801V1.85511V1.85225V1.84944V1.84667V1.84394V1.84125V1.8386V1.836V1.83345V1.83094V1.82847V1.82605V1.82367V1.82133V1.81904V1.8168V1.8146V1.81245V1.81034V1.80828V1.80626V1.80429V1.80237V1.80049V1.79866V1.79688C6.00938 1.39044 5.67987 1.06094 5.27344 1.06094C4.867 1.06094 4.5375 1.39044 4.5375 1.79688V4.14062C4.5375 4.38087 4.34181 4.57656 4.10156 4.57656H3.66563V1.79688C3.66563 1.39044 3.33612 1.06094 2.92969 1.06094C2.52325 1.06094 2.19375 1.39044 2.19375 1.79688V4.57656H1.75781C1.51757 4.57656 1.32187 4.38087 1.32187 4.14062V4.13895V4.13723V4.13549V4.13371V4.13189V4.13005V4.12817V4.12625V4.12431V4.12233V4.12031V4.11827V4.11619V4.11408V4.11194V4.10976V4.10756V4.10532V4.10305V4.10075V4.09841V4.09605V4.09365V4.09123V4.08877V4.08628V4.08376V4.08121V4.07863V4.07602V4.07338V4.07071V4.06801V4.06528V4.06252V4.05973V4.05691V4.05407V4.05119V4.04828V4.04535V4.04239V4.03939V4.03637V4.03333V4.03025V4.02714V4.02401V4.02085V4.01766V4.01445V4.01121V4.00794V4.00464V4.00132V3.99797V3.99459V3.99118V3.98775V3.9843V3.98082V3.97731V3.97377V3.97021V3.96663V3.96302V3.95938V3.95572V3.95203V3.94832V3.94458V3.94082V3.93704V3.93323V3.92939V3.92553V3.92165V3.91774V3.91381V3.90986V3.90588V3.90188V3.89786V3.89381V3.88974V3.88565V3.88153V3.87739V3.87323V3.86905V3.86485V3.86062V3.85637V3.8521V3.84781V3.8435V3.83916V3.83481V3.83043V3.82603V3.82161V3.81717V3.81271V3.80823V3.80373V3.79921V3.79467V3.79011V3.78553V3.78093V3.77631V3.77167V3.76701V3.76234V3.75764V3.75292V3.74819V3.74344V3.73867V3.73388V3.72907V3.72425V3.71941V3.71454V3.70967V3.70477V3.69986V3.69493V3.68998V3.68502V3.68004V3.67504V3.67002V3.66499V3.65995V3.65488V3.6498V3.64471V3.6396V3.63447V3.62933V3.62417V3.619V3.61381V3.60861V3.60339V3.59816V3.59292V3.58766V3.58238V3.57709V3.57179V3.56647V3.56114V3.5558V3.55044V3.54507V3.53968V3.53428V3.52887V3.52345V3.51801V3.51257V3.5071V3.50163V3.49615V3.49065V3.48514V3.47962V3.47409V3.46854V3.46299V3.45742V3.45184V3.44625V3.44065V3.43504V3.42942V3.42379V3.41815V3.4125V3.40684V3.40116V3.39548V3.38979V3.38409V3.37838V3.37266V3.36694V3.3612V3.35545V3.3497V3.34394V3.33816V3.33238V3.3266V3.3208V3.315V3.30919V3.30337V3.29754V3.29171V3.28586V3.28002V3.27416V3.2683V3.26243V3.25656V3.25067V3.24479V3.23889V3.23299V3.22709V3.22117V3.21526V3.20933V3.20341V3.19747V3.19153V3.18559V3.17964V3.17369V3.16773V3.16177V3.1558V3.14983V3.14386V3.13788V3.1319V3.12591V3.11992V3.11393V3.10794V3.10194V3.09594V3.08993V3.08392V3.07791V3.0719V3.06589V3.05987V3.05385V3.04783V3.04181V3.03579V3.02976V3.02373V3.0177V3.01168V3.00565V2.99961V2.99358V2.98755V2.98152V2.97549V2.96945V2.96342V2.95739V2.95135V2.94532V2.93929V2.93326V2.92723V2.9212V2.91517V2.90914V2.90312V2.89709V2.89107V2.88505V2.87903V2.87301V2.867V2.86099V2.85497V2.84897V2.84296V2.83696V2.83096V2.82496V2.81897V2.81298V2.80699V2.80101V2.79503V2.78905V2.78308V2.77711V2.77115V2.76519V2.75924V2.75329V2.74734V2.7414V2.73547V2.72954V2.72361V2.71769V2.71178V2.70587V2.69997V2.69407V2.68818V2.6823V2.67642V2.67055V2.66469V2.65883V2.65298V2.64714V2.6413V2.63547V2.62965V2.62384V2.61803V2.61223V2.60644V2.60066V2.59489V2.58912V2.58336V2.57761V2.57187V2.56614V2.56042V2.55471V2.54901V2.54331V2.53763V2.53195V2.52629V2.52063V2.51499V2.50935V2.50373V2.49812V2.49251V2.48692V2.48134V2.47577V2.47021V2.46466V2.45913V2.4536V2.44809V2.44259V2.4371V2.43162V2.42616V2.4207V2.41526V2.40984V2.40442V2.39902V2.39363V2.38825V2.38289V2.37754V2.37221V2.36689V2.36158V2.35629V2.35101V2.34574V2.34049V2.33525V2.33003V2.32482V2.31963V2.31445V2.30929V2.30415V2.29901V2.2939V2.2888V2.28371V2.27865V2.27359V2.26856V2.26354V2.25854V2.25355V2.24858V2.24363V2.23869V2.23377V2.22887V2.22399V2.21912V2.21427V2.20944V2.20463V2.19983V2.19506V2.1903V2.18556V2.18084V2.17614V2.17145V2.16679V2.16215V2.15752V2.15291V2.14833V2.14376V2.13921V2.13469V2.13018V2.12569V2.12122V2.11678V2.11235V2.10795V2.10356V2.0992V2.09486V2.09054V2.08624V2.08196V2.07771V2.07347V2.06926V2.06507V2.06091V2.05676V2.05264V2.04854V2.04446V2.04041V2.03638V2.03237V2.02838V2.02442V2.02048V2.01657V2.01268V2.00881V2.00497V2.00115V1.99736V1.99359V1.98984V1.98613V1.98243V1.97876V1.97512V1.9715V1.9679V1.96433V1.96079V1.95727V1.95378V1.95032V1.94688V1.94347V1.94008V1.93672V1.93339V1.93009V1.92681V1.92356V1.92033V1.91713V1.91397V1.91082V1.90771V1.90463V1.90157V1.89854V1.89554V1.89257V1.88962V1.88671V1.88382V1.88096V1.87814V1.87534V1.87257V1.86983V1.86712V1.86444V1.86179V1.85917V1.85658V1.85402V1.85149V1.84899V1.84652V1.84409V1.84168V1.83931V1.83696V1.83465V1.83237V1.83012V1.82791V1.82572V1.82357V1.82145V1.81936V1.8173V1.81528V1.81329V1.81133V1.80941V1.80752V1.80566V1.80384V1.80205V1.80029V1.79856V1.79688C1.32187 1.39044 0.992374 1.06094 0.585938 1.06094C0.179501 1.06094 -0.15 1.39044 -0.15 1.79688V5.3125C-0.15 6.25949 0.290174 7.15075 1.02188 7.72995V17.0312C1.02188 18.0833 1.87759 18.9391 2.92969 18.9391C3.98179 18.9391 4.8375 18.0833 4.8375 17.0312V17.0021M19.1814 1.09871L4.8375 17.0021M19.8444 1.19988L19.7567 1.32156M19.8444 1.19988C19.8444 1.19987 19.8444 1.19987 19.8444 1.19987L19.7567 1.32156M19.8444 1.19988C20.0363 1.3382 20.15 1.56032 20.15 1.79688V17.0312C20.15 18.0833 19.2943 18.9391 18.2422 18.9391C17.1901 18.9391 16.3344 18.0833 16.3344 17.0312V15.7079M19.7567 1.32156C19.9095 1.43168 20 1.60852 20 1.79688V17.0312C20 18.0005 19.2114 18.7891 18.2422 18.7891C17.2729 18.7891 16.4844 18.0005 16.4844 17.0312V15.4936C16.4354 15.5661 16.3854 15.6375 16.3344 15.7079M16.3344 15.7079C14.8454 17.7613 12.4688 18.9391 10 18.9391C8.12969 18.9391 6.28771 18.2697 4.8375 17.0021M16.3344 15.7079V15.4475C14.8839 17.5678 12.4897 18.7891 10 18.7891C8.12267 18.7891 6.27454 18.1015 4.8375 16.8014V17.0021M2.92969 17.4672C2.68944 17.4672 2.49375 17.2715 2.49375 17.0312V7.3427C2.49375 7.08002 2.35373 6.83721 2.12632 6.70567C1.84956 6.54557 1.6315 6.30818 1.49269 6.02993C1.57934 6.04211 1.66785 6.04844 1.75781 6.04844H4.10156C4.19154 6.04844 4.28006 6.04211 4.36673 6.02993C4.22791 6.30818 4.00985 6.54556 3.73309 6.70567C3.50564 6.83721 3.36562 7.08002 3.36562 7.3427V17.0312C3.36562 17.2715 3.16993 17.4672 2.92969 17.4672ZM10 17.4672C7.93449 17.4672 6.02141 16.4849 4.8375 14.8301V7.72994C5.26105 7.39463 5.58656 6.95487 5.78584 6.46059C6.92596 5.45269 8.45248 4.87656 10 4.87656C12.0655 4.87656 13.9786 5.85882 15.1625 7.5136V12.3438C15.1625 12.7503 15.4921 13.0793 15.8984 13.0793H16.0379C15.2146 15.6318 12.7589 17.4672 10 17.4672ZM18.6781 17.0312C18.6781 17.2715 18.4824 17.4672 18.2422 17.4672C18.0019 17.4672 17.8062 17.2715 17.8062 17.0312V12.3438C17.8062 11.9373 17.4767 11.6078 17.0703 11.6078H16.6344V11.6043V11.5979V11.5915V11.585V11.5785V11.5719V11.5653V11.5586V11.5518V11.545V11.5381V11.5312V11.5242V11.5172V11.5101V11.5029V11.4957V11.4885V11.4812V11.4738V11.4664V11.4589V11.4514V11.4439V11.4362V11.4286V11.4208V11.4131V11.4052V11.3973V11.3894V11.3814V11.3734V11.3653V11.3572V11.349V11.3408V11.3325V11.3242V11.3158V11.3074V11.2989V11.2904V11.2819V11.2733V11.2646V11.2559V11.2472V11.2384V11.2295V11.2206V11.2117V11.2027V11.1937V11.1847V11.1756V11.1664V11.1572V11.148V11.1387V11.1294V11.12V11.1106V11.1012V11.0917V11.0821V11.0726V11.063V11.0533V11.0436V11.0339V11.0241V11.0143V11.0044V10.9945V10.9846V10.9746V10.9646V10.9546V10.9445V10.9344V10.9242V10.914V10.9038V10.8935V10.8832V10.8729V10.8625V10.8521V10.8417V10.8312V10.8207V10.8101V10.7996V10.7889V10.7783V10.7676V10.7569V10.7461V10.7354V10.7245V10.7137V10.7028V10.6919V10.681V10.67V10.659V10.648V10.6369V10.6258V10.6147V10.6036V10.5924V10.5812V10.5699V10.5587V10.5474V10.536V10.5247V10.5133V10.5019V10.4905V10.479V10.4676V10.456V10.4445V10.433V10.4214V10.4098V10.3981V10.3865V10.3748V10.3631V10.3514V10.3396V10.3278V10.316V10.3042V10.2924V10.2805V10.2686V10.2567V10.2448V10.2328V10.2209V10.2089V10.1968V10.1848V10.1728V10.1607V10.1486V10.1365V10.1244V10.1122V10.1001V10.0879V10.0757V10.0635V10.0512V10.039V10.0267V10.0144V10.0021V9.9898V9.97747V9.96512V9.95276V9.94039V9.928V9.91559V9.90317V9.89074V9.87829V9.86584V9.85336V9.84088V9.82838V9.81587V9.80335V9.79082V9.77828V9.76572V9.75316V9.74058V9.728V9.7154V9.70279V9.69018V9.67755V9.66492V9.65228V9.63963V9.62697V9.6143V9.60163V9.58894V9.57625V9.56356V9.55086V9.53815V9.52543V9.51271V9.49998V9.48725V9.47452V9.46177V9.44903V9.43628V9.42352V9.41076V9.398V9.38524V9.37247V9.3597V9.34693V9.33415V9.32137V9.3086V9.29582V9.28303V9.27025V9.25747V9.24469V9.2319V9.21912V9.20634V9.19355V9.18077V9.16799V9.15521V9.14244V9.12966V9.11689V9.10412V9.09135V9.07859V9.06583V9.05307V9.04032V9.02757V9.01482V9.00208V8.98935V8.97662V8.96389V8.95117V8.93846V8.92575V8.91305V8.90036V8.88767V8.87499V8.86232V8.84965V8.83699V8.82435V8.81171V8.79907V8.78645V8.77384V8.76124V8.74864V8.73606V8.72349V8.71092V8.69837V8.68583V8.6733V8.66078V8.64828V8.63579V8.6233V8.61084V8.59838V8.58594V8.57351V8.5611V8.54869V8.53631V8.52394V8.51158V8.49924V8.48691V8.4746V8.4623V8.45002V8.43776V8.42551V8.41328V8.40107V8.38888V8.3767V8.36454V8.3524V8.34027V8.32817V8.31608V8.30402V8.29197V8.27994V8.26794V8.25595V8.24398V8.23204V8.22011V8.20821V8.19633V8.18447V8.17263V8.16082V8.14903V8.13726V8.12551V8.11379V8.10209V8.09041V8.07876V8.06713V8.05553V8.04395V8.0324V8.02087V8.00937V7.9979V7.98645V7.97503V7.96363V7.95227V7.94092V7.92961V7.91833V7.90707V7.89584V7.88464V7.87347V7.86232V7.85121V7.84013V7.82908V7.81805V7.80706V7.7961V7.78517V7.77427V7.7634V7.75256V7.74176V7.73098V7.72024V7.70954V7.69886V7.68822V7.67762V7.66704V7.6565V7.646V7.63553V7.62509V7.61469V7.60433V7.594V7.5837V7.57345V7.56323V7.55304V7.5429V7.53279V7.52271V7.51268V7.50268V7.49273V7.48281V7.47293V7.46308V7.45328V7.44352V7.43379V7.42411V7.41447V7.40487V7.39531V7.38579V7.37631V7.36687V7.35748V7.34812V7.33881V7.32955V7.32032V7.31114V7.302V7.29291V7.28386V7.27485V7.26589V7.25697V7.2481V7.23928V7.2305V7.22176V7.21307V7.20443V7.19584V7.18729V7.17878V7.17033V7.16192V7.15357V7.14526V7.13699V7.12878V7.12062V7.1125V7.10444V7.09642V7.08845V7.08054V7.07267V7.06486V7.0571V7.04938V7.04172V7.03412V7.02656V7.01906V7.0116V7.00421V6.99686V6.98957V6.98233V6.97515V6.96802V6.96094V6.95392V6.94696V6.94004V6.93319V6.92639V6.91965V6.91296V6.90633V6.89976V6.89324V6.88678V6.88038V6.87403V6.86775V6.86152V6.85535V6.84924V6.84319V6.8372V6.83127V6.8254V6.81959V6.81384V6.80815V6.80252V6.79695V6.79144V6.786V6.78061V6.77529V6.77004V6.76484V6.75971V6.75464V6.74964V6.74469V6.73982V6.735V6.73026V6.72557V6.72095V6.7164V6.71192V6.70749V6.70314V6.69885V6.69463V6.69047V6.68639V6.68237V6.67842V6.67453C16.6344 5.14002 17.4245 3.74905 18.6781 2.95457V17.0312Z" fill="#363B40" stroke="#363B40" stroke-width="0.3"/>
<path d="M10 6.92031C7.63538 6.92031 5.70937 8.82609 5.70937 11.1719C5.70937 13.5177 7.63538 15.4234 10 15.4234C12.3646 15.4234 14.2906 13.5177 14.2906 11.1719C14.2906 8.82609 12.3646 6.92031 10 6.92031ZM10 13.9516C8.44401 13.9516 7.18125 12.7026 7.18125 11.1719C7.18125 9.64116 8.44401 8.39219 10 8.39219C11.556 8.39219 12.8187 9.64116 12.8187 11.1719C12.8187 12.7026 11.556 13.9516 10 13.9516Z" fill="#363B40" stroke="#363B40" stroke-width="0.3"/>
</svg>
