<svg width="13" height="13" viewBox="0 0 13 13" fill="none" xmlns="http://www.w3.org/2000/svg">
<g clip-path="url(#clip0)">
<path d="M11.6647 3.3751L8.40112 0.111566C8.3297 0.0401426 8.23283 0 8.13183 0H2.6246C1.85224 0 1.22388 0.628367 1.22388 1.40072V11.5993C1.22388 12.3716 1.85224 13 2.62458 13H10.3755C11.1479 13 11.7762 12.3716 11.7762 11.5993V3.64439C11.7762 3.54339 11.7361 3.44652 11.6647 3.3751ZM8.51269 1.30033L10.4759 3.26353H9.15167C8.79935 3.26353 8.51269 2.97687 8.51269 2.62455V1.30033ZM10.3755 12.2383H2.62458C2.27226 12.2383 1.9856 11.9516 1.9856 11.5993V1.40072C1.9856 1.04838 2.27226 0.761719 2.62458 0.761719H7.75094V2.62455C7.75094 3.39688 8.37931 4.02525 9.15164 4.02525H11.0145V11.5993C11.0145 11.9516 10.7278 12.2383 10.3755 12.2383Z" fill="#90A8BE"/>
<path d="M9.76364 10.6064H3.23657C3.02624 10.6064 2.85571 10.777 2.85571 10.9873C2.85571 11.1976 3.02624 11.3682 3.23657 11.3682H9.76364C9.97397 11.3682 10.1445 11.1976 10.1445 10.9873C10.1445 10.777 9.97397 10.6064 9.76364 10.6064Z" fill="#90A8BE"/>
<path d="M9.76364 8.97461H3.23657C3.02624 8.97461 2.85571 9.14513 2.85571 9.35547C2.85571 9.56581 3.02624 9.73633 3.23657 9.73633H9.76364C9.97397 9.73633 10.1445 9.56581 10.1445 9.35547C10.1445 9.14513 9.97397 8.97461 9.76364 8.97461Z" fill="#90A8BE"/>
<path d="M9.76364 7.34277H3.23657C3.02624 7.34277 2.85571 7.5133 2.85571 7.72363C2.85571 7.93397 3.02624 8.10449 3.23657 8.10449H9.76364C9.97397 8.10449 10.1445 7.93397 10.1445 7.72363C10.1445 7.5133 9.97397 7.34277 9.76364 7.34277Z" fill="#90A8BE"/>
<path d="M3.23657 6.47266H8.13188C8.34222 6.47266 8.51274 6.30213 8.51274 6.0918C8.51274 5.88146 8.34222 5.71094 8.13188 5.71094H3.23657C3.02624 5.71094 2.85571 5.88146 2.85571 6.0918C2.85571 6.30213 3.02624 6.47266 3.23657 6.47266Z" fill="#90A8BE"/>
<path d="M3.23657 4.84119H5.6842C5.89454 4.84119 6.06506 4.67066 6.06506 4.46033V2.0127C6.06506 1.80236 5.89454 1.63184 5.6842 1.63184H3.23657C3.02624 1.63184 2.85571 1.80236 2.85571 2.0127V4.46033C2.85571 4.67066 3.02624 4.84119 3.23657 4.84119ZM3.61743 2.39355H5.30334V4.07947H3.61743V2.39355Z" fill="#90A8BE"/>
</g>
<defs>
<clipPath id="clip0">
<rect width="13" height="13" fill="white"/>
</clipPath>
</defs>
</svg>
