<svg width="20" height="20" viewBox="0 0 20 20" fill="none" xmlns="http://www.w3.org/2000/svg">
<circle cx="10" cy="10" r="10" fill="#FFC468"/>
<path fill-rule="evenodd" clip-rule="evenodd" d="M14.2712 9.26191C14.8082 8.71641 14.5122 7.76591 13.7697 7.65341L11.8826 7.36791C11.5876 7.32341 11.3326 7.13041 11.2011 6.85191L10.3571 5.07091C10.1911 4.72041 9.86814 4.54541 9.54564 4.54541C9.22263 4.54541 8.89963 4.72041 8.73363 5.07091L7.89013 6.85191C7.75813 7.13041 7.50312 7.32341 7.20862 7.36791L5.32161 7.65341C4.57911 7.76591 4.28261 8.71641 4.81961 9.26191L6.18512 10.6484C6.39862 10.8649 6.49612 11.1769 6.44562 11.4829L6.12312 13.4409C6.02262 14.0504 6.48762 14.5454 7.01512 14.5454C7.15412 14.5454 7.29812 14.5109 7.43662 14.4349L9.12413 13.5104C9.25613 13.4384 9.40063 13.4019 9.54564 13.4019C9.69014 13.4019 9.83464 13.4384 9.96664 13.5104L11.6546 14.4349C11.7931 14.5109 11.9366 14.5454 12.0756 14.5454C12.6032 14.5454 13.0682 14.0504 12.9677 13.4409L12.6457 11.4829C12.5952 11.1769 12.6922 10.8649 12.9057 10.6484L14.2712 9.26191Z" fill="#FFF2CF"/>
</svg>
