<svg width="29" height="14" viewBox="0 0 29 14" fill="none" xmlns="http://www.w3.org/2000/svg">
<path d="M28.1635 6.01494C28.1632 6.01462 28.1629 6.01424 28.1626 6.01391L22.4657 0.344579C22.039 -0.0801306 21.3487 -0.0785501 20.9239 0.348285C20.4991 0.775066 20.5007 1.46536 20.9275 1.89012L24.7523 5.69643H1.66301C1.06086 5.69643 0.572754 6.18453 0.572754 6.78668C0.572754 7.38883 1.06086 7.87694 1.66301 7.87694H24.7523L20.9276 11.6832C20.5008 12.108 20.4991 12.7983 20.9239 13.2251C21.3487 13.652 22.0391 13.6534 22.4658 13.2288L28.1626 7.55945C28.1629 7.55913 28.1632 7.55875 28.1636 7.55842C28.5906 7.13224 28.5892 6.43971 28.1635 6.01494Z" fill="#363B40"/>
</svg>
