<svg width="21" height="20" viewBox="0 0 21 20" fill="none" xmlns="http://www.w3.org/2000/svg">
<path fill-rule="evenodd" clip-rule="evenodd" d="M8.25287 14.5457C4.71596 14.5457 1.90491 11.7279 1.90491 8.18258C1.90491 4.63623 4.71596 1.81848 8.25287 1.81848C11.7898 1.81848 14.6008 4.63623 14.6008 8.18258C14.6008 11.7279 11.7898 14.5457 8.25287 14.5457ZM19.7712 18.4543L14.6009 13.2726C15.6902 11.909 16.415 10.0916 16.415 8.18255C16.415 3.63691 12.7877 0 8.25292 0C3.71808 0 0.0908203 3.63691 0.0908203 8.18255C0.0908203 12.7272 3.71808 16.3641 8.25292 16.3641C10.1574 16.3641 11.9715 15.7271 13.3319 14.5456L18.5012 19.7273C18.6829 19.9094 18.955 20 19.1357 20C19.3174 20 19.5895 19.9094 19.7712 19.7273C20.1336 19.364 20.1336 18.8186 19.7712 18.4543Z" fill="#444444"/>
</svg>
