<svg width="10" height="10" viewBox="0 0 10 10" fill="none" xmlns="http://www.w3.org/2000/svg">
<path fill-rule="evenodd" clip-rule="evenodd" d="M4.09027 7.27227C2.31758 7.27227 0.908683 5.8634 0.908683 4.09073C0.908683 2.31756 2.31758 0.908683 4.09027 0.908683C5.86296 0.908683 7.27185 2.31756 7.27185 4.09073C7.27185 5.8634 5.86296 7.27227 4.09027 7.27227ZM9.86376 9.22713L7.27241 6.63631C7.81835 5.95451 8.18165 5.04579 8.18165 4.09128C8.18165 1.81846 6.36367 0 4.09082 0C1.81798 0 0 1.81846 0 4.09128C0 6.36359 1.81798 8.18205 4.09082 8.18205C5.04535 8.18205 5.95459 7.86354 6.63639 7.27282L9.22725 9.86364C9.31832 9.95471 9.45468 10 9.54525 10C9.63633 10 9.77269 9.95471 9.86376 9.86364C10.0454 9.682 10.0454 9.40928 9.86376 9.22713Z" fill="#90A8BE"/>
</svg>
