<svg width="16" height="16" viewBox="0 0 16 16" fill="none" xmlns="http://www.w3.org/2000/svg">
<path fill-rule="evenodd" clip-rule="evenodd" d="M6.24 1.56C3.65531 1.56 1.56 3.65531 1.56 6.24C1.56 8.82469 3.65531 10.92 6.24 10.92C8.82469 10.92 10.92 8.82469 10.92 6.24C10.92 3.65531 8.82469 1.56 6.24 1.56ZM0 6.24C0 2.79374 2.79374 0 6.24 0C9.68626 0 12.48 2.79374 12.48 6.24C12.48 9.68626 9.68626 12.48 6.24 12.48C2.79374 12.48 0 9.68626 0 6.24Z" fill="#707C97"/>
<path fill-rule="evenodd" clip-rule="evenodd" d="M9.58846 9.58846C9.89307 9.28385 10.3869 9.28385 10.6915 9.58846L15.3715 14.2685C15.6762 14.5731 15.6762 15.0669 15.3715 15.3715C15.0669 15.6762 14.5731 15.6762 14.2685 15.3715L9.58846 10.6915C9.28385 10.3869 9.28385 9.89307 9.58846 9.58846Z" fill="#707C97"/>
</svg>
