<svg width="20" height="21" viewBox="0 0 20 21" fill="none" xmlns="http://www.w3.org/2000/svg">
<g id="Icon/Fill/navigation-2" filter="url(#filter0_dd)">
<path id="Mask" fill-rule="evenodd" clip-rule="evenodd" d="M11.5862 17.0414C11.57 17.0414 11.5545 17.0406 11.539 17.0399C11.1888 17.0189 10.8968 16.7649 10.8271 16.4209L9.63572 10.5593C9.57375 10.2541 9.33594 10.0163 9.03074 9.95436L3.16915 8.76221C2.82521 8.69327 2.57114 8.40124 2.55022 8.05111C2.52931 7.7002 2.74543 7.37951 3.07852 7.26951L15.4725 3.13844C15.7506 3.04393 16.0574 3.11675 16.265 3.32512C16.4726 3.53272 16.5446 3.83947 16.4524 4.11756L12.3206 16.5116C12.2152 16.8299 11.9178 17.0414 11.5862 17.0414Z" fill="#231F20"/>
<mask id="mask0" style="mask-type:alpha" maskUnits="userSpaceOnUse" x="2" y="3" width="15" height="15">
<path id="Mask_2" fill-rule="evenodd" clip-rule="evenodd" d="M11.5862 17.0414C11.57 17.0414 11.5545 17.0406 11.539 17.0399C11.1888 17.0189 10.8968 16.7649 10.8271 16.4209L9.63572 10.5593C9.57375 10.2541 9.33594 10.0163 9.03074 9.95436L3.16915 8.76221C2.82521 8.69327 2.57114 8.40124 2.55022 8.05111C2.52931 7.7002 2.74543 7.37951 3.07852 7.26951L15.4725 3.13844C15.7506 3.04393 16.0574 3.11675 16.265 3.32512C16.4726 3.53272 16.5446 3.83947 16.4524 4.11756L12.3206 16.5116C12.2152 16.8299 11.9178 17.0414 11.5862 17.0414Z" fill="white"/>
</mask>
<g mask="url(#mask0)">
<g id="&#240;&#159;&#142;&#168; Color">
<rect id="Base" x="1" width="18.591" height="18.591" fill="white"/>
</g>
</g>
</g>
<defs>
<filter id="filter0_dd" x="-1" y="-1" width="22.5918" height="22.5918" filterUnits="userSpaceOnUse" color-interpolation-filters="sRGB">
<feFlood flood-opacity="0" result="BackgroundImageFix"/>
<feColorMatrix in="SourceAlpha" type="matrix" values="0 0 0 0 0 0 0 0 0 0 0 0 0 0 0 0 0 0 127 0" result="hardAlpha"/>
<feOffset dy="1"/>
<feGaussianBlur stdDeviation="0.5"/>
<feColorMatrix type="matrix" values="0 0 0 0 0 0 0 0 0 0 0 0 0 0 0 0 0 0 0.03 0"/>
<feBlend mode="normal" in2="BackgroundImageFix" result="effect1_dropShadow"/>
<feColorMatrix in="SourceAlpha" type="matrix" values="0 0 0 0 0 0 0 0 0 0 0 0 0 0 0 0 0 0 127 0" result="hardAlpha"/>
<feOffset dy="1"/>
<feGaussianBlur stdDeviation="1"/>
<feColorMatrix type="matrix" values="0 0 0 0 0 0 0 0 0 0 0 0 0 0 0 0 0 0 0.03 0"/>
<feBlend mode="normal" in2="effect1_dropShadow" result="effect2_dropShadow"/>
<feBlend mode="normal" in="SourceGraphic" in2="effect2_dropShadow" result="shape"/>
</filter>
</defs>
</svg>
