<svg width="36" height="36" viewBox="0 0 36 36" fill="none" xmlns="http://www.w3.org/2000/svg">
<path d="M9.90395 12.0331H28.4389V10.8745C28.4389 9.91829 27.6557 9.13659 26.701 9.13659H19.051V8.12471C19.051 6.68491 17.88 5.51855 16.4448 5.51855H11.9957C11.3005 5.51855 10.6471 5.79041 10.1527 6.28479C9.65831 6.77916 9.38795 7.42794 9.38795 8.12471V9.13809H1.73794C0.781703 9.13659 0 9.91822 0 10.8745V26.3956L5.84261 14.559C6.55169 13.1176 8.30044 12.0331 9.90395 12.0331ZM11.126 8.12471C11.126 7.89453 11.2202 7.67667 11.3824 7.51295C11.5446 7.34608 11.764 7.25499 11.9942 7.25499H16.4433C16.9238 7.25499 17.3115 7.6443 17.3115 8.12471V9.13809H11.126V8.12471H11.126Z" fill="white"/>
<path d="M34.8677 13.7676H9.90308C8.94835 13.7676 7.81909 14.4689 7.40041 15.3248L0.686579 28.9255C0.263321 29.7798 0.700473 30.4812 1.6552 30.4812H26.6198C27.5746 30.4812 28.7054 29.7813 29.1256 28.9255L35.8379 15.3248C36.2596 14.4689 35.8255 13.7676 34.8677 13.7676Z" fill="white"/>
</svg>
