<svg width="25" height="24" viewBox="0 0 25 24" fill="none" xmlns="http://www.w3.org/2000/svg">
<path fill-rule="evenodd" clip-rule="evenodd" d="M19.228 14.25C17.9044 14.25 16.828 13.1736 16.828 11.85C16.828 10.5264 17.9044 9.44995 19.228 9.44995C20.5516 9.44995 21.628 10.5264 21.628 11.85C21.628 13.1736 20.5516 14.25 19.228 14.25ZM4.82786 21.6003C3.50426 21.6003 2.42786 20.5239 2.42786 19.2003C2.42786 17.8767 3.50426 16.8003 4.82786 16.8003C7.99946 16.8003 8.00066 21.6003 4.82786 21.6003ZM4.82786 7.19987C3.50426 7.19987 2.42786 6.12347 2.42786 4.79987C2.42786 3.47627 3.50426 2.39987 4.82786 2.39987C7.99946 2.39987 8.00066 7.19987 4.82786 7.19987ZM19.2283 7.05C17.7631 7.05 16.4683 7.7208 15.5875 8.7552L9.57912 5.286C9.88272 2.3028 7.55112 0 4.82832 0C2.17752 0 0.0283203 2.1492 0.0283203 4.8C0.0283203 7.4508 2.17752 9.6 4.82832 9.6C6.44472 9.6 7.86672 8.7948 8.73672 7.5708L14.5231 10.9116C14.3935 11.5644 14.3971 12.1932 14.5339 12.8448L8.59752 16.2612C7.71912 15.1356 6.36552 14.4 4.82832 14.4C2.17752 14.4 0.0283203 16.5492 0.0283203 19.2C0.0283203 21.8508 2.17752 24 4.82832 24C7.66272 24 10.0171 21.5136 9.55512 18.4788L15.6223 14.988C16.5019 15.9984 17.7835 16.65 19.2283 16.65C21.8791 16.65 24.0283 14.5008 24.0283 11.85C24.0283 9.1992 21.8791 7.05 19.2283 7.05Z" fill="#FFC468"/>
</svg>
