<svg width="15" height="8" viewBox="0 0 15 8" fill="none" xmlns="http://www.w3.org/2000/svg">
<path fill-rule="evenodd" clip-rule="evenodd" d="M1.73627 5.41238C1.6886 5.41238 1.64805 5.45258 1.64805 5.5007V7.10523C1.64805 7.15336 1.6886 7.19355 1.73627 7.19355H13.0856C13.1333 7.19355 13.1738 7.15336 13.1738 7.10523V5.5007C13.1738 5.45258 13.1333 5.41238 13.0856 5.41238H1.73627ZM13.0856 7.98023H1.73627C1.25298 7.98023 0.860107 7.58758 0.860107 7.10523V5.5007C0.860107 5.01836 1.25298 4.62598 1.73627 4.62598H13.0856C13.5689 4.62598 13.9618 5.01836 13.9618 5.5007V7.10523C13.9618 7.58758 13.5689 7.98023 13.0856 7.98023Z" fill="#90A8BE"/>
<path fill-rule="evenodd" clip-rule="evenodd" d="M3.86499 7.63012H4.65294V4.97559H3.86499V7.63012Z" fill="#90A8BE"/>
<path fill-rule="evenodd" clip-rule="evenodd" d="M13.7393 3.89938C13.5366 3.89938 13.3667 3.74133 13.3547 3.5368C13.3525 3.507 13.284 2.72715 12.444 2.50102C11.8604 2.34379 11.4182 1.93337 11.1654 1.31376C10.9881 0.87981 10.9662 0.496178 10.9643 0.453795C10.9547 0.241607 11.1193 0.0616854 11.3322 0.0521151C11.5443 0.0430917 11.7243 0.20606 11.7344 0.417701C11.7371 0.4661 11.8045 1.53169 12.6448 1.75809C13.753 2.05641 14.0971 3.02301 14.1245 3.49251C14.1369 3.70442 13.9747 3.88653 13.7621 3.89883C13.7544 3.89911 13.747 3.89938 13.7393 3.89938Z" fill="#90A8BE"/>
<path fill-rule="evenodd" clip-rule="evenodd" d="M11.426 3.89985C11.2233 3.89985 11.0534 3.74181 11.0414 3.53727C11.0392 3.50747 10.9707 2.72763 10.1307 2.50149C9.9252 2.44599 9.80356 2.23489 9.85918 2.02954C9.91452 1.82446 10.1263 1.70306 10.3315 1.75856C11.4397 2.05688 11.7838 3.02349 11.8112 3.49298C11.8236 3.70489 11.6614 3.887 11.4488 3.89931C11.4411 3.89958 11.4337 3.89985 11.426 3.89985Z" fill="#90A8BE"/>
</svg>
