<svg width="27" height="28" viewBox="0 0 27 28" fill="none" xmlns="http://www.w3.org/2000/svg">
<path fill-rule="evenodd" clip-rule="evenodd" d="M13.2504 16.627C11.7889 16.627 10.6003 15.4385 10.6003 13.977C10.6003 12.5154 11.7889 11.3269 13.2504 11.3269C14.7119 11.3269 15.9005 12.5154 15.9005 13.977C15.9005 15.4385 14.7119 16.627 13.2504 16.627ZM26.5008 12.6519V10.0018H23.8507V11.3269L22.5257 12.6519H18.3637C18.2471 12.204 18.0722 11.784 17.8496 11.3905L20.7461 8.6768H22.6197L23.5565 9.45327L25.4301 7.38488L23.5565 5.3165L22.6197 6.02672H21.2006V4.6076L21.9108 3.6708L19.9233 1.79719L17.831 3.6708L18.5505 4.6076V6.48121L15.7984 9.35654C15.4155 9.14454 15.0087 8.97625 14.5754 8.86363V4.70168L15.9005 3.37664H17.2255V0.726562H14.5754V2.0516L13.2504 3.37664L11.9254 2.0516V0.726562H9.27527V3.37664H10.6003L11.9254 4.70168V8.86363C11.4775 8.98023 11.0575 9.15514 10.6639 9.37774L7.95023 6.48121V4.6076L8.72671 3.6708L6.65832 1.79719L4.58993 3.6708L5.30016 4.6076V6.02672H3.88104L2.94424 5.3165L1.07063 7.30406L2.94424 9.39629L3.88104 8.6768H5.75464L8.62998 11.4289C8.41797 11.8118 8.24969 12.2186 8.13706 12.6519H3.97512L2.65008 11.3269V10.0018H0V12.6519H1.32504L2.65008 13.977L1.32504 15.302H0V17.9521H2.65008V16.627L3.97512 15.302H8.13706C8.25367 15.7499 8.42857 16.1699 8.65118 16.5634L5.75464 19.2771H3.88104L2.94424 18.5006L1.07063 20.569L2.94424 22.6374L3.88104 21.9272H5.30016V23.3463L4.58993 24.2831L6.57749 26.1567L8.66973 24.2831L7.95023 23.3463V21.4727L10.7023 18.5974C11.0853 18.8094 11.4921 18.9776 11.9254 19.0903V23.2522L10.6003 24.5773H9.27527V27.2273H11.9254V25.9023L13.2504 24.5773L14.5754 25.9023V27.2273H17.2255V24.5773H15.9005L14.5754 23.2522V19.0903C15.0233 18.9737 15.4433 18.7988 15.8369 18.5762L18.5505 21.4727V23.3463L17.7741 24.2831L19.8425 26.1567L21.9108 24.2831L21.2006 23.3463V21.9272H22.6197L23.5565 22.6374L25.4301 20.6498L23.5565 18.5576L22.6197 19.2771H20.7461L17.8708 16.525C18.0828 16.1421 18.2511 15.7353 18.3637 15.302H22.5257L23.8507 16.627V17.9521H26.5008V15.302H25.1757L23.8507 13.977L25.1757 12.6519H26.5008Z" fill="#363B40"/>
</svg>
