<svg width="27" height="20" viewBox="0 0 27 20" fill="none" xmlns="http://www.w3.org/2000/svg">
<path fill-rule="evenodd" clip-rule="evenodd" d="M13.5194 14.0569C14.108 14.0569 14.5862 13.5646 14.5862 12.9608C14.5862 12.3584 14.108 11.8695 13.5194 11.8695L8.68555 8.22656L12.4524 13.0312C12.4874 13.6031 12.9524 14.0569 13.5194 14.0569Z" fill="#363B40"/>
<rect x="7.73633" y="17.2852" width="10.655" height="2.5908" fill="#363B40"/>
<path fill-rule="evenodd" clip-rule="evenodd" d="M22.3007 3.92043C19.8332 1.39229 16.5527 0 13.0634 0C9.57407 0 6.2935 1.39229 3.82613 3.92043C1.35876 6.44858 0 9.80988 0 13.3852C0 15.6937 0.567613 17.9123 1.63334 19.8756H4.07495L5.86074 18.8191L5.07209 17.4193L2.77581 18.7779C1.96456 17.1595 1.50628 15.3262 1.50628 13.3852C1.50628 13.0417 1.52151 12.7017 1.54959 12.3655L4.28758 12.8602L4.56149 11.2685L1.79128 10.7681C2.28629 8.52862 3.40239 6.52815 4.94363 4.96723L6.82055 7.25921L8.02892 6.22034L6.13776 3.91107C7.8719 2.57682 9.98283 1.73061 12.2748 1.57166V4.63702H13.8521V1.57166C16.144 1.73074 18.255 2.57688 19.9892 3.91113L18.0979 6.22034L19.3063 7.25921L21.1832 4.96716C22.7244 6.52815 23.8405 8.52862 24.3355 10.768L21.5654 11.2686L21.8393 12.8601L24.5772 12.3654C24.6052 12.7017 24.6205 13.0416 24.6205 13.3851C24.6205 15.3262 24.1624 17.1595 23.351 18.7778L21.0547 17.4194L20.2661 18.8191L22.0518 19.8755H24.4935C25.5593 17.9122 26.1269 15.6936 26.1269 13.3851C26.1269 9.80982 24.768 6.44845 22.3007 3.92043Z" fill="#363B40"/>
</svg>
