<svg width="30" height="30" viewBox="0 0 30 30" fill="none" xmlns="http://www.w3.org/2000/svg">
<path d="M21.0936 6.86719H14.0195V22.461H21.0936V6.86719Z" fill="#363B40"/>
<path d="M23.9375 6.86719H22.5391V22.461H23.9375C24.7479 22.461 25.4047 21.8041 25.4047 20.9938V8.33446C25.4047 7.52416 24.7479 6.86719 23.9375 6.86719Z" fill="#363B40"/>
<path d="M16.0332 3.95026C16.0332 3.85067 16.1143 3.76956 16.2139 3.76956H18.899C18.9986 3.76956 19.0797 3.85067 19.0797 3.95026V5.42188H21.1451V3.95026C21.1451 2.71168 20.1376 1.7041 18.899 1.7041H16.2139C14.9753 1.7041 13.9678 2.71168 13.9678 3.95026V5.42188H16.0332V3.95026Z" fill="#363B40"/>
<path d="M12.5737 6.86719H11.1753C10.3649 6.86719 9.70801 7.52416 9.70801 8.33446V20.9937C9.70801 21.8041 10.365 22.4609 11.1753 22.4609H12.5737V6.86719Z" fill="#363B40"/>
<path d="M28.632 23.8555H10.138C8.69069 23.8555 7.51321 22.6781 7.51321 21.2307V4.6901C7.51321 2.10394 5.40917 0 2.82301 0H1.36856C0.798261 0 0.335938 0.462424 0.335938 1.03273C0.335938 1.60303 0.798261 2.06545 1.36856 2.06545H2.82291C4.27018 2.06545 5.44776 3.24283 5.44776 4.6902V21.2308C5.44776 23.817 7.5517 25.9209 10.1379 25.9209H28.6319C29.2022 25.9209 29.6646 25.4585 29.6646 24.8882C29.6646 24.3179 29.2023 23.8555 28.632 23.8555Z" fill="#363B40"/>
<path d="M9.88851 30.0007C10.8296 30.0007 11.5925 29.2378 11.5925 28.2967C11.5925 27.3557 10.8296 26.5928 9.88851 26.5928C8.94745 26.5928 8.18457 27.3557 8.18457 28.2967C8.18457 29.2378 8.94745 30.0007 9.88851 30.0007Z" fill="#363B40"/>
<path d="M25.2245 30.0007C26.1655 30.0007 26.9284 29.2378 26.9284 28.2967C26.9284 27.3557 26.1655 26.5928 25.2245 26.5928C24.2834 26.5928 23.5205 27.3557 23.5205 28.2967C23.5205 29.2378 24.2834 30.0007 25.2245 30.0007Z" fill="#363B40"/>
</svg>
