<svg width="20" height="20" viewBox="0 0 20 20" fill="none" xmlns="http://www.w3.org/2000/svg">
<g opacity="0.6" clip-path="url(#clip0)">
<path d="M12.5003 5.41602C12.0403 5.41602 11.667 5.04268 11.667 4.58268V3.33268H8.33366V4.58268C8.33366 5.04268 7.96033 5.41602 7.50033 5.41602C7.04033 5.41602 6.66699 5.04268 6.66699 4.58268V3.33268C6.66699 2.41352 7.41449 1.66602 8.33366 1.66602H11.667C12.5862 1.66602 13.3337 2.41352 13.3337 3.33268V4.58268C13.3337 5.04268 12.9603 5.41602 12.5003 5.41602Z" fill="black"/>
<path d="M10.5917 12.8169C10.4417 12.8753 10.225 12.9169 10 12.9169C9.775 12.9169 9.55833 12.8753 9.35833 12.8003L0 9.68359V16.0419C0 17.3086 1.025 18.3336 2.29167 18.3336H17.7083C18.975 18.3336 20 17.3086 20 16.0419V9.68359L10.5917 12.8169Z" fill="black"/>
<path d="M20 6.45768V8.36601L10.2 11.6327C10.1333 11.6577 10.0667 11.666 10 11.666C9.93333 11.666 9.86667 11.6577 9.8 11.6327L0 8.36601V6.45768C0 5.19102 1.025 4.16602 2.29167 4.16602H17.7083C18.975 4.16602 20 5.19102 20 6.45768Z" fill="black"/>
</g>
<defs>
<clipPath id="clip0">
<rect width="20" height="20" fill="white"/>
</clipPath>
</defs>
</svg>
