<svg width="18" height="18" viewBox="0 0 18 18" fill="none" xmlns="http://www.w3.org/2000/svg">
<g opacity="0.6" clip-path="url(#clip0)">
<path d="M1.35674 8.06198L2.61914 3.854C2.90698 2.89435 3.77325 2.25 4.77466 2.25H5.625V1.125C5.625 0.503655 6.12866 0 6.75 0H11.25C11.8713 0 12.375 0.503655 12.375 1.125V2.25H13.2253C14.2267 2.25 15.093 2.89435 15.3809 3.854L16.6433 8.06198C17.4404 8.40839 18 9.20167 18 10.125V14.625C18 15.2463 17.4963 15.75 16.875 15.75H16.8749L16.875 16.8749C16.875 17.4963 16.3713 18 15.75 18H14.6249C14.0037 18 13.4999 17.4963 13.4999 16.875L13.5004 15.75H4.5L4.50007 16.8749C4.50007 17.4963 3.99641 18 3.37507 18H2.25C1.62865 18 1.125 17.4963 1.125 16.875V15.7501L1.12541 15.75H1.125C0.503723 15.75 -1.90735e-06 15.2463 -1.90735e-06 14.625V10.125C-1.90735e-06 9.20166 0.559614 8.40838 1.35674 8.06197L1.35674 8.06198ZM13.2254 4.5H4.77469L3.76217 7.875H14.2379L13.2254 4.5H13.2254ZM13.5 12.9375C14.1214 12.9375 14.625 12.4338 14.625 11.8125C14.625 11.1912 14.1214 10.6875 13.5 10.6875C12.8787 10.6875 12.375 11.1912 12.375 11.8125C12.375 12.4338 12.8787 12.9375 13.5 12.9375ZM4.50004 12.9375C5.12138 12.9375 5.62504 12.4338 5.62504 11.8125C5.62504 11.1912 5.12138 10.6875 4.50004 10.6875C3.87869 10.6875 3.37504 11.1912 3.37504 11.8125C3.37504 12.4338 3.87869 12.9375 4.50004 12.9375Z" fill="black"/>
</g>
<defs>
<clipPath id="clip0">
<rect width="18" height="18" fill="white" transform="matrix(-1 0 0 1 18 0)"/>
</clipPath>
</defs>
</svg>
