<svg width="27" height="14" viewBox="0 0 27 14" fill="none" xmlns="http://www.w3.org/2000/svg">
<path fill-rule="evenodd" clip-rule="evenodd" d="M12.1879 13.1927H11.3257L11.0108 11.9345C10.9678 11.7618 10.8124 11.6406 10.6341 11.6406H2.3308C2.15242 11.6406 1.99709 11.7618 1.95371 11.9345L1.63881 13.1927H0.776933V10.0885H12.1879V13.1927ZM1.94218 6.20818H11.0227C11.6661 6.20818 12.1879 6.72939 12.1879 7.37242V9.31242H0.776933V7.37242C0.776933 6.72939 1.29873 6.20818 1.94218 6.20818ZM8.93457 5.43212H4.27298V4.26818C4.27298 3.62545 4.79478 3.10424 5.43822 3.10424H7.76902C8.41278 3.10424 8.93457 3.62545 8.93457 4.26818V5.43212ZM10.4884 5.43212H9.71151V4.26818C9.70999 3.19727 8.84144 2.32939 7.76902 2.32818H5.43822C4.36611 2.32939 3.49726 3.19727 3.49605 4.26818V5.43212H2.71911V1.94C2.71911 1.29727 3.24091 0.776061 3.88466 0.776061H9.08019C9.72394 0.776061 10.2457 1.29727 10.2457 1.94V5.43212H9.46881H10.4884ZM11.0227 5.43212V1.94C11.0212 0.869091 10.1526 0.00121212 9.08019 0H3.88466C2.81225 0.00121212 1.94339 0.869091 1.94218 1.94V5.43212C0.870067 5.43364 0.00121348 6.30121 0 7.37242V13.5806C0 13.7952 0.173831 13.9688 0.388315 13.9688H1.94218C2.12056 13.9688 2.27589 13.8476 2.31897 13.6748L2.63387 12.4167H10.3307L10.6456 13.6748C10.689 13.8476 10.8443 13.9688 11.0227 13.9688H12.5762C12.791 13.9688 12.9649 13.7952 12.9649 13.5806V7.37242C12.9636 6.30121 12.0948 5.43364 11.0227 5.43212Z" fill="#90A8BE"/>
<path fill-rule="evenodd" clip-rule="evenodd" d="M10.6338 8.53583H11.4107V7.75977H10.6338V8.53583Z" fill="#90A8BE"/>
<path fill-rule="evenodd" clip-rule="evenodd" d="M9.08008 8.53583H9.85701V7.75977H9.08008V8.53583Z" fill="#90A8BE"/>
<path fill-rule="evenodd" clip-rule="evenodd" d="M26.0512 13.1927H25.189L24.8741 11.9345C24.831 11.7618 24.6757 11.6406 24.4973 11.6406H16.1941C16.0157 11.6406 15.8604 11.7618 15.817 11.9345L15.5021 13.1927H14.6402V10.0885H26.0512V13.1927ZM15.8055 6.20818H24.886C25.5294 6.20818 26.0512 6.72939 26.0512 7.37242V9.31242H14.6402V7.37242C14.6402 6.72939 15.162 6.20818 15.8055 6.20818ZM22.7979 5.43212H18.1363V4.26818C18.1363 3.62545 18.6581 3.10424 19.3015 3.10424H21.6323C22.2761 3.10424 22.7979 3.62545 22.7979 4.26818V5.43212ZM24.3517 5.43212H23.5748V4.26818C23.5733 3.19727 22.7047 2.32939 21.6323 2.32818H19.3015C18.2294 2.32939 17.3605 3.19727 17.3593 4.26818V5.43212H16.5824V1.94C16.5824 1.29727 17.1042 0.776061 17.7479 0.776061H22.9435C23.5872 0.776061 24.109 1.29727 24.109 1.94V5.43212H23.3321H24.3517ZM24.886 5.43212V1.94C24.8844 0.869091 24.0159 0.00121212 22.9435 0H17.7479C16.6755 0.00121212 15.8067 0.869091 15.8055 1.94V5.43212C14.7333 5.43364 13.8645 6.30121 13.8633 7.37242V13.5806C13.8633 13.7952 14.0371 13.9688 14.2516 13.9688H15.8055C15.9838 13.9688 16.1392 13.8476 16.1822 13.6748L16.4971 12.4167H24.194L24.5089 13.6748C24.5522 13.8476 24.7076 13.9688 24.886 13.9688H26.4395C26.6543 13.9688 26.8281 13.7952 26.8281 13.5806V7.37242C26.8269 6.30121 25.9581 5.43364 24.886 5.43212Z" fill="#90A8BE"/>
<path fill-rule="evenodd" clip-rule="evenodd" d="M24.4971 8.53583H25.274V7.75977H24.4971V8.53583Z" fill="#90A8BE"/>
<path fill-rule="evenodd" clip-rule="evenodd" d="M22.9434 8.53583H23.7203V7.75977H22.9434V8.53583Z" fill="#90A8BE"/>
</svg>
