<svg width="25" height="25" viewBox="0 0 25 25" fill="none" xmlns="http://www.w3.org/2000/svg">
<path d="M24.4984 0H0.503314C0.225897 0 0.000976562 0.22492 0.000976562 0.502337V24.4977C0.000976562 24.7751 0.225897 25 0.503314 25H15.138C15.4154 25 15.6402 24.7751 15.6402 24.4977C15.6402 24.2202 15.4154 23.9953 15.138 23.9953H1.00565V12.2873H8.01223V17.103C8.01223 17.3804 8.23715 17.6053 8.51457 17.6053C8.79198 17.6053 9.0169 17.3804 9.0169 17.103V6.58507C9.0169 6.30766 8.79198 6.08274 8.51457 6.08274C8.23715 6.08274 8.01223 6.30766 8.01223 6.58507V11.2826H1.00565V1.00467H14.6357V7.29443C14.6357 7.57185 14.8606 7.79677 15.138 7.79677H20.4504C20.7278 7.79677 20.9526 7.57185 20.9526 7.29443C20.9526 7.01701 20.7278 6.79209 20.4504 6.79209H15.6402V1.00467H23.9962V16.6007H15.138C14.8606 16.6007 14.6357 16.8257 14.6357 17.1031C14.6357 17.3805 14.8606 17.6054 15.138 17.6054H23.9962V23.9955H20.4504C20.173 23.9955 19.9482 24.2205 19.9482 24.4979C19.9482 24.7753 20.173 25.0002 20.4504 25.0002H24.4984C24.7758 25.0002 25.0006 24.7753 25.0006 24.4979V0.502337C25.0008 0.22492 24.7759 0 24.4984 0Z" fill="#90A8BE"/>
</svg>
