<svg width="19" height="19" viewBox="0 0 19 19" fill="none" xmlns="http://www.w3.org/2000/svg">
<path fill-rule="evenodd" clip-rule="evenodd" d="M15.6714 16.6772H3.52784C2.87424 16.6772 2.3916 16.0314 2.63812 15.4375C3.78192 12.6913 6.46905 11.1181 9.59916 11.1181C12.7302 11.1181 15.4173 12.6913 16.5611 15.4375C16.8077 16.0314 16.325 16.6772 15.6714 16.6772ZM5.82124 5.55906C5.82124 3.51517 7.51663 1.85301 9.59928 1.85301C11.6829 1.85301 13.3773 3.51517 13.3773 5.55906C13.3773 7.60295 11.6829 9.26511 9.59928 9.26511C7.51663 9.26511 5.82124 7.60295 5.82124 5.55906ZM18.811 16.34C18.1244 13.2278 15.9766 10.931 13.1496 9.88865C14.6476 8.70549 15.5213 6.79224 15.2002 4.6974C14.828 2.26716 12.7671 0.322405 10.2793 0.0388922C6.84503 -0.353023 3.93216 2.26901 3.93216 5.55905C3.93216 7.31016 4.75955 8.87041 6.04975 9.88865C3.22189 10.931 1.07502 13.2278 0.387414 16.34C0.138063 17.4712 1.06746 18.5302 2.24715 18.5302H16.9513C18.1319 18.5302 19.0613 17.4712 18.811 16.34Z" fill="#90A8BE"/>
</svg>
