<svg width="10" height="11" viewBox="0 0 10 11" fill="none" xmlns="http://www.w3.org/2000/svg">
<path fill-rule="evenodd" clip-rule="evenodd" d="M2.48172 3.20194C2.48851 1.60565 3.58916 0.44935 5.10698 0.444165C6.67837 0.439721 7.76695 1.62417 7.75337 3.32639C7.74054 4.90935 6.61198 6.06194 5.09039 6.04861C3.54918 6.03454 2.47493 4.86268 2.48172 3.20194Z" fill="white"/>
<path fill-rule="evenodd" clip-rule="evenodd" d="M5.0448 10.3641C3.82496 10.3648 2.60437 10.3522 1.38452 10.3708C0.899454 10.3774 0.493594 10.2722 0.326121 9.79223C0.160156 9.3189 0.477752 9.00038 0.823261 8.76779C3.07586 7.24705 5.4733 6.90334 8.0201 7.9826C8.57835 8.2189 9.13508 8.46853 9.57866 8.90334C9.85477 9.17371 10.063 9.46334 9.88268 9.85594C9.71521 10.2189 9.41044 10.3708 8.99779 10.3678C7.68063 10.3574 6.36272 10.3641 5.0448 10.3641Z" fill="white"/>
</svg>
