<svg width="20" height="20" viewBox="0 0 20 20" fill="none" xmlns="http://www.w3.org/2000/svg">
<path fill-rule="evenodd" clip-rule="evenodd" d="M10 20C15.5228 20 20 15.5228 20 10C20 4.47715 15.5228 0 10 0C4.47715 0 0 4.47715 0 10C0 15.5228 4.47715 20 10 20Z" fill="#90A8BE"/>
<path fill-rule="evenodd" clip-rule="evenodd" d="M7.34622 7.20115C7.35289 5.60485 8.43363 4.44856 9.924 4.44337C11.467 4.43893 12.5359 5.62337 12.5225 7.32559C12.5099 8.90856 11.4018 10.0611 9.9077 10.0478C8.39437 10.0337 7.33956 8.86189 7.34622 7.20115Z" fill="white"/>
<path fill-rule="evenodd" clip-rule="evenodd" d="M9.86342 14.3633C8.66564 14.364 7.46712 14.3514 6.26934 14.37C5.79305 14.3766 5.39453 14.2714 5.23009 13.7914C5.06712 13.3181 5.37897 12.9996 5.71823 12.767C7.93009 11.2463 10.2842 10.9025 12.7849 11.9818C13.333 12.2181 13.8797 12.4677 14.3153 12.9026C14.5864 13.1729 14.7908 13.4626 14.6138 13.8551C14.4493 14.2181 14.1501 14.37 13.7449 14.367C12.4516 14.3566 11.1575 14.3633 9.86342 14.3633Z" fill="white"/>
</svg>
