<svg width="16" height="9" viewBox="0 0 16 9" fill="none" xmlns="http://www.w3.org/2000/svg">
<path d="M7.73647 0.428223C4.59078 0.428223 1.88401 2.11084 0.420898 4.67129C1.88401 7.23174 4.59078 8.91427 7.73647 8.91427C10.8822 8.91427 13.5889 7.23174 15.052 4.67129C13.5889 2.11084 10.8822 0.428223 7.73647 0.428223ZM7.73647 7.45116C5.5418 7.45116 3.49346 6.42703 2.17665 4.67129C3.49346 2.91555 5.5418 1.89134 7.73647 1.89134C9.93114 1.89134 11.9795 2.91555 13.2963 4.67129C11.9795 6.42703 9.93114 7.45116 7.73647 7.45116ZM9.19959 4.67129C9.19959 5.476 8.54119 6.13441 7.73647 6.13441C6.93176 6.13441 6.27336 5.476 6.27336 4.67129C6.27336 3.86658 6.93176 3.20818 7.73647 3.20818C8.54119 3.20818 9.19959 3.86658 9.19959 4.67129Z" fill="white" fill-opacity="0.5"/>
</svg>
