<svg width="14" height="14" viewBox="0 0 14 14" fill="none" xmlns="http://www.w3.org/2000/svg">
<path fill-rule="evenodd" clip-rule="evenodd" d="M13.7458 6.87291C13.7458 3.21157 10.5342 0 6.87291 0C3.21157 0 0 3.21157 0 6.87291C0 10.5342 3.21157 13.7458 6.87291 13.7458C10.5342 13.7458 13.7458 10.5342 13.7458 6.87291ZM6.87306 13.0068C3.60548 13.0068 0.73917 10.1404 0.73917 6.87287C0.73917 3.60529 3.60548 0.738979 6.87306 0.738979C10.1406 0.738979 13.0069 3.60529 13.0069 6.87287C13.0069 10.1404 10.1406 13.0068 6.87306 13.0068Z" fill="#F63730"/>
<path fill-rule="evenodd" clip-rule="evenodd" d="M11.0003 6.13516H8.69279C8.55625 5.64468 8.13915 5.25767 7.61052 5.13099V2.64048C7.61052 2.44746 7.44191 2.29102 7.23387 2.29102C7.02584 2.29102 6.85723 2.44746 6.85723 2.64048V5.13099C6.20811 5.28661 5.72729 5.83443 5.72729 6.48463C5.72729 7.25537 6.4032 7.8825 7.23387 7.8825C7.93464 7.8825 8.52506 7.43639 8.69279 6.8341H11.0003C11.2084 6.8341 11.377 6.67766 11.377 6.48463C11.377 6.29161 11.2084 6.13516 11.0003 6.13516ZM7.2342 7.18359C6.81886 7.18359 6.48091 6.87002 6.48091 6.48465C6.48091 6.09928 6.81886 5.78572 7.2342 5.78572C7.64954 5.78572 7.98749 6.09928 7.98749 6.48465C7.98749 6.87002 7.64954 7.18359 7.2342 7.18359Z" fill="#F63730"/>
</svg>
