<svg width="21" height="15" viewBox="0 0 21 15" fill="none" xmlns="http://www.w3.org/2000/svg">
<g opacity="0.6">
<path fill-rule="evenodd" clip-rule="evenodd" d="M8.99985 13.4852L10.4996 15.0002L11.9994 13.4852C11.171 12.6484 9.82823 12.6484 8.99985 13.4852ZM6.00015 10.455L7.49992 11.97C9.15349 10.2986 11.8454 10.2986 13.5001 11.97L14.9998 10.455C12.5147 7.94357 8.48527 7.94357 6.00015 10.455ZM0 4.39393L1.49977 5.90893C6.4626 0.895714 14.5374 0.895714 19.4992 5.90893L21 4.39393C15.2003 -1.46464 5.79863 -1.46464 0 4.39393ZM17.9997 7.42411L16.4999 8.93911C13.1917 5.59733 7.80888 5.59733 4.49963 8.93911L2.99985 7.42411C7.14173 3.24019 13.8578 3.24019 17.9997 7.42411Z" fill="black"/>
</g>
</svg>
