<svg width="20" height="14" viewBox="0 0 20 14" fill="none" xmlns="http://www.w3.org/2000/svg">
<path fill-rule="evenodd" clip-rule="evenodd" d="M8.57114 12.586L9.9995 14L11.4279 12.586C10.6389 11.805 9.36007 11.805 8.57114 12.586ZM5.71443 9.758L7.14279 11.172C8.71761 9.612 11.2814 9.612 12.8572 11.172L14.2856 9.758C11.9188 7.414 8.08122 7.414 5.71443 9.758ZM0 4.101L1.42835 5.515C6.15486 0.836 13.8451 0.836 18.5706 5.515L20 4.101C14.4765 -1.367 5.5225 -1.367 0 4.101ZM17.1423 6.929L15.7139 8.343C12.5633 5.224 7.43674 5.224 4.28506 8.343L2.85671 6.929C6.80135 3.024 13.1976 3.024 17.1423 6.929Z" fill="#363B40"/>
</svg>
