<svg width="24" height="15" viewBox="0 0 24 15" fill="none" xmlns="http://www.w3.org/2000/svg">
<path fill-rule="evenodd" clip-rule="evenodd" d="M10.2384 13.2947L11.8432 14.7249L13.448 13.2947C12.5616 12.5047 11.1248 12.5047 10.2384 13.2947ZM7.02881 10.4343L8.63363 11.8645C10.403 10.2866 13.2835 10.2866 15.054 11.8645L16.6588 10.4343C13.9997 8.06341 9.68799 8.06341 7.02881 10.4343ZM0.608398 4.71244L2.21321 6.14264C7.52363 1.41003 16.164 1.41003 21.4732 6.14264L23.0792 4.71244C16.8733 -0.81821 6.81315 -0.81821 0.608398 4.71244ZM19.8683 7.57285L18.2634 9.00306C14.7235 5.84832 8.96369 5.84832 5.42266 9.00306L3.81784 7.57285C8.24981 3.62311 15.4363 3.62311 19.8683 7.57285Z" fill="#90A8BE"/>
</svg>
