<svg width="20" height="20" viewBox="0 0 20 20" fill="none" xmlns="http://www.w3.org/2000/svg">
<path fill-rule="evenodd" clip-rule="evenodd" d="M10 12C8.897 12 8 11.103 8 10C8 8.897 8.897 8 10 8C11.103 8 12 8.897 12 10C12 11.103 11.103 12 10 12ZM20 9V7H18V8L17 9H13.859C13.771 8.662 13.639 8.345 13.471 8.048L15.657 6H17.071L17.778 6.586L19.192 5.025L17.778 3.464L17.071 4H16V2.929L16.536 2.222L15.036 0.808L13.457 2.222L14 2.929V4.343L11.923 6.513C11.634 6.353 11.327 6.226 11 6.141V3L12 2H13V0H11V1L10 2L9 1V0H7V2H8L9 3V6.141C8.662 6.229 8.345 6.361 8.048 6.529L6 4.343V2.929L6.586 2.222L5.025 0.808L3.464 2.222L4 2.929V4H2.929L2.222 3.464L0.808 4.964L2.222 6.543L2.929 6H4.343L6.513 8.077C6.353 8.366 6.226 8.673 6.141 9H3L2 8V7H0V9H1L2 10L1 11H0V13H2V12L3 11H6.141C6.229 11.338 6.361 11.655 6.529 11.952L4.343 14H2.929L2.222 13.414L0.808 14.975L2.222 16.536L2.929 16H4V17.071L3.464 17.778L4.964 19.192L6.543 17.778L6 17.071V15.657L8.077 13.487C8.366 13.647 8.673 13.774 9 13.859V17L8 18H7V20H9V19L10 18L11 19V20H13V18H12L11 17V13.859C11.338 13.771 11.655 13.639 11.952 13.471L14 15.657V17.071L13.414 17.778L14.975 19.192L16.536 17.778L16 17.071V16H17.071L17.778 16.536L19.192 15.036L17.778 13.457L17.071 14H15.657L13.487 11.923C13.647 11.634 13.774 11.327 13.859 11H17L18 12V13H20V11H19L18 10L19 9H20Z" fill="#363B40"/>
</svg>
