<svg width="33" height="33" viewBox="0 0 33 33" fill="none" xmlns="http://www.w3.org/2000/svg">
<path d="M17.875 23.375C17.875 24.1344 17.2594 24.75 16.5 24.75C15.7406 24.75 15.125 24.1344 15.125 23.375C15.125 22.6156 15.7406 22 16.5 22C17.2594 22 17.875 22.6156 17.875 23.375Z" fill="#90A8BE"/>
<path fill-rule="evenodd" clip-rule="evenodd" d="M16.5 8.25C17.2594 8.25 17.875 8.86561 17.875 9.625V17.875C17.875 18.6344 17.2594 19.25 16.5 19.25C15.7406 19.25 15.125 18.6344 15.125 17.875V9.625C15.125 8.86561 15.7406 8.25 16.5 8.25Z" fill="#90A8BE"/>
<path fill-rule="evenodd" clip-rule="evenodd" d="M16.5 5.5C10.4249 5.5 5.5 10.4249 5.5 16.5C5.5 22.5751 10.4249 27.5 16.5 27.5C22.5751 27.5 27.5 22.5751 27.5 16.5C27.5 10.4249 22.5751 5.5 16.5 5.5ZM2.75 16.5C2.75 8.90609 8.90609 2.75 16.5 2.75C24.0939 2.75 30.25 8.90609 30.25 16.5C30.25 24.0939 24.0939 30.25 16.5 30.25C8.90609 30.25 2.75 24.0939 2.75 16.5Z" fill="#90A8BE"/>
</svg>
