<svg width="5" height="17" viewBox="0 0 5 17" fill="none" xmlns="http://www.w3.org/2000/svg">
<path d="M2.71649 4.81189C3.79054 4.81189 4.66931 3.93312 4.66931 2.85907C4.66931 1.78502 3.79054 0.90625 2.71649 0.90625C1.64244 0.90625 0.763672 1.78502 0.763672 2.85907C0.763672 3.93312 1.64244 4.81189 2.71649 4.81189ZM2.71649 6.76471C1.64244 6.76471 0.763672 7.64348 0.763672 8.71753C0.763672 9.79158 1.64244 10.6704 2.71649 10.6704C3.79054 10.6704 4.66931 9.79158 4.66931 8.71753C4.66931 7.64348 3.79054 6.76471 2.71649 6.76471ZM2.71649 12.6232C1.64244 12.6232 0.763672 13.5019 0.763672 14.576C0.763672 15.65 1.64244 16.5288 2.71649 16.5288C3.79054 16.5288 4.66931 15.65 4.66931 14.576C4.66931 13.5019 3.79054 12.6232 2.71649 12.6232Z" fill="#C5C7CD"/>
</svg>
