<svg width="16" height="9" viewBox="0 0 16 9" fill="none" xmlns="http://www.w3.org/2000/svg">
<path d="M8 0.150391C4.775 0.150391 2 1.87543 0.5 4.50043C2 7.12543 4.775 8.85037 8 8.85037C11.225 8.85037 14 7.12543 15.5 4.50043C14 1.87543 11.225 0.150391 8 0.150391ZM8 7.35037C5.75 7.35037 3.65002 6.30043 2.30002 4.50043C3.65002 2.70043 5.75 1.65039 8 1.65039C10.25 1.65039 12.35 2.70043 13.7 4.50043C12.35 6.30043 10.25 7.35037 8 7.35037ZM9.5 4.50043C9.5 5.32543 8.825 6.00043 8 6.00043C7.175 6.00043 6.5 5.32543 6.5 4.50043C6.5 3.67543 7.175 3.00043 8 3.00043C8.825 3.00043 9.5 3.67543 9.5 4.50043Z" fill="white" fill-opacity="0.5"/>
</svg>
