<svg width="15" height="9" viewBox="0 0 15 9" fill="none" xmlns="http://www.w3.org/2000/svg">
<path opacity="0.5" d="M7.32308 0C4.17415 0 1.46462 1.68434 0 4.24742C1.46462 6.8105 4.17415 8.49475 7.32308 8.49475C10.472 8.49475 13.1815 6.8105 14.6462 4.24742C13.1815 1.68434 10.472 0 7.32308 0ZM7.32308 7.03014C5.12615 7.03014 3.07571 6.00496 1.75756 4.24742C3.07571 2.48988 5.12615 1.46462 7.32308 1.46462C9.52 1.46462 11.5704 2.48988 12.8886 4.24742C11.5704 6.00496 9.52 7.03014 7.32308 7.03014ZM8.78769 4.24742C8.78769 5.05296 8.12862 5.71204 7.32308 5.71204C6.51754 5.71204 5.85846 5.05296 5.85846 4.24742C5.85846 3.44188 6.51754 2.7828 7.32308 2.7828C8.12862 2.7828 8.78769 3.44188 8.78769 4.24742Z" fill="white"/>
</svg>
