<svg width="28" height="32" viewBox="0 0 28 32" fill="none" xmlns="http://www.w3.org/2000/svg">
<path fill-rule="evenodd" clip-rule="evenodd" d="M24.1818 3.83997H3.81818C1.65455 3.83997 0 5.50397 0 7.67997V28.16C0 30.336 1.65455 32 3.81818 32H24.1818C26.3455 32 28 30.336 28 28.16V7.67997C28 5.50397 26.3455 3.83997 24.1818 3.83997ZM25.4545 28.16C25.4545 28.928 24.9455 29.44 24.1818 29.44H3.81818C3.05455 29.44 2.54545 28.928 2.54545 28.16V7.67997C2.54545 6.91197 3.05455 6.39997 3.81818 6.39997H24.1818C24.9455 6.39997 25.4545 6.91197 25.4545 7.67997V28.16ZM19.0909 16.64H15.2727V12.8C15.2727 12.032 14.7636 11.52 14 11.52C13.2364 11.52 12.7273 12.032 12.7273 12.8V16.64H8.90909C8.14545 16.64 7.63636 17.152 7.63636 17.92C7.63636 18.688 8.14545 19.2 8.90909 19.2H12.7273V23.04C12.7273 23.808 13.2364 24.32 14 24.32C14.7636 24.32 15.2727 23.808 15.2727 23.04V19.2H19.0909C19.8545 19.2 20.3636 18.688 20.3636 17.92C20.3636 17.152 19.8545 16.64 19.0909 16.64Z" fill="#90A8BE"/>
<rect x="8.90918" width="2.54545" height="8.96" fill="#90A8BE"/>
<rect x="16.5454" width="2.54545" height="8.96" fill="#90A8BE"/>
</svg>
