<svg width="19" height="19" viewBox="0 0 19 19" fill="none" xmlns="http://www.w3.org/2000/svg">
<path d="M16.0053 18.0999C17.2238 18.0998 18.2134 17.1173 18.2134 15.905C18.2134 15.3195 17.9786 14.7616 17.5646 14.3502L17.5644 14.3501L15.074 11.8843C15.0475 11.8579 15.0209 11.8344 14.9946 11.8123C16.9095 8.2144 15.5583 3.74931 11.95 1.8029C8.31761 -0.156493 3.78117 1.17901 1.80877 4.78453C-0.163866 8.39047 1.18118 12.9074 4.81393 14.867C7.01581 16.0572 9.67058 16.07 11.8864 14.9056C11.9095 14.9326 11.9344 14.9604 11.9638 14.9896L14.4451 17.4551C14.4451 17.4551 14.4452 17.4551 14.4452 17.4552C14.8591 17.871 15.4205 18.1044 16.0053 18.0999ZM16.0053 18.0999C16.0052 18.0999 16.0051 18.0999 16.005 18.0999V17.9999L16.0058 18.0999C16.0057 18.0999 16.0055 18.0999 16.0053 18.0999ZM8.38456 2.30152H8.38442C5.03107 2.30152 2.3107 5.00361 2.3107 8.33712C2.3107 11.6706 5.03107 14.3727 8.38442 14.3727C11.7378 14.3727 14.4582 11.6706 14.4582 8.33712C14.4582 5.00791 11.7377 2.30596 8.38456 2.30152ZM8.83558 6.24216V6.14216H8.73558H8.03279H7.93279V6.24216V6.49752C7.53828 6.54678 7.23 6.88347 7.23 7.28962V7.98792C7.23 8.42782 7.59163 8.78623 8.03279 8.78623H8.63558V9.28453H7.33H7.23V9.38453V10.0828V10.1828H7.33H7.93279V10.432V10.532H8.03279H8.73558H8.83558V10.432V10.1766C9.2301 10.1274 9.53837 9.79069 9.53837 9.38453V8.68623C9.53837 8.24633 9.17674 7.88792 8.73558 7.88792H8.13279V7.38962H9.43837H9.53837V7.28962V6.59131V6.49131H9.43837H8.83558V6.24216ZM8.38441 5.09495H8.38416C6.58135 5.09495 5.1216 6.54446 5.1216 8.33733C5.1216 10.1302 6.58135 11.5797 8.38416 11.5797C10.187 11.5797 11.6467 10.1302 11.6467 8.33733C11.6467 6.54869 10.1869 5.09945 8.38441 5.09495ZM16.9229 16.8248L16.9226 16.8251C16.4167 17.3318 15.5926 17.3357 15.0828 16.8292L12.6665 14.4283C13.3853 13.9264 14.0092 13.3064 14.5142 12.5921L16.9228 14.9895L16.9231 14.9899C17.4328 15.4922 17.4367 16.3102 16.9314 16.8164L16.925 16.8228C16.9243 16.8234 16.9236 16.8241 16.9229 16.8248ZM8.38442 13.4744C5.52686 13.4744 3.21349 11.1749 3.21349 8.33712C3.21349 5.49934 5.52686 3.19983 8.38442 3.19983C11.242 3.19983 13.5554 5.49934 13.5554 8.33712C13.5554 11.1749 11.242 13.4744 8.38442 13.4744ZM8.38416 10.6814C7.08152 10.6814 6.02439 9.6301 6.02439 8.33733C6.02439 7.04456 7.08152 5.99326 8.38416 5.99326C9.68681 5.99326 10.7439 7.04456 10.7439 8.33733C10.7439 9.63446 9.6912 10.6814 8.38416 10.6814ZM1.80762 8.33712C1.80764 4.73122 4.75351 1.80324 8.38415 1.80324C12.0148 1.80324 14.9607 4.73123 14.9607 8.33714C14.9607 11.943 12.0148 14.871 8.38415 14.871C4.75361 14.871 1.812 11.9475 1.80762 8.33712ZM16.9442 16.808C16.9455 16.8071 16.9467 16.8064 16.9457 16.807L16.9442 16.808Z" fill="#90A8BE" stroke="#90A8BE" stroke-width="0.2"/>
</svg>
