<?xml version="1.0" encoding="utf-8"?>
<!-- Generator: Adobe Illustrator 16.0.0, SVG Export Plug-In . SVG Version: 6.00 Build 0)  -->
<!DOCTYPE svg PUBLIC "-//W3C//DTD SVG 1.1//EN" "http://www.w3.org/Graphics/SVG/1.1/DTD/svg11.dtd">
<svg version="1.1" id="Layer_1" xmlns="http://www.w3.org/2000/svg" xmlns:xlink="http://www.w3.org/1999/xlink" x="0px" y="0px"
	 width="16px" height="16px" viewBox="0 0 16 16" enable-background="new 0 0 16 16" xml:space="preserve">
<path fill="#90A8BE" d="M14.261,1.834V1.063c0-0.462-0.313-0.771-0.782-0.771c-0.47,0-0.783,0.308-0.783,0.771v0.771H8.783V1.063
	c0-0.462-0.314-0.771-0.783-0.771c-0.47,0-0.783,0.308-0.783,0.771v0.771H3.304V1.063c0-0.462-0.313-0.771-0.783-0.771
	c-0.469,0-0.782,0.308-0.782,0.771v0.771c-0.861,0-1.565,0.694-1.565,1.542v10.791c0,0.848,0.705,1.541,1.565,1.541h12.521
	c0.86,0,1.565-0.693,1.565-1.541V3.375C15.826,2.451,15.121,1.834,14.261,1.834z M14.261,13.395c0,0.463-0.313,0.771-0.782,0.771
	H2.521c-0.469,0-0.782-0.309-0.782-0.771V5.688c0-0.463,0.313-0.771,0.782-0.771h10.957c0.469,0,0.782,0.308,0.782,0.771V13.395z"/>
<path fill="#90A8BE" d="M7.443,12.357L4.626,9.583l1.096-1.079l1.721,1.619l3.287-3.238l1.096,1.079L7.443,12.357z"/>
</svg>
