<svg width="16" height="15" viewBox="0 0 16 15" fill="none" xmlns="http://www.w3.org/2000/svg">
<path fill-rule="evenodd" clip-rule="evenodd" d="M1.65 15C0.825 15 0.075 14.175 0.075 13.35L0 3C0 2.175 0.675 1.5 1.5 1.5H3V0H4.5V1.5H10.575V0H12.075V1.5C14.85 1.5 15.075 1.95 15.075 3.525V13.35C15.075 14.25 14.475 15 13.65 15H1.65ZM12.75 13.5C13.125 13.5 13.5 13.2 13.5 12.75V7.5H1.5V12.75C1.5 13.2 1.8 13.5 2.25 13.5H12.75ZM1.5 6H13.5V3.75C13.5 3.3 13.2 3 12.75 3H12V4.5H10.5V3H4.5V4.5H3V3H2.25C1.8 3 1.5 3.375 1.5 3.75V6ZM10.0595 11.7331C10.8369 11.7331 11.4671 11.1029 11.4671 10.3256C11.4671 9.5482 10.8369 8.91802 10.0595 8.91802C9.28217 8.91802 8.65199 9.5482 8.65199 10.3256C8.65199 11.1029 9.28217 11.7331 10.0595 11.7331Z" fill="#90A8BE"/>
</svg>
