<svg width="25" height="25" viewBox="0 0 25 25" fill="none" xmlns="http://www.w3.org/2000/svg">
<path d="M8.05473 16.1623H8.05588C8.05683 16.1623 8.05779 16.1621 8.05874 16.1621H21.3379C21.6648 16.1621 21.9522 15.9452 22.0421 15.6309L24.9718 5.37701C25.0349 5.15594 24.9907 4.91829 24.8524 4.7348C24.7139 4.55132 24.4974 4.44336 24.2676 4.44336H6.36559L5.84202 2.08721C5.76744 1.75209 5.47028 1.51367 5.12695 1.51367H0.732422C0.327873 1.51367 0 1.84155 0 2.24609C0 2.65064 0.327873 2.97852 0.732422 2.97852H4.53949C4.63219 3.39603 7.04498 14.2538 7.18384 14.8785C6.40545 15.2168 5.85938 15.9929 5.85938 16.8945C5.85938 18.1061 6.84509 19.0918 8.05664 19.0918H21.3379C21.7424 19.0918 22.0703 18.7639 22.0703 18.3594C22.0703 17.9548 21.7424 17.627 21.3379 17.627H8.05664C7.65285 17.627 7.32422 17.2983 7.32422 16.8945C7.32422 16.4913 7.65171 16.1633 8.05473 16.1623ZM23.2965 5.9082L20.7853 14.6973H8.6441L6.69098 5.9082H23.2965Z" fill="#90A8BE"/>
<path d="M7.32422 21.2891C7.32422 22.5006 8.30994 23.4863 9.52148 23.4863C10.733 23.4863 11.7188 22.5006 11.7188 21.2891C11.7188 20.0775 10.733 19.0918 9.52148 19.0918C8.30994 19.0918 7.32422 20.0775 7.32422 21.2891ZM9.52148 20.5566C9.92527 20.5566 10.2539 20.8853 10.2539 21.2891C10.2539 21.6928 9.92527 22.0215 9.52148 22.0215C9.1177 22.0215 8.78906 21.6928 8.78906 21.2891C8.78906 20.8853 9.1177 20.5566 9.52148 20.5566Z" fill="#90A8BE"/>
<path d="M17.6758 21.2891C17.6758 22.5006 18.6615 23.4863 19.873 23.4863C21.0846 23.4863 22.0703 22.5006 22.0703 21.2891C22.0703 20.0775 21.0846 19.0918 19.873 19.0918C18.6615 19.0918 17.6758 20.0775 17.6758 21.2891ZM19.873 20.5566C20.2768 20.5566 20.6055 20.8853 20.6055 21.2891C20.6055 21.6928 20.2768 22.0215 19.873 22.0215C19.4693 22.0215 19.1406 21.6928 19.1406 21.2891C19.1406 20.8853 19.4693 20.5566 19.873 20.5566Z" fill="#90A8BE"/>
</svg>
