<?xml version="1.0" encoding="utf-8"?>
<!-- Generator: Adobe Illustrator 16.0.0, SVG Export Plug-In . SVG Version: 6.00 Build 0)  -->
<!DOCTYPE svg PUBLIC "-//W3C//DTD SVG 1.1//EN" "http://www.w3.org/Graphics/SVG/1.1/DTD/svg11.dtd">
<svg version="1.1" id="Layer_1" xmlns="http://www.w3.org/2000/svg" xmlns:xlink="http://www.w3.org/1999/xlink" x="0px" y="0px"
	 width="19px" height="16px" viewBox="0 0 19 16" enable-background="new 0 0 19 16" xml:space="preserve">
<path fill="#90A8BE" stroke="#90A8BE" stroke-width="0.5" d="M17.715,4.434c-0.097-0.122-0.252-0.197-0.42-0.203L15.82,4.133
	c-0.299-0.011-0.549,0.192-0.562,0.455c-0.013,0.262,0.218,0.484,0.517,0.495l0.768,0.071l-1.912,5.254H6.125L4.587,3.036
	C4.554,2.875,4.428,2.74,4.254,2.68L1.737,1.808c-0.277-0.096-0.59,0.024-0.699,0.269C0.929,2.321,1.065,2.597,1.342,2.693
	l2.238,0.775l1.564,7.502c0.047,0.226,0.27,0.39,0.53,0.39h0.26l-0.593,1.449c-0.049,0.122-0.029,0.257,0.056,0.362
	c0.084,0.105,0.221,0.169,0.368,0.169h0.416c-0.258,0.252-0.416,0.584-0.416,0.949c0,0.787,0.726,1.426,1.618,1.426
	s1.618-0.639,1.618-1.426c0-0.365-0.158-0.697-0.416-0.949h3.527c-0.257,0.252-0.415,0.584-0.415,0.949
	c0,0.787,0.726,1.426,1.618,1.426s1.618-0.639,1.618-1.426c0-0.365-0.157-0.697-0.415-0.949h0.506c0.248,0,0.449-0.178,0.449-0.396
	s-0.201-0.396-0.449-0.396H6.404l0.485-1.188h8.135c0.235,0,0.442-0.134,0.514-0.33l2.247-6.178
	C17.838,4.71,17.811,4.556,17.715,4.434z M7.383,14.924c-0.397,0-0.719-0.285-0.719-0.634c0-0.35,0.322-0.634,0.719-0.634
	c0.396,0,0.719,0.284,0.719,0.634C8.103,14.639,7.78,14.924,7.383,14.924z M13.316,14.924c-0.396,0-0.719-0.285-0.719-0.634
	c0-0.35,0.322-0.634,0.719-0.634s0.719,0.284,0.719,0.634C14.035,14.639,13.713,14.924,13.316,14.924z"/>
<path fill="#90A8BE" stroke="#90A8BE" stroke-width="0.5" d="M11.008,6.947l1.981-1.746c0.057-0.05,0.088-0.116,0.088-0.187
	c0-0.071-0.031-0.137-0.088-0.188l-0.18-0.158c-0.057-0.05-0.133-0.078-0.213-0.078c-0.081,0-0.159,0.028-0.214,0.078l-1.16,1.019
	V0.866c0-0.146-0.128-0.261-0.294-0.261h-0.256c-0.165,0-0.308,0.115-0.308,0.261v4.832L9.2,4.668
	c-0.057-0.05-0.129-0.078-0.21-0.078S8.835,4.619,8.779,4.668L8.6,4.827c-0.057,0.05-0.087,0.116-0.087,0.187
	c0,0.071,0.031,0.137,0.088,0.187l1.981,1.746c0.057,0.05,0.133,0.078,0.213,0.078C10.875,7.024,10.95,6.997,11.008,6.947z"/>
</svg>
