<svg width="20" height="20" viewBox="0 0 20 20" fill="none" xmlns="http://www.w3.org/2000/svg">
<path d="M17.4438 10.7822C17.3322 10.6107 17.3322 10.3893 17.4438 10.2178L18.0646 9.26355C18.6301 8.39436 18.2491 7.22662 17.2826 6.85664L16.2194 6.44957C16.0284 6.37639 15.8981 6.1972 15.8876 5.9929L15.829 4.85603C15.7756 3.82063 14.781 3.09953 13.7815 3.36847L12.6822 3.66404C12.4847 3.7171 12.274 3.64867 12.1454 3.4896L11.4297 2.60424C10.7779 1.79794 9.54959 1.79923 8.89888 2.60424L8.18316 3.48963C8.05459 3.64874 7.84392 3.7171 7.64636 3.66408L6.54698 3.3685C5.54548 3.09916 4.55271 3.82265 4.49946 4.85606L4.44085 5.99293C4.4303 6.1972 4.30011 6.37642 4.10909 6.44957L3.046 6.85664C2.07744 7.22738 1.69945 8.39609 2.26387 9.26358L2.88473 10.2178C2.99626 10.3892 2.99626 10.6108 2.88473 10.7822L2.26397 11.7364C1.69839 12.6057 2.07956 13.7735 3.04603 14.1434L4.10919 14.5504C4.30021 14.6236 4.43043 14.8028 4.44095 15.0071L4.49956 16.144C4.55295 17.1796 5.54771 17.9004 6.54708 17.6315L7.6464 17.3359C7.84399 17.283 8.05463 17.3513 8.18322 17.5104L8.89891 18.3957C9.55085 19.2022 10.7791 19.2006 11.4297 18.3957L12.1454 17.5104C12.274 17.3514 12.4848 17.283 12.6822 17.3359L13.7816 17.6315C14.7828 17.901 15.7758 17.1775 15.8291 16.144L15.8877 15.0071C15.8983 14.8028 16.0285 14.6236 16.2195 14.5505L17.2826 14.1434C18.2511 13.7726 18.6291 12.604 18.0647 11.7364L17.4438 10.7822ZM16.8858 13.1071L15.8226 13.5141C15.222 13.7441 14.8126 14.3077 14.7795 14.9499L14.7208 16.0868C14.7039 16.4162 14.3876 16.6453 14.0697 16.5599L12.9703 16.2643C12.3492 16.0972 11.6866 16.3126 11.2824 16.8128L10.5668 17.6981C10.3594 17.9546 9.96881 17.9541 9.76186 17.6981L9.04623 16.8128C8.73286 16.4251 8.2643 16.2085 7.78014 16.2085C7.63972 16.2085 7.49795 16.2267 7.35826 16.2643L6.25888 16.5599C5.94026 16.6454 5.6247 16.4155 5.6077 16.0868L5.5491 14.9499C5.516 14.3077 5.10651 13.7441 4.50593 13.5141L3.44277 13.107C3.13475 12.9891 3.01459 12.6175 3.19408 12.3416L3.81491 11.3874C4.16563 10.8483 4.16563 10.1516 3.81491 9.61261L3.19408 8.65839C3.01419 8.38195 3.13538 8.01064 3.44281 7.89293L4.50596 7.48587C5.10657 7.2559 5.51603 6.69232 5.54913 6.05007L5.60774 4.9132C5.6247 4.5838 5.94096 4.3547 6.25891 4.4401L7.3583 4.73567C7.97936 4.90271 8.64192 4.68736 9.0462 4.18722L9.76189 3.30187C9.96924 3.04541 10.3599 3.04594 10.5668 3.30187L11.2825 4.18726C11.6868 4.68739 12.3492 4.90275 12.9704 4.73567L14.0697 4.4401C14.3883 4.35453 14.7039 4.58446 14.7209 4.9132L14.7795 6.05007C14.8126 6.69232 15.222 7.25594 15.8226 7.48587L16.8858 7.89297C17.1938 8.01084 17.314 8.38251 17.1345 8.65839L16.5137 9.61258C16.1629 10.1516 16.1629 10.8483 16.5137 11.3874L17.1345 12.3416C17.3143 12.6181 17.1932 12.9894 16.8858 13.1071Z" fill="#90A8BE" stroke="#90A8BE" stroke-width="0.5"/>
<path d="M12.9382 7.67225C12.7215 7.4556 12.3702 7.4556 12.1535 7.67225L6.97498 12.8508C6.75833 13.0674 6.75833 13.4188 6.97502 13.6354C7.08336 13.7438 7.22537 13.798 7.36734 13.798C7.50932 13.798 7.65136 13.7438 7.75967 13.6354L12.9382 8.45687C13.1549 8.24026 13.1549 7.88894 12.9382 7.67225Z" fill="#90A8BE" stroke="#90A8BE" stroke-width="0.5"/>
<path d="M7.91827 7.50977C7.30637 7.50977 6.80859 8.00758 6.80859 8.61944C6.80859 9.23134 7.30644 9.72912 7.91827 9.72912C8.53017 9.72912 9.02794 9.23131 9.02794 8.61944C9.02798 8.00758 8.53017 7.50977 7.91827 7.50977Z" fill="#90A8BE" stroke="#90A8BE" stroke-width="0.5"/>
<path d="M11.9886 11.5791C11.3767 11.5791 10.8789 12.0769 10.8789 12.6888C10.8789 13.3007 11.3767 13.7985 11.9886 13.7985C12.6004 13.7985 13.0983 13.3006 13.0983 12.6888C13.0983 12.0769 12.6005 11.5791 11.9886 11.5791Z" fill="#90A8BE" stroke="#90A8BE" stroke-width="0.5"/>
</svg>
