<svg width="14" height="17" viewBox="0 0 14 17" fill="none" xmlns="http://www.w3.org/2000/svg">
<path d="M1.13737 4.48735L4.88725 0.737441C4.97619 0.648473 5.09772 0.600098 5.21875 0.600098H11.7812C12.5567 0.600098 13.1875 1.23094 13.1875 2.00635V15.1938C13.1875 15.9693 12.5567 16.6001 11.7812 16.6001H2.40625C1.63084 16.6001 1 15.9693 1 15.1938V4.81885C1 4.69022 1.05447 4.57019 1.13737 4.48735ZM4.75 2.2005L2.60041 4.3501H4.28125C4.53972 4.3501 4.75 4.13982 4.75 3.88135V2.2005ZM2.40625 15.6626H11.7812C12.0397 15.6626 12.25 15.4523 12.25 15.1938V2.00635C12.25 1.74788 12.0397 1.5376 11.7812 1.5376H5.6875V3.88135C5.6875 4.65675 5.05666 5.2876 4.28125 5.2876H1.9375V15.1938C1.9375 15.4523 2.14778 15.6626 2.40625 15.6626Z" fill="#90A8BE" stroke="#90A8BE" stroke-width="0.6"/>
<path d="M4.28125 8.1626H8.96875C9.22763 8.1626 9.4375 8.37247 9.4375 8.63135C9.4375 8.89022 9.22763 9.1001 8.96875 9.1001H4.28125C4.02238 9.1001 3.8125 8.89022 3.8125 8.63135C3.8125 8.37247 4.02238 8.1626 4.28125 8.1626Z" fill="#90A8BE" stroke="#90A8BE" stroke-width="0.6"/>
<path d="M4.28125 10.0376H8.96875C9.22763 10.0376 9.4375 10.2475 9.4375 10.5063C9.4375 10.7652 9.22763 10.9751 8.96875 10.9751H4.28125C4.02238 10.9751 3.8125 10.7652 3.8125 10.5063C3.8125 10.2475 4.02238 10.0376 4.28125 10.0376Z" fill="#90A8BE" stroke="#90A8BE" stroke-width="0.6"/>
<path d="M4.28125 11.9126H8.96875C9.22763 11.9126 9.4375 12.1225 9.4375 12.3813C9.4375 12.6402 9.22763 12.8501 8.96875 12.8501H4.28125C4.02238 12.8501 3.8125 12.6402 3.8125 12.3813C3.8125 12.1225 4.02238 11.9126 4.28125 11.9126Z" fill="#90A8BE" stroke="#90A8BE" stroke-width="0.6"/>
<path d="M10.8438 9.1001C10.5849 9.1001 10.375 8.89023 10.375 8.63135C10.375 8.37246 10.5849 8.1626 10.8438 8.1626C11.1026 8.1626 11.3125 8.37246 11.3125 8.63135C11.3125 8.89023 11.1026 9.1001 10.8438 9.1001Z" fill="#90A8BE" stroke="#90A8BE" stroke-width="0.6"/>
<path d="M10.8438 10.9751C10.5849 10.9751 10.375 10.7652 10.375 10.5063C10.375 10.2475 10.5849 10.0376 10.8438 10.0376C11.1026 10.0376 11.3125 10.2475 11.3125 10.5063C11.3125 10.7652 11.1026 10.9751 10.8438 10.9751Z" fill="#90A8BE" stroke="#90A8BE" stroke-width="0.6"/>
<path d="M10.8438 12.8501C10.5849 12.8501 10.375 12.6402 10.375 12.3813C10.375 12.1225 10.5849 11.9126 10.8438 11.9126C11.1026 11.9126 11.3125 12.1225 11.3125 12.3813C11.3125 12.6402 11.1026 12.8501 10.8438 12.8501Z" fill="#90A8BE" stroke="#90A8BE" stroke-width="0.6"/>
</svg>
