<svg width="23" height="23" viewBox="0 0 23 23" fill="none" xmlns="http://www.w3.org/2000/svg">
<mask id="path-2-inside-1" fill="white">
<rect x="6.0769" y="5.0769" width="16.0769" height="16.0769" rx="1"/>
</mask>
<rect x="6.0769" y="5.0769" width="16.0769" height="16.0769" rx="1" stroke="#90A8BE" stroke-width="2.2" mask="url(#path-2-inside-1)"/>
<g clip-path="url(#clip0)">
<path fill-rule="evenodd" clip-rule="evenodd" d="M6 1.61523H22.2308V2.61523H6V1.61523Z" fill="#90A8BE"/>
<path fill-rule="evenodd" clip-rule="evenodd" d="M22.2308 -0.0769043V4.30771H21.2308V-0.0769043H22.2308Z" fill="#90A8BE"/>
<path fill-rule="evenodd" clip-rule="evenodd" d="M7 -0.0769043V4.30771H6V-0.0769043H7Z" fill="#90A8BE"/>
</g>
<g clip-path="url(#clip1)">
<path fill-rule="evenodd" clip-rule="evenodd" d="M3.61542 5L3.61542 21.2308H2.61542L2.61542 5H3.61542Z" fill="#90A8BE"/>
<path fill-rule="evenodd" clip-rule="evenodd" d="M5.30768 21.2307H0.923063V20.2307H5.30768V21.2307Z" fill="#90A8BE"/>
<path fill-rule="evenodd" clip-rule="evenodd" d="M5.30768 6L0.923063 6V5L5.30768 5V6Z" fill="#90A8BE"/>
</g>
<defs>
<clipPath id="clip0">
<rect x="4.23077" width="18" height="5" fill="white"/>
</clipPath>
<clipPath id="clip1">
<rect x="5.23077" y="4.23071" width="18" height="5" transform="rotate(90 5.23077 4.23071)" fill="white"/>
</clipPath>
</defs>
</svg>
