<svg width="21" height="20" viewBox="0 0 21 20" fill="none" xmlns="http://www.w3.org/2000/svg">
<path d="M17.7146 6.71832C17.6184 6.5968 17.4635 6.52169 17.2953 6.51536L15.821 6.41765C15.5218 6.40611 15.2718 6.60963 15.259 6.87202C15.2463 7.13431 15.4769 7.35592 15.7747 7.36719L16.5429 7.43813L14.6313 12.693H6.12435L4.58744 5.32016C4.55366 5.15857 4.42774 5.02377 4.25407 4.96374L1.73688 4.09248C1.45945 3.99679 1.14639 4.11684 1.03744 4.36097C0.928675 4.60523 1.06491 4.8812 1.34218 4.9772L3.58037 5.75186L5.1444 13.2541C5.19154 13.4796 5.41464 13.6434 5.67503 13.6434H5.93447L5.34203 15.0933C5.29245 15.2147 5.31288 15.3496 5.39726 15.4551C5.48154 15.5606 5.61859 15.6234 5.76491 15.6234H6.18045C5.92296 15.8759 5.76491 16.2083 5.76491 16.5739C5.76491 17.36 6.49098 17.9996 7.38312 17.9996C8.27525 17.9996 9.00133 17.36 9.00133 16.5739C9.00133 16.2083 8.84328 15.8759 8.58583 15.6234H12.1139C11.8563 15.8759 11.6983 16.2083 11.6983 16.5739C11.6983 17.36 12.4242 17.9996 13.3165 17.9996C14.2089 17.9996 14.9347 17.36 14.9347 16.5739C14.9347 16.2083 14.7767 15.8759 14.5193 15.6234H15.0247C15.273 15.6234 15.4742 15.4461 15.4742 15.2274C15.4742 15.0086 15.2729 14.8314 15.0247 14.8314H6.40449L6.88989 13.6433H15.0246C15.2592 13.6433 15.4668 13.5098 15.5382 13.3132L17.7857 7.13507C17.8373 6.99406 17.8109 6.8399 17.7146 6.71832ZM7.38315 17.2077C6.9865 17.2077 6.66393 16.9235 6.66393 16.574C6.66393 16.2246 6.9865 15.9404 7.38315 15.9404C7.77981 15.9404 8.10234 16.2246 8.10234 16.574C8.10234 16.9235 7.77981 17.2077 7.38315 17.2077ZM13.3165 17.2077C12.9199 17.2077 12.5973 16.9235 12.5973 16.574C12.5973 16.2246 12.9199 15.9404 13.3165 15.9404C13.7132 15.9404 14.0357 16.2246 14.0357 16.574C14.0357 16.9235 13.7132 17.2077 13.3165 17.2077Z" fill="#90A8BE" stroke="#90A8BE" stroke-width="0.5"/>
<path d="M10.9598 9.00148L13.4598 6.79893C13.5311 6.73606 13.5703 6.65226 13.5703 6.56291C13.5703 6.47346 13.5311 6.38971 13.4598 6.32683L13.2327 6.12686C13.1615 6.06403 13.0663 6.02942 12.9649 6.02942C12.8634 6.02942 12.7651 6.06403 12.6938 6.12686L11.2322 7.4118L11.2322 1.32949C11.2322 1.14543 11.0686 1 10.8596 1L10.5387 1C10.3297 1 10.1497 1.14543 10.1497 1.32949L10.1497 7.42637L8.67986 6.12691C8.6085 6.06408 8.51591 6.02947 8.41444 6.02947C8.31308 6.02947 8.21915 6.06408 8.14784 6.12691L7.92154 6.32688C7.85018 6.38976 7.81129 6.4735 7.81129 6.56296C7.81129 6.65231 7.85068 6.73611 7.92205 6.79898L10.422 9.00153C10.4936 9.06455 10.5892 9.09921 10.6907 9.09896C10.7927 9.09916 10.8883 9.06455 10.9598 9.00148Z" fill="#90A8BE" stroke="#90A8BE" stroke-width="0.5"/>
</svg>
