<svg width="15" height="15" viewBox="0 0 15 15" fill="none" xmlns="http://www.w3.org/2000/svg">
<path fill-rule="evenodd" clip-rule="evenodd" d="M10.5892 8.92259C10.9146 8.59715 10.9146 8.06951 10.5892 7.74408C10.2637 7.41864 9.73608 7.41864 9.41064 7.74408L8.33323 8.82149V0.833333C8.33323 0.373096 7.96014 0 7.4999 0C7.03966 0 6.66657 0.373096 6.66657 0.833333L6.66657 8.82149L5.58915 7.74408C5.26372 7.41864 4.73608 7.41864 4.41064 7.74408C4.08521 8.06951 4.08521 8.59715 4.41064 8.92259L6.91064 11.4226C7.23608 11.748 7.76372 11.748 8.08915 11.4226L10.5892 8.92259ZM14.999 9.1666C14.999 8.70637 14.6259 8.33327 14.1657 8.33327C13.7055 8.33327 13.3324 8.70637 13.3324 9.1666L13.3324 13.3333H1.66569L1.66569 9.1666C1.66569 8.70637 1.29259 8.33327 0.832357 8.33327C0.372119 8.33327 -0.000976562 8.70637 -0.000976562 9.1666V14.1666C-0.000976562 14.6268 0.372119 14.9999 0.832356 14.9999L14.1657 14.9999C14.6259 14.9999 14.999 14.6268 14.999 14.1666V9.1666Z" fill="#90A8BE"/>
</svg>
