<svg width="14" height="20" viewBox="0 0 14 20" fill="none" xmlns="http://www.w3.org/2000/svg">
<path d="M7.00168 0.85C3.43289 0.85 0.529687 3.7532 0.529687 7.32199C0.529687 8.44018 0.893082 9.70627 1.43234 10.9728C1.97249 12.2415 2.69401 13.5218 3.42115 14.6716C4.87544 16.9713 6.35959 18.7604 6.48228 18.9072C6.75248 19.2307 7.25048 19.2312 7.52109 18.9072C7.64377 18.7604 9.12792 16.9713 10.5822 14.6716C11.3093 13.5218 12.0309 12.2415 12.571 10.9728C13.1103 9.70626 13.4737 8.44017 13.4737 7.32199C13.4737 3.7532 10.5705 0.85 7.00168 0.85ZM9.99326 13.0358C8.90924 14.8696 7.68089 16.5174 7.00168 17.3889C6.32248 16.5174 5.09413 14.8696 4.01011 13.0358C3.43508 12.0631 2.90229 11.0407 2.5136 10.056C2.12423 9.0696 1.88335 8.13061 1.88335 7.32199C1.88335 4.49988 4.17957 2.20367 7.00168 2.20367C9.82379 2.20367 12.12 4.49988 12.12 7.32199C12.12 8.13061 11.8791 9.0696 11.4898 10.056C11.1011 11.0407 10.5683 12.0631 9.99326 13.0358Z" fill="#90A8BE" stroke="#90A8BE" stroke-width="0.3"/>
<path d="M10.6876 6.64525H10.241C9.97329 5.36147 8.96043 4.34861 7.67665 4.08089V3.63425C7.67665 3.26046 7.37361 2.95742 6.99982 2.95742C6.62602 2.95742 6.32298 3.26046 6.32298 3.63425V4.08089C5.03921 4.34865 4.02635 5.3615 3.75862 6.64525H3.31199C2.93819 6.64525 2.63516 6.94829 2.63516 7.32208C2.63516 7.69588 2.93819 7.99892 3.31199 7.99892H3.75862C4.02635 9.28269 5.03921 10.2956 6.32298 10.5633V11.0099C6.32298 11.3837 6.62602 11.6867 6.99982 11.6867C7.37361 11.6867 7.67665 11.3837 7.67665 11.0099V10.5633C8.96042 10.2955 9.97329 9.28266 10.241 7.99892H10.6876C11.0614 7.99892 11.3645 7.69588 11.3645 7.32208C11.3645 6.94829 11.0615 6.64525 10.6876 6.64525ZM6.99982 9.27941C5.92068 9.27941 5.04249 8.40122 5.04249 7.32208C5.04249 6.24294 5.92068 5.36475 6.99982 5.36475C8.07896 5.36475 8.95715 6.24294 8.95715 7.32208C8.95715 8.40122 8.07896 9.27941 6.99982 9.27941Z" fill="#90A8BE" stroke="#90A8BE" stroke-width="0.3"/>
</svg>
