<svg width="20" height="20" viewBox="0 0 20 20" fill="none" xmlns="http://www.w3.org/2000/svg">
<path d="M0.85 10.5C0.85 15.2699 4.73012 19.15 9.5 19.15C14.2699 19.15 18.15 15.2699 18.15 10.5C18.15 5.73012 14.2699 1.85 9.5 1.85C4.73012 1.85 0.85 5.73012 0.85 10.5ZM1.85833 10.5C1.85833 6.2868 5.2868 2.85833 9.5 2.85833C13.7132 2.85833 17.1417 6.2868 17.1417 10.5C17.1417 14.7132 13.7132 18.1417 9.5 18.1417C5.2868 18.1417 1.85833 14.7132 1.85833 10.5Z" fill="#90A8BE" stroke="#90A8BE" stroke-width="0.3"/>
<path d="M12.8794 13.1835L13.4438 9.8536L11.7271 10.7003C11.727 10.7003 11.727 10.7003 11.7269 10.7004C11.4836 10.8214 11.191 10.7273 11.0619 10.4915C11.0619 10.4914 11.0619 10.4914 11.0618 10.4914L9.50126 7.65109L7.94133 10.4914C7.9413 10.4914 7.94128 10.4915 7.94125 10.4915L7.94121 10.4916L7.80973 10.4194C7.71906 10.5851 7.51436 10.651 7.34294 10.566L12.8794 13.1835ZM12.8794 13.1835H6.12382L5.55939 9.8536L7.2763 10.7004C7.27632 10.7004 7.27635 10.7004 7.27637 10.7004M5.20038 13.7722L5.20041 13.7724L14.6024 9.05023L14.4546 9.02467L14.6025 9.04973L14.6025 9.04985C14.6347 8.86273 14.5579 8.67363 14.4069 8.56094C14.2563 8.44843 14.0534 8.42761 13.882 8.51354C13.8818 8.51364 13.8816 8.51373 13.8815 8.51383L11.7127 9.58317L9.94295 6.36137L9.9429 6.36127C9.84863 6.18997 9.66657 6.11465 9.50123 6.11465C9.33589 6.11465 9.15383 6.18997 9.05957 6.36127L9.05951 6.36137L7.28977 9.58317L5.12069 8.51367C5.12056 8.51361 5.12043 8.51354 5.1203 8.51348C4.94843 8.42773 4.74636 8.44832 4.59553 8.56094C4.44404 8.67405 4.36876 8.86252 4.3999 9.04933L4.39997 9.04973L5.20038 13.7722ZM9.19098 6.43359L9.19098 6.43358L9.19098 6.43359ZM9.81148 6.43359L9.81149 6.43358L9.81148 6.43359Z" fill="#90A8BE" stroke="#90A8BE" stroke-width="0.3"/>
</svg>
