<svg width="18" height="14" viewBox="0 0 18 14" fill="none" xmlns="http://www.w3.org/2000/svg">
<path d="M15.6549 0H2.34507C1.05634 0 0 1.05634 0 2.34507V10.7746C0 12.0634 1.05634 13.1197 2.34507 13.1197H15.6549C16.9436 13.1197 18 12.0634 18 10.7746V2.34507C18.0053 1.05105 16.9436 0 15.6549 0ZM16.7377 10.8063C16.7377 11.2711 16.3574 11.6567 15.8873 11.6567H2.31866C1.85387 11.6567 1.46831 11.2764 1.46831 10.8063V4.87499H16.7377V10.8063ZM16.7377 2.64084H1.46831V2.31866C1.46831 1.85387 1.84859 1.46831 2.31866 1.46831H15.8873C16.3521 1.46831 16.7377 1.84859 16.7377 2.31866V2.64084Z" fill="#90A8BE"/>
<path d="M3.87147 10.7429C4.33097 10.7429 4.74823 10.5369 5.02288 10.2095C5.3028 10.5369 5.71478 10.7429 6.17428 10.7429C7.01407 10.7429 7.69541 10.0616 7.69541 9.22181C7.69541 8.38202 7.01407 7.70068 6.17428 7.70068C5.71478 7.70068 5.29752 7.90667 5.02288 8.23413C4.74295 7.90667 4.33097 7.70068 3.87147 7.70068C3.03168 7.70068 2.35034 8.38202 2.35034 9.22181C2.35034 10.0616 3.03168 10.7429 3.87147 10.7429Z" fill="#90A8BE"/>
</svg>
