<svg width="19" height="19" viewBox="0 0 19 19" fill="none" xmlns="http://www.w3.org/2000/svg">
<path d="M18.0654 17.4072L18.0653 17.4066L16.9995 11.0051L16.9995 11.0051C16.9536 10.7296 16.7129 10.5273 16.4341 10.5273H15.4068V10.0346C15.4068 9.13692 14.6797 8.3957 13.7679 8.3957C13.5192 8.3957 13.2804 8.45001 13.0629 8.55432L12.737 4.65323C12.737 4.65318 12.737 4.65313 12.737 4.65308C12.714 4.35504 12.4656 4.12578 12.1675 4.12578H10.0711V3.63301C10.0711 2.14061 8.85544 0.925 7.36304 0.925C5.87065 0.925 4.65504 2.14061 4.65504 3.63301V4.12578H2.56187C2.26384 4.12578 2.01543 4.35499 1.99239 4.65299C1.99238 4.65307 1.99237 4.65315 1.99237 4.65323L0.926584 17.4559H0.926579L0.926516 17.4568C0.915117 17.6164 0.968343 17.7726 1.07516 17.8909C1.18302 18.0103 1.3364 18.075 1.49605 18.075H17.5C17.6673 18.075 17.8282 18.0028 17.936 17.8722C18.0465 17.7423 18.092 17.5743 18.0654 17.4072ZM13.2685 10.1096H13.2718V10.0346C13.2718 9.7636 13.4909 9.5418 13.7646 9.5418C14.0328 9.5418 14.2574 9.7581 14.2574 10.0346V10.5273H13.2685V10.1096ZM9.85717 9.05308L9.85672 9.05273C9.60828 8.85397 9.24935 8.89634 9.05108 9.14036L9.05071 9.14082L4.78412 14.4766C4.78412 14.4766 4.78411 14.4766 4.78411 14.4766C4.58537 14.725 4.62774 15.0839 4.87176 15.2822L4.87272 15.283C4.97885 15.3664 5.10473 15.4086 5.23116 15.4086C5.39827 15.4086 5.5668 15.3364 5.67846 15.1942C5.67853 15.1941 5.6786 15.194 5.67867 15.1939L9.94481 9.85873C10.1436 9.61028 10.1012 9.25135 9.85717 9.05308ZM5.80445 3.63301C5.80445 2.7713 6.50466 2.07109 7.36636 2.07109C8.22787 2.07109 8.92496 2.77111 8.92496 3.63301V4.12578H5.80445V3.63301ZM9.498 14.7939C9.22732 14.7939 9.00523 14.5719 9.00523 14.3012C9.00523 14.0305 9.22732 13.8084 9.498 13.8084C9.76869 13.8084 9.99078 14.0305 9.99078 14.3012C9.99078 14.5719 9.76869 14.7939 9.498 14.7939ZM10.533 11.0051L10.2282 12.8338C10.0072 12.7233 9.75913 12.6623 9.498 12.6623C8.5933 12.6623 7.85914 13.3965 7.85914 14.3012C7.85914 15.2059 8.5933 15.94 9.498 15.94C9.57164 15.94 9.64239 15.9355 9.71215 15.9263L9.5441 16.9289H2.11876L3.08909 5.27187H11.637L12.076 10.5273H11.0984C10.8196 10.5273 10.5789 10.7296 10.533 11.0051ZM15.9489 11.6734L16.8237 16.9289H10.7088L11.5836 11.6734H15.9489ZM6.87009 10.0346C6.87009 9.12987 6.13592 8.3957 5.23122 8.3957C4.32652 8.3957 3.59235 9.12987 3.59235 10.0346C3.59235 10.9393 4.32652 11.6734 5.23122 11.6734C6.13592 11.6734 6.87009 10.9393 6.87009 10.0346ZM4.73513 10.0346C4.73513 9.76388 4.95721 9.5418 5.2279 9.5418C5.49859 9.5418 5.72067 9.76388 5.72067 10.0346C5.72067 10.3053 5.49859 10.5273 5.2279 10.5273C4.95721 10.5273 4.73513 10.3053 4.73513 10.0346Z" fill="#90A8BE" stroke="#90A8BE" stroke-width="0.15"/>
</svg>
