<?xml version="1.0" encoding="utf-8"?>
<!-- Generator: Adobe Illustrator 16.0.0, SVG Export Plug-In . SVG Version: 6.00 Build 0)  -->
<!DOCTYPE svg PUBLIC "-//W3C//DTD SVG 1.1//EN" "http://www.w3.org/Graphics/SVG/1.1/DTD/svg11.dtd">
<svg version="1.1" id="Layer_1" xmlns="http://www.w3.org/2000/svg" xmlns:xlink="http://www.w3.org/1999/xlink" x="0px" y="0px"
	 width="26px" height="26px" viewBox="0 0 26 26" enable-background="new 0 0 26 26" xml:space="preserve">
<path fill="#5D3F96" d="M13,26c7.18,0,13-5.82,13-12.999c0-7.18-5.82-13-13-13c-7.179,0-13,5.82-13,13C0,20.18,5.82,26,13,26z"/>
<g>
	<path fill="#FFFFFF" d="M12.909,19.445c-1.557,0-3.115-0.016-4.672,0.008c-0.62,0.009-1.138-0.128-1.351-0.752
		c-0.212-0.615,0.193-1.029,0.634-1.332c2.875-1.977,5.936-2.424,9.187-1.021c0.713,0.308,1.424,0.632,1.99,1.197
		c0.352,0.351,0.617,0.728,0.389,1.238c-0.215,0.472-0.604,0.669-1.131,0.665C16.273,19.436,14.592,19.445,12.909,19.445z"/>
	<path fill="#FFFFFF" d="M9.635,10.134c0.009-2.076,1.413-3.579,3.351-3.585c2.006-0.006,3.396,1.534,3.379,3.748
		c-0.017,2.058-1.457,3.556-3.399,3.538C10.997,13.816,9.626,12.293,9.635,10.134z"/>
</g>
</svg>
