<svg width="17" height="17" viewBox="0 0 17 17" fill="none" xmlns="http://www.w3.org/2000/svg">
<path fill-rule="evenodd" clip-rule="evenodd" d="M12.7792 8.8434C11.9326 9.7036 11.5458 10.9412 11.7464 12.1558L12.1179 14.4134L10.1714 13.3475C9.65796 13.0662 9.07996 12.9174 8.50026 12.9174C7.91971 12.9174 7.34171 13.0662 6.82831 13.3475L4.88181 14.4134L5.25411 12.1558C5.45386 10.9412 5.06711 9.7036 4.22051 8.8434L2.64631 7.24455L4.82231 6.91475C5.99276 6.73795 7.00341 5.97295 7.52701 4.86795L8.50026 2.8135L9.47351 4.86795C9.99626 5.97295 11.0078 6.73795 12.1774 6.91475L14.3542 7.24455L12.7792 8.8434ZM16.5336 8.01805C17.4465 7.0907 16.9433 5.47485 15.6811 5.2836L12.4732 4.79825C11.9717 4.7226 11.5382 4.3945 11.3146 3.92105L9.87981 0.89335C9.59761 0.2975 9.04851 0 8.50026 0C7.95116 0 7.40206 0.2975 7.11986 0.89335L5.68591 3.92105C5.46151 4.3945 5.02801 4.7226 4.52736 4.79825L1.31946 5.2836C0.0572117 5.47485 -0.446838 7.0907 0.466062 8.01805L2.78741 10.3751C3.15036 10.7432 3.31611 11.2736 3.23026 11.7938L2.68201 15.1224C2.51116 16.1585 3.30166 17 4.19841 17C4.43471 17 4.67951 16.9413 4.91496 16.8121L7.78371 15.2405C8.00811 15.1181 8.25376 15.0561 8.50026 15.0561C8.74591 15.0561 8.99156 15.1181 9.21596 15.2405L12.0856 16.8121C12.321 16.9413 12.565 17 12.8013 17C13.698 17 14.4885 16.1585 14.3177 15.1224L13.7703 11.7938C13.6844 11.2736 13.8493 10.7432 14.2123 10.3751L16.5336 8.01805Z" fill="#90A8BE"/>
</svg>
