<svg width="23" height="23" viewBox="0 0 23 23" fill="none" xmlns="http://www.w3.org/2000/svg">
<g id="Icon/Outline/file">
<path id="Mask" fill-rule="evenodd" clip-rule="evenodd" d="M16.6521 19.0288H6.53027C6.24583 19.0288 6.01437 18.8206 6.01437 18.564V4.62075C6.01437 4.36419 6.24583 4.15597 6.53027 4.15597H10.6621V8.01361C10.6621 9.47486 11.7934 10.6628 13.1849 10.6628H17.169V18.564C17.169 18.8206 16.9366 19.0288 16.6521 19.0288ZM16.8427 8.80372H13.1849C12.8187 8.80372 12.5212 8.44957 12.5212 8.01361V4.15597H12.6253L16.8427 8.80372ZM18.7864 8.17907L13.7259 2.60177C13.5502 2.40749 13.3002 2.29688 13.0371 2.29688H6.53027C5.22054 2.29688 4.15527 3.33983 4.15527 4.62075V18.564C4.15527 19.8449 5.22054 20.8879 6.53027 20.8879H16.6521C17.9619 20.8879 19.0281 19.8449 19.0281 18.564V8.80372C19.0281 8.57227 18.9416 8.3501 18.7864 8.17907Z" fill="white"/>
<mask id="mask0_15119_254946" style="mask-type:alpha" maskUnits="userSpaceOnUse" x="4" y="2" width="16" height="19">
<path id="Mask_2" fill-rule="evenodd" clip-rule="evenodd" d="M16.6521 19.0288H6.53027C6.24583 19.0288 6.01437 18.8206 6.01437 18.564V4.62075C6.01437 4.36419 6.24583 4.15597 6.53027 4.15597H10.6621V8.01361C10.6621 9.47486 11.7934 10.6628 13.1849 10.6628H17.169V18.564C17.169 18.8206 16.9366 19.0288 16.6521 19.0288ZM16.8427 8.80372H13.1849C12.8187 8.80372 12.5212 8.44957 12.5212 8.01361V4.15597H12.6253L16.8427 8.80372ZM18.7864 8.17907L13.7259 2.60177C13.5502 2.40749 13.3002 2.29688 13.0371 2.29688H6.53027C5.22054 2.29688 4.15527 3.33983 4.15527 4.62075V18.564C4.15527 19.8449 5.22054 20.8879 6.53027 20.8879H16.6521C17.9619 20.8879 19.0281 19.8449 19.0281 18.564V8.80372C19.0281 8.57227 18.9416 8.3501 18.7864 8.17907Z" fill="white"/>
</mask>
<g mask="url(#mask0_15119_254946)">
<g id="&#240;&#159;&#142;&#168; Color">
<rect id="Base" x="0.436523" y="0.4375" width="22.3092" height="22.3092" fill="white"/>
</g>
</g>
</g>
</svg>
