<svg width="23" height="23" viewBox="0 0 23 23" fill="none" xmlns="http://www.w3.org/2000/svg">
<g id="Icon/Outline/film">
<path id="Mask" fill-rule="evenodd" clip-rule="evenodd" d="M17.8347 17.5718C17.8347 17.953 17.5242 18.2634 17.1431 18.2634H15.9756V16.4043H17.8347V17.5718ZM4.82101 17.5718V16.4043H6.68011V18.2634H5.5126C5.13148 18.2634 4.82101 17.953 4.82101 17.5718ZM5.5126 5.24972H6.68011V7.10882H4.82101V5.94131C4.82101 5.56019 5.13148 5.24972 5.5126 5.24972ZM17.8347 5.94131V7.10882H15.9756V5.24972H17.1431C17.5242 5.24972 17.8347 5.56019 17.8347 5.94131ZM15.9756 14.5452H17.8347V12.6861H15.9756V14.5452ZM15.9756 10.827H17.8347V8.96792H15.9756V10.827ZM8.53921 18.2634H14.1165V5.24972H8.53921V18.2634ZM4.82101 14.5452H6.68011V12.6861H4.82101V14.5452ZM4.82101 10.827H6.68011V8.96792H4.82101V10.827ZM17.1431 3.39062H5.5126C4.10619 3.39062 2.96191 4.53583 2.96191 5.94131V17.5718C2.96191 18.9782 4.10619 20.1225 5.5126 20.1225H17.1431C18.5495 20.1225 19.6938 18.9782 19.6938 17.5718V5.94131C19.6938 4.53583 18.5495 3.39062 17.1431 3.39062Z" fill="white"/>
<mask id="mask0_15119_254909" style="mask-type:alpha" maskUnits="userSpaceOnUse" x="2" y="3" width="18" height="18">
<path id="Mask_2" fill-rule="evenodd" clip-rule="evenodd" d="M17.8347 17.5718C17.8347 17.953 17.5242 18.2634 17.1431 18.2634H15.9756V16.4043H17.8347V17.5718ZM4.82101 17.5718V16.4043H6.68011V18.2634H5.5126C5.13148 18.2634 4.82101 17.953 4.82101 17.5718ZM5.5126 5.24972H6.68011V7.10882H4.82101V5.94131C4.82101 5.56019 5.13148 5.24972 5.5126 5.24972ZM17.8347 5.94131V7.10882H15.9756V5.24972H17.1431C17.5242 5.24972 17.8347 5.56019 17.8347 5.94131ZM15.9756 14.5452H17.8347V12.6861H15.9756V14.5452ZM15.9756 10.827H17.8347V8.96792H15.9756V10.827ZM8.53921 18.2634H14.1165V5.24972H8.53921V18.2634ZM4.82101 14.5452H6.68011V12.6861H4.82101V14.5452ZM4.82101 10.827H6.68011V8.96792H4.82101V10.827ZM17.1431 3.39062H5.5126C4.10619 3.39062 2.96191 4.53583 2.96191 5.94131V17.5718C2.96191 18.9782 4.10619 20.1225 5.5126 20.1225H17.1431C18.5495 20.1225 19.6938 18.9782 19.6938 17.5718V5.94131C19.6938 4.53583 18.5495 3.39062 17.1431 3.39062Z" fill="white"/>
</mask>
<g mask="url(#mask0_15119_254909)">
<g id="&#240;&#159;&#142;&#168; Color">
<rect id="Base" x="0.172852" y="0.601562" width="22.3092" height="22.3092" fill="white"/>
</g>
</g>
</g>
</svg>
