<svg width="23" height="23" viewBox="0 0 23 23" fill="none" xmlns="http://www.w3.org/2000/svg">
<g id="Icon/Outline/image">
<g id="&#240;&#159;&#142;&#168; Color">
<path id="Mask" fill-rule="evenodd" clip-rule="evenodd" d="M7.87334 9.73146C8.643 9.73146 9.26766 9.1068 9.26766 8.33713C9.26766 7.56747 8.643 6.94281 7.87334 6.94281C7.10367 6.94281 6.47901 7.56747 6.47901 8.33713C6.47901 9.1068 7.10367 9.73146 7.87334 9.73146ZM17.1688 18.0974H6.53572L13.0472 12.6642C13.2759 12.4699 13.6905 12.4709 13.9145 12.6633L18.0984 16.2328V17.1679C18.0984 17.681 17.6819 18.0974 17.1688 18.0974ZM6.01424 5.08371H17.1688C17.6819 5.08371 18.0984 5.50015 18.0984 6.01326V13.788L15.121 11.2485C14.2008 10.4658 12.7609 10.4658 11.849 11.2429L5.08469 16.8871V6.01326C5.08469 5.50015 5.50112 5.08371 6.01424 5.08371ZM17.1688 3.22461H6.01424C4.47676 3.22461 3.22559 4.47578 3.22559 6.01326V17.1679C3.22559 18.7053 4.47676 19.9565 6.01424 19.9565H17.1688C18.7063 19.9565 19.9575 18.7053 19.9575 17.1679V6.01326C19.9575 4.47578 18.7063 3.22461 17.1688 3.22461Z" fill="white"/>
<mask id="mask0_15119_254722" style="mask-type:alpha" maskUnits="userSpaceOnUse" x="3" y="3" width="17" height="17">
<path id="Mask_2" fill-rule="evenodd" clip-rule="evenodd" d="M7.87334 9.73146C8.643 9.73146 9.26766 9.1068 9.26766 8.33713C9.26766 7.56747 8.643 6.94281 7.87334 6.94281C7.10367 6.94281 6.47901 7.56747 6.47901 8.33713C6.47901 9.1068 7.10367 9.73146 7.87334 9.73146ZM17.1688 18.0974H6.53572L13.0472 12.6642C13.2759 12.4699 13.6905 12.4709 13.9145 12.6633L18.0984 16.2328V17.1679C18.0984 17.681 17.6819 18.0974 17.1688 18.0974ZM6.01424 5.08371H17.1688C17.6819 5.08371 18.0984 5.50015 18.0984 6.01326V13.788L15.121 11.2485C14.2008 10.4658 12.7609 10.4658 11.849 11.2429L5.08469 16.8871V6.01326C5.08469 5.50015 5.50112 5.08371 6.01424 5.08371ZM17.1688 3.22461H6.01424C4.47676 3.22461 3.22559 4.47578 3.22559 6.01326V17.1679C3.22559 18.7053 4.47676 19.9565 6.01424 19.9565H17.1688C18.7063 19.9565 19.9575 18.7053 19.9575 17.1679V6.01326C19.9575 4.47578 18.7063 3.22461 17.1688 3.22461Z" fill="white"/>
</mask>
<g mask="url(#mask0_15119_254722)">
<g id="&#240;&#159;&#142;&#168; Color_2">
<rect id="Base" x="0.436523" y="0.435547" width="22.3092" height="22.3092" fill="white"/>
</g>
</g>
</g>
</g>
</svg>
