<svg width="20" height="21" viewBox="0 0 20 21" fill="none" xmlns="http://www.w3.org/2000/svg">
<g id="Icon/Fill/navigation-2" filter="url(#filter0_dd_15119_254568)">
<path id="Mask" fill-rule="evenodd" clip-rule="evenodd" d="M11.5872 17.0414C11.5709 17.0414 11.5554 17.0406 11.5399 17.0399C11.1898 17.0189 10.8978 16.7649 10.8281 16.4209L9.63669 10.5593C9.57472 10.2541 9.33691 10.0163 9.03171 9.95436L3.17012 8.76221C2.82619 8.69327 2.57211 8.40124 2.5512 8.05111C2.53028 7.7002 2.7464 7.37951 3.07949 7.26951L15.4735 3.13844C15.7516 3.04393 16.0583 3.11675 16.2659 3.32512C16.4735 3.53272 16.5456 3.83947 16.4534 4.11756L12.3215 16.5116C12.2162 16.8299 11.9187 17.0414 11.5872 17.0414Z" fill="#231F20"/>
<mask id="mask0_15119_254568" style="mask-type:alpha" maskUnits="userSpaceOnUse" x="2" y="3" width="15" height="15">
<path id="Mask_2" fill-rule="evenodd" clip-rule="evenodd" d="M11.5872 17.0414C11.5709 17.0414 11.5554 17.0406 11.5399 17.0399C11.1898 17.0189 10.8978 16.7649 10.8281 16.4209L9.63669 10.5593C9.57472 10.2541 9.33691 10.0163 9.03171 9.95436L3.17012 8.76221C2.82619 8.69327 2.57211 8.40124 2.5512 8.05111C2.53028 7.7002 2.7464 7.37951 3.07949 7.26951L15.4735 3.13844C15.7516 3.04393 16.0583 3.11675 16.2659 3.32512C16.4735 3.53272 16.5456 3.83947 16.4534 4.11756L12.3215 16.5116C12.2162 16.8299 11.9187 17.0414 11.5872 17.0414Z" fill="white"/>
</mask>
<g mask="url(#mask0_15119_254568)">
<g id="&#240;&#159;&#142;&#168; Color">
<rect id="Base" x="1" width="18.591" height="18.591" fill="white"/>
</g>
</g>
</g>
<defs>
<filter id="filter0_dd_15119_254568" x="-1" y="-1" width="22.5908" height="22.5918" filterUnits="userSpaceOnUse" color-interpolation-filters="sRGB">
<feFlood flood-opacity="0" result="BackgroundImageFix"/>
<feColorMatrix in="SourceAlpha" type="matrix" values="0 0 0 0 0 0 0 0 0 0 0 0 0 0 0 0 0 0 127 0" result="hardAlpha"/>
<feOffset dy="1"/>
<feGaussianBlur stdDeviation="0.5"/>
<feColorMatrix type="matrix" values="0 0 0 0 0 0 0 0 0 0 0 0 0 0 0 0 0 0 0.03 0"/>
<feBlend mode="normal" in2="BackgroundImageFix" result="effect1_dropShadow_15119_254568"/>
<feColorMatrix in="SourceAlpha" type="matrix" values="0 0 0 0 0 0 0 0 0 0 0 0 0 0 0 0 0 0 127 0" result="hardAlpha"/>
<feOffset dy="1"/>
<feGaussianBlur stdDeviation="1"/>
<feColorMatrix type="matrix" values="0 0 0 0 0 0 0 0 0 0 0 0 0 0 0 0 0 0 0.03 0"/>
<feBlend mode="normal" in2="effect1_dropShadow_15119_254568" result="effect2_dropShadow_15119_254568"/>
<feBlend mode="normal" in="SourceGraphic" in2="effect2_dropShadow_15119_254568" result="shape"/>
</filter>
</defs>
</svg>
