<svg width="11" height="15" viewBox="0 0 11 15" fill="none" xmlns="http://www.w3.org/2000/svg">
<path fill-rule="evenodd" clip-rule="evenodd" d="M5.44353 10.1796C3.0048 10.1548 1.04376 8.17924 1.0689 5.76882C1.09404 3.3584 3.09279 1.42012 5.53152 1.44497C7.97025 1.46982 9.93129 3.44537 9.90615 5.85579C9.89358 6.7628 9.60445 7.60769 9.11419 8.31591L10.057 9.27262C10.5975 8.21651 10.9872 7.061 10.9998 5.88064C11.0249 2.87383 8.58622 0.413712 5.55666 0.388862C2.51454 0.364012 0.0255228 2.77443 0.000381252 5.76882C-0.0499018 10.1299 4.89041 14.2053 4.89041 14.2053C5.17954 14.4414 5.65723 14.4538 5.94636 14.2177C5.94636 14.2177 7.69369 12.8261 9.13933 10.8009L7.86969 9.52112C7.14058 9.94356 6.32348 10.1921 5.44353 10.1796Z" fill="white"/>
<path fill-rule="evenodd" clip-rule="evenodd" d="M5.431 2.34008C3.4951 2.31523 1.91118 3.85591 1.88604 5.76934C1.8609 7.68276 3.41968 9.24829 5.35558 9.27314C7.29147 9.29799 8.87539 7.75731 8.90053 5.84389C8.9131 3.93046 7.3669 2.36493 5.431 2.34008ZM5.36822 8.40394C3.92258 8.39151 2.7535 7.21115 2.76607 5.7823C2.77864 4.35344 3.97286 3.19793 5.4185 3.21036C6.86414 3.22278 8.03322 4.40314 8.02065 5.832C8.00808 7.26085 6.81386 8.41636 5.36822 8.40394Z" fill="white"/>
<path fill-rule="evenodd" clip-rule="evenodd" d="M3.34424 5.78125L3.92249 5.78125C3.93506 4.98606 4.58874 4.33997 5.39327 4.35239V3.78085C4.28705 3.76843 3.35681 4.66302 3.34424 5.78125Z" fill="white"/>
<path fill-rule="evenodd" clip-rule="evenodd" d="M9.86842 9.6453L9.39073 10.3535L7.42969 8.36554L8.02051 7.78157L9.86842 9.6453Z" fill="white"/>
</svg>
