<svg width="27" height="28" viewBox="0 0 27 28" fill="none" xmlns="http://www.w3.org/2000/svg">
<circle cx="13.5" cy="13.8887" r="13.5" fill="#FFC468"/>
<path fill-rule="evenodd" clip-rule="evenodd" d="M12.4435 16.1796C10.0048 16.1548 8.04376 14.1792 8.0689 11.7688C8.09404 9.3584 10.0928 7.42012 12.5315 7.44497C14.9703 7.46982 16.9313 9.44537 16.9061 11.8558C16.8936 12.7628 16.6045 13.6077 16.1142 14.3159L17.057 15.2726C17.5975 14.2165 17.9872 13.061 17.9998 11.8806C18.0249 8.87383 15.5862 6.41371 12.5567 6.38886C9.51454 6.36401 7.02552 8.77443 7.00038 11.7688C6.9501 16.1299 11.8904 20.2053 11.8904 20.2053C12.1795 20.4414 12.6572 20.4538 12.9464 20.2177C12.9464 20.2177 14.6937 18.8261 16.1393 16.8009L14.8697 15.5211C14.1406 15.9436 13.3235 16.1921 12.4435 16.1796Z" fill="white"/>
<path fill-rule="evenodd" clip-rule="evenodd" d="M12.431 8.34008C10.4951 8.31523 8.91118 9.85591 8.88604 11.7693C8.8609 13.6828 10.4197 15.2483 12.3556 15.2731C14.2915 15.298 15.8754 13.7573 15.9005 11.8439C15.9131 9.93046 14.3669 8.36493 12.431 8.34008ZM12.3682 14.4039C10.9226 14.3915 9.7535 13.2112 9.76607 11.7823C9.77864 10.3534 10.9729 9.19793 12.4185 9.21036C13.8641 9.22278 15.0332 10.4031 15.0207 11.832C15.0081 13.2609 13.8139 14.4164 12.3682 14.4039Z" fill="white"/>
<path fill-rule="evenodd" clip-rule="evenodd" d="M10.3442 11.7812H10.9225C10.9351 10.9861 11.5887 10.34 12.3933 10.3524V9.78085C11.287 9.76843 10.3568 10.663 10.3442 11.7812Z" fill="white"/>
<path fill-rule="evenodd" clip-rule="evenodd" d="M16.8684 15.6453L16.3907 16.3535L14.4297 14.3655L15.0205 13.7816L16.8684 15.6453Z" fill="white"/>
</svg>
