<svg width="14" height="14" viewBox="0 0 14 14" fill="none" xmlns="http://www.w3.org/2000/svg">
<path fill-rule="evenodd" clip-rule="evenodd" d="M7.61309 6.12738H4.44368C4.29962 6.12738 4.18945 6.01377 4.18945 5.87582V5.84336C4.18945 5.7054 4.30809 5.5918 4.44368 5.5918H8.21477C8.35883 5.5918 7.82495 5.7054 7.82495 5.84336L7.73173 5.87582C7.73173 6.01377 7.75715 6.12738 7.61309 6.12738Z" fill="white"/>
<path fill-rule="evenodd" clip-rule="evenodd" d="M6.99446 7.1095H4.35047C4.26572 7.1095 4.18945 7.03646 4.18945 6.95531V6.73621C4.18945 6.65506 4.26572 6.58203 4.35047 6.58203H6.99446C7.08768 6.58203 7.15548 6.65506 7.15548 6.73621V6.95531C7.15548 7.04458 7.07921 7.1095 6.99446 7.1095Z" fill="white"/>
<path fill-rule="evenodd" clip-rule="evenodd" d="M6.79955 8.0509H4.35047C4.26572 8.0509 4.18945 7.97787 4.18945 7.89672V7.67762C4.18945 7.59647 4.26572 7.52344 4.35047 7.52344H6.79955C6.8843 7.52344 6.96056 7.59647 6.96056 7.67762V7.89672C6.96056 7.98598 6.89277 8.0509 6.79955 8.0509Z" fill="white"/>
<path fill-rule="evenodd" clip-rule="evenodd" d="M5.57505 13.7564C5.44188 13.7564 5.30871 13.7564 5.18664 13.7564C5.13115 13.7458 5.08676 13.7352 5.03128 13.7139C4.9425 13.6821 4.84262 13.6608 4.75384 13.6183C4.55409 13.512 4.37653 13.3845 4.24336 13.2039C4.06581 12.9701 3.97703 12.7044 3.97703 12.4175C3.97703 12.29 3.99922 12.1731 4.03251 12.0456C4.088 11.8224 4.19897 11.6311 4.36543 11.4611C4.60958 11.2167 4.85372 10.9829 5.10896 10.7491C5.14225 10.7172 5.17554 10.6747 5.21993 10.6322C5.15335 10.6216 5.10896 10.611 5.07567 10.611C3.83276 10.611 2.57876 10.611 1.33586 10.611C1.31366 10.611 1.28037 10.611 1.25817 10.6003C1.10281 10.5685 0.958545 10.5366 0.814279 10.4516C0.692208 10.3878 0.581235 10.2922 0.481358 10.1965C0.403677 10.1115 0.34819 10.0159 0.292703 9.92025C0.248314 9.82461 0.203924 9.72897 0.192827 9.63333C0.18173 9.54832 0.170632 9.47393 0.148438 9.38892C0.148438 9.35704 0.148438 9.31453 0.148438 9.28265C0.148438 9.2614 0.159535 9.24014 0.159535 9.21889C0.159535 6.85979 0.159535 4.50068 0.159535 2.14158C0.159535 2.12033 0.148438 2.09907 0.148438 2.07782C0.148438 2.05657 0.148438 2.02469 0.148438 2.00344C0.148438 1.99281 0.159535 1.98218 0.159535 1.97156C0.18173 1.86529 0.192827 1.75902 0.226119 1.66338C0.292703 1.48273 0.403677 1.33396 0.547942 1.21707C0.658916 1.13206 0.780987 1.05767 0.914155 1.02579C0.98074 1.01516 1.04732 0.993909 1.10281 0.972656C4.15458 0.972656 7.20636 0.972656 10.2581 0.972656C10.2692 0.972656 10.2692 0.983283 10.2803 0.983283C10.4246 0.993909 10.5689 1.04704 10.6798 1.13206C10.7797 1.20644 10.8796 1.28083 10.9684 1.37647C11.0349 1.44023 11.0793 1.52524 11.1126 1.61025C11.157 1.70589 11.1681 1.81216 11.2014 1.9078C11.2125 1.93968 11.2569 1.99281 11.2902 2.00344C11.3901 2.03532 11.4899 2.0672 11.5787 2.13095C11.7785 2.27973 11.8783 2.47101 11.8894 2.69416C11.9005 3.49116 11.8894 4.28815 11.8894 5.08515C11.8894 5.1064 11.9005 5.13828 11.9116 5.15953C11.9449 5.20204 11.9893 5.22329 12.0337 5.2658C12.1336 5.35081 12.2446 5.4252 12.3444 5.51021C12.4665 5.61648 12.5775 5.73337 12.6774 5.86089C12.7772 5.97778 12.8771 6.1053 12.9659 6.23282C13.0658 6.39222 13.1434 6.55162 13.2322 6.72164C13.2766 6.81728 13.3321 6.92355 13.3543 7.02981C13.4098 7.22109 13.4653 7.40174 13.4764 7.60365C13.4875 7.76305 13.5097 7.91182 13.5208 8.07122C13.5319 8.14561 13.5208 8.21999 13.5097 8.28375C13.4986 8.4219 13.4875 8.56004 13.4653 8.68756C13.432 8.83633 13.3987 8.98511 13.3543 9.12325C13.2988 9.29328 13.2211 9.45268 13.1434 9.6227C13.0547 9.83523 12.9104 10.0265 12.7772 10.2072C12.6774 10.3347 12.5664 10.4409 12.4554 10.5578C12.2779 10.7385 12.0781 10.8979 11.8673 11.0254C11.6009 11.1954 11.3124 11.3336 11.0017 11.4186C10.8241 11.4717 10.6354 11.5249 10.4579 11.5567C10.2914 11.5886 10.125 11.5886 9.9585 11.5992C9.80314 11.5992 9.64778 11.5886 9.49242 11.5886C9.43693 11.5886 9.38144 11.5886 9.32596 11.578C9.15949 11.5461 8.98194 11.5142 8.81548 11.4611C8.63792 11.408 8.46036 11.3336 8.2828 11.2698C8.21622 11.2486 8.18293 11.2486 8.17183 11.3017C8.16073 11.3548 8.13854 11.4186 8.11634 11.4717C8.06086 11.6418 7.97208 11.7905 7.85001 11.918C7.61696 12.1518 7.38392 12.375 7.13977 12.6088C6.90673 12.8319 6.67369 13.0445 6.44064 13.2676C6.35186 13.3526 6.25199 13.4376 6.15211 13.512C6.03004 13.597 5.90797 13.6608 5.7637 13.7033C5.73041 13.7139 5.65273 13.7352 5.57505 13.7564ZM4.58742 9.75034C5.34204 9.75034 6.10776 9.75034 6.86238 9.75034C6.88457 9.75034 6.89567 9.75034 6.91787 9.75034C6.95116 9.73972 6.97335 9.71846 6.96225 9.67596C6.94006 9.63345 6.91787 9.60157 6.89567 9.55907C6.82909 9.42092 6.7514 9.28277 6.70702 9.134C6.65153 8.98523 6.61824 8.82583 6.58494 8.67706C6.56275 8.56017 6.55165 8.44327 6.54055 8.32638C6.52946 8.18823 6.52946 8.05009 6.54055 7.91194C6.55165 7.7738 6.57385 7.63565 6.58494 7.49751C6.58494 7.47625 6.58494 7.44437 6.58494 7.42312C6.64043 7.26372 6.69592 7.10432 6.7514 6.94492C6.82909 6.71114 6.96225 6.50923 7.09542 6.2967C7.16201 6.19044 7.23969 6.08417 7.33956 5.98853C7.50603 5.8185 7.66139 5.64848 7.87224 5.52096C7.99431 5.44657 8.11638 5.35093 8.23845 5.27655C8.34942 5.21279 8.4715 5.17028 8.59357 5.11715C8.69344 5.07464 8.80442 5.03214 8.91539 5.00026C9.03746 4.96838 9.15953 4.94712 9.2816 4.92587C9.41477 4.90462 9.54794 4.88336 9.68111 4.88336C9.92525 4.88336 10.1694 4.86211 10.4024 4.91524C10.5689 4.95775 10.7354 4.979 10.9018 5.02151C10.9795 5.04276 11.0239 5.02151 11.0239 4.9365C11.0239 4.26702 11.0239 3.60817 11.0239 2.9387C11.0239 2.88557 10.9684 2.83243 10.9129 2.82181C10.8241 2.82181 10.7354 2.82181 10.6466 2.82181C8.00541 2.82181 5.35314 2.82181 2.71196 2.82181C2.68977 2.82181 2.66758 2.82181 2.65648 2.82181C2.60099 2.82181 2.5455 2.82181 2.49002 2.82181C2.32356 2.82181 2.27917 2.83243 2.29027 2.99183C2.30136 3.65068 2.30136 4.2989 2.30136 4.95775C2.30136 6.36046 2.30136 7.75254 2.30136 9.15525C2.30136 9.31465 2.27917 9.46343 2.24588 9.6122C2.22368 9.70784 2.23478 9.71846 2.33465 9.71846C3.06708 9.75034 3.8217 9.75034 4.58742 9.75034ZM7.11765 7.82686C7.11765 8.84701 7.41728 9.49523 7.98324 10.0053C8.52701 10.4941 9.18176 10.7492 9.93638 10.7385C10.691 10.7279 11.3235 10.4516 11.8562 9.94155C12.3889 9.43147 12.6552 8.8045 12.6552 8.09252C12.6552 7.36991 12.3667 6.74295 11.834 6.23287C11.3235 5.74405 10.7132 5.47838 9.99186 5.45713C8.36055 5.404 7.11765 6.66856 7.11765 7.82686ZM5.68607 1.86535C4.22122 1.86535 2.74527 1.86535 1.28042 1.86535C1.19164 1.86535 1.10286 1.92911 1.08066 2.00349C1.06957 2.046 1.06957 2.09913 1.06957 2.15227C1.06957 4.29884 1.06957 6.44541 1.06957 8.59198C1.06957 8.86827 1.08066 9.15519 1.08066 9.43148C1.08066 9.53775 1.12505 9.62276 1.21383 9.68652C1.25822 9.7184 1.32481 9.76091 1.36919 9.75028C1.54675 9.69715 1.65773 9.60151 1.65773 9.38898C1.65773 7.27428 1.65773 5.17022 1.65773 3.05553C1.65773 2.93863 1.65773 2.82174 1.69102 2.71548C1.72431 2.63046 1.7687 2.55608 1.83528 2.49232C2.00174 2.35417 2.2015 2.30104 2.41235 2.30104C4.99803 2.30104 7.58372 2.30104 10.1694 2.30104C10.1916 2.30104 10.2027 2.30104 10.2249 2.30104C10.2915 2.31167 10.3137 2.26916 10.3137 2.21603C10.3137 2.15227 10.3026 2.09913 10.2915 2.03537C10.2693 1.91848 10.1694 1.86535 10.0584 1.86535C8.61577 1.86535 7.15092 1.86535 5.68607 1.86535ZM7.30616 11.0361C7.30616 10.8873 7.26177 10.7598 7.16189 10.6748C6.95105 10.5048 6.67361 10.4835 6.45166 10.696C5.97448 11.153 5.48619 11.6099 5.0201 12.0669C4.84255 12.2369 4.83145 12.4601 4.96462 12.662C5.0312 12.7682 5.13108 12.8107 5.24205 12.8532C5.38632 12.9064 5.53058 12.8639 5.64156 12.7895C5.74143 12.7257 5.83021 12.6301 5.91899 12.5451C6.04106 12.4282 6.16313 12.3219 6.2852 12.205C6.37398 12.12 6.45166 12.035 6.52935 11.9606C6.62922 11.865 6.7402 11.7587 6.84007 11.6631C6.92885 11.5781 7.01763 11.5037 7.09531 11.4187C7.22848 11.323 7.32836 11.2061 7.30616 11.0361Z" fill="white"/>
<path fill-rule="evenodd" clip-rule="evenodd" d="M12.178 8.1563C12.1669 8.32632 12.1669 8.45384 12.1447 8.57073C12.1003 8.76201 12.0448 8.95329 11.945 9.13394C11.8229 9.36773 11.6675 9.56963 11.4789 9.76091C11.2902 9.94157 11.0683 10.0903 10.8241 10.186C10.6799 10.2497 10.5245 10.3029 10.3691 10.3347C10.2582 10.3666 10.1472 10.3666 10.0362 10.3773C9.81428 10.4091 9.59233 10.356 9.37038 10.3241C9.24831 10.3029 9.13734 10.2604 9.02636 10.2179C8.90429 10.1647 8.84881 10.016 8.871 9.87781C8.89319 9.75029 9.05966 9.65465 9.19282 9.68653C9.32599 9.71841 9.47026 9.76091 9.61452 9.78217C9.76989 9.80342 9.93635 9.80342 10.0917 9.79279C10.236 9.78217 10.3691 9.73966 10.5023 9.68653C10.7354 9.60151 10.9351 9.474 11.1016 9.30397C11.1903 9.20833 11.2791 9.10206 11.3457 8.98517C11.4012 8.88953 11.4456 8.78327 11.49 8.68763C11.5566 8.54948 11.5566 8.39008 11.5899 8.24131C11.601 8.18818 11.5899 8.12442 11.5788 8.07128C11.5566 7.94377 11.5233 7.81625 11.49 7.68873C11.4678 7.62497 11.4456 7.55058 11.4123 7.48682C11.3679 7.38056 11.4234 7.24241 11.5344 7.17865C11.6564 7.10426 11.7785 7.11489 11.8895 7.1999C11.9339 7.23178 11.9672 7.28492 11.9783 7.32742C12.0337 7.46557 12.0781 7.60371 12.1225 7.75249C12.1447 7.89063 12.1669 8.05003 12.178 8.1563Z" fill="white"/>
</svg>
