<svg width="38" height="39" viewBox="0 0 38 39" fill="none" xmlns="http://www.w3.org/2000/svg">
<g filter="url(#filter0_d)">
<circle cx="18.5" cy="18.8867" r="13.5" fill="#7EC5F7"/>
</g>
<path fill-rule="evenodd" clip-rule="evenodd" d="M19.6131 18.1274H16.4437C16.2996 18.1274 16.1895 18.0138 16.1895 17.8758V17.8434C16.1895 17.7054 16.3081 17.5918 16.4437 17.5918H20.2148C20.3588 17.5918 19.8249 17.7054 19.8249 17.8434L19.7317 17.8758C19.7317 18.0138 19.7572 18.1274 19.6131 18.1274Z" fill="white"/>
<path fill-rule="evenodd" clip-rule="evenodd" d="M18.9945 19.1095H16.3505C16.2657 19.1095 16.1895 19.0365 16.1895 18.9553V18.7362C16.1895 18.6551 16.2657 18.582 16.3505 18.582H18.9945C19.0877 18.582 19.1555 18.6551 19.1555 18.7362V18.9553C19.1555 19.0446 19.0792 19.1095 18.9945 19.1095Z" fill="white"/>
<path fill-rule="evenodd" clip-rule="evenodd" d="M18.7996 20.0509H16.3505C16.2657 20.0509 16.1895 19.9779 16.1895 19.8967V19.6776C16.1895 19.5965 16.2657 19.5234 16.3505 19.5234H18.7996C18.8843 19.5234 18.9606 19.5965 18.9606 19.6776V19.8967C18.9606 19.986 18.8928 20.0509 18.7996 20.0509Z" fill="white"/>
<path fill-rule="evenodd" clip-rule="evenodd" d="M17.575 25.7564C17.4419 25.7564 17.3087 25.7564 17.1866 25.7564C17.1312 25.7458 17.0868 25.7352 17.0313 25.7139C16.9425 25.6821 16.8426 25.6608 16.7538 25.6183C16.5541 25.512 16.3765 25.3845 16.2434 25.2039C16.0658 24.9701 15.977 24.7044 15.977 24.4175C15.977 24.29 15.9992 24.1731 16.0325 24.0456C16.088 23.8224 16.199 23.6311 16.3654 23.4611C16.6096 23.2167 16.8537 22.9829 17.109 22.7491C17.1422 22.7172 17.1755 22.6747 17.2199 22.6322C17.1533 22.6216 17.109 22.611 17.0757 22.611C15.8328 22.611 14.5788 22.611 13.3359 22.611C13.3137 22.611 13.2804 22.611 13.2582 22.6003C13.1028 22.5685 12.9585 22.5366 12.8143 22.4516C12.6922 22.3878 12.5812 22.2922 12.4814 22.1965C12.4037 22.1115 12.3482 22.0159 12.2927 21.9202C12.2483 21.8246 12.2039 21.729 12.1928 21.6333C12.1817 21.5483 12.1706 21.4739 12.1484 21.3889C12.1484 21.357 12.1484 21.3145 12.1484 21.2827C12.1484 21.2614 12.1595 21.2401 12.1595 21.2189C12.1595 18.8598 12.1595 16.5007 12.1595 14.1416C12.1595 14.1203 12.1484 14.0991 12.1484 14.0778C12.1484 14.0566 12.1484 14.0247 12.1484 14.0034C12.1484 13.9928 12.1595 13.9822 12.1595 13.9716C12.1817 13.8653 12.1928 13.759 12.2261 13.6634C12.2927 13.4827 12.4037 13.334 12.5479 13.2171C12.6589 13.1321 12.781 13.0577 12.9142 13.0258C12.9807 13.0152 13.0473 12.9939 13.1028 12.9727C16.1546 12.9727 19.2064 12.9727 22.2581 12.9727C22.2692 12.9727 22.2692 12.9833 22.2803 12.9833C22.4246 12.9939 22.5689 13.047 22.6798 13.1321C22.7797 13.2064 22.8796 13.2808 22.9684 13.3765C23.0349 13.4402 23.0793 13.5252 23.1126 13.6103C23.157 13.7059 23.1681 13.8122 23.2014 13.9078C23.2125 13.9397 23.2569 13.9928 23.2902 14.0034C23.3901 14.0353 23.4899 14.0672 23.5787 14.131C23.7785 14.2797 23.8783 14.471 23.8894 14.6942C23.9005 15.4912 23.8894 16.2882 23.8894 17.0851C23.8894 17.1064 23.9005 17.1383 23.9116 17.1595C23.9449 17.202 23.9893 17.2233 24.0337 17.2658C24.1336 17.3508 24.2446 17.4252 24.3444 17.5102C24.4665 17.6165 24.5775 17.7334 24.6774 17.8609C24.7772 17.9778 24.8771 18.1053 24.9659 18.2328C25.0658 18.3922 25.1434 18.5516 25.2322 18.7216C25.2766 18.8173 25.3321 18.9235 25.3543 19.0298C25.4098 19.2211 25.4653 19.4017 25.4764 19.6036C25.4875 19.763 25.5097 19.9118 25.5208 20.0712C25.5319 20.1456 25.5208 20.22 25.5097 20.2838C25.4986 20.4219 25.4875 20.56 25.4653 20.6876C25.432 20.8363 25.3987 20.9851 25.3543 21.1233C25.2988 21.2933 25.2211 21.4527 25.1434 21.6227C25.0547 21.8352 24.9104 22.0265 24.7772 22.2072C24.6774 22.3347 24.5664 22.4409 24.4554 22.5578C24.2779 22.7385 24.0781 22.8979 23.8673 23.0254C23.6009 23.1954 23.3124 23.3336 23.0017 23.4186C22.8241 23.4717 22.6354 23.5249 22.4579 23.5567C22.2914 23.5886 22.125 23.5886 21.9585 23.5992C21.8031 23.5992 21.6478 23.5886 21.4924 23.5886C21.4369 23.5886 21.3814 23.5886 21.326 23.578C21.1595 23.5461 20.9819 23.5142 20.8155 23.4611C20.6379 23.408 20.4604 23.3336 20.2828 23.2698C20.2162 23.2486 20.1829 23.2486 20.1718 23.3017C20.1607 23.3548 20.1385 23.4186 20.1163 23.4717C20.0609 23.6418 19.9721 23.7905 19.85 23.918C19.617 24.1518 19.3839 24.375 19.1398 24.6088C18.9067 24.8319 18.6737 25.0445 18.4406 25.2676C18.3519 25.3526 18.252 25.4376 18.1521 25.512C18.03 25.597 17.908 25.6608 17.7637 25.7033C17.7304 25.7139 17.6527 25.7352 17.575 25.7564ZM16.5874 21.7503C17.342 21.7503 18.1078 21.7503 18.8624 21.7503C18.8846 21.7503 18.8957 21.7503 18.9179 21.7503C18.9512 21.7397 18.9734 21.7185 18.9623 21.676C18.9401 21.6335 18.9179 21.6016 18.8957 21.5591C18.8291 21.4209 18.7514 21.2828 18.707 21.134C18.6515 20.9852 18.6182 20.8258 18.5849 20.6771C18.5627 20.5602 18.5517 20.4433 18.5406 20.3264C18.5295 20.1882 18.5295 20.0501 18.5406 19.9119C18.5517 19.7738 18.5738 19.6357 18.5849 19.4975C18.5849 19.4763 18.5849 19.4444 18.5849 19.4231C18.6404 19.2637 18.6959 19.1043 18.7514 18.9449C18.8291 18.7111 18.9623 18.5092 19.0954 18.2967C19.162 18.1904 19.2397 18.0842 19.3396 17.9885C19.506 17.8185 19.6614 17.6485 19.8722 17.521C19.9943 17.4466 20.1164 17.3509 20.2385 17.2765C20.3494 17.2128 20.4715 17.1703 20.5936 17.1171C20.6934 17.0746 20.8044 17.0321 20.9154 17.0003C21.0375 16.9684 21.1595 16.9471 21.2816 16.9259C21.4148 16.9046 21.5479 16.8834 21.6811 16.8834C21.9253 16.8834 22.1694 16.8621 22.4024 16.9152C22.5689 16.9578 22.7354 16.979 22.9018 17.0215C22.9795 17.0428 23.0239 17.0215 23.0239 16.9365C23.0239 16.267 23.0239 15.6082 23.0239 14.9387C23.0239 14.8856 22.9684 14.8324 22.9129 14.8218C22.8241 14.8218 22.7354 14.8218 22.6466 14.8218C20.0054 14.8218 17.3531 14.8218 14.712 14.8218C14.6898 14.8218 14.6676 14.8218 14.6565 14.8218C14.601 14.8218 14.5455 14.8218 14.49 14.8218C14.3236 14.8218 14.2792 14.8324 14.2903 14.9918C14.3014 15.6507 14.3014 16.2989 14.3014 16.9578C14.3014 18.3605 14.3014 19.7525 14.3014 21.1553C14.3014 21.3147 14.2792 21.4634 14.2459 21.6122C14.2237 21.7078 14.2348 21.7185 14.3347 21.7185C15.0671 21.7503 15.8217 21.7503 16.5874 21.7503ZM19.1176 19.8269C19.1176 20.847 19.4173 21.4952 19.9832 22.0053C20.527 22.4941 21.1818 22.7492 21.9364 22.7385C22.691 22.7279 23.3235 22.4516 23.8562 21.9416C24.3889 21.4315 24.6552 20.8045 24.6552 20.0925C24.6552 19.3699 24.3667 18.7429 23.834 18.2329C23.3235 17.744 22.7132 17.4784 21.9919 17.4571C20.3606 17.404 19.1176 18.6686 19.1176 19.8269ZM17.6861 13.8653C16.2212 13.8653 14.7453 13.8653 13.2804 13.8653C13.1916 13.8653 13.1029 13.9291 13.0807 14.0035C13.0696 14.046 13.0696 14.0991 13.0696 14.1523C13.0696 16.2988 13.0696 18.4454 13.0696 20.592C13.0696 20.8683 13.0807 21.1552 13.0807 21.4315C13.0807 21.5377 13.1251 21.6228 13.2138 21.6865C13.2582 21.7184 13.3248 21.7609 13.3692 21.7503C13.5468 21.6971 13.6577 21.6015 13.6577 21.389C13.6577 19.2743 13.6577 17.1702 13.6577 15.0555C13.6577 14.9386 13.6577 14.8217 13.691 14.7155C13.7243 14.6305 13.7687 14.5561 13.8353 14.4923C14.0017 14.3542 14.2015 14.301 14.4123 14.301C16.998 14.301 19.5837 14.301 22.1694 14.301C22.1916 14.301 22.2027 14.301 22.2249 14.301C22.2915 14.3117 22.3137 14.2692 22.3137 14.216C22.3137 14.1523 22.3026 14.0991 22.2915 14.0354C22.2693 13.9185 22.1694 13.8653 22.0584 13.8653C20.6158 13.8653 19.1509 13.8653 17.6861 13.8653ZM19.3062 23.0361C19.3062 22.8873 19.2618 22.7598 19.1619 22.6748C18.951 22.5048 18.6736 22.4835 18.4517 22.696C17.9745 23.153 17.4862 23.6099 17.0201 24.0669C16.8425 24.2369 16.8314 24.4601 16.9646 24.662C17.0312 24.7682 17.1311 24.8107 17.2421 24.8532C17.3863 24.9064 17.5306 24.8639 17.6416 24.7895C17.7414 24.7257 17.8302 24.6301 17.919 24.5451C18.0411 24.4282 18.1631 24.3219 18.2852 24.205C18.374 24.12 18.4517 24.035 18.5293 23.9606C18.6292 23.865 18.7402 23.7587 18.8401 23.6631C18.9289 23.5781 19.0176 23.5037 19.0953 23.4187C19.2285 23.323 19.3284 23.2061 19.3062 23.0361Z" fill="white"/>
<path fill-rule="evenodd" clip-rule="evenodd" d="M24.178 20.1563C24.1669 20.3263 24.1669 20.4538 24.1447 20.5707C24.1003 20.762 24.0448 20.9533 23.945 21.1339C23.8229 21.3677 23.6675 21.5696 23.4789 21.7609C23.2902 21.9416 23.0683 22.0903 22.8241 22.186C22.6799 22.2497 22.5245 22.3029 22.3691 22.3347C22.2582 22.3666 22.1472 22.3666 22.0362 22.3773C21.8143 22.4091 21.5923 22.356 21.3704 22.3241C21.2483 22.3029 21.1373 22.2604 21.0264 22.2179C20.9043 22.1647 20.8488 22.016 20.871 21.8778C20.8932 21.7503 21.0597 21.6546 21.1928 21.6865C21.326 21.7184 21.4703 21.7609 21.6145 21.7822C21.7699 21.8034 21.9363 21.8034 22.0917 21.7928C22.236 21.7822 22.3691 21.7397 22.5023 21.6865C22.7354 21.6015 22.9351 21.474 23.1016 21.304C23.1903 21.2083 23.2791 21.1021 23.3457 20.9852C23.4012 20.8895 23.4456 20.7833 23.49 20.6876C23.5566 20.5495 23.5566 20.3901 23.5899 20.2413C23.601 20.1882 23.5899 20.1244 23.5788 20.0713C23.5566 19.9438 23.5233 19.8162 23.49 19.6887C23.4678 19.625 23.4456 19.5506 23.4123 19.4868C23.3679 19.3806 23.4234 19.2424 23.5344 19.1787C23.6564 19.1043 23.7785 19.1149 23.8895 19.1999C23.9339 19.2318 23.9672 19.2849 23.9783 19.3274C24.0337 19.4656 24.0781 19.6037 24.1225 19.7525C24.1447 19.8906 24.1669 20.05 24.178 20.1563Z" fill="white"/>
<defs>
<filter id="filter0_d" x="0.147059" y="0.533777" width="37.5882" height="37.5882" filterUnits="userSpaceOnUse" color-interpolation-filters="sRGB">
<feFlood flood-opacity="0" result="BackgroundImageFix"/>
<feColorMatrix in="SourceAlpha" type="matrix" values="0 0 0 0 0 0 0 0 0 0 0 0 0 0 0 0 0 0 127 0" result="hardAlpha"/>
<feOffset dx="0.441176" dy="0.441176"/>
<feGaussianBlur stdDeviation="2.64706"/>
<feColorMatrix type="matrix" values="0 0 0 0 0.564706 0 0 0 0 0.658824 0 0 0 0 0.745098 0 0 0 0.33 0"/>
<feBlend mode="normal" in2="BackgroundImageFix" result="effect1_dropShadow"/>
<feBlend mode="normal" in="SourceGraphic" in2="effect1_dropShadow" result="shape"/>
</filter>
</defs>
</svg>
