<svg width="13" height="14" viewBox="0 0 13 14" fill="none" xmlns="http://www.w3.org/2000/svg">
<path fill-rule="evenodd" clip-rule="evenodd" d="M10.9388 11.9195H2.74899C2.38475 11.9195 2.10543 11.5822 2.15687 11.2054L2.8405 6.19859C2.88237 5.89005 3.13477 5.66099 3.43262 5.66099H3.85309V6.91269C3.85309 7.25816 4.12104 7.53854 4.45119 7.53854C4.78194 7.53854 5.0493 7.25816 5.0493 6.91269V5.66099H8.63792V6.91269C8.63792 7.25816 8.90587 7.53854 9.23602 7.53854C9.56677 7.53854 9.83412 7.25816 9.83412 6.91269V5.66099H10.2552C10.553 5.66099 10.8054 5.89005 10.8473 6.19859L11.5309 11.2054C11.5824 11.5822 11.3031 11.9195 10.9388 11.9195ZM5.04921 3.78374C5.04921 2.74859 5.85425 1.90619 6.84352 1.90619C7.83338 1.90619 8.63783 2.53204 8.63783 3.78374V4.40959H5.04921V3.78374ZM12.8126 11.7425L11.9579 5.48398C11.8741 4.86752 11.3693 4.4094 10.7736 4.4094H9.83401V3.78355C9.83401 1.906 8.49246 0.654297 6.84349 0.654297C5.19512 0.654297 3.85298 2.05808 3.85298 3.78355V4.4094H3.09638C2.50127 4.4094 1.81345 4.86752 1.72911 5.48398L0.875023 11.7425C0.772149 12.4966 1.33138 13.1713 2.05927 13.1713H11.6283C12.3562 13.1713 12.9154 12.4966 12.8126 11.7425Z" fill="white"/>
</svg>
